<svg height="728pt" viewBox="0 -170 728.75272 728" width="728pt" xmlns="http://www.w3.org/2000/svg"><path d="m716.257812 363.664062h-52.96875c59.53125-41.621093 76.011719-122.59375 37.476563-184.167968-38.53125-61.574219-118.550781-82.160156-182.015625-46.820313l-45.476562-67.085937v-40.226563h27.488281c6.898437 0 12.492187-5.589843 12.492187-12.492187 0-6.898438-5.59375-12.496094-12.492187-12.496094h-96.699219c-6.898438 0-12.488281 5.597656-12.488281 12.496094 0 6.902344 5.589843 12.492187 12.488281 12.492187h44.226562v31.609375h-276.707031v-38.597656c0-6.90625-5.597656-12.496094-12.496093-12.496094h-55.84375c-14.875-.933594-29.097657 6.179688-37.269532 18.640625-8.171875 12.457031-9.042968 28.34375-2.265625 41.613281 6.777344 13.269532 20.15625 21.886719 35.042969 22.570313h4.492188c6.90625 0 12.492187-5.59375 12.492187-12.492187 0-6.898438-5.585937-12.488282-12.492187-12.488282-9.066407.859375-17.125-5.796875-17.988282-14.867187-.859375-9.078125 5.796875-17.128907 14.867188-17.988281h46.101562v37.476562l-5.753906 47.097656h-4.113281c-59.546875.027344-112.191407 38.683594-130.0625 95.480469-17.863281 56.804687 3.175781 118.628906 51.980469 152.742187h-45.601563c-6.898437 0-12.496094 5.59375-12.496094 12.492188s5.597657 12.492188 12.496094 12.492188h703.585937c6.898438 0 12.496094-5.59375 12.496094-12.492188s-5.597656-12.492188-12.496094-12.492188zm-131.421874-223.117187c59.992187-.023437 109.265624 47.402344 111.527343 107.351563 2.261719 59.957031-43.296875 110.957031-103.128906 115.453124-59.824219 4.488282-112.492187-39.136718-119.210937-98.75h74.957031c6.375 18.640626 25.773437 29.488282 44.992187 25.167969 19.226563-4.324219 32.113282-22.429687 29.890625-42.007812-2.222656-19.574219-18.824219-34.34375-38.527343-34.261719-3.429688.039062-6.832032.546875-10.117188 1.503906l-41.851562-61.589844c15.855468-8.394531 33.523437-12.804687 51.46875-12.867187zm-72.460938 26.984375 41.730469 61.464844c-2.421875 3.21875-4.320313 6.808594-5.621094 10.621094h-74.957031c3.335937-28.089844 17.226562-53.859376 38.847656-72.085938zm72.585938 70.957031c7.515624 0 13.621093 6.097657 13.621093 13.621094 0 7.519531-6.105469 13.613281-13.621093 13.613281-7.527344 0-13.617188-6.09375-13.617188-13.613281 0-7.523437 6.089844-13.621094 13.617188-13.621094zm-135.917969 1.128907h-2.003907c-3.183593-12.757813-11.082031-23.828126-22.113281-30.984376l39.230469-111.6875 33.734375 49.96875c-28.070313 23.128907-45.738281 56.496094-49.097656 92.703126zm-52.222657-39.480469c-11.738281.042969-23.117187 4.101562-32.226562 11.492187l-168.777344-129.671875h247.230469l-41.605469 118.683594c-1.621094-.132813-3.25-.132813-4.871094 0zm0 24.984375c14.90625 0 26.984376 12.085937 26.984376 26.988281s-12.078126 26.976563-26.984376 26.976563c-14.902343 0-26.980468-12.074219-26.980468-26.976563 0-14.8125 11.925781-26.851563 26.730468-26.988281zm-371.65625 26.988281c.074219-61.585937 49.976563-111.492187 111.5625-111.5625h.871094l-8.992187 73.707031c-18.59375 3.878906-31.65625 20.636719-30.890625 39.609375.777344 18.980469 15.160156 34.617188 34 36.976563 18.851562 2.355468 36.636718-9.261719 42.0625-27.464844 5.414062-18.207031-3.121094-37.660156-20.183594-45.996094l8.988281-73.707031c56.671875 13.503906 93.40625 68.328125 84.34375 125.875-9.066406 57.542969-60.867187 98.429687-118.949219 93.859375-58.066406-4.570312-102.855468-53.046875-102.8125-111.296875zm111.5625-13.621094c7.515626 0 13.617188 6.097657 13.617188 13.621094 0 7.519531-6.101562 13.613281-13.617188 13.613281-7.519531 0-13.613281-6.09375-13.613281-13.613281 0-7.523437 6.09375-13.621094 13.613281-13.621094zm78.453126 124.921875c44.347656-31.195312 66.007812-85.699218 55.179687-138.835937-10.84375-53.132813-52.121094-94.796875-105.144531-106.140625l3.117187-25.984375 180.644531 138.789062c-7.421874 17.855469-4.289062 38.355469 8.128907 53.179688 12.410156 14.824219 32.039062 21.511719 50.917969 17.34375 18.878906-4.164063 33.875-18.496094 38.894531-37.160157h2c3.707031 39.84375 24.714843 76.058594 57.464843 99.0625zm0 0"/></svg>