<svg height="596pt" viewBox="0 -1 596.25056 596" width="596pt" xmlns="http://www.w3.org/2000/svg"><path d="m232.167969 412.828125h-76.304688c-6.890625 0-12.472656 5.578125-12.472656 12.46875 0 6.882813 5.582031 12.464844 12.472656 12.464844h76.304688c6.886719 0 12.46875-5.582031 12.46875-12.464844 0-6.890625-5.582031-12.46875-12.46875-12.46875zm0 0"/><path d="m440.394531 412.828125h-76.308593c-6.882813 0-12.464844 5.578125-12.464844 12.46875 0 6.882813 5.582031 12.464844 12.464844 12.464844h76.308593c6.886719 0 12.472657-5.582031 12.472657-12.464844 0-6.890625-5.585938-12.46875-12.472657-12.46875zm0 0"/><path d="m12.351562 277.417969c6.882813 0 12.46875-5.582031 12.46875-12.464844v-68.078125l45.007813-27.308594v266.703125c-1.902344 30.054688 9.976563 59.332031 32.296875 79.550781v49.875c0 14.890626 12.035156 26.984376 26.925781 27.054688h68.207031c14.894532-.070312 26.9375-12.164062 26.9375-27.054688v-26.304687h147.625v26.800781c0 14.890625 12.035157 26.992188 26.933594 27.054688h68.199219c14.898437-.0625 26.933594-12.164063 26.933594-27.054688v-49.875c21.75-20.660156 33.5625-49.691406 32.421875-79.671875v-267.078125l45.007812 27.308594v68.078125c0 6.882813 5.578125 12.464844 12.46875 12.464844 6.882813 0 12.464844-5.582031 12.464844-12.464844v-74.8125c.023438-4.375-2.242188-8.445313-5.980469-10.722656l-63.960937-38.773438v-37.40625c0-76.058593-53.246094-103.113281-103.121094-103.113281h-249.742188c-49.875 0-103.113281 27.054688-103.113281 103.113281v37.40625l-64.339843 38.523438c-3.742188 2.28125-6.0156255 6.34375-5.992188 10.726562v74.804688c-.0546875 3.332031 1.210938 6.546875 3.523438 8.9375 2.320312 2.386719 5.5 3.753906 8.828124 3.78125zm489.015626 46.511719h-190.773438v-189.398438h190.894531zm-215.707032 0h-190.894531v-189.398438h190.894531zm-86.164062 242.136718c.011718 1.125-.867188 2.054688-1.988282 2.117188h-68.324218c-1.121094-.0625-2-.992188-2-2.117188v-35.160156c14.566406 5.742188 30.105468 8.617188 45.757812 8.484375h26.554688zm269.574218 0c.007813 1.125-.871093 2.054688-1.992187 2.117188h-68.324219c-1.125-.0625-2-.992188-2-2.117188v-26.675781h26.058594c15.640625.238281 31.183594-2.554687 45.757812-8.238281zm-46.257812-51.617187h-249.367188c-23.441406 0-78.179687-7.613281-78.179687-78.179688v-87.277343h406.222656v87.277343c0 23.566407-7.601562 78.179688-78.675781 78.179688zm-249.367188-490.140625h249.367188c23.4375 0 78.179688 7.605468 78.179688 78.179687v7.109375h-406.226563v-7.109375c0-71.070312 54.738281-78.179687 78.679687-78.179687zm0 0"/></svg>