<svg height="583pt" viewBox="0 -12 583.75066 583" width="583pt" xmlns="http://www.w3.org/2000/svg"><path d="m576.675781 24.046875c5.929688-2.835937 8.628907-9.804687 6.164063-15.902344-2.476563-6.09375-9.257813-9.210937-15.496094-7.121093l-558.859375 225.984374c-4.386719 1.46875-7.597656 5.257813-8.328125 9.828126-.730469 4.566406 1.132812 9.164062 4.835938 11.933593 3.707031 2.777344 8.652343 3.257813 12.828124 1.261719l265.925782-107.515625v108.511719h-162.765625c-13.746094 0-24.890625 11.140625-24.890625 24.890625v25.878906c-.042969 12.996094 9.933594 23.847656 22.894531 24.886719v207.445312c0 13.742188 11.140625 24.890625 24.886719 24.890625h304.878906c13.75 0 24.890625-11.148437 24.890625-24.890625v-207.566406c12.964844-1.039062 22.941406-11.890625 22.898437-24.890625v-25.753906c0-13.75-11.144531-24.890625-24.890624-24.890625h-163.015626v-118.597656zm-128.046875 510.199219h-304.878906v-207.5625h304.878906zm22.773438-232.324219h-350.421875v-26.003906h350.421875zm0 0"/><path d="m194.023438 501.523438h204.332031c13.742187 0 24.886719-11.140626 24.886719-24.886719v-92.335938c0-13.746093-11.144532-24.890625-24.886719-24.890625h-204.332031c-13.742188 0-24.886719 11.144532-24.886719 24.890625v92.335938c0 13.746093 11.144531 24.886719 24.886719 24.886719zm204.332031-24.886719h-89.722657v-92.335938h89.722657zm-204.332031-92.335938h89.722656v92.335938h-89.722656zm0 0"/></svg>