<svg height="734pt" viewBox="1 -167 734.9984 734" width="734pt" xmlns="http://www.w3.org/2000/svg"><path d="m26.085938 332.171875h33.832031c6.214843 39.101563 39.929687 67.875 79.515625 67.875 39.589844 0 73.304687-28.773437 79.519531-67.875h287.109375c6.210938 39.101563 39.929688 67.875 79.511719 67.875 39.589843 0 73.300781-28.773437 79.519531-67.875h43.941406c14.339844 0 25.964844-11.621094 25.964844-25.964844v-168.644531s0 0 0-.871094c0-.875 0 0 0-.875-.75-5.496094-20.34375-135.316406-97.867188-135.316406h-340.414062c-1.628906.019531-3.238281.359375-4.746094 1-63.332031 28.410156-119.507812 70.636719-164.398437 123.582031h-34.082031c-43.0625 0-93.492188 20.972657-93.492188 79.886719v101.238281c0 6.910157 2.746094 13.53125 7.652344 18.40625 4.894531 4.871094 11.53125 7.59375 18.433594 7.558594zm113.96875 43.191406c-30.742188 0-55.671876-24.921875-55.671876-55.671875 0-30.746094 24.929688-55.679687 55.671876-55.679687 30.75 0 55.675781 24.933593 55.675781 55.679687 0 30.75-24.925781 55.671875-55.675781 55.671875zm366.261718-68.15625h-126.460937v-157.160156h192.867187v90.003906c-34.546875 5.480469-61.621094 32.601563-67.039062 67.15625zm-126.460937-191.988281v-89.75h192.867187v99.859375h-192.867187zm205.347656 260.144531c-30.75 0-55.671875-24.921875-55.671875-55.671875 0-30.746094 24.921875-55.679687 55.671875-55.679687s55.671875 24.933593 55.671875 55.679687c0 30.75-24.921875 55.671875-55.671875 55.671875zm124.832031-69.15625c0 .550781-.445312 1-1 1h-44.6875c-5.375-34.4375-32.261718-61.53125-66.660156-67.15625v-90.003906h112.347656zm-73.648437-280.738281c40.691406 0 62.414062 62.414062 70.648437 99.859375h-109.347656v-99.859375zm-337.042969 0h55.546875v99.859375h-194.609375c39.636719-41.761719 86.816406-75.652344 139.0625-99.859375zm-274.628906 179.5c0-49.933594 47.933594-54.921875 68.53125-54.921875h261.644531v157.160156h-135.9375c-6.046875-39.28125-39.847656-68.273437-79.582031-68.273437-39.738282 0-73.535156 28.992187-79.574219 68.273437h-33.710937c-.546876 0-1-.449219-1-1zm0 0"/><path d="m313.695312 195.859375h15.226563c6.898437 0 12.484375-5.589844 12.484375-12.488281 0-6.886719-5.585938-12.480469-12.484375-12.480469h-15.226563c-6.894531 0-12.480468 5.59375-12.480468 12.480469 0 6.898437 5.585937 12.488281 12.480468 12.488281zm0 0"/><path d="m548.753906 171.023438h-15.101562c-6.898438 0-12.484375 5.585937-12.484375 12.480468 0 6.890625 5.585937 12.484375 12.484375 12.484375h15.222656c6.894531 0 12.480469-5.59375 12.480469-12.484375 0-6.894531-5.585938-12.480468-12.480469-12.480468zm0 0"/></svg>