<svg height="737pt" viewBox="0 -157 737.50038 737" width="737pt" xmlns="http://www.w3.org/2000/svg"><path d="m707.703125 51.894531h-151.347656v-26.8125c0-13.71875-11.117188-24.832031-24.835938-24.832031h-159.046875c-13.710937 0-24.828125 11.113281-24.828125 24.832031v26.8125h-317.847656c-16.425781.070313-29.7304688 13.375-29.796875 29.796875v257.140625c.140625 16.375 13.417969 29.605469 29.796875 29.667969h47.433594c6.460937 31.832031 34.441406 54.703125 66.917969 54.703125 32.472656 0 60.460937-22.871094 66.921874-54.703125h326.539063c6.078125 32.28125 34.265625 55.65625 67.105469 55.65625s61.03125-23.375 67.105468-55.65625h35.882813c16.425781-.0625 29.730469-13.363281 29.796875-29.796875v-257.011719c-.066406-16.421875-13.371094-29.726562-29.796875-29.796875zm4.964844 29.796875v120.570313h-85.042969v-125.53125h80.078125c2.644531.128906 4.71875 2.320312 4.714844 4.960937zm-109.632813-4.960937v125.53125h-88.394531v-125.53125zm-113.226562 150.359375v116.582031h-201.011719v-116.582031zm-88.03125-24.828125v-125.53125h88.03125v125.53125zm-29.304688-177.179688h159.046875v26.8125h-159.046875zm0 51.648438h4.472656v125.53125h-88.148437v-125.53125zm-108.507812 125.53125h-66.425782c-1.367187 0-9.5625 0-21.605468 2.355469v-127.886719h88.03125zm-234.167969-125.53125h121.304687v132.722656c-39.359374 8.941406-93.492187 28.933594-126.269531 73.261719v-201.023438c0-2.738281 2.222657-4.960937 4.964844-4.960937zm114.597656 322.808593c-23.992187 0-43.453125-19.453124-43.453125-43.453124s19.460938-43.453126 43.453125-43.453126c24 0 43.457031 19.453126 43.457031 43.453126.03125 11.582031-4.539062 22.699218-12.722656 30.898437-8.175781 8.199219-19.273437 12.804687-30.855468 12.804687zm0-111.738281c-32.910156.042969-61.132812 23.515625-67.164062 55.871094h-47.433594c-2.359375.058594-4.433594-1.546875-4.964844-3.851563 24.828125-103.175781 172.457031-112.609374 173.824219-112.730468h65.804688v116.582031h-53.390626c-6.054687-32.167969-34.058593-55.542969-66.796874-55.746094zm460.878907 111.738281c-24.003907 0-43.457032-19.453124-43.457032-43.453124s19.453125-43.453126 43.457032-43.453126c24 0 43.457031 19.453126 43.457031 43.453126.03125 11.582031-4.539063 22.699218-12.722657 30.898437-8.175781 8.199219-19.28125 12.804687-30.855468 12.804687zm102.429687-55.867187h-35.382813c-6.078124-32.273437-34.269531-55.648437-67.109374-55.648437-32.839844 0-61.03125 23.375-67.113282 55.648437h-23.457031v-116.582031h197.777344v111.742187c-.058594 2.597657-2.117188 4.714844-4.714844 4.839844zm0 0"/></svg>