<svg height="677pt" viewBox="-145 0 677 677.49904" width="677pt" xmlns="http://www.w3.org/2000/svg"><path d="m88.863281 54.792969c-42.808593 0-88.613281 23.335937-88.613281 88.617187v280.582032c0 65.398437 45.804688 88.613281 88.613281 88.613281h3l-58.789062 147.78125c-2.550781 6.410156.582031 13.675781 6.992187 16.222656 6.410156 2.554687 13.671875-.578125 16.226563-6.988281l32.570312-81.878906h210.441407l32.074218 81.757812c2.550782 6.410156 9.820313 9.539062 16.222656 6.992188 6.410157-2.558594 9.542969-9.820313 6.992188-16.230469l-58.660156-147.65625h2.992187c65.40625 0 88.617188-45.808594 88.617188-88.613281v-280.582032c0-65.402344-45.804688-88.617187-88.617188-88.617187h-67.398437v-29.832031h19.59375c6.898437 0 12.484375-5.589844 12.484375-12.476563 0-6.894531-5.585938-12.484375-12.484375-12.484375h-113.324219c-6.890625 0-12.484375 5.589844-12.484375 12.484375 0 6.886719 5.59375 12.476563 12.484375 12.476563h18.839844v29.832031zm200.582031 507.984375h-190.722656l19.972656-49.921875h150.273438zm73.636719-419.367188v280.582032c0 19.09375-6.238281 63.652343-63.65625 63.652343h-210.5625c-19.09375 0-63.648437-6.242187-63.648437-63.652343v-280.582032c0-57.542968 44.554687-63.65625 63.648437-63.65625h210.441407c19.589843 0 63.65625 6.113282 63.65625 63.65625zm-181.480469-118.449218h24.964844v29.832031h-24.964844zm0 0"/><path d="m74.390625 117.570312c-12.683594 0-22.972656 10.285157-22.972656 22.96875v165.003907c0 12.683593 10.289062 22.960937 22.972656 22.960937h239.386719c12.6875 0 22.972656-10.277344 22.972656-22.960937v-165.003907c0-12.683593-10.285156-22.96875-22.972656-22.96875zm1.996094 24.964844h105.214843v161.007813h-105.214843zm235.398437 161.007813h-105.21875v-161.007813h105.21875zm0 0"/><path d="m89.992188 339.992188c-24.960938 0-45.183594 20.230468-45.183594 45.175781 0 24.960937 20.222656 45.1875 45.183594 45.1875 24.949218 0 45.179687-20.226563 45.179687-45.1875-.070313-24.921875-20.253906-45.109375-45.179687-45.175781zm0 65.53125c-11.171876 0-20.222657-9.058594-20.222657-20.222657 0-11.171875 9.050781-20.226562 20.222657-20.226562 11.164062 0 20.21875 9.054687 20.21875 20.226562-.074219 11.132813-9.082032 20.148438-20.21875 20.222657zm0 0"/><path d="m298.175781 339.992188c-24.882812.277343-44.859375 20.625-44.679687 45.507812.183594 24.890625 20.460937 44.941406 45.34375 44.855469 24.886718-.089844 45.019531-20.296875 45.019531-45.1875-.03125-12.058594-4.871094-23.605469-13.441406-32.082031-8.578125-8.484376-20.183594-13.195313-32.242188-13.09375zm0 65.53125c-11.078125-.28125-19.875-9.425782-19.71875-20.511719.160157-11.078125 9.214844-19.96875 20.300781-19.925781 11.082032.039062 20.0625 9 20.136719 20.082031 0 5.464843-2.191406 10.699219-6.089843 14.523437-3.894532 3.832032-9.167969 5.929688-14.628907 5.832032zm0 0"/><path d="m232.527344 405.523438h-76.886719c-12.683594 0-22.964844 10.277343-22.964844 22.960937v18.34375c0 12.6875 10.28125 22.96875 22.964844 22.96875h76.886719c12.679687 0 22.964844-10.28125 22.964844-22.96875v-18.34375c0-12.683594-10.285157-22.960937-22.964844-22.960937zm-2 39.3125h-72.890625v-14.351563h72.890625zm0 0"/></svg>