<svg height="646pt" viewBox="0 -80 646.25003 646" width="646pt" xmlns="http://www.w3.org/2000/svg"><path d="m475.449219.125h-304.648438c-14.050781.023438-25.707031 10.867188-26.746093 24.878906l-144.054688 432.53125v1.988282c0 14.847656 12.035156 26.871093 26.871094 26.871093h592.507812c14.835938 0 26.871094-12.023437 26.871094-26.871093v-1.988282l-144.054688-432.78125c-1.167968-13.90625-12.785156-24.617187-26.746093-24.628906zm-126.515625 24.878906c1.097656 0 1.992187.890625 1.992187 1.988282v75.511718c0 1.101563-.894531 1.988282-1.992187 1.988282h-45.023438c-1.105468 0-2-.886719-2-1.988282v-75.511718c0-1.097657.894532-1.988282 2-1.988282zm-53.988282 436.636719c-1.097656 0-1.992187-.890625-1.992187-1.992187v-65.1875c0-1.097657.894531-1.984376 1.992187-1.984376h62.945313c1.105469 0 1.992187.886719 1.992187 1.984376v65.3125c0 1.097656-.886718 1.988281-1.992187 1.988281zm324.433594 0h-235.113281c0-.625 0-1.242187 0-1.992187v-65.1875c0-14.835938-12.03125-26.867188-26.871094-26.867188h-62.449219c-14.835937 0-26.871093 12.03125-26.871093 26.867188v67.300781h-241.203125c-.648438-.003907-1.257813-.332031-1.621094-.867188l143.558594-431.910156v-1.992187c0-1.097657.890625-1.988282 1.992187-1.988282h106.484375v77.5c0 14.839844 12.027344 26.867188 26.871094 26.867188h45.023438c14.84375 0 26.875-12.027344 26.875-26.867188v-75.511718c0-.621094 0-1.242188 0-1.988282h99.519531c1.097656 0 1.988281.890625 1.988281 1.988282v1.992187l143.0625 431.785156c-.285156.441407-.738281.757813-1.246094.871094zm0 0"/><path d="m357.890625 159.851562h-62.945313c-14.835937 0-26.871093 12.03125-26.871093 26.871094v113.320313c0 14.84375 12.035156 26.875 26.871093 26.875h62.945313c14.648437-.273438 26.375-12.222657 26.375-26.875v-113.320313c0-14.652344-11.726563-26.597656-26.375-26.871094zm1.496094 140.191407c0 1.105469-.890625 1.992187-1.992188 1.992187h-62.449219c-1.097656 0-1.992187-.886718-1.992187-1.992187v-113.320313c0-1.101562.894531-1.992187 1.992187-1.992187h62.945313c1.105469 0 1.992187.890625 1.992187 1.992187zm0 0"/></svg>