<svg height="707pt" viewBox="-108 0 707 707.49898" width="707pt" xmlns="http://www.w3.org/2000/svg"><path d="m365.339844 344.945312c20.683594-110.496093 28.65625-236.6875-20.554688-300.601562-23.574218-30.507812-60.96875-47.050781-99.410156-43.96875-38.511719-3.121094-76 13.417969-99.65625 43.96875-49.828125 64.53125-41.234375 190.472656-20.433594 301.101562-32.382812 14.324219-132.671875 66.269532-124.570312 160.570313.582031 6.4375 5.988281 11.363281 12.457031 11.339844h465.660156c6.457031.023437 11.871094-4.902344 12.457031-11.339844 8.097657-95.417969-94.804687-147.621094-125.949218-161.070313zm-199.320313-285.527343c18.765625-24.339844 48.78125-37.25 79.355469-34.128907 30.535156-3.097656 60.507812 9.808594 79.230469 34.128907 50.578125 66.277343 31.269531 214.394531 6.605469 325.636719l-21.050782 83.96875c-2.367187 8.589843-4.742187 16.566406-6.730468 23.417968h-115.855469l-34.878907-138.53125c-21.050781-106.386718-32.765624-234.320312 13.203126-294.492187zm-35.253906 311.433593c9.722656 46.714844 21.0625 89.328126 30.527344 121.835938h-135.914063c2.363282-66.398438 74.621094-107.503906 105.136719-122.078125zm199.320313 121.835938 3.988281-15.699219c7.347656-26.15625 15.445312-57.175781 22.796875-90.808593l3.984375-15.699219c30.277343 14.203125 103.398437 55.4375 105.765625 122.207031zm0 0"/><path d="m245.375 284.398438c48.960938 0 88.699219-47.335938 88.699219-105.507813 0-58.175781-39.738281-105.390625-88.699219-105.390625-48.953125 0-88.695312 47.335938-88.695312 105.511719 0 58.171875 39.867187 105.386719 88.695312 105.386719zm0-185.984376c35.257812 0 63.785156 36.128907 63.785156 80.597657 0 44.476562-28.527344 80.472656-63.785156 80.472656-35.253906 0-63.78125-36.125-63.78125-80.59375 0-44.480469 28.652344-80.476563 63.78125-80.476563zm0 0"/><path d="m306.792969 541.398438h-122.703125c-6.878906 0-12.457032 5.574218-12.457032 12.457031 0 4.980469-1.25 121.832031 68.882813 152.605469 3.183594 1.382812 6.792969 1.382812 9.96875 0 70.136719-30.773438 68.890625-147.625 68.890625-152.605469 0-3.328125-1.328125-6.515625-3.691406-8.855469-2.359375-2.339844-5.570313-3.636719-8.890625-3.601562zm-61.417969 139.519531c-39.238281-22.046875-46.960938-87.199219-48.578125-114.601563h97.164063c-1.496094 27.402344-9.347657 92.554688-48.585938 114.601563zm0 0"/></svg>