<svg height="677pt" viewBox="-141 0 677 677.50171" width="677pt" xmlns="http://www.w3.org/2000/svg"><path d="m196.800781 152.574219c28.339844 0 51.320313-22.972657 51.320313-51.3125 0-28.34375-22.980469-51.320313-51.320313-51.320313-28.339843 0-51.316406 22.976563-51.316406 51.320313.066406 28.308593 23 51.242187 51.316406 51.3125zm0-77.722657c14.582031 0 26.40625 11.828126 26.40625 26.410157 0 14.574219-11.824219 26.398437-26.40625 26.398437-14.585937 0-26.40625-11.824218-26.40625-26.398437-.035156-7.023438 2.734375-13.773438 7.6875-18.753907 4.957031-4.980468 11.691407-7.78125 18.71875-7.78125zm0 0"/><path d="m40.484375 141.859375h63.652344c6.101562 14.066406 15.296875 26.582031 26.894531 36.621094h-24.90625c-44.585938 0-92.171875 24.160156-92.171875 92.164062v129.914063c.628906 101.386718 70.75 127.417968 110.605469 135.011718v68.882813c0 40.347656 32.707031 73.046875 73.050781 73.046875 40.347656 0 73.046875-32.699219 73.046875-73.046875v-68.882813c40.105469-6.976562 109.984375-33.625 109.984375-135.011718v-130.28125c0-44.589844-24.167969-92.167969-92.171875-92.167969h-24.90625c11.773438-9.867187 21.1875-22.257813 27.523438-36.25h63.640624c22.222657 0 40.234376-18.011719 40.234376-40.226563 0-22.21875-18.011719-40.230468-40.234376-40.230468h-63.640624c-16.101563-37.269532-52.8125-61.402344-93.414063-61.402344-40.597656 0-77.308594 24.132812-93.414063 61.402344h-63.773437c-22.21875 0-40.234375 18.011718-40.234375 40.230468 0 22.214844 18.015625 40.226563 40.234375 40.226563zm205.261719 462.59375c0 26.582031-21.550782 48.136719-48.136719 48.136719-26.589844 0-48.144531-21.554688-48.144531-48.136719v-157.558594c0-26.589843 21.554687-48.144531 48.144531-48.144531 26.585937 0 48.136719 21.554688 48.136719 48.144531zm42.722656-401.433594c58.542969 0 67.257812 42.21875 67.257812 67.257813v130.28125c0 77.847656-48.328124 102.382812-85.070312 109.734375v-63.398438c0-40.347656-32.699219-73.050781-73.046875-73.050781-40.34375 0-73.050781 32.703125-73.050781 73.050781v63.398438c-37.367188-7.476563-85.066406-32.011719-85.066406-109.734375v-130.28125c0-58.542969 42.214843-67.257813 67.253906-67.257813zm66.257812-117.078125c8.46875 0 15.320313 6.855469 15.320313 15.320313 0 8.457031-6.851563 15.320312-15.320313 15.320312h-56.664062c1.710938-10.148437 1.710938-20.5 0-30.640625zm-157.175781-61.65625c42.433594 0 76.84375 34.40625 76.84375 76.84375 0 42.445313-34.410156 76.851563-76.84375 76.851563-42.445312 0-76.847656-34.40625-76.847656-76.851563.0625-42.410156 34.429687-76.777344 76.847656-76.84375zm-157.066406 61.65625h56.675781c-1.753906 10.261719-1.753906 20.746094 0 31.011719h-56.675781c-8.464844 0-15.320313-6.863281-15.320313-15.320313 0-8.460937 6.855469-15.320312 15.320313-15.320312zm0 0"/><path d="m137.011719 308.640625h121.1875c6.886719 0 12.457031-5.578125 12.457031-12.457031s-5.570312-12.457032-12.457031-12.457032h-121.1875c-6.878907 0-12.453125 5.578126-12.453125 12.457032s5.574218 12.457031 12.453125 12.457031zm0 0"/></svg>