<svg height="707pt" viewBox="0 -72 707.49936 707" width="707pt" xmlns="http://www.w3.org/2000/svg"><path d="m142.941406 300.34375c-32.386718 0-58.644531 26.253906-58.644531 58.640625 0 32.394531 26.257813 58.648437 58.644531 58.648437 32.390625 0 58.640625-26.253906 58.640625-58.648437-.0625-32.355469-26.28125-58.570313-58.640625-58.640625zm0 92.457031c-18.605468 0-33.6875-15.078125-33.6875-33.6875 0-18.605469 15.082032-33.691406 33.6875-33.691406 18.609375 0 33.691406 15.085937 33.691406 33.691406-.136718 18.53125-15.160156 33.5-33.691406 33.566407zm0 0"/><path d="m667.003906 182.929688h-49.914062l-60.515625-114.417969c-2.160157-4.066407-6.382813-6.605469-10.976563-6.617188h-108.6875l-12.476562-52.027343c-1.355469-5.757813-6.5625-9.7695318-12.480469-9.613282h-99.820313c-5.90625-.1562498-11.113281 3.855469-12.476562 9.613282l-12.480469 52.027343h-125.644531c-4.597656.011719-8.816406 2.550781-10.976562 6.617188l-60.519532 114.417969h-49.910156c-22.5 1.21875-40.125 19.824218-40.125 42.359374 0 22.539063 17.625 41.140626 40.125 42.367188h5.492188l-24.957032 47.289062c-.964844 1.800782-1.488281 3.8125-1.5 5.859376v143.246093c.074219 2.015625.625 3.988281 1.628906 5.734375-1.03125 2.800782-1.578124 5.761719-1.628906 8.738282v58.023437c0 14.691406 11.765625 26.671875 26.457032 26.953125h113.171874c14.882813 0 26.949219-12.074219 26.949219-26.953125v-58.023437c0-.75 0-1.371094 0-1.996094h335.898438v60.019531c0 14.878906 12.066406 26.953125 26.953125 26.953125h113.292968c14.886719 0 26.957032-12.074219 26.957032-26.953125v-58.023437c-.046875-2.976563-.597656-5.9375-1.628906-8.738282 1-1.746094 1.554687-3.71875 1.628906-5.734375v-143.121093c-.015625-2.042969-.527344-4.058594-1.496094-5.863282l-24.957031-47.289062h4.988281c22.503906-1.21875 40.125-19.824219 40.125-42.363282 0-22.535156-17.621094-41.136718-40.125-42.363281zm-344.261718-157.46875h79.851562l8.617188 36.6875h-97.082032zm-153.722657 61.515624h369.085938l82.601562 155.84375h-534.160156zm-129.394531 155.84375c-9.039062-.761718-15.992188-8.328124-15.992188-17.40625 0-9.074218 6.953126-16.640624 15.992188-17.40625h37.4375l-18.71875 34.8125zm121.160156 235.703126v58.023437c0 1.097656-.894531 1.996094-1.996094 1.996094h-113.171874c-1.105469 0-1.992188-.898438-1.992188-1.996094v-58.023437c0-1.101563.886719-1.996094 1.992188-1.996094h113.171874c.550782-.035156 1.09375.160156 1.492188.542968.40625.375.632812.90625.632812 1.453126zm502.71875 58.023437c0 1.097656-.894531 1.996094-1.996094 1.996094h-113.167968c-1.101563 0-2-.898438-2-1.996094v-58.023437c0-1.101563.898437-1.996094 2-1.996094h113.292968c1.105469 0 2.003907.894531 2.003907 1.996094zm0-84.976563h-619.878906v-127.519531l29.691406-56.148437h560.496094l29.691406 56.148437zm3.375-208.75h-17.972656l-18.460938-34.933593h36.558594c9.042969.765625 15.992188 8.328125 15.992188 17.402343 0 9.082032-6.949219 16.644532-15.992188 17.410157zm0 0"/><path d="m564.1875 300.34375c-32.390625 0-58.652344 26.253906-58.652344 58.640625 0 32.394531 26.261719 58.648437 58.652344 58.648437 32.386719 0 58.644531-26.253906 58.644531-58.648437-.074219-32.355469-26.289062-58.570313-58.644531-58.640625zm0 92.457031c-18.609375 0-33.695312-15.078125-33.695312-33.6875 0-18.605469 15.085937-33.691406 33.695312-33.691406 18.605469 0 33.6875 15.085937 33.6875 33.691406-.140625 18.53125-15.160156 33.5-33.6875 33.566407zm0 0"/><path d="m449.015625 346.507812h-190.78125c-6.890625 0-12.480469 5.589844-12.480469 12.476563 0 6.894531 5.589844 12.480469 12.480469 12.480469h190.78125c6.890625 0 12.480469-5.585938 12.480469-12.480469 0-6.886719-5.589844-12.476563-12.480469-12.476563zm0 0"/></svg>