<svg height="670pt" viewBox="-231 0 670 670.00253" width="670pt" xmlns="http://www.w3.org/2000/svg"><path d="m104.371094 168.863281c34.894531 0 63.1875-28.285156 63.1875-63.183593 0-34.898438-28.292969-63.191407-63.1875-63.191407-34.898438 0-63.1875 28.292969-63.1875 63.191407 0 34.898437 28.289062 63.183593 63.1875 63.183593zm0-101.269531c15.464844 0 29.410156 9.320312 35.316406 23.613281 5.910156 14.300781 2.613281 30.742188-8.34375 41.660157-10.949219 10.917968-27.40625 14.15625-41.679688 8.203124-14.277343-5.953124-23.554687-19.925781-23.503906-35.390624.074219-21.058594 17.152344-38.085938 38.210938-38.085938zm0 0"/><path d="m104.371094 297.617188c34.894531 0 63.1875-28.292969 63.1875-63.191407 0-34.894531-28.292969-63.191406-63.1875-63.191406-34.898438 0-63.1875 28.296875-63.1875 63.191406 0 34.898438 28.289062 63.191407 63.1875 63.191407zm0-101.277344c15.464844 0 29.410156 9.328125 35.316406 23.617187 5.910156 14.296875 2.613281 30.746094-8.34375 41.65625-10.949219 10.921875-27.40625 14.164063-41.679688 8.210938-14.277343-5.960938-23.554687-19.925781-23.503906-35.398438 0-21.101562 17.105469-38.210937 38.210938-38.210937zm0 0"/><path d="m104.371094 426.246094c34.914062-.007813 63.210937-28.320313 63.1875-63.234375-.027344-34.914063-28.359375-63.195313-63.273438-63.144531-34.910156.042968-63.171875 28.398437-63.101562 63.3125.070312 34.84375 28.339844 63.066406 63.1875 63.066406zm0-101.28125c21.101562 0 38.214844 17.109375 38.214844 38.214844 0 21.101562-17.113282 38.210937-38.214844 38.210937-21.105469 0-38.210938-17.109375-38.210938-38.210937 0-21.105469 17.105469-38.214844 38.210938-38.214844zm0 0"/><path d="m52.917969 670.003906h103.023437c6.898438 0 12.488282-5.589844 12.488282-12.488281v-190.441406c25.003906-5.417969 42.167968-28.445313 40.214843-53.945313v-357.40625c1.15625-14.972656-4.25-29.710937-14.820312-40.382812-10.578125-10.664063-25.265625-16.207032-40.253907-15.183594h-97.78125c-15.066406-1.175781-29.890624 4.300781-40.585937 14.984375-10.683594 10.6875-16.15625 25.519531-14.980469 40.582031v357.40625c-2.398437 25.578125 14.996094 48.796875 40.207032 53.703125v190.683594c0 6.898437 5.59375 12.488281 12.488281 12.488281zm90.535156-24.980468h-78.046875v-176.324219h78.046875zm-118.253906-231.894532v-357.40625c-1.179688-8.417968 1.660156-16.898437 7.675781-22.917968 6.011719-6.011719 14.496094-8.855469 22.914062-7.671876h97.78125c8.421876-1.183593 16.910157 1.660157 22.921876 7.671876 6.011718 6.019531 8.855468 14.5 7.675781 22.917968v357.40625c1.179687 8.421875-1.664063 16.910156-7.675781 22.921875-6.011719 6.011719-14.5 8.851563-22.921876 7.675781h-97.78125c-8.417968 1.175782-16.902343-1.664062-22.914062-7.675781-6.015625-6.011719-8.855469-14.5-7.675781-22.921875zm0 0"/></svg>