<svg height="712pt" viewBox="-158 0 712 712.49887" width="712pt" xmlns="http://www.w3.org/2000/svg"><path d="m395.355469 454.066406v-286.582031c0-56.191406-33.265625-81.738281-69.898438-88.339844 13.96875-21.039062 10.417969-49.140625-8.347656-66.039062-18.757813-16.910157-47.070313-17.523438-66.550781-1.449219-19.476563 16.074219-24.246094 43.992188-11.199219 65.621094h-83.109375c4.785156-7.800782 7.324219-16.769532 7.347656-25.917969-.1875-21.648437-14.058594-40.800781-34.570312-47.722656-20.511719-6.929688-43.160156-.101563-56.425782 17-13.269531 17.109375-14.253906 40.734375-2.453124 58.878906-36.628907 6.609375-69.898438 32.148437-69.898438 88.347656v286.578125c0 66.535156 46.597656 90.207032 90.207031 90.207032l-24.042969 60.679687-35.761718 90.085937c-2.542969 6.402344.574218 13.65625 6.976562 16.195313 6.402344 2.550781 13.652344-.570313 16.199219-6.972656l32.523437-81.984375h222.78125l32.519532 81.984375c2.550781 6.402343 9.800781 9.523437 16.203125 6.972656 6.394531-2.539063 9.519531-9.792969 6.96875-16.195313l-35.75-90.085937-24.050781-60.679687c66.660156-.371094 90.332031-46.976563 90.332031-90.582032zm-138.308594-402.460937c0-14.3125 11.605469-25.914063 25.917969-25.914063 14.316406 0 25.917968 11.601563 25.917968 25.914063 0 14.320312-11.601562 25.917969-25.917968 25.917969-14.285156-.0625-25.847656-11.632813-25.917969-25.917969zm-144.285156-26.414063c14.3125 0 25.917969 11.601563 25.917969 25.917969 0 14.3125-11.605469 25.917969-25.917969 25.917969-14.308594 0-25.914063-11.605469-25.914063-25.917969.070313-14.285156 11.628906-25.851563 25.914063-25.917969zm-87.21875 428.371094v-286.578125c0-58.933594 45.605469-65.285156 65.292969-65.285156h214.308593c19.6875 0 65.292969 6.351562 65.292969 65.285156v286.578125c0 19.6875-6.351562 65.292969-65.292969 65.292969h-214.558593c-19.691407.503906-65.296876-5.855469-65.296876-64.789063zm274.117187 143.171875h-203.222656l21.0625-53.085937h160.730469zm0 0"/><path d="m88.089844 334.453125h219.546875c15.070312 0 27.289062-12.222656 27.289062-27.292969v-103.535156c0-15.078125-12.21875-27.292969-27.289062-27.292969h-219.546875c-15.070313 0-27.285156 12.214844-27.285156 27.292969v103.664062c.066406 15.019532 12.265624 27.164063 27.285156 27.164063zm-2.367188-130.960937c0-1.304688 1.0625-2.363282 2.367188-2.363282h219.546875c1.3125 0 2.367187 1.058594 2.367187 2.363282v103.667968c0 1.308594-1.054687 2.371094-2.367187 2.371094h-219.546875c-1.304688 0-2.367188-1.0625-2.367188-2.371094zm0 0"/><path d="m157.367188 431.886719c0-26.628907-21.582032-48.21875-48.21875-48.21875-26.628907 0-48.21875 21.589843-48.21875 48.21875 0 26.628906 21.589843 48.222656 48.21875 48.222656 26.605468-.070313 48.15625-21.621094 48.21875-48.222656zm-71.511719 0c0-12.867188 10.425781-23.300781 23.292969-23.300781 12.871093 0 23.300781 10.433593 23.300781 23.300781 0 12.867187-10.429688 23.300781-23.300781 23.300781-6.203126.035156-12.152344-2.410156-16.558594-6.78125-4.394532-4.375-6.867188-10.316406-6.867188-16.519531zm0 0"/><path d="m286.699219 383.667969c-26.625 0-48.210938 21.589843-48.210938 48.21875 0 26.628906 21.585938 48.222656 48.210938 48.222656 26.640625 0 48.226562-21.59375 48.226562-48.222656-.070312-26.605469-21.621093-48.15625-48.226562-48.21875zm0 71.519531c-12.867188 0-23.292969-10.433594-23.292969-23.300781 0-12.867188 10.425781-23.300781 23.292969-23.300781 12.878906 0 23.304687 10.433593 23.304687 23.300781 0 12.867187-10.425781 23.300781-23.304687 23.300781zm0 0"/></svg>