<svg height="512pt" viewBox="0 0 512 512" width="512pt" xmlns="http://www.w3.org/2000/svg"><path d="m30 512h91v-120h270v30h-204.269531l-45 90h198.539062l-30-60h80.730469v60h91v-120h30v-90h-241v-30h30v-30h-50.730469l11.199219-22.398438c23.929688-47.855468 16.527344-106.78125-17.441406-147.113281l36.242187-72.488281h-228.539062l36.242187 72.488281c-33.964844 40.332031-41.371094 99.257813-17.441406 147.113281l11.199219 22.398438h-51.730469v30h31v30h-61v90h30zm160.269531-30 15-30h71.460938l15 30zm-99.269531 0h-31v-90h31zm361 0h-31v-90h31zm-220.269531-452-15 30h-101.460938l-15-30zm-134.367188 176.1875c-18.980469-37.964844-12.621093-84.851562 15.136719-116.1875h107c27.757812 31.335938 34.117188 78.222656 15.136719 116.1875l-17.90625 35.8125h-101.460938zm-6.363281 65.8125h150v30h-150zm-61 60h452v30h-452zm0 0"/></svg>