<svg height="511pt" viewBox="1 -30 511.999 511" width="511pt" xmlns="http://www.w3.org/2000/svg"><path d="m29.925781 180.527344v45.007812c0 57.554688 45.140625 105.0625 103.121094 105.0625 1.039063 0 6.496094-.046875 6.496094-.046875 15.082031 28.316407 33.066406 42.0625 41.40625 51.21875v68.800781h210.03125v-68.800781c8.046875-8.992187 28.539062-24.417969 44.132812-56.605469 46.234375-20.667968 76.886719-66.933593 76.886719-117.074218 0-31.945313-26.875-57.566406-58.570312-57.566406h-41.765626c-5.886718-6.738282-9.246093-9.664063-20.984374-21.519532-2.96875-34.300781-29.105469-62.066406-62.652344-67.511718 1.894531-4.972657 2.945312-10.359376 2.945312-15.984376 0-24.816406-20.191406-45.007812-45.007812-45.007812s-45.007813 20.191406-45.007813 45.007812c0 5.625 1.046875 11.011719 2.945313 15.984376-33.546875 5.445312-59.6875 33.210937-62.652344 67.511718-6.601562 7.9375-38.96875 31.453125-53.632812 80.570313-2.09375-.667969-2.765626-1.5-3.078126-1.894531-2.230468-2.792969-3.835937-9.441407-5.53125-16.480469-4.253906-17.636719-10.078124-41.6875-35.261718-66.304688l-4.421875-4.324219c-14.480469.007813 14.53125.089844-79.113281-.050781-.0625 0-.1289068 0-.1914068 0l-.0195312 30.003907h.125c16.496094.054687 29.800781 13.492187 29.800781 30.003906zm181.027344 240.035156v-30.003906h150.023437v30.003906zm158.8125-60.007812h-167.601563c-5.28125-7.09375-48.382812-36.898438-51.089843-99.25l15.621093-15.621094 60.007813 60.007812 60.011719-60.007812 60.007812 60.007812 60.011719-60.007812 14.171875 14.175781c-2.0625 63.542969-45.804688 93.484375-51.140625 100.695313zm83.667969-180.027344c15.480468 0 28.5625 12.621094 28.5625 27.5625 0 27.917968-12.492188 54.28125-32.988282 72.699218 1.308594-8.277343 1.984376-16.710937 1.984376-25.25 0-26.589843-6.453126-52.1875-18.609376-75.011718zm-167.46875-150.023438c8.273437 0 15 6.730469 15 15.003906 0 8.269532-6.726563 15-15 15-8.273438 0-15.003906-6.730468-15.003906-15 0-8.273437 6.730468-15.003906 15.003906-15.003906zm-30.003906 60.007813h60.007812c19.558594 0 36.234375 12.542969 42.425781 30.007812h-144.859375c6.191406-17.464843 22.867188-30.007812 42.425782-30.007812zm-53.796876 60.011719h167.601563c7.785156 8.953124 29.625 24.503906 42.636719 58.398437l-5.667969-5.671875-60.011719 60.011719-60.007812-60.011719-60.011719 60.011719-60.007813-60.011719-8.054687 8.058594c12.910156-35.730469 35.960937-52.007813 43.523437-60.785156zm-135.234374-.015626c15.515624 17.019532 19.425781 33.28125 22.910156 47.726563 3.863281 16.027344 8.546875 35.382813 31.941406 40.8125-.554688 5.445313-.839844 10.945313-.839844 16.492187 0 15.386719 2.167969 30.433594 6.34375 44.8125-37.558594-2.945312-67.355468-34.609374-67.355468-74.816406v-45.007812c0-10.90625-2.925782-21.183594-8.03125-30.003906 5.765624 0 11-.007813 15.03125-.015626zm0 0"/><path d="m285.957031 336.765625-21.214843-21.214844 21.214843-21.214843 21.21875 21.214843zm0 0"/><path d="m225.960938 174.3125 21.214843 21.214844-21.214843 21.214844-21.21875-21.214844zm0 0"/><path d="m345.976562 174.308594 21.21875 21.214844-21.21875 21.21875-21.214843-21.21875zm0 0"/></svg>