<svg height="512pt" viewBox="0 0 512 512" width="512pt" xmlns="http://www.w3.org/2000/svg"><path d="m451 181h-390v270h390zm-30 30v128.785156l-75-75-73.269531 73.269532-91.730469-104.832032-90 102.855469v-125.078125zm-330 210v-39.363281l90-102.859375 98.191406 112.222656h66.808594v-30h-53.191406l-.277344-.316406 53.46875-53.46875 75 75v38.785156zm0 0"/><path d="m299.152344 57.730469c1.195312-4.039063 1.847656-8.308594 1.847656-12.730469 0-24.8125-20.1875-45-45-45s-45 20.1875-45 45c0 4.421875.652344 8.691406 1.847656 12.730469l-110.828125 63.269531h-102.019531v391h512v-391h-102.019531zm-43.152344-27.730469c8.269531 0 15 6.730469 15 15s-6.730469 15-15 15-15-6.730469-15-15 6.730469-15 15-15zm-25.386719 52.132812c7.234375 4.957032 15.976563 7.867188 25.386719 7.867188s18.152344-2.910156 25.386719-7.867188l68.082031 38.867188h-186.9375zm251.386719 399.867188h-452v-331h452zm0 0"/></svg>