<svg height="512pt" viewBox="-61 0 512 512" width="512pt" xmlns="http://www.w3.org/2000/svg"><path d="m0 512h390v-92h-60v-127.5l-63.945312-47.957031 56.386718-84.582031c7.960938-11.945313 9.671875-26.765626 4.949219-40.027344.863281.035156 1.734375.066406 2.609375.066406 33.085938 0 60-26.917969 60-60 0-33.085938-26.914062-60-60-60s-60 26.914062-60 60c0 10.925781 2.949219 21.167969 8.070312 30h-143.082031c-14.0625-18.691406-36.3125-30-59.988281-30-41.355469 0-75 33.644531-75 75s33.644531 75 75 75c23.675781 0 45.925781-11.308594 59.988281-30h65.929688l-146.972657 220.460938 26.054688 19.539062h-80zm330-482c16.542969 0 30 13.457031 30 30s-13.457031 30-30 30-30-13.457031-30-30 13.457031-30 30-30zm-300 105c0-24.8125 20.1875-45 45-45 5.179688 0 10.242188.914062 15 2.605469v84.789062c-4.757812 1.691407-9.820312 2.605469-15 2.605469-24.8125 0-45-20.1875-45-45zm90 15v-30h165c11.988281 0 19.136719 13.335938 12.480469 23.320312l-72.128907 108.195313 74.648438 55.984375v112.5h-30v-97.5l-85.351562-64.015625 72.324218-108.484375zm120 187.5v82.5h-90.917969l66.972657-100.460938zm-72.015625-54.015625 24.035156 18.027344-73.335937 110-24.035156-18.027344zm-137.984375 166.515625h330v32h-330zm0 0"/></svg>