<svg height="512pt" viewBox="0 0 512 512" width="512pt" xmlns="http://www.w3.org/2000/svg"><path d="m30 424.570312c-17.460938 6.191407-30 22.875-30 42.429688v45h512v-45c0-19.554688-12.539062-36.238281-30-42.429688v-27.863281c0-107.496093-41.625-211.289062-115.640625-290.203125 16.234375-21.015625 25.640625-47.722656 25.640625-73.929687v-32.574219h-271v32.574219c0 26.605469 9.054688 53.261719 24.691406 73.875-73.742187 78.59375-115.691406 182.28125-115.691406 290.257812zm121-394.570312h211v2.574219c0 20.984375-8.519531 43.226562-22.523438 59.425781h-166.9375c-13.570312-15.824219-21.539062-37.597656-21.539062-59.425781zm-106 422h15v-55.292969c0-101.242187 40.847656-201.003906 112.28125-274.707031h167.4375c71.433594 73.703125 112.28125 173.464844 112.28125 274.707031v55.292969h15c8.269531 0 15 6.730469 15 15v15h-452v-15c0-8.269531 6.730469-15 15-15zm0 0"/><path d="m422 396.703125c0-87.542969-32.214844-172.625-90.703125-239.570313l-4.484375-5.132812h-141.625c-2.453125 4.058594-94.1875 91.964844-94.1875 244.703125v55.296875h331zm-198.90625 16.175781c-15.488281-15.488281-22.703125-29.796875-21.441406-42.53125 1.261718-12.722656 11.011718-25.609375 29-38.347656h50.695312c17.988282 12.738281 27.742188 25.625 29 38.347656 1.261719 12.734375-5.953125 27.042969-21.4375 42.53125l-9.125 9.121094h-47.570312zm47.90625-140.878906v30h-30v-30zm121 150h-71.007812c14.542968-18.195312 21-36.511719 19.210937-54.609375-2.085937-21.050781-15.269531-40.597656-39.203125-58.191406v-37.199219h30v-30h-150v30h30v37.199219c-23.933594 17.59375-37.117188 37.140625-39.199219 58.191406-1.792969 18.09375 4.664063 36.414063 19.210938 54.609375h-70.011719v-25.300781c0-78.753907 27.617188-154.726563 77.90625-214.699219h114.191406c50.933594 60.664062 78.902344 136.636719 78.902344 214.703125zm0 0"/></svg>