<svg height="512pt" viewBox="-31 0 512 512" width="512pt" xmlns="http://www.w3.org/2000/svg"><path d="m60 0v61.507812c-34.191406 6.96875-60 37.273438-60 73.492188 0 36.214844 25.800781 66.515625 59.984375 73.488281l.015625 303.511719h330v-303.507812c34.191406-6.96875 60-37.273438 60-73.492188s-25.808594-66.523438-60-73.492188v-61.507812zm300 30v30h-270v-30zm0 240h-60v212h-30v-212h-90v212h-30v-212h-60.011719l-.003906-60h270.015625zm-120 212h-30v-182h30zm-105.054688-302c6.566407-8.726562 11.289063-18.917969 13.546876-30h153.015624c2.257813 11.082031 6.980469 21.273438 13.546876 30zm-44.957031 120h30.011719v182h-30zm240.011719 182v-182h30v182zm90-347c0 24.8125-20.1875 45-45 45s-45-20.1875-45-45v-15h-210v15c0 24.8125-20.1875 45-45 45s-45-20.1875-45-45 20.1875-45 45-45h300c24.8125 0 45 20.1875 45 45zm0 0"/><path d="m360 120h30v30h-30zm0 0"/><path d="m60 120h30v30h-30zm0 0"/></svg>