<svg height="512pt" viewBox="0 -31 512 512" width="512pt" xmlns="http://www.w3.org/2000/svg"><path d="m512 120h-74.828125c-98.304687-98.171875-116.738281-116.625-120.105469-119.9882812l-166.066406-.0117188v90h128.785156l6.210938 6.210938-24.878906 24.878906c-19.253907-7.175782-41.476563-4.148438-58.222657 9.09375-20.542969-5.667969-42.90625-.09375-58.265625 15.265625-17.417968 17.421875-21.859375 42.984375-13.332031 64.558593h-131.296875v119.992188h74.828125c96.90625 96.78125 117.9375 117.835938 120.105469 120h166.066406v-89.988281h-128.785156l-6.210938-6.222657 24.851563-24.855468c18.953125 7.089844 41.238281 4.378906 58.253906-9.117188 20.542969 5.667969 42.902344.089844 58.257813-15.265625 17.421874-17.421875 21.859374-42.976562 13.335937-64.550781h131.296875zm-181 270v30.011719l-123.640625-.011719c-30.390625-30.386719-89.785156-89.703125-120.121094-119.988281h-57.238281v-60.011719h124.328125l71.519531 71.519531-21.058594 21.054688-44.25-44.246094-21.210937 21.210937 80.457031 80.460938zm15.15625-149.089844c11.695312 11.695313 11.695312 30.730469 0 42.425782-8.933594 8.9375-22.679688 11.199218-34.203125 5.628906l-10.207031-4.933594c-7.566406 8.597656-7.46875 8.265625-8.972656 10.257812-11.019532 10.667969-27.890626 11.085938-39.375 2.042969l-86.332032-86.332031h-.3125l-.910156-.910156c-11.695312-11.695313-11.695312-30.726563 0-42.425782 8.839844-8.839843 22.5625-11.253906 34.203125-5.628906l10.203125 4.933594c7.550781-8.570312 7.457031-8.242188 8.980469-10.257812 10.855469-10.507813 27.75-11.179688 39.382812-2.027344l86.320313 86.316406h.3125zm135.84375-30.910156h-124.328125l-71.519531-71.519531 21.058594-21.054688 44.25 44.246094 21.210937-21.210937-80.457031-80.460938h-111.214844v-30.011719l123.640625.011719c30.648437 30.644531 89.390625 89.316406 120.117187 120h57.242188zm0 0"/></svg>