<svg height="512pt" viewBox="0 0 512 512" width="512pt" xmlns="http://www.w3.org/2000/svg"><path d="m286.09375 222.519531-63.578125-63.578125 52.980469-52.980468-105.960938-105.960938-169.535156 169.535156 105.960938 105.960938 52.980468-52.980469c35.886719 35.886719 56.074219 56.078125 84.765625 84.769531l-21.191406 21.191406-5.671875-5.671874-67.015625 13.40625-89.460937 137.222656 38.386718 38.382812 137.222656-89.457031 13.402344-67.019531-5.671875-5.671875 21.195313-21.191407 148.34375 148.34375 63.574218-63.574218-127.152343-127.152344 162.332031-162.332031-63.578125-63.574219zm-77.035156 181.613281-106.304688 69.300782-4-4 69.300782-106.304688 38.941406-7.789062 9.851562 9.851562zm-166.675782-234.597656 127.152344-127.152344 63.578125 63.578126-127.152343 127.152343zm137.75 31.789063 21.191407-21.191407 84.769531 84.769532-21.191406 21.191406c-19.675782-19.675781-55.476563-55.476562-84.769532-84.769531zm254.304688 211.921875-21.191406 21.191406-127.152344-127.152344 21.191406-21.191406zm-105.960938-148.34375-21.191406-21.195313 141.136719-141.136719 21.195313 21.191407zm0 0"/></svg>