<svg height="512pt" viewBox="-61 0 512 512" width="512pt" xmlns="http://www.w3.org/2000/svg"><path d="m135 271c19.554688 0 36.226562-12.542969 42.421875-30h35.160156c6.191407 17.457031 22.863281 30 42.417969 30 24.8125 0 45-20.1875 45-45s-20.1875-45-45-45c-19.554688 0-36.226562 12.542969-42.417969 30h-35.160156c-6.195313-17.457031-22.867187-30-42.421875-30-24.8125 0-45 20.1875-45 45s20.1875 45 45 45zm120-60c8.269531 0 15 6.730469 15 15s-6.730469 15-15 15-15-6.730469-15-15 6.730469-15 15-15zm-120 0c8.269531 0 15 6.730469 15 15s-6.730469 15-15 15-15-6.730469-15-15 6.730469-15 15-15zm0 0"/><path d="m171.214844 316h47.570312l25.609375 25.605469 21.210938-21.210938-34.390625-34.394531h-72.429688l-34.390625 34.394531 21.210938 21.210938zm0 0"/><path d="m0 497v15h390v-15c0-57.898438-47.101562-105-105-105h-5.523438c30.785157-24.949219 50.523438-63.191406 50.523438-106v-15h15c24.8125 0 45-20.1875 45-45s-20.1875-45-45-45h-15v-33.304688c11.734375-3.691406 21.273438-11.71875 27.15625-23.261718 22.015625-43.191406-12.210938-119.285156-83.0625-109.128906l-64.09375 9.828124v-25.132812h-30v29.730469l-101.402344 15.546875c-36.441406 5.226562-53.65625 34-51.832031 59.75 1.5 21.140625 14.507813 37.164062 33.234375 42.726562v33.246094h-15c-24.8125 0-45 20.1875-45 45s20.1875 45 45 45h15v15c0 42.808594 19.738281 81.050781 50.523438 106h-5.523438c-57.898438 0-105 47.101562-105 105zm358.492188-15h-326.984376c6.96875-34.191406 37.273438-60 73.492188-60h75v30h30v-30h75c36.21875 0 66.523438 25.808594 73.492188 60zm-13.492188-271c8.269531 0 15 6.730469 15 15s-6.730469 15-15 15h-15v-30zm-262.09375-136.035156 195.515625-29.972656c46.070313-6.554688 63.226563 43.804687 52.007813 65.820312-3.164063 6.203125-8.085938 9.242188-15.488282 9.308594 0 0-239.945312-.113282-239.949218-.113282-15.863282 0-18.019532-13.117187-18.300782-17.101562-.847656-11.929688 6.929688-25.195312 26.214844-27.941406zm-37.90625 166.035156c-8.269531 0-15-6.730469-15-15s6.730469-15 15-15h15v30zm45 45v-136.105469l210 .097657v136.007812c0 53.308594-39.183594 97.542969-90 104.914062v-28.914062h-30v28.914062c-50.816406-7.371093-90-51.605468-90-104.914062zm0 0"/></svg>