<svg height="512pt" viewBox="0 0 512 512" width="512pt" xmlns="http://www.w3.org/2000/svg"><path d="m452 246.167969-60-19.890625v-75.277344h30v-30h-151v-31h15c41.355469 0 75-33.644531 75-75v-15h-120v121h-150v30h30v75.1875l-60 20v55.8125h-61v210h512v-210h-60zm-181-216.179688h57.429688c-6.191407 17.460938-22.875 30.011719-42.429688 30.011719h-15zm-120 121.011719h211v65.335938l-106.011719-35.144532-104.988281 34.996094zm-60 116.8125 165.011719-55.003906 165.988281 55.019531v34.171875c-34.972656 0-296.402344 0-331 0zm-61 124.1875h31v30h-31zm91 90h-91v-30h61v-90h-61v-30h91zm180 0h-30v-90h30zm-60 0h-30v-90h30zm90 0v-120h-150v120h-30v-150h211v150zm151-60h-30v-30h30zm0-90v30h-60v90h60v30h-90v-150zm0 0"/><path d="m241 242h30v30h-30zm0 0"/></svg>