<svg height="512pt" viewBox="-15 0 511 512" width="512pt" xmlns="http://www.w3.org/2000/svg"><path d="m.5 512h150.5625l-29.675781-108.023438v-295.953124l29.675781-108.023438h-150.5625l30.886719 108.101562v295.796876zm39.773438-30 17.425781-61h37.253906l16.757813 61zm21.113281-91v-270h30v270zm50.324219-361-16.761719 61h-37.25l-17.425781-61zm0 0"/><path d="m211.386719 421h30v91h30v-91h30v-60h15v-23.484375c0-16.394531-3.875-32.804687-11.207031-47.464844-10.660157-21.320312-10.660157-46.777343 0-68.097656 7.332031-14.664063 11.207031-31.074219 11.207031-47.46875v-23.484375h-15v-60h-30v-91h-30v91h-30v60h-15v23.484375c0 16.394531 3.875 32.804687 11.203125 47.464844 10.660156 21.320312 10.660156 46.777343 0 68.097656-7.328125 14.664063-11.203125 31.074219-11.203125 47.46875v23.484375h15zm60-30h-30v-30h30zm-36.960938-182.464844c-4.289062-8.574218-6.929687-17.992187-7.757812-27.546875h59.433593c-.828124 9.554688-3.464843 18.972657-7.753906 27.546875-14.859375 29.722656-14.859375 65.207032 0 94.929688 4.289063 8.574218 6.925782 17.980468 7.753906 27.535156h-59.433593c.828125-9.554688 3.46875-18.960938 7.757812-27.535156 14.859375-29.722656 14.859375-65.207032 0-94.929688zm6.960938-87.535156h30v30h-30zm0 0"/><path d="m391.386719 318.433594v193.566406h90c0-24.335938 0-488.261719 0-511.8125l-19.746094 6.582031c-29.335937 9.78125-54.453125 28.429688-72.625 53.933594-18.074219 25.363281-27.628906 55.160156-27.628906 86.164063 0 94.070312 27.671875 162.640624 30 171.566406zm60 163.566406h-30v-151h30zm0-438.078125v257.078125h-34.183594c-17.847656-53.835938-25.816406-101.421875-25.816406-154.132812 0-43.484376 23.414062-82.578126 60-102.945313zm0 0"/></svg>