<svg height="512pt" viewBox="-76 0 512 512" width="512pt" xmlns="http://www.w3.org/2000/svg"><path d="m23.9375 45 43.582031 43.582031c14.769531 14.769531 23.238281 37.15625 23.234375 61.425781-.003906 24.265626-8.472656 46.648438-23.234375 61.410157-46.226562 46.226562-75.535156 101.101562-65.578125 165.695312 7.894532 51.195313 37.058594 92.847657 65.183594 134.886719h196.054688c28.308593-42.269531 57.773437-84.039062 65.5625-135.386719 5.113281-33.710937-.320313-66.722656-16.398438-98.742187 24.855469-18.660156 47.808594-49.375 47.808594-88.019532 0-53.875-42.890625-97.914062-96.316406-99.78125.136718-.234374.273437-.46875.410156-.703124 5.871094-9.976563 2.625-4.671876 15.175781-29.367188h-24.269531c-24.8125 0-45-20.1875-45-45v-15h-92.574219c-58.929687 0-88.140625 41.027344-93.640625 45zm223.199219 437h-163.96875c-20.40625-30.496094-42.914063-64.445312-50.699219-102.421875l13.429688-13.429687 60 60 60-60 60 60 60-60 12.328124 12.328124c-7.589843 38.488282-30.488281 72.777344-51.089843 103.523438zm13.164062-362c38.515625 0 69.851563 31.335938 69.851563 69.851562 0 26.246094-16.089844 48.179688-33.289063 62.035157-9.425781-13.65625-20.789062-27.175781-34.078125-40.46875-28.859375-28.859375-26.015625-61.675781-14.019531-91.417969zm-142.722656-90h64.082031c5.378906 26.402344 24.675782 47.808594 49.867188 56.1875-17 31.378906-42.644532 93.757812 10.042968 146.445312 37.945313 37.945313 54.640626 72.894532 58.40625 105.164063l-14.074218-14.078125-60 60-60-60-60 60-60-60-15.597656 15.597656c3.382812-32.746094 19.953124-68.210937 58.429687-106.683594 20.34375-20.347656 32.015625-50.457031 32.019531-82.621093.003906-32.167969-11.667968-62.289063-32.019531-82.644531l-21.46875-21.464844c14.621094-10.335938 32.039063-15.902344 50.3125-15.902344zm0 0"/><path d="m165.144531 457.214844-21.214843-21.210938 21.214843-21.214844 21.214844 21.214844zm0 0"/><path d="m105.144531 337.214844-21.210937-21.210938 21.210937-21.214844 21.214844 21.214844zm0 0"/><path d="m225.15625 294.78125 21.214844 21.214844-21.214844 21.210937-21.214844-21.210937zm0 0"/></svg>