<svg height="511pt" viewBox="0 0 511 511.99962" width="511pt" xmlns="http://www.w3.org/2000/svg"><path d="m121.15625 485.171875 89.421875-119.6875 38.839844-38.84375 238.410156-65.019531 24.601563-123.007813-138.609376-138.613281-123.011718 24.601562-65.023438 238.410157-38.839844 38.84375-119.644531 89.5c-32.636719 24.480469-35.992187 72.207031-7.175781 101.019531 28.871094 28.871094 76.582031 25.398438 101.03125-7.203125zm153.710938-434.792969 89.09375-17.816406 115.90625 115.90625-17.816407 89.09375-215.972656 58.898438-30.109375-30.109376zm-75.660157 241.632813 21.210938 21.210937-21.210938 21.207032-21.207031-21.207032zm-153.921875 123.351562 110.082032-82.351562 24.054687 24.054687-82.277344 110.132813c-13.523437 18.027343-39.894531 19.882812-55.8125 3.964843-15.953125-15.953124-14.019531-42.320312 3.953125-55.800781zm0 0"/><path d="m73.148438 418.132812 21.210937 21.210938-21.210937 21.210938-21.210938-21.210938zm0 0"/></svg>