<svg height="512pt" viewBox="0 0 512 512" width="512pt" xmlns="http://www.w3.org/2000/svg"><path d="m210 435.253906-30.347656-304.492187-20.382813-40.761719h20.730469v-90h-150v90h20.730469l-20.382813 40.761719-30.347656 304.492187v76.746094h210zm-58.578125-285.253906 27.007813 271h-146.859376l27.007813-271zm-91.421875-120h90v30h-90zm65.730469 60 15 30h-71.460938l15-30zm-95.730469 392v-31h150v31zm0 0"/><path d="m70.371094 334.136719c8.339844 16.675781 20.636718 25.863281 34.628906 25.863281s26.289062-9.1875 34.628906-25.863281c6.6875-13.375 10.371094-30.828125 10.371094-49.136719s-3.683594-35.761719-10.371094-49.136719c-8.339844-16.675781-20.636718-25.863281-34.628906-25.863281s-26.289062 9.1875-34.628906 25.863281c-6.6875 13.375-10.371094 30.828125-10.371094 49.136719s3.683594 35.761719 10.371094 49.136719zm26.832031-84.855469c3.832031-7.667969 7.277344-9.28125 7.796875-9.28125s3.960938 1.613281 7.796875 9.28125c4.578125 9.15625 7.203125 22.175781 7.203125 35.71875s-2.625 26.5625-7.203125 35.71875c-3.832031 7.667969-7.277344 9.28125-7.796875 9.28125s-3.960938-1.613281-7.796875-9.28125c-4.578125-9.15625-7.203125-22.175781-7.203125-35.71875s2.625-26.5625 7.203125-35.71875zm0 0"/><path d="m345 120c0-21.738281-6.644531-27.597656-47.011719-97.5l-12.988281-22.49609375-12.988281 22.49609375c-43.484375 75.296875-47.011719 77.277344-47.011719 97.5 0 20.84375 10.691406 39.234375 26.871094 49.992188-7.488282 35.101562-11.871094 87.960937-11.871094 145.007812 0 45.863281 3.628906 132.277344 19.328125 172.945312 2.300781 5.949219 9.289063 24.054688 25.671875 24.054688s23.375-18.105469 25.671875-24.054688c15.816406-40.972656 19.328125-128.207031 19.328125-172.945312 0-57.046875-4.382812-109.90625-11.871094-145.007812 16.179688-10.757813 26.871094-29.148438 26.871094-49.992188zm-59.980469-60.140625c27.535157 46.976563 29.980469 49.914063 29.980469 60.140625 0 16.542969-13.457031 30-30 30s-30-13.457031-30-30c0-9.347656.332031-9.167969 30.019531-60.140625zm-.019531 410.433594c-6.929688-23.964844-15-77-15-155.292969 0-15.335938.339844-30.457031.980469-45h28.042969c.636718 14.542969.976562 29.664062.976562 45 0 78.292969-8.070312 131.328125-15 155.292969zm12.210938-230.292969h-24.417969c1.800781-23.113281 4.417969-43.777344 7.683593-60.1875 1.496094.113281 3 .1875 4.523438.1875s3.03125-.074219 4.523438-.1875c3.265624 16.410156 5.882812 37.074219 7.6875 60.1875zm0 0"/><path d="m391 512h90c0-6.914062 0-334.667969 0-375.332031l30.75-136.667969h-151.5l30.75 136.667969zm60-30h-30v-242h30zm-30-452v30h30v-30h23.25l-20.25 90h-36l-20.25-90zm0 120h30v60h-30zm0 0"/></svg>