<svg height="512pt" viewBox="0 0 512 512" width="512pt" xmlns="http://www.w3.org/2000/svg"><path d="m512 0h-512v512h512zm-30 119.933594c-46.46875-6.613282-83.320312-43.464844-89.933594-89.933594h89.933594zm-211 219.851562v-35.148437l33.636719-33.636719h35.148437zm-98.785156-68.785156h35.148437l33.636719 33.636719v35.148437zm68.785156-98.785156v35.148437l-33.636719 33.636719h-35.148437zm15 104.992187-21.207031-21.207031 21.207031-21.207031 21.207031 21.207031zm48.636719-36.207031-33.636719-33.636719v-35.148437l68.785156 68.785156zm11.367187-66.210938 75.003906-75.007812c3.121094 3.871094 6.460938 7.605469 10.03125 11.179688 3.570313 3.570312 7.308594 6.910156 11.179688 10.03125l-75.007812 75.003906zm58.515625-100.941406-79.730469 79.726563-23.789062-23.789063v-99.785156h90.839844c1.699218 15.320312 5.996094 30.105469 12.679687 43.847656zm-133.519531 55.9375-23.789062 23.789063-79.730469-79.726563c6.683593-13.742187 10.980469-28.527344 12.679687-43.847656h90.839844zm-130.039062-18.824218c3.570312-3.574219 6.910156-7.308594 10.03125-11.179688l75.003906 75.007812-21.207032 21.207032-75.007812-75.003906c3.871094-3.121094 7.605469-6.460938 11.179688-10.03125zm-37.113282 26.519531 79.726563 79.730469-23.789063 23.789062h-99.785156v-90.839844c15.320312-1.699218 30.105469-5.996094 43.847656-12.679687zm55.9375 133.519531 23.789063 23.789062-79.726563 79.730469c-13.742187-6.683593-28.527344-10.980469-43.847656-12.683593v-90.835938zm45.003906 45.003906 21.207032 21.207032-75.003906 75.007812c-3.121094-3.871094-6.460938-7.605469-10.03125-11.179688-3.574219-3.570312-7.308594-6.910156-11.179688-10.03125zm-37.308593 122.148438 79.730469-79.726563 23.789062 23.789063v99.785156h-90.839844c-1.699218-15.320312-5.996094-30.105469-12.679687-43.847656zm133.519531-55.9375 23.789062-23.789063 79.730469 79.726563c-6.683593 13.742187-10.980469 28.527344-12.679687 43.847656h-90.839844zm130.039062 18.824218c-3.570312 3.574219-6.910156 7.308594-10.03125 11.179688l-75.003906-75.007812 21.207032-21.207032 75.007812 75.003906c-3.871094 3.121094-7.605469 6.460938-11.179688 10.03125zm37.113282-26.519531-79.726563-79.730469 23.789063-23.789062h99.785156v90.839844c-15.320312 1.699218-30.105469 5.996094-43.847656 12.679687zm-55.9375-133.519531-23.789063-23.789062 79.726563-79.730469c13.742187 6.683593 28.527344 10.980469 43.847656 12.683593v90.835938zm-262.28125-211c-6.613282 46.46875-43.464844 83.320312-89.933594 89.933594v-89.933594zm-89.933594 362.066406c46.46875 6.613282 83.320312 43.464844 89.933594 89.933594h-89.933594zm362.066406 89.933594c6.613282-46.46875 43.464844-83.320312 89.933594-89.933594v89.933594zm0 0"/></svg>