<svg height="512pt" viewBox="0 0 512 512" width="512pt" xmlns="http://www.w3.org/2000/svg"><path d="m511.789062 389.839844h-303.746093l82.207031-53.0625 13.417969-67.097656-5.671875-5.675782 42.40625-42.410156 21.207031 21.207031 150.390625-150.414062-63.613281-63.613281-150.390625 150.414062 21.203125 21.203125-42.40625 42.410156-5.675781-5.675781-67.097657 13.421875-45.984375 71.238281c16.265625-71.039062-7.128906-106.195312-23.929687-121.476562-23.378907-21.269532-57.851563-26.449219-87.816407-13.195313-28.984374 12.816407-46.289062 39.515625-46.289062 71.417969 0 25.871094 19.039062 43.164062 43.433594 43.164062 23.039062 0 47.527344-16.402343 47.527344-46.800781h-29.984376c0 13.273438-11.027343 16.816407-17.542968 16.816407-8.300782 0-13.445313-4.351563-13.445313-13.179688 0-28.363281 19.878907-40.214844 28.425781-43.992188 19.117188-8.457031 40.90625-5.335937 55.515626 7.949219 21.445312 19.507813 25.308593 58.304688 10.992187 107.375h-124.921875v181.925781h511.789062zm-63.398437-318.65625 21.203125 21.207031-107.988281 108-21.203125-21.203125zm-226.054687 206.28125 38.925781-7.785156 9.855469 9.855468-7.785157 38.925782-110.585937 71.378906h-1.808594v-1.761719zm259.464843 204.335937h-451.8125v-121.949219h90.960938v59.972657h360.851562zm0 0"/><path d="m225.53125 88.378906-6.328125 3.167969 13.410156 26.820313 6.332031-3.164063c37.9375-18.972656 61.929688-57.753906 61.929688-100.210937v-14.992188h-29.988281v14.992188c0 31.28125-17.378907 59.398437-45.355469 73.386718zm0 0"/><path d="m420.824219 344.855469h29.988281c0-31.277344 17.378906-59.394531 45.355469-73.386719l6.332031-3.164062-13.410156-26.820313-6.332032 3.164063c-37.9375 18.972656-61.933593 57.753906-61.933593 100.207031zm0 0"/><path d="m120.949219 134.945312h29.988281c0-31.277343 17.378906-59.398437 45.355469-73.386718l6.332031-3.167969-13.410156-26.820313-6.332032 3.167969c-37.941406 18.96875-61.933593 57.75-61.933593 100.207031zm0 0"/></svg>