<svg height="512pt" viewBox="0 0 512 512" width="512pt" xmlns="http://www.w3.org/2000/svg"><path d="m30 240h31v181c0 25.734375 16.746094 49.382812 47.152344 66.589844 27.824218 15.742187 64.351562 24.410156 102.847656 24.410156s75.023438-8.667969 102.847656-24.410156c30.40625-17.207032 47.152344-40.855469 47.152344-66.589844v-121h16c8.269531 0 15 6.730469 15 15v60c0 24.8125 20.1875 45 45 45s45-20.1875 45-45v-165h30v-150h-90v150h30v165c0 8.269531-6.730469 15-15 15s-15-6.730469-15-15v-60c0-24.8125-20.1875-45-45-45h-16v-90c0-32-26.496094-59.597656-67.324219-75.515625 32.390625-14.730469 37.324219-34.09375 37.324219-44.484375 0-10.65625-5.175781-30.75-39.84375-45.605469-21.660156-9.285156-50.125-14.394531-80.15625-14.394531s-58.496094 5.109375-80.15625 14.394531c-34.667969 14.855469-39.84375 34.949219-39.84375 45.605469 0 10.390625 4.933594 29.753906 37.324219 44.484375-40.828125 15.917969-67.324219 43.515625-67.324219 75.515625v30h-61v120h30zm422-60v-30h30v30zm30-90v30h-30v-30zm-182.925781 371.476562c-23.390625 13.234376-54.671875 20.523438-88.074219 20.523438s-64.683594-7.289062-88.074219-20.523438c-20.289062-11.480468-31.925781-26.234374-31.925781-40.476562v-186.371094c27.152344 21.625 70.40625 35.371094 120 35.371094s92.847656-13.746094 120-35.371094v186.371094c0 14.242188-11.636719 28.996094-31.925781 40.476562zm-88.074219-341.476562c53.382812 0 90 18.542969 90 30 0 10.578125-34.171875 30-90 30s-90-19.421875-90-30c0-11.703125 37.070312-30 90-30zm-80.15625 75.605469c21.660156 9.285156 50.125 14.394531 80.15625 14.394531s58.496094-5.109375 80.15625-14.394531c21.199219-9.085938 31.359375-20.125 36.0625-29.769531 2.480469 4.675781 3.78125 9.441406 3.78125 14.164062 0 14.132812-11.601562 28.683594-31.824219 39.921875-23.308593 12.945313-54.621093 20.078125-88.175781 20.078125s-64.867188-7.132812-88.175781-20.078125c-20.222657-11.238281-31.824219-25.789063-31.824219-39.921875 0-4.722656 1.300781-9.488281 3.78125-14.164062 4.703125 9.644531 14.863281 20.683593 36.0625 29.769531zm-9.84375-135.605469c0-10.578125 34.171875-30 90-30s90 19.421875 90 30-34.171875 30-90 30-90-19.421875-90-30zm0 0"/></svg>