<svg height="512pt" viewBox="-31 0 512 512" width="512pt" xmlns="http://www.w3.org/2000/svg"><path d="m308.785156 512h72.429688c21.601562-21.480469 68.785156-64.089844 68.785156-144.324219 0-56.117187-15.914062-79.800781-31.308594-102.703125-14.449218-21.503906-28.105468-41.863281-28.664062-95.539062l39.066406-79.433594h-168.1875l39.066406 79.433594c-.132812 12.816406-1.011718 23.75-2.476562 33.242187-4.238282-3.585937-8.539063-6.730469-12.644532-9.726562-21.742187-15.867188-44.214843-32.273438-44.835937-114.4375l39.253906-78.511719h-228.539062l39.253906 78.511719c-.621094 82.082031-23.074219 98.699219-44.800781 114.773437-21.175782 15.667969-45.183594 33.429688-45.183594 95.738282 0 83.96875 44.457031 169.433593 98.886719 222.976562h132.226562c11.386719-11.199219 23.058594-23.941406 38.121094-45.425781 12.03125 18.472656 23.605469 29.960937 39.550781 45.425781zm72.121094-392-15.246094 31h-41.320312l-15.246094-31zm-150.175781-90-15 30h-101.460938l-15-30zm-167.703125 187.402344c12.96875-9.59375 27.667968-20.46875 38.957031-42.324219 10.699219-20.707031 16.546875-48.640625 17.773437-85.078125h90.488282c1.226562 36.503906 7.09375 64.445312 17.832031 85.109375 11.335937 21.820313 26.082031 32.582031 39.089844 42.074219 8.5 6.203125 15.546875 11.34375 20.949219 18.894531-4.875 11.148437-10.789063 19.980469-16.84375 29.019531-12.421876 18.539063-25.183594 37.597656-29.628907 73.726563l-15.894531 15.894531-60-60-60 60-60-60-14.808594 14.808594c-.605468-6.71875-.941406-13.554688-.941406-20.503906 0-47.1875 13.855469-57.433594 33.027344-71.621094zm155.558594 264.597656h-107.175782c-13.550781-14.722656-57.179687-66.242188-74.359375-136.152344l8.699219-8.699218 60 60 60-60 60 60 14.8125-14.816407c1.585938 20.554688 6.410156 38.550781 12.777344 54.054688-14.3125 22.449219-28.125 38.421875-34.753906 45.613281zm51.414062-114.324219c0-46.785156 12.140625-64.902343 26.195312-85.878906 14.574219-21.75 30.9375-46.164063 33.46875-100.796875h30.671876c2.527343 54.675781 18.886718 79.019531 33.457031 100.703125 14.0625 20.925781 26.207031 39 26.207031 85.972656 0 62.796875-35.59375 99.335938-51.078125 114.324219h-47.84375c-15.484375-14.988281-51.078125-51.527344-51.078125-114.324219zm0 0"/><path d="m165 428.21875-21.214844-21.214844 21.214844-21.210937 21.210938 21.210937zm0 0"/><path d="m105 265.785156 21.214844 21.210938-21.214844 21.214844-21.210938-21.214844zm0 0"/><path d="m225 265.785156 21.214844 21.210938-21.214844 21.214844-21.210938-21.214844zm0 0"/></svg>