<svg height="512pt" viewBox="0 0 512.001 512" width="512pt" xmlns="http://www.w3.org/2000/svg"><path d="m449.75 237.238281-46.640625-46.664062h-144.886719l-8.402344 58.828125-32.878906-32.882813 5.675782-5.675781-13.328126-66.644531-169.96875-123.40625-39.320312 39.316406 123.410156 169.96875 66.644532 13.328125 5.675781-5.675781 61.945312 61.945312-21.402343 21.402344 50.523437 50.519531 13.203125 39.609375c13.863281 41.597657 52.683594 72.453125 99.722656 73.316407l27.4375 27.441406 84.839844-84.839844-38.949219-38.949219zm-308.960938-34.273437-101.46875-139.753906 3.097657-3.101563 139.753906 101.472656 7.882813 39.40625-9.859376 9.855469zm286.371094 266.578125-14.996094-14.996094h-10.417968c-34.707032 0-63.21875-22.601563-73.292969-52.824219l-15.441406-46.328125-34.316407-34.316406 21.207032-21.210937 21.6875 21.683593c22.910156 22.914063 53.277344 36.128907 85.5 37.214844l1.007812-29.976563c-5.933594-.199218-11.789062-.953124-17.5-2.207031v-58.375l-17.429687-17.644531h-62.925781l-2.152344 15.074219-8.1875-8.1875-21.019532 21.019531-2.550781-2.550781 7.90625-55.347657h106.441407l30.921874 30.9375 23.300782 150.9375 24.675781 24.679688zm-66.558594-155.105469c-6.394531-3.949219-12.371093-8.664062-17.800781-14.09375l-8.195312-8.195312 1.65625-11.589844h24.339843zm0 0"/><path d="m186.238281 103.050781-21.207031-21.210937 81.835938-81.839844 21.210937 21.210938zm0 0"/><path d="m306.855469 29.992188 21.210937 21.207031-81.839844 81.839843-21.207031-21.210937zm0 0"/></svg>