<svg height="512pt" viewBox="-31 0 512 512" width="512pt" xmlns="http://www.w3.org/2000/svg"><path d="m285 61h-15v-31h30v-30h-150v30h30v31c-9.222656 0-79.507812 0-90 0v270h90v17.433594l24.1875 72.566406h-204.1875v91h450v-91h-204.1875l24.1875-72.566406v-17.433594h15c41.660156 0 79.890625-23.109375 99.246094-60h65.753906v-150h-65.753906c-19.355469-36.890625-57.585938-60-99.246094-60zm-75-31h30v31h-30zm-90 181h60v30h-60zm90-20.171875c1.910156-1.890625 3.769531-3.902344 5.574219-6.042969 5.117187 15.019532 13.558593 28.5 24.425781 39.605469v119.175781l-15 45-15-45c0-24.882812 0-134.40625 0-152.738281zm-90-9.828125v-30h30v30zm0-90h30v30h-30zm0 210v-30h60v30c-17.847656 0-41.78125 0-60 0zm300 181h-390v-31h390zm0-241h-54.269531l-7.316407 14.625c-13.992187 27.988281-42.125 45.375-73.414062 45.375h-15v-55.152344c13.648438 6.503906 28.902344 10.152344 45 10.152344v-30c-41.355469 0-75-33.644531-75-75v-30h-30c0 20.386719-13.214844 45.378906-30 55.464844v-85.464844h105c31.289062 0 59.421875 17.386719 73.417969 45.371094l7.3125 14.628906h54.269531zm0 0"/><path d="m330 391h30c0-24.8125 20.1875-45 45-45v-30c-41.355469 0-75 33.644531-75 75zm0 0"/><path d="m90 391c0-41.355469-33.644531-75-75-75v30c24.8125 0 45 20.1875 45 45zm0 0"/></svg>