<svg height="512pt" viewBox="-61 0 512 512" width="512pt" xmlns="http://www.w3.org/2000/svg"><path d="m0 286c0 42.226562 12.378906 83.113281 35.800781 118.246094 15.605469 23.40625 24.199219 52.144531 24.199219 80.917968v26.835938h270v-26.835938c0-28.773437 8.59375-57.511718 24.199219-80.921874 23.421875-35.128907 35.800781-76.019532 35.800781-118.242188s-12.378906-83.113281-35.800781-118.246094l-11.171875-16.753906h16.972656v-30h-31.507812c-6.96875-34.191406-37.273438-60-73.492188-60h-5.90625l30-61h-168.1875l30 61h-5.90625c-36.21875 0-66.523438 25.808594-73.492188 60h-31.507812v30h16.972656l-11.171875 16.757812c-23.421875 35.128907-35.800781 76.015626-35.800781 118.242188zm89.972656 196c-.191406-10.40625-1.316406-20.808594-3.320312-31.011719h216.695312c-2.003906 10.203125-3.128906 20.605469-3.320312 31.011719zm239.265625-94.398438c-6.921875 10.382813-12.695312 21.621094-17.242187 33.398438h-233.996094c-4.542969-11.777344-10.316406-23.015625-17.238281-33.398438-18.894531-28.335937-29.421875-61.035156-30.640625-94.949218l45.628906 45.628906 60-60 60 60 60-60 60 60 44.058594-44.0625c-1.480469 33.355469-11.96875 65.480469-30.570313 93.382812zm-170.144531-357.601562h71.8125l-15.246094 31h-41.320312zm-24.09375 61h120c19.554688 0 36.226562 12.539062 42.421875 30h-204.84375c6.195313-17.460938 22.867187-30 42.421875-30zm171.972656 60 22.265625 33.398438c14.199219 21.296874 23.667969 45.0625 28.019531 69.949218l-41.507812 41.507813-60-60-60 60-60-60-60 60-42.78125-42.78125c4.449219-24.425781 13.835938-47.742188 27.792969-68.675781l22.265625-33.398438zm0 0"/><path d="m96.214844 225.996094-21.210938 21.214844-21.214844-21.214844 21.214844-21.210938zm0 0"/><path d="m194.996094 204.785156 21.210937 21.210938-21.210937 21.214844-21.214844-21.214844zm0 0"/><path d="m315 204.78125 21.210938 21.214844-21.210938 21.210937-21.214844-21.210937zm0 0"/><path d="m135.007812 367.21875-21.214843-21.210938 21.214843-21.214843 21.214844 21.214843zm0 0"/><path d="m255 367.21875-21.214844-21.214844 21.214844-21.210937 21.210938 21.210937zm0 0"/></svg>