<svg height="512pt" viewBox="-31 0 512 512" width="512pt" xmlns="http://www.w3.org/2000/svg"><path d="m63.265625 194.171875c9.4375 2.3125 19.839844 4.402344 31.011719 6.25-2.816406 14.136719-4.277344 28.539063-4.277344 42.9375 0 42.757813 14.617188 84.558594 40.636719 117.640625h-55.636719c-24.8125 0-45 20.1875-45 45v45h140.90625l-15.246094 31h-35.660156v30h210v-30h-35.660156l-15.246094-31h140.90625v-45c0-24.8125-20.1875-45-45-45h-55.636719c26.019531-33.082031 40.636719-74.882812 40.636719-117.640625 0-14.398437-1.457031-28.800781-4.277344-42.9375 11.171875-1.847656 21.574219-3.9375 31.011719-6.25 25.457031-6.238281 63.265625-18.132813 63.265625-44.171875 0-21.410156-25.597656-31.691406-34.007812-35.070312-16.890626-6.785157-40.027344-12.402344-68.773438-16.699219l-4.4375 29.671875c49.226562 7.355468 69.652344 17.113281 75.761719 22.074218-4.648438 3.703126-17.914063 10.605469-47.289063 16.980469-7.285156 1.582031-15.132812 3.035157-23.441406 4.355469-3.109375-8.988281-6.773438-17.777344-11.023438-26.273438l-35.019531-70.039062 37.5-75h-228.539062l37.5 75-35.019531 70.039062c-4.25 8.496094-7.917969 17.285157-11.027344 26.273438-8.304688-1.320312-16.15625-2.773438-23.441406-4.355469-29.375-6.375-42.640626-13.28125-47.285157-16.980469 6.109375-4.960937 26.535157-14.71875 75.761719-22.074218l-4.4375-29.671875c-28.746094 4.296875-51.886719 9.914062-68.773438 16.699219-8.410156 3.378906-34.007812 13.660156-34.007812 35.070312 0 26.011719 37.699219 37.90625 63.265625 44.171875zm197.640625 287.828125h-71.8125l15.246094-31h41.320312zm129.09375-76v15h-330v-15c0-8.269531 6.730469-15 15-15h300c8.269531 0 15 6.730469 15 15zm-218.785156-45c-2.972656-3.222656-13.859375-12.5625-25.210938-30.011719h157.992188c-11.351563 17.453125-22.242188 26.792969-25.210938 30.011719zm119.515625-331-15 30h-101.460938l-15-30zm-150.6875 128.453125 34.226562-68.453125h101.460938l34.226562 68.453125c2.746094 5.496094 5.207031 11.132813 7.402344 16.871094-19.667969 2.113281-40.917969 3.558593-62.820313 4.226562l.921876 29.988281c24.785156-.761718 48.617187-2.460937 70.5-4.980468 2.667968 12.757812 4.039062 25.78125 4.039062 38.800781 0 19.828125-3.722656 39.40625-10.714844 57.640625h-188.570312c-6.992188-18.234375-10.714844-37.8125-10.714844-57.640625 0-13.019531 1.375-26.046875 4.039062-38.800781 21.882813 2.515625 45.71875 4.21875 70.5 4.976562l.921876-29.984375c-21.902344-.671875-43.152344-2.113281-62.820313-4.226562 2.199219-5.738281 4.65625-11.375 7.402344-16.871094zm0 0"/></svg>