<svg height="512pt" viewBox="-61 0 512 512" width="512pt" xmlns="http://www.w3.org/2000/svg"><path d="m390 154.859375v-4.859375c0-49.625-40.375-90-90-90-10.363281 0-20.449219 1.746094-29.96875 5.109375-.019531-1.507813-.03125-5.109375-.03125-5.109375 0-16.542969 13.457031-30 30-30h30v-30h-270v30h30c16.542969 0 30 13.457031 30 30 0 1.726562-.015625 3.421875-.039062 5.105469-9.519532-3.359375-19.601563-5.105469-29.960938-5.105469-49.625 0-90 40.375-90 90v4.859375c0 30.160156 14.980469 58.15625 40.078125 74.886719l12.167969 8.113281c-12.855469 20.792969-22.507813 43.699219-22.507813 75.828125 0 64.648438 42.640625 110.007812 60.261719 127.566406v70.746094h210v-70.746094c34.890625-34.871094 60.273438-78.117187 60.273438-127.433594 0-32.453124-9.757813-55.242187-22.714844-75.832031l12.363281-8.242187c25.097656-16.730469 40.078125-44.722656 40.078125-74.886719zm-141.929688-124.859375c-5.121093 8.832031-8.070312 19.074219-8.070312 30v.546875c0 92.507813 31.363281 135.945313 56.566406 170.847656 8.679688 12.019531 16.511719 22.875 22.441406 34.582031l-3.261718-3.257812-60 60-60-60-60 60-60-60-6.402344 6.40625c6.128906-13.269531 14.707031-25.347656 24.3125-38.859375 25.101562-35.3125 56.34375-79.257813 56.34375-170.265625 0-10.925781-2.949219-21.167969-8.070312-30zm-191.351562 174.785156c-16.730469-11.152344-26.71875-29.816406-26.71875-49.925781v-4.859375c0-33.085938 26.914062-60 60-60 9.902344 0 19.425781 2.371094 27.996094 6.910156-6.523438 56.503906-27.949219 86.65625-48.789063 115.972656-.039062.050782-.074219.101563-.109375.152344zm63.28125 277.214844v-32h150v32zm158.804688-62h-167.632813c-14.570313-14.539062-48.089844-50.351562-51.179687-99.09375l15.757812-15.757812 60 60 60-60 60 60 60-60 14.367188 14.367187c-1.734376 33.964844-18.964844 67.726563-51.3125 100.484375zm54.476562-215.214844-12.773438 8.515625c-20.882812-28.921875-42.261718-58.832031-48.617187-116.328125 8.597656-4.578125 18.164063-6.972656 28.109375-6.972656 33.085938 0 60 26.914062 60 60v4.859375c0 20.109375-9.988281 38.773437-26.71875 49.925781zm0 0"/><path d="m194.992188 396.214844-21.210938-21.210938 21.210938-21.214844 21.214843 21.214844zm0 0"/><path d="m134.996094 276.214844-21.214844-21.210938 21.214844-21.214844 21.210937 21.214844zm0 0"/><path d="m255.003906 233.78125 21.214844 21.214844-21.214844 21.210937-21.210937-21.210937zm0 0"/></svg>