<svg height="512pt" viewBox="0 0 512 512.0003" width="512pt" xmlns="http://www.w3.org/2000/svg"><path d="m316.972656 360.957031c-24.8125 0-44.996094 20.1875-44.996094 44.996094 0 24.8125 20.183594 44.996094 44.996094 44.996094 24.808594 0 44.996094-20.183594 44.996094-44.996094 0-24.808594-20.183594-44.996094-44.996094-44.996094zm0 59.996094c-8.269531 0-15-6.730469-15-15s6.730469-15 15-15c8.269532 0 14.996094 6.730469 14.996094 15s-6.726562 15-14.996094 15zm0 0"/><path d="m361.96875 285.964844c0 24.8125 20.183594 44.996094 44.992188 44.996094 24.8125 0 44.996093-20.183594 44.996093-44.996094 0-24.808594-20.183593-44.992188-44.996093-44.992188-24.808594 0-44.992188 20.183594-44.992188 44.992188zm59.992188 0c0 8.273437-6.730469 15-15 15-8.269532 0-14.996094-6.726563-14.996094-15 0-8.269532 6.726562-14.996094 14.996094-14.996094 8.269531 0 15 6.726562 15 14.996094zm0 0"/><path d="m256.976562 150.980469c24.8125 0 44.996094-20.183594 44.996094-44.996094 0-24.808594-20.183594-44.992187-44.996094-44.992187-24.808593 0-44.992187 20.183593-44.992187 44.992187 0 24.8125 20.183594 44.996094 44.992187 44.996094zm0-59.992188c8.273438 0 15 6.726563 15 14.996094s-6.726562 15-15 15c-8.269531 0-14.996093-6.730469-14.996093-15s6.726562-14.996094 14.996093-14.996094zm0 0"/><path d="m136.992188 210.972656c24.808593 0 44.996093-20.183594 44.996093-44.992187 0-24.8125-20.1875-44.996094-44.996093-44.996094-24.8125 0-44.996094 20.183594-44.996094 44.996094 0 24.808593 20.183594 44.992187 44.996094 44.992187zm0-59.992187c8.269531 0 14.996093 6.730469 14.996093 15s-6.726562 14.996093-14.996093 14.996093c-8.269532 0-15-6.726562-15-14.996093s6.730468-15 15-15zm0 0"/><path d="m45.808594 271.019531c38.894531.316407 75.761718 21.332031 97.175781 36.347657-9.496094 8.816406-19.128906 18.09375-28.753906 27.71875-34.820313 34.820312-65.472657 69.796874-86.308594 98.496093-10.625 14.632813-18.28125 27.085938-22.757813 37.007813-2.625 5.824218-10.621093 23.554687 1.011719 35.183594 9.40625 9.40625 22.972657 6.558593 35.167969 1.242187 10.078125-4.398437 22.660156-11.933594 37.394531-22.398437 29.441407-20.914063 64.644531-51.417969 99.121094-85.898438 8.738281-8.738281 17.1875-17.480469 25.269531-26.125 7.796875 25.980469 11.214844 58.296875 4.453125 83.714844-7.222656 27.167968 13.148438 54.585937 41.238281 55.542968 152.011719 5.195313 279.710938-126.914062 261.371094-286.371093-13.199218-114.757813-105.550781-208.679688-219.59375-223.320313-144.320312-18.53125-271.734375 84.570313-290.179687 218.453125-1.722657 12.492188 1.917969 24.675781 10.246093 34.308594 8.746094 10.117187 21.554688 15.984375 35.144532 16.097656zm301.210937-121.007812c.5-7.816407 7.003907-14.03125 14.949219-14.03125 8.269531 0 14.996094 6.730469 14.996094 15 0 7.945312-6.210938 14.445312-14.03125 14.949219l5.824218-21.738282zm-84.3125 57.808593c6.554688-6.554687 6.460938-6.183593 63.746094-21.296874-13.808594 52.902343-14.109375 56.5-21.324219 63.71875-11.695312 11.695312-30.726562 11.695312-42.421875 0-11.722656-11.722657-11.726562-30.699219 0-42.421876zm-21.210937 63.632813c1.074218 1.078125 2.195312 2.085937 3.332031 3.066406-9.402344 14.070313-22.347656 30.746094-37.640625 48.589844l-18.296875-16.535156c18.199219-15.644531 35.21875-28.886719 49.535156-38.449219.984375 1.136719 1.996094 2.253906 3.070313 3.328125zm-84.84375 106.054687c-29.539063 29.539063-60.261719 56.617188-86.503906 76.25-15.703126 11.746094-26.769532 18.59375-34.304688 22.585938 4.089844-7.460938 11.058594-18.421875 22.941406-33.980469 19.609375-25.679687 46.832032-56.242187 76.65625-86.066406 10.304688-10.308594 20.691406-20.257813 30.910156-29.65625l20.925782 18.90625c-9.683594 10.558594-19.964844 21.300781-30.625 31.960937zm-126.519532-152.800781c16.851563-122.3125 131.972657-208.800781 256.644532-192.796875 100.546875 12.910156 181.96875 95.761719 193.613281 197 16.484375 143.300782-98.777344 257.445313-230.542969 252.964844-8.855468-.304688-15.535156-9.355469-13.273437-17.855469 10.148437-38.152343 2.117187-85.105469-10.550781-116.785156 19.023437-21.875 34.878906-42.324219 45.972656-59.433594 19.324218 3.890625 39.78125-1.785156 54.34375-16.347656 13.648437-13.648437 14.878906-22.660156 28.785156-75.996094 27.347656 4.191407 51.839844-17.066406 51.839844-44.476562 0-24.808594-20.1875-44.992188-44.996094-44.992188-24.8125 0-44.996094 20.183594-44.996094 44.992188 0 2.339843.179688 4.640625.527344 6.882812-58.464844 15.417969-63.238281 15.980469-76.003906 28.746094-14.75 14.75-20.246094 35.179687-16.386719 54.371094-17.070313 11.074219-37.46875 26.882812-59.28125 45.851562-25.871094-19.167969-70.261719-45.402343-119.773437-45.808593-4.964844-.042969-9.589844-2.125-12.699219-5.714844-1.84375-2.136719-3.898438-5.703125-3.222657-10.601563zm0 0"/></svg>