<svg height="512pt" viewBox="0 -61 512 512" width="512pt" xmlns="http://www.w3.org/2000/svg"><path d="m432.417969 182.652344c-58.132813-41.027344-119.136719-62.710938-176.417969-62.710938s-118.285156 21.683594-176.417969 62.710938c-43.480469 30.6875-69.996093 61.132812-71.105469 62.414062l-8.476562 9.804688 8.476562 9.804687c1.109376 1.28125 27.625 31.726563 71.105469 62.414063 58.132813 41.027344 119.136719 62.714844 176.417969 62.714844s118.285156-21.6875 176.417969-62.714844c43.480469-30.6875 69.996093-61.132813 71.105469-62.414063l8.476562-9.804687-8.476562-9.804688c-1.109376-1.28125-27.625-31.726562-71.105469-62.414062zm-71.472657 72.21875c0 57.824218-47.039062 104.949218-104.945312 104.949218-57.816406 0-104.945312-47.035156-104.945312-104.949218 0-57.867188 47.078124-104.945313 104.945312-104.945313 57.824219 0 104.945312 47.042969 104.945312 104.945313zm-320.519531.003906c16.636719-16.789062 54.542969-51.632812 104.53125-76.570312-15.054687 21.769531-23.890625 48.152343-23.890625 76.566406 0 28.398437 8.828125 54.769531 23.867188 76.53125-18.066406-8.980469-34.105469-19-47.441406-28.375-26.289063-18.480469-46.203126-37.167969-57.066407-48.152344zm374.082031 48.15625c-13.335937 9.371094-29.375 19.390625-47.441406 28.371094 15.039063-21.761719 23.867188-48.132813 23.867188-76.53125 0-28.398438-8.828125-54.769532-23.867188-76.53125 18.066406 8.980468 34.105469 19 47.441406 28.375 26.292969 18.484375 46.207032 37.171875 57.074219 48.15625-10.867187 10.984375-30.78125 29.671875-57.074219 48.160156zm0 0"/><path d="m181.039062 254.871094c0 41.335937 33.625 74.960937 74.960938 74.960937s74.960938-33.625 74.960938-74.960937c0-41.332032-33.625-74.960938-74.960938-74.960938s-74.960938 33.628906-74.960938 74.960938zm119.9375 0c0 24.800781-20.175781 44.976562-44.976562 44.976562s-44.976562-20.175781-44.976562-44.976562c0-24.800782 20.175781-44.976563 44.976562-44.976563s44.976562 20.175781 44.976562 44.976563zm0 0"/><path d="m241.007812 239.878906h29.984376v29.984375h-29.984376zm0 0"/><path d="m241.007812 0h29.984376v74.960938h-29.984376zm0 0"/><path d="m404.125 34.132812-37.480469 64.917969-25.964843-14.992187 37.480468-64.917969zm0 0"/><path d="m443.402344 143.277344-14.992188-25.96875 64.917969-37.480469 14.992187 25.96875zm0 0"/><path d="m171.328125 84.070312-25.96875 14.992188-37.480469-64.917969 25.96875-14.992187zm0 0"/><path d="m68.59375 143.269531-64.917969-37.480469 14.992188-25.96875 64.917969 37.480469zm0 0"/></svg>