<svg height="512pt" viewBox="0 -66 512 512" width="512pt" xmlns="http://www.w3.org/2000/svg"><path d="m393.976562.824219c-91.554687 11.445312-184.398437 11.445312-275.953124 0-62.542969-7.816407-118.023438 40.972656-118.023438 104.191406v171.097656c0 63.039063 55.304688 112.03125 118.023438 104.191407 91.554687-11.445313 184.398437-11.445313 275.953124 0 62.488282 7.808593 118.023438-40.921876 118.023438-104.191407 0-16.226562 0-152.386719 0-171.101562 0-63.03125-55.292969-112.023438-118.023438-104.1875zm88.023438 275.289062c0 45.027344-39.503906 80.019531-84.304688 74.417969-94.019531-11.75-189.371093-11.75-283.390624 0-44.667969 5.585938-84.304688-29.253906-84.304688-74.417969v-1.527343c22.636719 23.113281 55.085938 34.832031 88.023438 30.714843 91.554687-11.441406 184.398437-11.441406 275.953124 0 32.351563 4.046875 64.972657-7.183593 88.023438-30.714843zm0-75c0 45.027344-39.503906 80.019531-84.304688 74.417969-47.011718-5.875-94.351562-8.8125-141.695312-8.8125s-94.6875 2.9375-141.695312 8.8125c-44.59375 5.578125-84.304688-29.167969-84.304688-74.417969 0-12.15625 0-84.015625 0-96.101562 0-45.027344 39.503906-80.019531 84.304688-74.417969 94.019531 11.753906 189.371093 11.753906 283.390624 0 44.683594-5.585938 84.304688 29.269531 84.304688 74.421875zm0 0"/><path d="m120 78.0625h30v30h-30zm0 0"/><path d="m60 138.0625h30v30h-30zm0 0"/><path d="m120 198.0625h30v30h-30zm0 0"/><path d="m180 138.0625h30v30h-30zm0 0"/><path d="m362 78.0625h30v30h-30zm0 0"/><path d="m302 138.0625h30v30h-30zm0 0"/><path d="m362 198.0625h30v30h-30zm0 0"/><path d="m241 78.0625h30v30h-30zm0 0"/><path d="m241 198.0625h30v30h-30zm0 0"/><path d="m422 138.0625h30v30h-30zm0 0"/></svg>