<svg height="512pt" viewBox="-91 0 512 512" width="512pt" xmlns="http://www.w3.org/2000/svg"><path d="m120 211v211h-45c-41.355469 0-75 33.644531-75 75v15h330v-15c0-41.355469-33.644531-75-75-75h-45v-151h30v60h30v-90h-60v-30h-30v-121h120v-45c0-24.8125-20.1875-45-45-45h-180c-24.8125 0-45 20.1875-45 45v45h120v121zm-60-166c0-8.269531 6.730469-15 15-15h180c8.269531 0 15 6.730469 15 15v15h-210zm120 196v30h-30v-30zm-30 181v-121h30v121zm-117.429688 60c6.191407-17.460938 22.875-30.011719 42.429688-30.011719h47.578125c-1.664063 4.695313-2.578125 9.753907-2.578125 15.011719v15zm147.429688 0h-30v-15c0-8.269531 6.730469-15 15-15s15 6.730469 15 15zm117.429688 0h-87.429688v-15c0-5.257812-.914062-10.304688-2.578125-15h47.578125c19.558594 0 36.238281 12.539062 42.429688 30zm0 0"/></svg>