<svg height="512pt" viewBox="0 -49 512 512" width="512pt" xmlns="http://www.w3.org/2000/svg"><path d="m352.214844 0h-201.214844v60h-15c-32.410156 0-64.554688 7.507812-92.957031 21.707031l-16.582031 8.292969h-26.460938v30h26.460938l16.582031 8.292969c28.402343 14.199219 60.546875 21.707031 92.957031 21.707031h63.941406l36.585938 52.25c2.242187 11.328125-.546875 58.808594 34.628906 109.042969 35.464844 50.652343 82.023438 64.488281 90.378906 69.488281l23.511719 33.570312 122.871094-86.035156-32.457031-46.355468-21.78125-131.960938h58.320312v-90h-99.785156zm-63.410156 120-21.003907-30h153.199219v30zm-107.804688-90h158.785156l30 30h-122.992187l-11.71875-16.738281-23.90625 16.738281h-30.167969zm-60 89.367188c-19.769531-1.640626-39.113281-6.519532-56.957031-14.367188 17.84375-7.847656 37.1875-12.726562 56.957031-14.371094zm30 .632812v-30h17.324219l-6.972657 4.882812 17.585938 25.117188zm295.972656 173.578125 19.164063 27.371094-73.726563 51.621093-10.90625-15.578124c-13.734375-7.957032-54.480468-18.21875-85.769531-62.90625-30.945313-44.191407-26.886719-85.03125-30.121094-102.605469l-62.480469-89.230469 24.574219-17.207031 43.523438 62.164062c23.941406 34.1875 61.390625 57.027344 102.746093 62.65625l4.046876-29.726562c-24.195313-3.292969-46.710938-13.953125-64.5625-30.136719h109.8125zm35.027344-173.578125h-31v-30h31zm0 0"/></svg>