<svg height="512pt" viewBox="-63 0 511 512" width="512pt" xmlns="http://www.w3.org/2000/svg"><path d="m196.710938 91h90v30h-90zm0 0"/><path d="m316.710938 421v-30h30v-391h-233.078126l-66.921874 101.5v111.738281l-46.210938 57.761719h46.210938v59.988281h30v60.011719h30v30h-24.339844l-44.753906 91h348.183593l-44.753906-91zm-240-300h43.789062l-43.789062 54.738281zm105 210v-30h-105v-30h75v-30h-88.792969l120-150h-93.351563l40.21875-61h186.925782v331h-210v-30zm-45 60h150v30h-150zm-50.910157 91 15.246094-31h221.324219l15.246094 31zm0 0"/></svg>