<svg height="512pt" viewBox="0 0 512 512" width="512pt" xmlns="http://www.w3.org/2000/svg"><path d="m256 512c140.960938 0 256-115.050781 256-256 0-140.960938-115.050781-256-256-256-140.960938 0-256 115.050781-256 256 0 140.960938 115.050781 256 256 256zm-194.429688-241c3.25 42.507812 20.195313 81.242188 46.414063 111.804688l-21.964844 21.960937c-31.769531-36.253906-52.148437-82.71875-55.507812-133.765625zm30.117188-30c3.101562-34.25 16.707031-65.511719 37.574219-90.527344l10.117187 10.121094 21.214844-21.214844-10.121094-10.117187c25.015625-20.867188 56.277344-34.472657 90.527344-37.574219v14.3125h30v-14.3125c34.25 3.101562 65.511719 16.707031 90.527344 37.574219l-10.121094 10.117187 21.214844 21.214844 10.117187-10.121094c20.867188 25.015625 34.472657 56.277344 37.574219 90.527344h-14.3125v29.988281h14.3125c-3.101562 34.25-16.707031 65.523438-37.574219 90.539063l-10.117187-10.121094-21.214844 21.214844 10.121094 10.117187c-25.015625 20.867188-56.277344 34.472657-90.527344 37.574219v-14.3125h-30v14.3125c-34.25-3.101562-65.511719-16.707031-90.527344-37.574219l10.121094-10.117187-21.214844-21.214844-10.117187 10.121094c-20.867188-25.015625-34.472657-56.277344-37.574219-90.527344h14.3125v-30zm291.117188-133.015625c-30.5625-26.21875-69.292969-43.164063-111.804688-46.414063v-31.058593c51.046875 3.359375 97.511719 23.738281 133.769531 55.507812zm-141.804688-46.414063c-42.511719 3.25-81.242188 20.195313-111.804688 46.414063l-21.964843-21.964844c36.257812-31.769531 82.722656-52.148437 133.769531-55.507812zm-111.804688 342.445313c30.5625 26.21875 69.292969 43.164063 111.804688 46.414063v31.058593c-51.046875-3.359375-97.511719-23.738281-133.769531-55.507812zm141.804688 46.414063c42.511719-3.25 81.242188-20.195313 111.804688-46.414063l21.960937 21.964844c-36.253906 31.773437-82.722656 52.148437-133.765625 55.511719zm154.980469-45.664063-21.964844-21.960937c26.21875-30.5625 43.164063-69.304688 46.414063-111.816407h31.058593c-3.359375 51.046875-23.738281 97.523438-55.507812 133.777344zm55.507812-163.765625h-31.058593c-3.25-42.507812-20.195313-81.242188-46.414063-111.804688l21.964844-21.960937c31.769531 36.253906 52.148437 82.71875 55.507812 133.765625zm-395.46875-133.765625 21.964844 21.960937c-26.21875 30.5625-43.164063 69.296876-46.414063 111.804688h-31.058593c3.359375-51.046875 23.738281-97.511719 55.507812-133.765625zm0 0"/><path d="m256 234.785156 21.214844 21.210938-21.214844 21.214844-21.214844-21.214844zm0 0"/><path d="m165.066406 308.5c10.117188 17.527344 29.984375 25.394531 48.1875 21.570312 5.917969 17.941407 22.84375 30.929688 42.746094 30.929688s36.828125-12.984375 42.746094-30.929688c18.164062 3.816407 38.042968-4.003906 48.1875-21.570312 10.078125-17.453125 7.058594-38.585938-5.398438-52.5 12.433594-13.890625 15.492188-35.019531 5.398438-52.5-10.117188-17.523438-29.980469-25.394531-48.1875-21.570312-5.917969-17.941407-22.84375-30.929688-42.746094-30.929688s-36.828125 12.984375-42.746094 30.929688c-18.175781-3.816407-38.050781 4.011718-48.1875 21.570312-10.074218 17.449219-7.058594 38.585938 5.398438 52.5-12.433594 13.890625-15.492188 35.019531-5.398438 52.5zm31.472656-69.511719c-7.179687-4.140625-9.636718-13.308593-5.492187-20.488281s13.3125-9.636719 20.492187-5.492188l29.460938 17.011719v-34.019531c0-8.269531 6.730469-15 15-15s15 6.730469 15 15v34.019531l29.460938-17.007812c7.179687-4.144531 16.347656-1.691407 20.492187 5.488281s1.6875 16.347656-5.488281 20.492188l-29.46875 17.007812 29.464844 17.011719c7.179687 4.140625 9.636718 13.308593 5.492187 20.488281s-13.3125 9.636719-20.492187 5.492188l-29.460938-17.011719v34.019531c0 8.269531-6.730469 15-15 15s-15-6.730469-15-15v-34.019531l-29.460938 17.007812c-7.179687 4.144531-16.347656 1.691407-20.492187-5.488281s-1.6875-16.347656 5.488281-20.492188l29.46875-17.007812zm0 0"/></svg>