<svg height="511pt" viewBox="0 0 511.99997 511" width="511pt" xmlns="http://www.w3.org/2000/svg"><path d="m85.078125 440.445312 5.890625 3.925782v67.945312h209.921875v-67.945312c1.378906-1.496094 89.96875-49.957032 89.96875-161.03125 0-28.332032-6.429687-56.328125-18.660156-81.785156 19.09375-16.070313 39.160156-34.480469 58.589843-53.910157 33.628907-33.628906 57.089844-61.945312 69.738282-84.167969 10.273437-18.046874 18.007812-40.476562 3.398437-55.085937-11.800781-11.800781-30.222656-10.15625-54.757812 4.898437-21.042969 12.910157-48.96875 36.710938-82.996094 70.738282-17.171875 17.171875-33.246094 34.371094-47.554687 50.789062-3.433594-2.699218-1.257813-.984375-45.097657-33.886718l23.222657-70.441407h34.140624v-29.988281h-269.90625v29.988281h34.140626l23.222656 70.441407-41.8125 31.359374c-47.917969 35.9375-76.527344 92.40625-76.527344 151.050782 0 63.507812 32.910156 122.324218 85.078125 157.105468zm35.878906 41.882813v-30.988281h149.945313v30.988281zm239.914063-198.988281c0 96.078125-77.496094 135.859375-79.511719 138.011718h-170.855469c-4.472656-3.628906-35.550781-19.46875-58.449218-58.027343l54.65625-54.65625 59.976562 59.980469 38.03125-38.027344c79.730469-21.292969 83.769531-20.46875 97.835938-34.535156 14.65625-14.65625 20.261718-35.035157 16.386718-54.339844 8.949219-5.765625 18.769532-12.773438 29.15625-20.753906 8.382813 19.652343 12.773438 40.882812 12.773438 62.347656zm-24.535156-123.121094 17.574218 17.574219c-17.488281 14.78125-34.03125 27.4375-48.257812 36.832031-2.183594-2.539062-3.898438-4.25-6.425782-6.429688 9.292969-13.910156 22.046876-30.363281 37.109376-47.976562zm-54.988282 72.25c11.722656 11.71875 11.722656 30.6875 0 42.410156-6.550781 6.550782-6.460937 6.179688-63.730468 21.289063 13.800781-52.878907 14.105468-56.488281 21.320312-63.699219 11.722656-11.71875 30.691406-11.722656 42.410156 0zm106.03125-127.234375c62.324219-62.328125 86.964844-72.710937 94.429688-74.351563-1.148438 7.585938-10.089844 33.421876-72.226563 95.558594-10.953125 10.953125-22.085937 21.546875-33.082031 31.535156l-20.238281-20.242187c9.828125-10.734375 20.273437-21.660156 31.117187-32.5zm-122.210937-74.742187-20.105469 60.976562h-98.265625l-20.101563-60.976562zm-170.648438 125.789062 46.429688-34.824219h109.960937c41.183594 30.90625 44.125 33.027344 48.414063 36.347657-10.804688 13.421874-20.019531 25.953124-27.234375 37.074218-19.167969-3.851562-39.597656 1.621094-54.355469 16.382813-15.226563 15.226562-14.9375 24.375-34.769531 98.703125l-16.273438 16.273437-59.980468-59.976562-68.105469 68.105469c-5.628907-16.238282-8.617188-33.441407-8.617188-51.027344 0-49.253906 24.125-96.753906 64.53125-127.058594zm0 0"/></svg>