<svg height="512pt" viewBox="0 0 512 512" width="512pt" xmlns="http://www.w3.org/2000/svg"><path d="m405.957031 0-169.667969 169.667969-74.226562-74.230469c-42.871094-42.871094-89.160156-51.675781-97.941406-55.523438l-18.707032-18.707031-21.207031 21.210938 18.703125 18.703125c3.925782 8.960937 12.636719 55.054687 55.527344 97.941406l74.230469 74.230469-172.667969 172.664062 106.039062 106.042969 172.667969-172.667969 148.457031 148.460938 63.625-63.625-148.457031-148.460938 169.667969-169.664062zm-21.207031 360.542969-21.207031 21.207031-233.292969-233.292969 21.207031-21.207031zm-304.703125-283.492188c18.039063 6.992188 34.921875 17.007813 49.734375 29.460938l-20.269531 20.269531c-12.453125-14.8125-22.46875-31.695312-29.464844-49.730469zm25.996094 392.53125-63.625-63.625 23.207031-23.207031 21.207031 21.207031 21.210938-21.207031-21.210938-21.207031 21.210938-21.210938 42.414062 42.417969 21.210938-21.207031-42.417969-42.417969 21.207031-21.207031 21.210938 21.207031 21.207031-21.207031-21.207031-21.210938 22.207031-22.207031 63.625 63.625zm321.125-24.207031-42.417969-42.417969 21.207031-21.207031 42.417969 42.417969zm-169.667969-254.5 21.207031-21.207031 42.417969 42.417969 21.207031-21.210938-42.417969-42.414062 21.210938-21.210938 21.207031 21.210938 21.207031-21.210938-21.207031-21.207031 21.210938-21.207031 42.417969 42.414062 21.207031-21.207031-42.417969-42.417969 21.207031-21.207031 63.625 63.625-148.457031 148.457031zm0 0"/></svg>