<svg height="512pt" viewBox="0 0 512 512" width="512pt" xmlns="http://www.w3.org/2000/svg"><path d="m181 391h151v-120h-151zm30-90h91v60h-91zm0 0"/><path d="m45 301c8.269531 0 15 6.730469 15 15v105h30v-105c0-24.8125-20.1875-45-45-45-8.269531 0-15-6.730469-15-15s6.730469-15 15-15h76v271h271v-271h75c8.269531 0 15 6.730469 15 15s-6.730469 15-15 15c-24.8125 0-45 20.1875-45 45v105h30v-105c0-8.269531 6.730469-15 15-15 24.8125 0 45-20.1875 45-45s-20.1875-45-45-45c-10.5625 0-76.128906 0-90 0-24.8125 0-45-20.1875-45-45 0-10.566406 0-80.761719 0-91 0-41.457031-34.535156-75-76-75-41.355469 0-75 33.644531-75 75v91c0 24.8125-20.1875 45-45 45-11.523438 0-79.601562 0-91 0-24.8125 0-45 20.1875-45 45s20.1875 45 45 45zm166-226c0-24.8125 20.1875-45 45-45 24.933594 0 46 20.605469 46 45v46h-91zm-60 164.492188c34.191406-6.96875 60-37.273438 60-73.492188v-15h91v15c0 36.21875 25.808594 66.523438 60 73.492188v242.507812h-211zm0 0"/></svg>