<svg height="512pt" viewBox="0 0 512 512" width="512pt" xmlns="http://www.w3.org/2000/svg"><path d="m150 133.300781-49.574219-133.300781h-50.851562l-49.574219 133.300781v378.699219h150zm-79.574219-103.300781h9.148438l33.84375 91h-76.835938zm-10.425781 151v211h60v30h-90v-271h90v30zm60 30v151h-30v-151zm-90 271v-30h90v30zm0 0"/><path d="m180 133.300781v378.699219h152v-378.699219l-49.574219-133.300781h-52.851562zm61 47.699219v211h61v30h-92v-271h92v30zm61 30v151h-31v-151zm-92 271v-30h92v30zm51.574219-452 33.84375 91h-78.835938l33.84375-91zm0 0"/><path d="m411.574219 0-49.574219 133.300781v378.699219h150v-378.699219l-49.574219-133.300781zm20.851562 30h9.148438l33.84375 91h-76.835938zm-10.425781 151v211h60v30h-90v-271h90v30zm60 30v151h-30v-151zm-90 271v-30h90v30zm0 0"/></svg>