<svg height="512pt" viewBox="0 0 512 512" width="512pt" xmlns="http://www.w3.org/2000/svg"><path d="m109.121094 512 44.929687-89.855469c97.855469-70.480469 197.613281-170.238281 268.09375-268.09375l89.855469-44.925781v-57.910156l-51.214844-51.214844h-57.90625l-44.929687 89.855469c-97.855469 70.480469-197.613281 170.238281-268.09375 268.09375l-89.855469 44.925781v57.910156l51.214844 51.214844zm246.152344-320.527344-34.746094-34.746094c15.816406-13.078124 31.738281-25.542968 47.632812-37.21875l24.332032 24.332032c-11.675782 15.894531-24.140626 31.816406-37.21875 47.632812zm66.144531-161.472656h26.941406l33.640625 33.640625v26.941406l-66.890625 33.445313-27.136719-27.136719zm-123.832031 146.207031 38.207031 38.207031c-37.238281 42.738282-78.640625 84.140626-121.378907 121.375l-38.207031-38.207031c37.238281-42.734375 78.640625-84.136719 121.378907-121.375zm-140.859376 144.320313 34.746094 34.746094c-15.816406 13.078124-31.738281 25.542968-47.632812 37.21875l-24.332032-24.332032c11.675782-15.894531 24.140626-31.816406 37.21875-47.632812zm-126.726562 100.890625 66.890625-33.445313 27.136719 27.136719-33.445313 66.890625h-26.941406l-33.640625-33.640625zm0 0"/></svg>