<svg height="512pt" viewBox="0 -33 512 512" width="512pt" xmlns="http://www.w3.org/2000/svg"><path d="m274.546875 63.53125 87.277344 87.277344v76.765625c-24.90625-30.734375-63.085938-50.441407-105.824219-50.441407s-80.917969 19.707032-105.824219 50.441407v-76.765625l87.277344-87.277344-63.527344-63.53125-173.925781 173.925781 63.53125 63.527344 56.695312-56.695313v131.152344c0 74.316406 60.910157 134.773438 135.773438 134.773438s135.773438-60.457032 135.773438-134.773438v-131.152344l56.695312 56.695313 63.53125-63.527344-173.925781-173.925781zm-79.449219 0-23.746094 23.746094-21.175781-21.171875 23.75-23.75zm-152.742187 110.394531 86.644531-86.644531 21.171875 21.175781-86.640625 86.640625zm213.644531 242.808594c-58.351562 0-105.824219-47.027344-105.824219-104.828125s47.472657-104.824219 105.824219-104.824219 105.824219 47.023438 105.824219 104.824219-47.472657 104.828125-105.824219 104.828125zm82.074219-374.378906 23.75 23.75-21.175781 21.171875-23.746094-23.746094zm110.394531 152.742187-86.640625-86.640625 21.171875-21.175781 86.644531 86.644531zm0 0"/></svg>