<svg height="512pt" viewBox="-61 0 512 512" width="512pt" xmlns="http://www.w3.org/2000/svg"><path d="m0 226v75h68.070312c5.269532 9.082031 12.847657 16.660156 21.929688 21.929688v98.070312h60v61h-60v30h210v-30h-60v-61h60v-98.070312c9.082031-5.269532 16.660156-12.847657 21.929688-21.929688h68.070312v-75c0-41.355469-33.644531-75-75-75h-60.039062c9.4375-12.542969 15.039062-28.128906 15.039062-45v-31c0-41.355469-33.644531-75-75-75s-75 33.644531-75 75v31c0 16.871094 5.601562 32.457031 15.039062 45h-60.039062c-41.355469 0-75 33.644531-75 75zm210 256h-30v-61h30zm150-256v45h-30c0-14.09375 0-30.949219 0-45h-30v45c0 16.542969-13.457031 30-30 30s-30-13.457031-30-30v-15h-30v15c0 33.085938 26.914062 60 60 60v60h-150v-60c33.085938 0 60-26.914062 60-60v-15h-30v15c0 16.542969-13.457031 30-30 30s-30-13.457031-30-30c0-14.09375 0-30.949219 0-45h-30v45h-30v-45c0-24.8125 20.1875-45 45-45h240c24.8125 0 45 20.1875 45 45zm-210-151c0-24.8125 20.1875-45 45-45s45 20.1875 45 45v31c0 24.8125-20.1875 45-45 45s-45-20.1875-45-45zm0 0"/></svg>