<svg height="512pt" viewBox="0 -16 512 512" width="512pt" xmlns="http://www.w3.org/2000/svg"><path d="m302.667969 0h-65.945313l-102.492187 102.179688 33.882812 45.183593c-10.6875 12.960938-17.113281 29.5625-17.113281 47.636719v30c0 15.773438 2.726562 30.917969 7.722656 45h-113.722656c-24.8125 0-45 20.1875-45 45 0 11.515625 4.355469 22.03125 11.496094 30-7.140625 7.96875-11.496094 18.484375-11.496094 30 0 20.722656 14.085938 38.210938 33.179688 43.414062-2.042969 5.136719-3.179688 10.730469-3.179688 16.585938 0 24.8125 20.1875 45 45 45h181c24.8125 0 45-20.1875 45-45 0-5.855469-1.136719-11.449219-3.179688-16.585938 19.09375-5.203124 33.179688-22.691406 33.179688-43.414062 0-11.515625-4.355469-22.03125-11.496094-30 7.144532-7.96875 11.496094-18.484375 11.496094-30 0-24.8125-20.1875-45-45-45s-45-20.1875-45-45v-15h41.460938l37.351562 18.675781c39.222656 19.613281 88.496094 13.980469 122.375-18.675781h69.8125v-120h-86.105469zm-257.667969 300h128.804688c7.597656 11.328125 16.867187 21.445312 27.449218 30h-156.253906c-8.269531 0-15-6.730469-15-15s6.730469-15 15-15zm211 150h-181c-8.269531 0-15-6.730469-15-15s6.730469-15 15-15h181c8.269531 0 15 6.730469 15 15s-6.730469 15-15 15zm30-60c-8.765625 0-177.769531 0-241 0-8.269531 0-15-6.730469-15-15s6.730469-15 15-15h241c8.269531 0 15 6.730469 15 15s-6.730469 15-15 15zm0-90c8.269531 0 15 6.730469 15 15s-6.730469 15-15 15c-57.898438 0-105-47.101562-105-105v-30c0-19.554688 12.539062-36.226562 30-42.421875v72.421875c0 41.355469 33.644531 75 75 75zm-32.976562-189.414062 17.332031-17.542969 24.089843 24.273437c-7.386718 1.769532-15.023437 2.683594-22.773437 2.683594h-11.585937zm228.976562 69.414062h-52.214844l-7.367187 7.367188c-24.542969 24.542968-60.691407 28.726562-89.191407 14.476562l-43.6875-21.84375h-48.539062v-30h30.675781c32.398438 0 63.277344-12.1875 86.949219-34.3125l-20.488281-21.914062c-4.363281 4.078124-9.050781 7.703124-13.996094 10.875l-41.332031-41.648438h-24.9375l-44.363282 44.894531 9.082032 12.105469h-11.589844v1.507812c-6.910156 1.410157-13.472656 3.789063-19.554688 6.960938l-17.582031-23.441406 75.257813-75.027344h43.757812l123.226563 90h65.894531zm0 0"/></svg>