<svg height="512pt" viewBox="0 0 512 512" width="512pt" xmlns="http://www.w3.org/2000/svg"><path d="m80.851562 275.90625c34.511719 12.050781 79.679688 19.898438 130.148438 22.816406v67.351563c-54.359375 10.164062-90 37.796875-90 70.925781 0 22.003906 15.425781 41.835938 43.4375 55.84375 24.707031 12.351562 57.226562 19.15625 91.5625 19.15625s66.855469-6.804688 91.5625-19.15625c28.011719-14.007812 43.4375-33.839844 43.4375-55.84375 0-33.128906-35.640625-60.761719-90-70.925781v-67.351563c50.46875-2.917968 95.636719-10.765625 130.148438-22.816406 66.824218-23.328125 80.851562-56.875 80.851562-80.90625v-75c0-34.359375-28.34375-65.613281-79.8125-88-47.433594-20.636719-110.007812-32-176.1875-32s-128.753906 11.363281-176.1875 32c-51.46875 22.386719-79.8125 53.640625-79.8125 88v75c0 24.03125 14.027344 57.578125 80.851562 80.90625zm280.148438 161.09375c0 21.242188-44.902344 45-105 45s-105-23.757812-105-45c0-14.363281 22.109375-32.003906 60-40.3125v10.3125c0 24.8125 20.1875 45 45 45s45-20.1875 45-45v-10.3125c37.890625 8.308594 60 25.949219 60 40.3125zm-90-30c0 8.269531-6.730469 15-15 15s-15-6.730469-15-15v-107.144531c4.964844.09375 25.035156.09375 30 0zm150.261719-159.414062c-41.402344 14.453124-100.089844 22.414062-165.261719 22.414062s-123.859375-7.960938-165.261719-22.414062c-22.683593-7.921876-60.738281-25.285157-60.738281-52.585938v-17.3125c12.789062 11.246094 29.488281 21.472656 49.8125 30.3125 47.433594 20.636719 110.007812 32 176.1875 32s128.753906-11.363281 176.1875-32c20.324219-8.839844 37.023438-19.066406 49.8125-30.3125v17.3125c0 27.300781-38.054688 44.664062-60.738281 52.585938zm-329.484375-188.078126c43.746094-19.027343 102.066406-29.507812 164.222656-29.507812s120.476562 10.480469 164.222656 29.507812c39.257813 17.078126 61.777344 39.128907 61.777344 60.492188s-22.519531 43.414062-61.777344 60.492188c-43.746094 19.027343-102.066406 29.507812-164.222656 29.507812s-120.476562-10.480469-164.222656-29.507812c-39.257813-17.078126-61.777344-39.128907-61.777344-60.492188s22.519531-43.414062 61.777344-60.492188zm0 0"/></svg>