<svg height="511pt" viewBox="0 0 511.99921 511" width="511pt" xmlns="http://www.w3.org/2000/svg"><path d="m19.351562 405.652344c-26.710937 26.707031-24.90625 62.425781.082032 87.410156 24.972656 24.972656 60.691406 26.808594 87.414062.085938 22.238282-22.238282 14.964844-35.144532 49.925782-73.332032l20.988281 20.988282 56.640625-56.640626 10.605468 10.605469c41.03125 41.035157 107.453126 41.039063 148.492188 0 40.9375-40.9375 40.9375-107.550781 0-148.492187l-10.605469-10.605469 56.636719-56.640625-20.988281-20.988281c38.355469-35.128907 51.914062-28.5 74.105469-50.695313 26.710937-26.710937 24.902343-62.429687-.082032-87.414062-24.953125-24.949219-60.671875-26.828125-87.414062-.082032-22.160156 22.160157-15.65625 35.820313-50.699219 74.101563l-20.988281-20.984375-56.640625 56.636719-10.605469-10.609375c-41.03125-41.03125-107.453125-41.039063-148.488281 0-41.035157 41.035156-41.042969 107.453125 0 148.492187l10.605469 10.609375-56.640626 56.640625 20.988282 20.984375c-38.089844 34.851563-51.113282 27.707032-73.332032 49.929688zm352.933594-138.164063c29.242188 29.246094 29.242188 76.824219 0 106.066407-29.308594 29.3125-76.75 29.316406-106.0625 0l-10.609375-10.605469 42.425781-42.425781 42.429688 42.425781 21.210938-21.210938-42.425782-42.429687 42.425782-42.425782zm54.082032-226.425781c14.492187-14.496094 31.230468-13.671875 44.984374.082031 14.109376 14.109375 14.140626 30.929688.085938 44.988281-16.230469 16.230469-33.066406 12.789063-74.125 50.679688l-21.628906-21.628906c37.875-41.058594 34.347656-57.789063 50.683594-74.121094zm-287.425782 205.214844c-29.308594-29.308594-29.3125-76.753906 0-106.066406 29.308594-29.308594 76.753906-29.3125 106.066406 0l10.605469 10.605468-42.425781 42.425782-42.429688-42.425782-21.210937 21.214844 42.425781 42.425781-42.425781 42.425781zm194.527344-130.886719 63.636719 63.640625-219.34375 219.34375-63.640625-63.640625zm-219.554688 261.566406 21.628907 21.625c-37.792969 40.972657-33.710938 57.152344-49.910157 73.351563-14.519531 14.523437-31.257812 13.644531-44.984374-.082032-14.109376-14.113281-14.140626-30.929687-.085938-44.988281 16.160156-16.160156 32.492188-12.230469 73.351562-49.90625zm0 0"/></svg>