<svg height="512pt" viewBox="0 0 512 512" width="512pt" xmlns="http://www.w3.org/2000/svg"><path d="m361 241v-241h-210v241zm-180-30v-30h150v30zm150-181v121h-150v-121zm0 0"/><path d="m512 0h-121v181h121zm-30 30v61h-61v-61zm-61 121v-30h61v30zm0 0"/><path d="m121 0h-121v181h121zm-30 30v61h-61v-61zm-61 121v-30h61v30zm0 0"/><path d="m61 375.515625v106.484375h-30v30h150v-30h-30v-129.929688c29.53125 23.5625 66.269531 36.605469 105 36.605469s75.46875-13.042969 105-36.605469v129.929688h-30v30h150v-30h-30v-106.484375c13.226562 10.03125 29.238281 15.484375 46 15.484375h15v-30h-15c-24.933594 0-46-20.605469-46-45v-15h-2.578125c1.664063-4.695312 2.578125-9.742188 2.578125-15 0-24.8125-20.1875-45-45-45s-45 20.1875-45 45c0 5.257812.914062 10.304688 2.578125 15h-2.578125v9.570312c-26.382812 30.632813-64.359375 48.105469-105 48.105469s-78.617188-17.472656-105-48.105469v-9.570312h-2.578125c1.664063-4.695312 2.578125-9.742188 2.578125-15 0-24.8125-20.1875-45-45-45s-45 20.1875-45 45c0 5.257812.914062 10.304688 2.578125 15h-2.578125v15c0 24.394531-21.066406 45-46 45h-15v30h15c16.761719 0 32.773438-5.453125 46-15.484375zm330 106.484375v-151h30v151zm0-196c0-8.269531 6.730469-15 15-15s15 6.730469 15 15-6.730469 15-15 15-15-6.730469-15-15zm-300 196v-151h30v151zm0-196c0-8.269531 6.730469-15 15-15s15 6.730469 15 15-6.730469 15-15 15-15-6.730469-15-15zm0 0"/></svg>