<svg height="512pt" viewBox="0 0 512 512" width="512pt" xmlns="http://www.w3.org/2000/svg"><path d="m512 275.582031-275.582031-275.582031-42.398438 42.398438-21.195312-21.199219-21.199219 21.199219 21.199219 21.199218-42.398438 42.394532 275.582031 275.582031 42.394532-42.398438 21.199218 21.199219-63.59375 63.597656-169.589843-169.589844-42.398438 42.398438-42.394531-42.398438-21.199219 21.199219 21.199219 21.199219-151.625 151.621094 63.597656 63.597656 151.621094-151.625 21.199219 21.199219 21.199219-21.199219-42.398438-42.398438 21.199219-21.195312 169.589843 169.585938 105.992188-105.992188-42.398438-42.394531zm-448.402344 194.019531-21.199218-21.195312 130.425781-130.425781 21.199219 21.199219zm109.222656-363.609374 63.597657-63.59375 233.183593 233.183593-63.59375 63.59375zm0 0"/></svg>