<svg height="512pt" viewBox="0 0 512 512" width="512pt" xmlns="http://www.w3.org/2000/svg"><path d="m422 211h-43.082031c12.753906-17.183594 24.148437-38.527344 24.148437-59.949219 0-16.492187-6.796875-37.972656-36.535156-52.808593l33.5625-68.242188h-138.1875l33.5625 68.242188c-29.667969 14.820312-36.449219 36.292968-36.449219 52.777343 0 21.425781 11.375 42.78125 24.113281 59.980469h-54.21875c12.753907-17.183594 24.152344-38.527344 24.152344-59.949219 0-16.492187-6.796875-37.972656-36.535156-52.808593l33.5625-68.242188h-138.1875l33.5625 68.242188c-29.667969 14.820312-36.449219 36.292968-36.449219 52.777343 0 21.425781 11.375 42.78125 24.113281 59.980469h-43.132812v-211h-90v512h90v-31h332v31h90v-512h-90zm-70.09375-151-15.246094 31h-11.320312l-15.246094-31zm-62.886719 91.019531c0-4.878906.015625-19.488281 29.515625-30.019531h24.929688c29.585937 10.554688 29.601562 25.171875 29.601562 30.050781 0 18.296875-16.578125 42.207031-33.386718 59.949219h-17.34375c-16.789063-17.769531-33.316407-41.675781-33.316407-59.980469zm-87.113281-91.019531-15.246094 31h-11.320312l-15.246094-31zm-62.886719 91.019531c0-4.878906.015625-19.488281 29.515625-30.019531h24.929688c29.585937 10.554688 29.601562 25.171875 29.601562 30.050781 0 18.296875-16.578125 42.207031-33.386718 59.949219h-17.34375c-16.789063-17.769531-33.316407-41.675781-33.316407-59.980469zm-79.019531 330.980469h-30v-452h30zm79.019531-90.980469c0-4.878906.015625-19.488281 29.515625-30.019531h24.929688c29.585937 10.554688 29.601562 25.171875 29.601562 30.050781 0 18.296875-16.578125 42.207031-33.386718 59.949219h-17.34375c-16.789063-17.769531-33.316407-41.679688-33.316407-59.980469zm47.710938-60.019531h-11.460938l-15-30h41.460938zm102.289062 60.019531c0-4.878906.015625-19.488281 29.515625-30.019531h24.929688c29.585937 10.554688 29.601562 25.171875 29.601562 30.050781 0 18.296875-16.578125 42.207031-33.386718 59.949219h-17.34375c-16.789063-17.769531-33.316407-41.679688-33.316407-59.980469zm47.710938-60.019531h-11.460938l-15-30h41.460938zm42.1875 120c12.753906-17.183594 24.148437-38.527344 24.148437-59.949219 0-16.472656-6.785156-37.925781-36.4375-52.761719l33.640625-67.289062h-138.539062l33.644531 67.292969c-29.589844 14.816406-36.355469 36.257812-36.355469 52.726562 0 21.425781 11.375 42.78125 24.113281 59.980469h-54.21875c12.753907-17.183594 24.148438-38.527344 24.148438-59.949219 0-16.472656-6.78125-37.925781-36.4375-52.761719l33.644531-67.289062h-138.539062l33.644531 67.292969c-29.589844 14.816406-36.355469 36.257812-36.355469 52.726562 0 21.425781 11.375 42.78125 24.113281 59.980469h-43.132812v-210h332v210zm73.082031-421h30v452h-30zm0 0"/></svg>