<svg height="512pt" viewBox="0 -31 512 512" width="512pt" xmlns="http://www.w3.org/2000/svg"><path d="m437 60h-15v-30h30v-30c-15.046875 0-436.074219 0-452 0v30h30v93.445312c0 185.34375 61.871094 316.582032 64.84375 326.554688h262.3125c2.339844-6.40625 23.03125-53.578125 39.792969-121.058594 66.929687-22.878906 115.050781-86.355468 115.050781-161.128906v-32.8125c0-41.355469-33.644531-75-75-75zm-100.222656 360h-221.554688c-36.648437-94.933594-55.222656-194.652344-55.222656-296.554688v-93.445312h332v93.445312c0 101.902344-18.574219 201.621094-55.222656 296.554688zm145.222656-252.1875c0 53.296875-30.605469 101.589844-76.941406 125.179688 11.261718-55.5625 16.941406-112.21875 16.941406-169.546876v-33.445312h15c24.8125 0 45 20.1875 45 45zm0 0"/></svg>