<svg height="512pt" viewBox="0 0 512.001 512" width="512pt" xmlns="http://www.w3.org/2000/svg"><path d="m398.089844 211.902344c-6.960938-7.746094-14.671875-13.375-22.175782-18.847656-21.773437-15.878907-44.277343-32.300782-44.898437-114.542969l39.253906-78.511719h-228.539062l39.253906 78.511719c-.621094 82.242187-23.125 98.664062-44.898437 114.542969-7.503907 5.472656-15.214844 11.101562-22.175782 18.847656-65.457031 5.300781-105.265625 31.335937-113.910156 34.828125v135.484375c1.976562 1.347656 31.714844 38.785156 88.425781 38.785156h36.464844c16.09375 31.605469 38.386719 64.140625 64.871094 91h132.476562c26.402344-26.777344 48.714844-59.273438 64.871094-91h36.464844c56.476562 0 86.5625-37.515625 88.425781-38.785156v-135.484375c-8.292969-3.351563-48.878906-29.558594-113.910156-34.828125zm-76.359375-181.902344-15 30h-101.460938l-15-30zm-291.730469 339.480469v-104.199219c28.125-13.730469 59.277344-21.863281 91-23.816406v29.535156h-30v30h90v30h-60v30h60v30h-92.574219c-21.589843 0-42.554687-7.78125-58.425781-21.519531zm279.472656 112.519531h-106.957031c-7.988281-8.867188-26.3125-30.59375-43.570313-61h52.054688v-150h-60v-51.683594c16.519531-12.140625 30.433594-22.074218 41.894531-44.117187 10.757813-20.6875 16.632813-48.65625 17.863281-85.199219h90.484376c1.230468 36.542969 7.105468 64.511719 17.863281 85.199219 11.359375 21.847656 25.171875 31.828125 41.894531 44.117187v51.683594h-60v150h52.046875c-17.222656 30.304688-35.582031 52.109375-43.574219 61zm172.527344-112.519531c-15.871094 13.738281-36.835938 21.519531-58.425781 21.519531h-92.574219v-30h60v-30h-60v-30h90v-30h-30v-29.535156c31.722656 1.957031 62.875 10.085937 91 23.816406zm0 0"/></svg>