<svg height="512pt" viewBox="0 -16 512 512" width="512pt" xmlns="http://www.w3.org/2000/svg"><path d="m452 121.507812v-31.507812h30v-30h-30v-60h-392v60h-30v30h30v31.507812c-34.191406 6.96875-60 37.273438-60 73.492188 0 46.707031 23.847656 87.945312 60 112.195312v172.804688h392v-173.097656c36.175781-24.285156 60-65.382813 60-111.902344 0-36.21875-25.808594-66.523438-60-73.492188zm-30-61.507812h-61v-30h61zm-241-30h150v75c0 8.269531-6.730469 15-15 15s-15-6.730469-15-15c0-24.8125-20.1875-45-45-45s-45 20.1875-45 45v60c0 8.269531-6.730469 15-15 15s-15-6.730469-15-15zm-91 0h61v30h-61zm61 60v75c0 24.8125 20.1875 45 45 45s45-20.1875 45-45v-60c0-8.269531 6.730469-15 15-15s15 6.730469 15 15l.601562 7.363281c3.523438 21.324219 22.089844 37.636719 44.398438 37.636719 24.8125 0 45-20.1875 45-45v-15h61v199.589844c-13.921875 6.667968-29.527344 10.410156-46 10.410156h-15v-30h-210v30h-16c-16.09375 0-31.355469-3.644531-45-10.144531v-199.855469zm180 210v30h-150v-30zm-301-105c0-19.554688 12.539062-36.226562 30-42.421875v115.824219c-18.546875-18.945313-30-44.859375-30-73.402344zm392 255h-332v-127.722656c14.082031 4.996094 29.226562 7.722656 45 7.722656h16v30h210v-30h15c16.136719 0 31.625-2.8125 46-7.953125zm30-181.886719v-115.535156c17.460938 6.195313 30 22.867187 30 42.421875 0 28.398438-11.445312 54.195312-30 73.113281zm0 0"/></svg>