<svg id="Layer_1" height="512" viewBox="0 0 128 128" width="512" xmlns="http://www.w3.org/2000/svg" data-name="Layer 1"><path d="m101.57 25.75a1.749 1.749 0 0 0 -.512-1.237l-12.75-12.75a1.754 1.754 0 0 0 -1.238-.513l-58.9.008a1.751 1.751 0 0 0 -1.75 1.751l.013 90.288a1.75 1.75 0 0 0 1.75 1.75l48.861-.007v9.96a1.749 1.749 0 0 0 2.825 1.38l4.487-3.495 4.488 3.495a1.749 1.749 0 0 0 2.823-1.38v-9.962h8.164a1.75 1.75 0 0 0 1.75-1.75zm-12.751-8.526 6.781 6.776h-6.781zm-4.465 84.323a6.625 6.625 0 1 1 6.625-6.625 6.633 6.633 0 0 1 -6.625 6.625zm1.076 7.739a1.749 1.749 0 0 0 -2.151 0l-2.737 2.132v-7.118a10.053 10.053 0 0 0 7.625 0v7.122zm6.57-7.748a10.126 10.126 0 1 0 -15.291 0l-46.779.007-.012-86.789 55.4-.008v11a1.751 1.751 0 0 0 1.75 1.75h11l.011 74.038z"/><path d="m84.354 30.336h-39.375a1.75 1.75 0 0 0 -1.75 1.75v11.674a1.75 1.75 0 0 0 1.75 1.75h39.375a1.75 1.75 0 0 0 1.75-1.75v-11.674a1.75 1.75 0 0 0 -1.75-1.75zm-1.754 11.674h-35.871v-8.174h35.871z"/><path d="m84.354 53.863h-39.554a1.75 1.75 0 1 0 0 3.5h39.554a1.75 1.75 0 0 0 0-3.5z"/><path d="m84.354 62.132h-39.554a1.75 1.75 0 1 0 0 3.5h39.554a1.75 1.75 0 0 0 0-3.5z"/><path d="m84.354 70.4h-39.554a1.75 1.75 0 1 0 0 3.5h39.554a1.75 1.75 0 1 0 0-3.5z"/><path d="m84.354 78.669h-39.554a1.75 1.75 0 0 0 0 3.5h39.554a1.75 1.75 0 0 0 0-3.5z"/></svg>