<svg id="Layer_1" height="512" viewBox="0 0 128 128" width="512" xmlns="http://www.w3.org/2000/svg" data-name="Layer 1"><path d="m104.271 23.33h-80.542a1.751 1.751 0 0 0 -1.75 1.75v21.463a1.751 1.751 0 0 0 1.75 1.75h16.43l.009 54.627a1.75 1.75 0 0 0 1.75 1.75l44.175-.006a1.75 1.75 0 0 0 1.75-1.75l-.009-54.621h16.437a1.751 1.751 0 0 0 1.75-1.75v-21.463a1.751 1.751 0 0 0 -1.75-1.75zm-60.6 77.84-.01-63.608h4.594l.007 52.1a1.75 1.75 0 0 0 1.75 1.75 3.425 3.425 0 0 1 3.421 3.42 1.749 1.749 0 0 0 1.75 1.749h17.652a1.751 1.751 0 0 0 1.75-1.751 3.419 3.419 0 0 1 3.415-3.43 1.751 1.751 0 0 0 1.75-1.75l-.006-43.376c0-.02 0-.04 0-.06s0-.038 0-.057v-8.6h4.59l.011 63.6zm28.967-63.608a12.256 12.256 0 0 1 3.606 8.6v.115a12.246 12.246 0 1 1 -20.882-8.715zm3.612 50.564a6.941 6.941 0 0 0 -4.95 4.949h-14.6a6.948 6.948 0 0 0 -4.946-4.945l-.005-32.038a15.711 15.711 0 0 0 24.492 0zm26.271-43.333h-14.688v-7.231h7.967a1.75 1.75 0 0 0 0-3.5h-63.6a1.75 1.75 0 0 0 0 3.5h7.956v7.231h-14.677v-17.963h77.042z"/><path d="m111.173 11.25a1.751 1.751 0 0 0 -1.75 1.75v102a1.75 1.75 0 0 0 3.5 0v-102a1.751 1.751 0 0 0 -1.75-1.75z"/><path d="m16.827 11.25a1.751 1.751 0 0 0 -1.75 1.75v102a1.75 1.75 0 1 0 3.5 0v-102a1.751 1.751 0 0 0 -1.75-1.75z"/></svg>