<svg id="Layer_1" height="512" viewBox="0 0 128 128" width="512" xmlns="http://www.w3.org/2000/svg" data-name="Layer 1"><path d="m115.715 59.085-.005-.013-13.91-19.284h2.77a1.749 1.749 0 0 0 1.75-1.75v-5.788a1.749 1.749 0 0 0 -1.75-1.75h-33.945v-2.375a6.6 6.6 0 0 0 -2.106-4.831 6.875 6.875 0 1 0 -9.038 0 6.6 6.6 0 0 0 -2.106 4.831v2.375h-33.941a1.749 1.749 0 0 0 -1.75 1.75v5.788a1.749 1.749 0 0 0 1.75 1.75h2.766l-13.91 19.284-.006.014a1.74 1.74 0 0 0 -.326 1.011 17.667 17.667 0 0 0 35.334 0 1.738 1.738 0 0 0 -.328-1.013v-.012l-13.918-19.284h24.329v56.962h-2.542a1.75 1.75 0 0 0 -1.75 1.75v6.068h-1.946a10.443 10.443 0 0 0 -10.431 10.432 1.749 1.749 0 0 0 1.75 1.75h43.088a1.749 1.749 0 0 0 1.75-1.75 10.443 10.443 0 0 0 -10.431-10.432h-1.946v-6.068a1.75 1.75 0 0 0 -1.75-1.75h-2.542v-56.962h24.329l-13.914 19.284-.005.012a1.737 1.737 0 0 0 -.327 1.013 17.667 17.667 0 0 0 35.334 0 1.736 1.736 0 0 0 -.327-1.012zm-86.09-18.056 12.5 17.318h-24.996zm0 33.234a14.188 14.188 0 0 1 -14.059-12.416h28.118a14.188 14.188 0 0 1 -14.059 12.416zm31-56.138a3.375 3.375 0 1 1 3.375 3.375 3.379 3.379 0 0 1 -3.375-3.375zm-35.441 18.163v-2.288h32.191v2.288zm58.387 76.962h-39.142a6.945 6.945 0 0 1 6.708-5.182h25.726a6.945 6.945 0 0 1 6.708 5.182zm-12.154-8.682h-14.834v-4.318h14.834zm-10.542-7.818v-68.625a3.125 3.125 0 0 1 6.25 0v68.625zm9.75-62.75h32.191v2.288h-32.191zm40.246 24.347h-24.992l12.5-17.318zm-12.5 15.916a14.188 14.188 0 0 1 -14.055-12.416h28.118a14.188 14.188 0 0 1 -14.059 12.416z"/></svg>