<?xml version="1.0"?>
<svg xmlns="http://www.w3.org/2000/svg" id="Layer_1" data-name="Layer 1" viewBox="0 0 128 128" width="512" height="512"><title>BANK</title><path d="M115,105.811h-3.5V93.772a1.75,1.75,0,0,0-1.75-1.75h-2V66.974h2a1.75,1.75,0,0,0,1.75-1.75v-5.83H115a1.75,1.75,0,0,0,.906-3.247L85.663,37.831a22.116,22.116,0,1,0-43.326,0L12.094,56.147A1.75,1.75,0,0,0,13,59.394h3.5v5.83a1.75,1.75,0,0,0,1.75,1.75h2V92.022h-2a1.75,1.75,0,0,0-1.75,1.75v12.039H13a1.749,1.749,0,0,0-1.75,1.75v7.579A1.75,1.75,0,0,0,13,116.89H115a1.75,1.75,0,0,0,1.75-1.75v-7.579A1.749,1.749,0,0,0,115,105.811Zm-7,0H97.5V95.522H108Zm-20.665,0V66.974H97.749V92.022h-2A1.75,1.75,0,0,0,94,93.772v12.039Zm-36.666,0V66.974H77.333v38.837Zm-16.667,0V93.772a1.75,1.75,0,0,0-1.75-1.75h-2V66.974H40.667v38.837ZM44.167,66.974h3v38.837h-3Zm36.666,0h3v38.837h-3Zm23.416,25.048h-3V66.974h3ZM64,14.75A18.617,18.617,0,1,1,45.384,33.367,18.638,18.638,0,0,1,64,14.75ZM43.362,41.3a22.108,22.108,0,0,0,41.276,0l24.094,14.592H19.268ZM20,59.394h88v4.08H20Zm3.749,7.58h3V92.022h-3ZM20,95.522H30.5v10.289H20ZM113.25,113.39H14.75v-4.079h98.5Z"/><path d="M60.269,38.848a1.75,1.75,0,0,0-3.5,0,7.237,7.237,0,0,0,5.481,7.008V48.2a1.75,1.75,0,0,0,3.5,0V45.856a7.221,7.221,0,0,0,0-14.016V24.6a3.718,3.718,0,0,1,2,3.283,1.75,1.75,0,1,0,3.5,0,7.238,7.238,0,0,0-5.5-7.012V18.534a1.75,1.75,0,1,0-3.5,0v2.347a7.221,7.221,0,0,0,0,14.009v7.232A3.717,3.717,0,0,1,60.269,38.848Zm7.462,0a3.717,3.717,0,0,1-1.981,3.274V35.573A3.718,3.718,0,0,1,67.731,38.848ZM60.285,27.885a3.72,3.72,0,0,1,1.965-3.266v6.533A3.72,3.72,0,0,1,60.285,27.885Z"/></svg>
