<svg id="Layer_1" height="512" viewBox="0 0 128 128" width="512" xmlns="http://www.w3.org/2000/svg" data-name="Layer 1"><path d="m115 11.25h-102a1.749 1.749 0 0 0 -1.75 1.75v13.277a1.749 1.749 0 0 0 1.75 1.75h16.583v86.973a1.75 1.75 0 0 0 3.157 1.041l5.126-6.932 5.127 6.932a1.815 1.815 0 0 0 2.815 0l5.126-6.931 5.126 6.931a1.815 1.815 0 0 0 2.814 0l5.126-6.931 5.126 6.931a1.815 1.815 0 0 0 2.814 0l5.126-6.931 5.126 6.931a1.816 1.816 0 0 0 2.815 0l5.126-6.932 5.127 6.932a1.753 1.753 0 0 0 1.407.709 1.731 1.731 0 0 0 .548-.088 1.748 1.748 0 0 0 1.2-1.662v-86.973h16.585a1.749 1.749 0 0 0 1.75-1.75v-13.277a1.749 1.749 0 0 0 -1.75-1.75zm-23.46 93.876a1.814 1.814 0 0 0 -2.814 0l-5.126 6.931-5.126-6.931a1.816 1.816 0 0 0 -2.815 0l-5.126 6.931-5.126-6.931a1.815 1.815 0 0 0 -2.814 0l-5.126 6.931-5.126-6.931a1.816 1.816 0 0 0 -2.815 0l-5.126 6.932-5.127-6.932a1.814 1.814 0 0 0 -2.814 0l-3.376 4.565v-88.3h61.834v88.3zm21.71-80.6h-14.833v-3.137h3.708a1.75 1.75 0 0 0 0-3.5h-76.25a1.75 1.75 0 0 0 0 3.5h3.708v3.138h-14.833v-9.777h98.5z"/><path d="m64 64.449a19.5 19.5 0 1 0 -19.5-19.5 19.523 19.523 0 0 0 19.5 19.5zm0-35.5a16 16 0 1 1 -16 16 16.019 16.019 0 0 1 16-16z"/><path d="m60.973 49.727a1.75 1.75 0 1 0 -3.5 0 6.533 6.533 0 0 0 4.777 6.281v1.868a1.75 1.75 0 1 0 3.5 0v-1.868a6.519 6.519 0 0 0 0-12.564v-5.744a3.022 3.022 0 0 1 1.291 2.472 1.75 1.75 0 0 0 3.5 0 6.533 6.533 0 0 0 -4.791-6.285v-1.865a1.75 1.75 0 1 0 -3.5 0v1.872a6.519 6.519 0 0 0 0 12.556v5.737a3.019 3.019 0 0 1 -1.277-2.46zm6.054 0a3.019 3.019 0 0 1 -1.277 2.46v-4.921a3.02 3.02 0 0 1 1.277 2.461zm-6.04-9.555a3.02 3.02 0 0 1 1.263-2.449v4.9a3.02 3.02 0 0 1 -1.263-2.451z"/><path d="m85.375 73.222h-42.75a1.75 1.75 0 0 0 0 3.5h42.75a1.75 1.75 0 0 0 0-3.5z"/><path d="m85.375 82.583h-42.75a1.75 1.75 0 0 0 0 3.5h42.75a1.75 1.75 0 0 0 0-3.5z"/><path d="m85.375 91.944h-42.75a1.75 1.75 0 0 0 0 3.5h42.75a1.75 1.75 0 0 0 0-3.5z"/></svg>