<svg id="Layer_1" height="512" viewBox="0 0 128 128" width="512" xmlns="http://www.w3.org/2000/svg" data-name="Layer 1"><path d="m97.333 11.25h-59.958a8.467 8.467 0 0 0 -8.458 8.458v79.792a9.01 9.01 0 0 0 9 9h36v6.5a1.75 1.75 0 0 0 2.81 1.392l5.106-3.891 5.106 3.891a1.75 1.75 0 0 0 2.811-1.392v-6.5h7.583a1.749 1.749 0 0 0 1.75-1.75v-93.75a1.749 1.749 0 0 0 -1.75-1.75zm-59.958 3.5h58.208v75.75h-57.666a8.944 8.944 0 0 0 -5.5 1.892v-72.684a4.964 4.964 0 0 1 4.958-4.958zm.542 90.25a5.5 5.5 0 0 1 0-11h57.666v3.75h-55.583a1.75 1.75 0 0 0 0 3.5h33.917v3.75zm44.977 3.909a1.748 1.748 0 0 0 -2.121 0l-3.356 2.558v-10.217h8.833v10.216zm6.856-3.909v-3.75h5.833v3.75z"/><path d="m44.375 45.493h41.25a1.75 1.75 0 0 0 1.75-1.75v-12.775a1.75 1.75 0 0 0 -1.75-1.75h-41.25a1.75 1.75 0 0 0 -1.75 1.75v12.775a1.75 1.75 0 0 0 1.75 1.75zm1.75-12.775h37.75v9.275h-37.75z"/></svg>