<svg id="Layer_1" height="512" viewBox="0 0 128 128" width="512" xmlns="http://www.w3.org/2000/svg" data-name="Layer 1"><path d="m53.19 61.772a21.394 21.394 0 1 0 21.393 21.394 21.418 21.418 0 0 0 -21.393-21.394zm0 39.287a17.894 17.894 0 1 1 17.893-17.893 17.914 17.914 0 0 1 -17.893 17.893z"/><path d="m56.742 77.879a1.75 1.75 0 0 0 3.5 0 7.042 7.042 0 0 0 -5.3-6.811v-2.208a1.75 1.75 0 0 0 -3.5 0v2.216a7.026 7.026 0 0 0 0 13.607v6.817a3.526 3.526 0 0 1 -1.771-3.046 1.75 1.75 0 0 0 -3.5 0 7.043 7.043 0 0 0 5.271 6.8v2.216a1.75 1.75 0 0 0 3.5 0v-2.207a7.026 7.026 0 0 0 0-13.622v-6.825a3.523 3.523 0 0 1 1.8 3.063zm-7.073 0a3.526 3.526 0 0 1 1.771-3.046v6.092a3.526 3.526 0 0 1 -1.771-3.046zm7.073 10.573a3.523 3.523 0 0 1 -1.8 3.063v-6.125a3.52 3.52 0 0 1 1.8 3.062z"/><path d="m114.691 91.167a5.7 5.7 0 0 0 -4.1-9.667h-18.556c-4.411-15.319-14.61-33.025-28.022-39.63l5.676-26.745a1.749 1.749 0 0 0 -.916-1.922 20.872 20.872 0 0 0 -13.686-1.334c-.019 0-.038.009-.057.013a18.145 18.145 0 0 0 -3.482 1.318 14.115 14.115 0 0 1 -12.309.027 1.75 1.75 0 0 0 -2.548 1.9l5.68 26.756c-17.371 8.583-30.666 36.941-30.666 56.485 0 6.506 1.519 11.109 4.645 14.069 5.313 5.031 14.444 4.534 25.019 3.958 3.794-.207 7.717-.42 11.821-.42s8.028.213 11.823.42c3.414.186 6.568.357 9.478.357a45.989 45.989 0 0 0 6.044-.351 5.68 5.68 0 0 0 1.718.266h28.334a5.7 5.7 0 0 0 4.1-9.667 5.687 5.687 0 0 0 0-7.917 5.685 5.685 0 0 0 0-7.916zm-1.9 11.875a2.21 2.21 0 0 1 -2.208 2.208h-28.33a2.209 2.209 0 0 1 0-4.417h28.334a2.211 2.211 0 0 1 2.213 2.209zm-30.538-5.709a2.208 2.208 0 1 1 0-4.416h28.334a2.208 2.208 0 0 1 0 4.416zm30.547-10.125a2.211 2.211 0 0 1 -2.208 2.209h-28.339a2.209 2.209 0 0 1 0-4.417h28.334a2.21 2.21 0 0 1 2.213 2.208zm-59.679-70.883c.183-.092.366-.169.549-.251v10.034a1.75 1.75 0 1 0 3.5 0v-11.108a17.835 17.835 0 0 1 8.793.83l-5.638 26.56a1.864 1.864 0 0 0 -.048.2.433.433 0 0 0 -.023.214v.081c-.184.53-1.427 1.661-5.311 1.927v-7.012a1.75 1.75 0 0 0 -3.5 0v7.01c-3.889-.266-5.13-1.4-5.311-1.93 0-.024 0-.049 0-.074a.449.449 0 0 0 -.024-.226 1.712 1.712 0 0 0 -.043-.182l-5.29-24.892a17.291 17.291 0 0 0 12.346-1.181zm12.079 96.575c-3.841-.21-7.813-.425-12.013-.425s-8.17.215-12.011.425c-10.169.553-18.2.991-22.423-3-2.389-2.264-3.551-6.035-3.551-11.528 0-17.98 12.475-44.949 28.273-53.134a5.235 5.235 0 0 0 .36.431c1.683 1.794 4.829 2.7 9.352 2.7s7.67-.909 9.352-2.7a5.227 5.227 0 0 0 .36-.43c11.962 6.142 21.207 22.1 25.485 36.265h-6.131a5.7 5.7 0 0 0 -4.1 9.667 5.683 5.683 0 0 0 0 7.916 5.684 5.684 0 0 0 0 7.917 5.685 5.685 0 0 0 -1.153 6.196c-3.453.152-7.4-.061-11.8-.3zm45.384.267h-28.331a2.209 2.209 0 0 1 0-4.417h28.334a2.209 2.209 0 0 1 0 4.417z"/></svg>