<svg id="Layer_1" height="512" viewBox="0 0 128 128" width="512" xmlns="http://www.w3.org/2000/svg" data-name="Layer 1"><path d="m76.518 65h-16.118a1.75 1.75 0 0 0 -1.75 1.75v8.4a1.751 1.751 0 0 0 1.75 1.75h16.118a1.751 1.751 0 0 0 1.75-1.75v-8.4a1.75 1.75 0 0 0 -1.75-1.75zm-1.75 8.4h-12.618v-4.9h12.618z"/><path d="m76.518 80.284h-16.118a1.75 1.75 0 0 0 -1.75 1.75v23.957a1.75 1.75 0 0 0 1.75 1.75h16.118a1.75 1.75 0 0 0 1.75-1.75v-23.957a1.75 1.75 0 0 0 -1.75-1.75zm-1.75 23.957h-12.618v-20.457h12.618z"/><path d="m39.515 49.715h-8.4a1.751 1.751 0 0 0 -1.75 1.75v8.4a1.751 1.751 0 0 0 1.75 1.75h8.4a1.751 1.751 0 0 0 1.75-1.75v-8.4a1.751 1.751 0 0 0 -1.75-1.75zm-1.75 8.4h-4.9v-4.9h4.9z"/><path d="m54.157 49.715h-8.4a1.751 1.751 0 0 0 -1.75 1.75v8.4a1.751 1.751 0 0 0 1.75 1.75h8.4a1.75 1.75 0 0 0 1.75-1.75v-8.4a1.75 1.75 0 0 0 -1.75-1.75zm-1.75 8.4h-4.9v-4.9h4.9z"/><path d="m39.515 65h-8.4a1.75 1.75 0 0 0 -1.75 1.75v8.4a1.751 1.751 0 0 0 1.75 1.75h8.4a1.751 1.751 0 0 0 1.75-1.75v-8.4a1.75 1.75 0 0 0 -1.75-1.75zm-1.75 8.4h-4.9v-4.9h4.9z"/><path d="m54.157 65h-8.4a1.75 1.75 0 0 0 -1.75 1.75v8.4a1.751 1.751 0 0 0 1.75 1.75h8.4a1.75 1.75 0 0 0 1.75-1.75v-8.4a1.749 1.749 0 0 0 -1.75-1.75zm-1.75 8.4h-4.9v-4.9h4.9z"/><path d="m39.515 80.284h-8.4a1.75 1.75 0 0 0 -1.75 1.75v8.4a1.751 1.751 0 0 0 1.75 1.75h8.4a1.751 1.751 0 0 0 1.75-1.75v-8.4a1.75 1.75 0 0 0 -1.75-1.75zm-1.75 8.4h-4.9v-4.9h4.9z"/><path d="m54.157 80.284h-8.4a1.75 1.75 0 0 0 -1.75 1.75v8.4a1.751 1.751 0 0 0 1.75 1.75h8.4a1.75 1.75 0 0 0 1.75-1.75v-8.4a1.749 1.749 0 0 0 -1.75-1.75zm-1.75 8.4h-4.9v-4.9h4.9z"/><path d="m39.515 95.842h-8.4a1.75 1.75 0 0 0 -1.75 1.75v8.4a1.75 1.75 0 0 0 1.75 1.75h8.4a1.75 1.75 0 0 0 1.75-1.75v-8.4a1.75 1.75 0 0 0 -1.75-1.75zm-1.75 8.4h-4.9v-4.9h4.9z"/><path d="m54.157 95.842h-8.4a1.75 1.75 0 0 0 -1.75 1.75v8.4a1.75 1.75 0 0 0 1.75 1.75h8.4a1.749 1.749 0 0 0 1.75-1.75v-8.4a1.749 1.749 0 0 0 -1.75-1.75zm-1.75 8.4h-4.9v-4.9h4.9z"/><path d="m109.957 33.367a22.141 22.141 0 0 0 -22.116-22.117h-63.921a5.884 5.884 0 0 0 -5.877 5.877v93.746a5.884 5.884 0 0 0 5.877 5.877h59.793a5.885 5.885 0 0 0 5.878-5.877v-55.465a22.142 22.142 0 0 0 20.366-22.041zm-26.244 79.883h-59.793a2.379 2.379 0 0 1 -2.377-2.377v-93.746a2.379 2.379 0 0 1 2.377-2.377h52a22.306 22.306 0 0 0 -4.769 4.125h-43.788a1.75 1.75 0 0 0 -1.75 1.75v20.431a1.75 1.75 0 0 0 1.75 1.75h40.481a22.24 22.24 0 0 0 5.117 6.909h-12.561a1.751 1.751 0 0 0 -1.75 1.75v8.4a1.751 1.751 0 0 0 1.75 1.75h16.118a1.751 1.751 0 0 0 1.75-1.75v-6.565a21.942 21.942 0 0 0 7.823 2.106v55.465a2.38 2.38 0 0 1 -2.378 2.379zm-17.173-73.944h-37.427v-16.931h39.548a22.032 22.032 0 0 0 -2.121 16.931zm8.228 13.909v4.9h-12.618v-4.9zm13.079-1.232h-.013a18.617 18.617 0 1 1 .013 0z"/><path d="m91.588 27.885a1.75 1.75 0 1 0 3.5 0 7.238 7.238 0 0 0 -5.5-7.012v-2.339a1.75 1.75 0 0 0 -3.5 0v2.347a7.221 7.221 0 0 0 0 14.009v7.224a3.718 3.718 0 0 1 -1.966-3.266 1.75 1.75 0 0 0 -3.5 0 7.239 7.239 0 0 0 5.466 7v2.352a1.75 1.75 0 0 0 3.5 0v-2.34a7.221 7.221 0 0 0 0-14.024v-7.236a3.72 3.72 0 0 1 2 3.285zm-7.463 0a3.718 3.718 0 0 1 1.966-3.266v6.533a3.718 3.718 0 0 1 -1.966-3.267zm7.463 10.963a3.72 3.72 0 0 1 -2 3.283v-6.567a3.722 3.722 0 0 1 2 3.284z"/></svg>