<?xml version="1.0"?>
<svg xmlns="http://www.w3.org/2000/svg" id="Layer_1" data-name="Layer 1" viewBox="0 0 128 128" width="512" height="512"><title>CALENDAR</title><path d="M111.333,19.917H100.09V17.5a6.25,6.25,0,0,0-12.5,0v2.417H40.41V17.5a6.25,6.25,0,0,0-12.5,0v2.417H16.667a1.749,1.749,0,0,0-1.75,1.75V115a1.75,1.75,0,0,0,1.75,1.75H96.75a1.75,1.75,0,0,0,1.237-.513l14.584-14.583a1.749,1.749,0,0,0,.512-1.237V21.667A1.749,1.749,0,0,0,111.333,19.917ZM91.09,17.5a2.75,2.75,0,0,1,5.5,0v8.333a2.75,2.75,0,0,1-5.5,0Zm-59.68,0a2.75,2.75,0,1,1,5.5,0v8.333a2.75,2.75,0,0,1-5.5,0ZM18.417,23.417H27.91v2.416a6.25,6.25,0,0,0,12.5,0V23.417H87.59v2.416a6.25,6.25,0,0,0,12.5,0V23.417h9.493V43.5H18.417Zm0,23.579h91.166V98.667H96.75a1.75,1.75,0,0,0-1.75,1.75V113.25H18.417Zm88.692,55.171L98.5,110.775v-8.608Z"/><path d="M40.741,56.25h-9A1.751,1.751,0,0,0,29.991,58v9a1.751,1.751,0,0,0,1.75,1.75h9A1.75,1.75,0,0,0,42.491,67V58A1.75,1.75,0,0,0,40.741,56.25Zm-1.75,9h-5.5v-5.5h5.5Z"/><path d="M59.247,56.25h-9A1.751,1.751,0,0,0,48.5,58v9a1.751,1.751,0,0,0,1.75,1.75h9A1.751,1.751,0,0,0,61,67V58A1.751,1.751,0,0,0,59.247,56.25Zm-1.75,9H52v-5.5h5.5Z"/><path d="M77.753,56.25h-9A1.751,1.751,0,0,0,67,58v9a1.751,1.751,0,0,0,1.75,1.75h9A1.751,1.751,0,0,0,79.5,67V58A1.751,1.751,0,0,0,77.753,56.25Zm-1.75,9H70.5v-5.5H76Z"/><path d="M87.259,68.75h9A1.751,1.751,0,0,0,98.009,67V58a1.751,1.751,0,0,0-1.75-1.75h-9A1.75,1.75,0,0,0,85.509,58v9A1.75,1.75,0,0,0,87.259,68.75Zm1.75-9h5.5v5.5h-5.5Z"/><path d="M40.741,73.75h-9a1.751,1.751,0,0,0-1.75,1.75v9a1.751,1.751,0,0,0,1.75,1.75h9a1.75,1.75,0,0,0,1.75-1.75v-9A1.75,1.75,0,0,0,40.741,73.75Zm-1.75,9h-5.5v-5.5h5.5Z"/><path d="M59.247,73.75h-9A1.751,1.751,0,0,0,48.5,75.5v9a1.751,1.751,0,0,0,1.75,1.75h9A1.751,1.751,0,0,0,61,84.5v-9A1.751,1.751,0,0,0,59.247,73.75Zm-1.75,9H52v-5.5h5.5Z"/><path d="M77.753,73.75h-9A1.751,1.751,0,0,0,67,75.5v9a1.751,1.751,0,0,0,1.75,1.75h9A1.751,1.751,0,0,0,79.5,84.5v-9A1.751,1.751,0,0,0,77.753,73.75Zm-1.75,9H70.5v-5.5H76Z"/><path d="M96.259,86.25a1.751,1.751,0,0,0,1.75-1.75v-9a1.751,1.751,0,0,0-1.75-1.75h-9a1.75,1.75,0,0,0-1.75,1.75v9a1.75,1.75,0,0,0,1.75,1.75Zm-7.25-9h5.5v5.5h-5.5Z"/><path d="M40.741,91.25h-9A1.751,1.751,0,0,0,29.991,93v9a1.751,1.751,0,0,0,1.75,1.75h9a1.75,1.75,0,0,0,1.75-1.75V93A1.75,1.75,0,0,0,40.741,91.25Zm-1.75,9h-5.5v-5.5h5.5Z"/><path d="M59.247,91.25h-9A1.751,1.751,0,0,0,48.5,93v9a1.751,1.751,0,0,0,1.75,1.75h9A1.751,1.751,0,0,0,61,102V93A1.751,1.751,0,0,0,59.247,91.25Zm-1.75,9H52v-5.5h5.5Z"/><path d="M77.753,91.25h-9A1.751,1.751,0,0,0,67,93v9a1.751,1.751,0,0,0,1.75,1.75h9A1.751,1.751,0,0,0,79.5,102V93A1.751,1.751,0,0,0,77.753,91.25Zm-1.75,9H70.5v-5.5H76Z"/></svg>
