<svg id="Layer_1" height="512" viewBox="0 0 128 128" width="512" xmlns="http://www.w3.org/2000/svg" data-name="Layer 1"><path d="m115 16.546h-102a1.75 1.75 0 0 0 -1.75 1.75v75.646a1.75 1.75 0 0 0 1.75 1.75h38.431l-2.224 6.3a7.849 7.849 0 0 0 -6.448 7.71 1.749 1.749 0 0 0 1.75 1.75h38.982a1.749 1.749 0 0 0 1.75-1.75 7.849 7.849 0 0 0 -6.448-7.71l-2.224-6.3h38.431a1.75 1.75 0 0 0 1.75-1.75v-75.642a1.75 1.75 0 0 0 -1.75-1.754zm-100.25 10.283h98.5v51.256h-98.5zm98.5-6.783v3.283h-98.5v-3.283zm-31.877 87.908h-34.746a4.349 4.349 0 0 1 3.974-2.592h26.799a4.349 4.349 0 0 1 3.973 2.592zm-6.338-6.092h-22.07l2.178-6.17h17.714zm-60.285-9.67v-10.607h98.5v10.607z"/></svg>