<svg id="Layer_1" height="512" viewBox="0 0 128 128" width="512" xmlns="http://www.w3.org/2000/svg" data-name="Layer 1"><path d="m65.621 70.424h-36.58a1.75 1.75 0 1 0 0 3.5h36.58a1.75 1.75 0 1 0 0-3.5z"/><path d="m29.041 84.417h21.916a1.75 1.75 0 0 0 0-3.5h-21.916a1.75 1.75 0 1 0 0 3.5z"/><path d="m65.621 91.41h-36.58a1.75 1.75 0 1 0 0 3.5h36.58a1.75 1.75 0 1 0 0-3.5z"/><path d="m50.957 101.9h-21.916a1.75 1.75 0 0 0 0 3.5h21.916a1.75 1.75 0 1 0 0-3.5z"/><path d="m29.041 62.25h49.33a1.749 1.749 0 0 0 1.75-1.75v-24.952a1.749 1.749 0 0 0 -1.75-1.75h-49.33a1.75 1.75 0 0 0 -1.75 1.75v24.952a1.75 1.75 0 0 0 1.75 1.75zm1.75-24.95h45.83v21.45h-45.83z"/><path d="m110.422 40.7a8.083 8.083 0 0 0 -10.81 3.72l-5.412 11.089v-28.426a1.746 1.746 0 0 0 -.513-1.237l-14.079-14.083a1.75 1.75 0 0 0 -1.237-.513h-63.583a1.749 1.749 0 0 0 -1.75 1.75v102a1.749 1.749 0 0 0 1.75 1.75h77.666a1.749 1.749 0 0 0 1.746-1.75v-22.61l19.94-40.881a8.093 8.093 0 0 0 -3.718-10.809zm-30.3-23.476 8.108 8.108h-8.109zm-63.584 96.026v-98.5h60.083v12.333a1.749 1.749 0 0 0 1.75 1.75h12.329v33.852l-12.349 25.328a1.733 1.733 0 0 0 -.171.725c0 .006-.006.011-.006.018l-.208 14.872a1.751 1.751 0 0 0 2.846 1.389l9.888-7.952v16.185zm65.1-21.688 6.424 3.138-6.544 5.262zm29.362-41.587-20.5 42.018-8.239-4.019 20.5-42.018a4.583 4.583 0 0 1 8.239 4.019z"/></svg>