<svg id="Layer_1" height="512" viewBox="0 0 128 128" width="512" xmlns="http://www.w3.org/2000/svg" data-name="Layer 1"><path d="m110.536 30.033h-93.072a6.221 6.221 0 0 0 -6.214 6.214v55.506a6.221 6.221 0 0 0 6.214 6.214h93.072a6.22 6.22 0 0 0 6.214-6.214v-55.506a6.22 6.22 0 0 0 -6.214-6.214zm-95.786 16.248h98.5v6.991h-98.5zm2.714-12.748h93.072a2.717 2.717 0 0 1 2.714 2.714v6.534h-98.5v-6.534a2.717 2.717 0 0 1 2.714-2.714zm93.072 60.934h-93.072a2.717 2.717 0 0 1 -2.714-2.714v-34.981h98.5v34.981a2.717 2.717 0 0 1 -2.714 2.714z"/><path d="m38.267 76.229a7.571 7.571 0 0 0 -5.834 2.744 7.584 7.584 0 1 0 0 9.677 7.581 7.581 0 1 0 5.834-12.421zm-11.667 11.671a4.083 4.083 0 1 1 4.083-4.083 4.087 4.087 0 0 1 -4.083 4.083zm11.667 0a4.083 4.083 0 1 1 4.083-4.083 4.088 4.088 0 0 1 -4.083 4.083z"/><path d="m108.271 80.063-4.75-3.494a1.755 1.755 0 0 0 -1.038-.34h-10.25a1.75 1.75 0 0 0 -1.75 1.75v11.666a1.751 1.751 0 0 0 1.75 1.75h15a1.75 1.75 0 0 0 1.75-1.75v-8.172a1.75 1.75 0 0 0 -.712-1.41zm-2.788 7.837h-11.5v-8.171h7.926l3.574 2.629z"/></svg>