<svg id="Layer_1" height="512" viewBox="0 0 128 128" width="512" xmlns="http://www.w3.org/2000/svg" data-name="Layer 1"><path d="m105.51 28.349h-24.67v-11.222a5.885 5.885 0 0 0 -5.878-5.877h-52.584a5.885 5.885 0 0 0 -5.878 5.877v93.746a5.885 5.885 0 0 0 5.878 5.877h52.584a5.885 5.885 0 0 0 5.878-5.877v-21.816h24.67a6 6 0 0 0 5.99-5.991v-48.726a6 6 0 0 0 -5.99-5.991zm-7.058 3.5v53.708h-3.445v-53.708zm-21.112 79.024a2.38 2.38 0 0 1 -2.378 2.377h-52.584a2.379 2.379 0 0 1 -2.378-2.377v-93.746a2.379 2.379 0 0 1 2.378-2.377h52.584a2.38 2.38 0 0 1 2.378 2.377zm3.5-79.024h10.667v53.708h-10.667zm27.16 51.217a2.494 2.494 0 0 1 -2.49 2.491h-3.558v-53.708h3.558a2.493 2.493 0 0 1 2.49 2.491z"/><path d="m71.371 19.75h-45.4a1.75 1.75 0 0 0 -1.75 1.75v20.431a1.75 1.75 0 0 0 1.75 1.75h45.4a1.75 1.75 0 0 0 1.75-1.75v-20.431a1.75 1.75 0 0 0 -1.75-1.75zm-1.75 20.431h-41.9v-16.931h41.9z"/><path d="m71.371 49.715h-16.118a1.75 1.75 0 0 0 -1.75 1.75v8.4a1.75 1.75 0 0 0 1.75 1.75h16.118a1.75 1.75 0 0 0 1.75-1.75v-8.4a1.75 1.75 0 0 0 -1.75-1.75zm-1.75 8.4h-12.621v-4.9h12.621z"/><path d="m71.371 65h-16.118a1.749 1.749 0 0 0 -1.75 1.75v8.4a1.75 1.75 0 0 0 1.75 1.75h16.118a1.75 1.75 0 0 0 1.75-1.75v-8.4a1.749 1.749 0 0 0 -1.75-1.75zm-1.75 8.4h-12.621v-4.9h12.621z"/><path d="m71.371 80.284h-16.118a1.749 1.749 0 0 0 -1.75 1.75v23.957a1.749 1.749 0 0 0 1.75 1.75h16.118a1.749 1.749 0 0 0 1.75-1.75v-23.957a1.749 1.749 0 0 0 -1.75-1.75zm-1.75 23.957h-12.621v-20.457h12.621z"/><path d="m34.368 49.715h-8.4a1.75 1.75 0 0 0 -1.75 1.75v8.4a1.75 1.75 0 0 0 1.75 1.75h8.4a1.75 1.75 0 0 0 1.75-1.75v-8.4a1.75 1.75 0 0 0 -1.75-1.75zm-1.75 8.4h-4.9v-4.9h4.9z"/><path d="m49.011 49.715h-8.4a1.751 1.751 0 0 0 -1.75 1.75v8.4a1.751 1.751 0 0 0 1.75 1.75h8.4a1.75 1.75 0 0 0 1.75-1.75v-8.4a1.75 1.75 0 0 0 -1.75-1.75zm-1.75 8.4h-4.9v-4.9h4.9z"/><path d="m34.368 65h-8.4a1.749 1.749 0 0 0 -1.75 1.75v8.4a1.75 1.75 0 0 0 1.75 1.75h8.4a1.75 1.75 0 0 0 1.75-1.75v-8.4a1.749 1.749 0 0 0 -1.75-1.75zm-1.75 8.4h-4.9v-4.9h4.9z"/><path d="m49.011 65h-8.4a1.75 1.75 0 0 0 -1.75 1.75v8.4a1.751 1.751 0 0 0 1.75 1.75h8.4a1.75 1.75 0 0 0 1.75-1.75v-8.4a1.749 1.749 0 0 0 -1.75-1.75zm-1.75 8.4h-4.9v-4.9h4.9z"/><path d="m34.368 80.284h-8.4a1.749 1.749 0 0 0 -1.75 1.75v8.4a1.75 1.75 0 0 0 1.75 1.75h8.4a1.75 1.75 0 0 0 1.75-1.75v-8.4a1.749 1.749 0 0 0 -1.75-1.75zm-1.75 8.4h-4.9v-4.9h4.9z"/><path d="m49.011 80.284h-8.4a1.75 1.75 0 0 0 -1.75 1.75v8.4a1.751 1.751 0 0 0 1.75 1.75h8.4a1.75 1.75 0 0 0 1.75-1.75v-8.4a1.749 1.749 0 0 0 -1.75-1.75zm-1.75 8.4h-4.9v-4.9h4.9z"/><path d="m34.368 95.842h-8.4a1.749 1.749 0 0 0 -1.75 1.75v8.4a1.749 1.749 0 0 0 1.75 1.75h8.4a1.749 1.749 0 0 0 1.75-1.75v-8.4a1.749 1.749 0 0 0 -1.75-1.75zm-1.75 8.4h-4.9v-4.9h4.9z"/><path d="m49.011 95.842h-8.4a1.75 1.75 0 0 0 -1.75 1.75v8.4a1.75 1.75 0 0 0 1.75 1.75h8.4a1.749 1.749 0 0 0 1.75-1.75v-8.4a1.749 1.749 0 0 0 -1.75-1.75zm-1.75 8.4h-4.9v-4.9h4.9z"/></svg>