<svg id="Layer_1" height="512" viewBox="0 0 128 128" width="512" xmlns="http://www.w3.org/2000/svg" data-name="Layer 1"><path d="m103.634 45.457-9.1-13.327a22.436 22.436 0 0 0 1.886-3.63 19.537 19.537 0 0 0 1.465-10c-.5-3.374-2.113-5.782-4.553-6.78-4.366-1.783-9.858 1.666-13.1 7.957l-26.711 5.277a1.752 1.752 0 0 0 -1.28 1.054l-28.049 68.556a1.752 1.752 0 0 0 .957 2.284l48.328 19.772a1.752 1.752 0 0 0 2.283-.957l28.049-68.557a1.752 1.752 0 0 0 -.175-1.649zm-11.626-30.497c1.683.688 2.235 2.832 2.414 4.049a16.006 16.006 0 0 1 -1.242 8.16c-.25.61-.531 1.2-.831 1.76l-6.349-9.307a1.741 1.741 0 0 0 -1.18-.733c2.38-3.23 5.332-4.689 7.188-3.929zm-14.192 15.6a12.23 12.23 0 0 0 .858 3.745 2.505 2.505 0 0 1 -.858-3.745zm4.4 2.47a2.527 2.527 0 0 1 -.15.282 8.662 8.662 0 0 1 -.786-3.359 2.544 2.544 0 0 1 .936 3.077zm-9.035 79.684-45.087-18.443 27.03-66.066 23.527-4.648a21.313 21.313 0 0 0 -.636 2.757c-.166.053-.33.111-.493.179a6.048 6.048 0 1 0 4.629-.019 5.831 5.831 0 0 0 -.578-.2 18.754 18.754 0 0 1 1.039-3.425c.011-.027.024-.051.035-.078l1.109-.219 16.456 24.1z"/><path d="m81.317 63.814a1.75 1.75 0 0 0 -2.291-.937l-37.064 15.541a1.75 1.75 0 0 0 -.937 2.291l2.275 5.421a1.751 1.751 0 0 0 2.291.937l37.061-15.541a1.751 1.751 0 0 0 .938-2.291zm-35.468 19.348-.919-2.192 33.836-14.188.92 2.193z"/><path d="m70.279 81.237a6.971 6.971 0 1 0 3.79 3.756 6.925 6.925 0 0 0 -3.79-3.756zm-1.3 9.654a3.472 3.472 0 1 1 1.859-4.544 3.443 3.443 0 0 1 -1.856 4.544z"/><path d="m54.335 68.707a6.974 6.974 0 1 0 -3.789-3.757 6.955 6.955 0 0 0 3.789 3.757zm-.573-7.767a3.471 3.471 0 1 1 .011 2.657 3.444 3.444 0 0 1 -.011-2.657z"/></svg>