<svg id="Layer_1" height="512" viewBox="0 0 128 128" width="512" xmlns="http://www.w3.org/2000/svg" data-name="Layer 1"><path d="m114.92 84.715a22.143 22.143 0 0 0 -20.673-22.065v-35.567a1.75 1.75 0 0 0 -.513-1.237l-14.083-14.083a1.75 1.75 0 0 0 -1.237-.513h-63.584a1.75 1.75 0 0 0 -1.75 1.75v102a1.75 1.75 0 0 0 1.75 1.75h77.67a1.75 1.75 0 0 0 1.75-1.75v-8.221a22.142 22.142 0 0 0 20.67-22.064zm-34.756-67.49 8.109 8.108h-8.109zm-63.584 96.025v-98.5h60.084v12.333a1.749 1.749 0 0 0 1.75 1.75h12.333v33.867a22.114 22.114 0 0 0 0 44.036v6.517zm76.22-9.918a18.617 18.617 0 1 1 18.62-18.617 18.638 18.638 0 0 1 -18.62 18.617z"/><path d="m96.55 79.234a1.75 1.75 0 0 0 3.5 0 7.238 7.238 0 0 0 -5.5-7.013v-2.339a1.75 1.75 0 0 0 -3.5 0v2.348a7.22 7.22 0 0 0 0 14.007v7.234a3.719 3.719 0 0 1 -1.978-3.271 1.75 1.75 0 0 0 -3.5 0 7.237 7.237 0 0 0 5.481 7v2.343a1.75 1.75 0 0 0 3.5 0v-2.343a7.221 7.221 0 0 0 0-14.016v-7.234a3.72 3.72 0 0 1 1.997 3.284zm-7.462 0a3.719 3.719 0 0 1 1.965-3.266v6.532a3.72 3.72 0 0 1 -1.965-3.266zm7.446 10.966a3.718 3.718 0 0 1 -1.981 3.275v-6.55a3.719 3.719 0 0 1 1.981 3.275z"/><path d="m65.664 70.424h-36.58a1.75 1.75 0 0 0 0 3.5h36.58a1.75 1.75 0 1 0 0-3.5z"/><path d="m29.084 84.417h21.916a1.75 1.75 0 0 0 0-3.5h-21.916a1.75 1.75 0 0 0 0 3.5z"/><path d="m65.664 91.41h-36.58a1.75 1.75 0 0 0 0 3.5h36.58a1.75 1.75 0 1 0 0-3.5z"/><path d="m51 101.9h-21.916a1.75 1.75 0 1 0 0 3.5h21.916a1.75 1.75 0 1 0 0-3.5z"/><path d="m29.084 62.25h49.33a1.75 1.75 0 0 0 1.75-1.75v-24.952a1.75 1.75 0 0 0 -1.75-1.75h-49.33a1.75 1.75 0 0 0 -1.75 1.75v24.952a1.75 1.75 0 0 0 1.75 1.75zm1.75-24.95h45.83v21.45h-45.83z"/></svg>