<svg id="Layer_1" height="512" viewBox="0 0 128 128" width="512" xmlns="http://www.w3.org/2000/svg" data-name="Layer 1"><path d="m114.623 46.087-15.774-33.827a1.751 1.751 0 0 0 -2.326-.846l-61.294 28.586a1.748 1.748 0 0 0 -.846 2.325l6.377 13.675-.149.069a12.445 12.445 0 0 0 -6.31 6.659l-5.055 12.563-16.985 7.917a1.75 1.75 0 1 0 1.478 3.172l6.361-2.962 13.028 27.948-4.393 2.048a1.75 1.75 0 1 0 1.479 3.172l15.644-7.293a1.75 1.75 0 0 0 .847-2.325l-1.316-2.824 2.75-1.281a1.755 1.755 0 0 0 .669-.548l9.972-13.523a22.144 22.144 0 0 0 4.34-12.724l.09-4.074 50.57-23.581a1.749 1.749 0 0 0 .847-2.326zm-78.323 63.8-13.032-27.948 6.494-3.027 13.028 27.948zm19.66-23.172-9.708 13.163-2.346 1.094-11.388-24.433 5.031-12.508a8.957 8.957 0 0 1 4.542-4.792l.148-.07 7.919 16.979a1.749 1.749 0 0 0 3.285-.323l3.183-12.981a3.552 3.552 0 0 1 1.955-2.381l1.391-.648-.356 16.176a18.666 18.666 0 0 1 -3.656 10.724zm-4.851-42.715 10.914-5.089c-.092.218-.193.43-.275.654a13.577 13.577 0 0 0 8.111 17.4c.222.081.446.143.67.211l-7.071 3.3.017-.741a3.4 3.4 0 0 0 -4.834-3.156l-1.538.717a7.021 7.021 0 0 0 -3.053 2.747l-4.931-10.577a6.135 6.135 0 0 0 1.99-5.466zm46.788.415-10.909 5.085c.091-.216.191-.426.272-.647a13.575 13.575 0 0 0 -8.112-17.4c-.225-.082-.454-.142-.681-.211l10.913-5.092a6.143 6.143 0 0 0 5.469 1.991l5.039 10.805a6.147 6.147 0 0 0 -1.988 5.466zm-19.197 8.951a10.212 10.212 0 1 1 .127-.06zm-15.4 14.727.082-3.72 16.809-7.839c.019-.008.039-.014.057-.023s.04-.022.061-.032l20.431-9.527a1.751 1.751 0 0 0 .847-2.326 2.619 2.619 0 0 1 1.267-3.479 1.749 1.749 0 0 0 .846-2.326l-6.3-13.516a1.751 1.751 0 0 0 -2.326-.847 2.617 2.617 0 0 1 -3.479-1.266 1.749 1.749 0 0 0 -2.325-.846l-40.997 19.112a1.749 1.749 0 0 0 -.846 2.326 2.616 2.616 0 0 1 -1.266 3.478 1.751 1.751 0 0 0 -.847 2.326l6.3 13.516a1.739 1.739 0 0 0 1.111.938l-1.5 6.121-6.553-14.063-6.375-13.67 58.122-27.1 14.3 30.654z"/></svg>