<svg id="Layer_1" height="512" viewBox="0 0 128 128" width="512" xmlns="http://www.w3.org/2000/svg" data-name="Layer 1"><path d="m25.405 104.25h18.524a1.75 1.75 0 0 0 1.75-1.75v-42.333a1.75 1.75 0 0 0 -1.75-1.75h-18.524a1.749 1.749 0 0 0 -1.75 1.75v42.333a1.749 1.749 0 0 0 1.75 1.75zm1.75-42.333h15.024v38.833h-15.024z"/><path d="m73.262 48h-18.524a1.75 1.75 0 0 0 -1.75 1.75v52.75a1.75 1.75 0 0 0 1.75 1.75h18.524a1.75 1.75 0 0 0 1.75-1.75v-52.75a1.75 1.75 0 0 0 -1.75-1.75zm-1.75 52.75h-15.024v-49.25h15.024z"/><path d="m84.071 104.25h18.529a1.749 1.749 0 0 0 1.75-1.75v-64.131a1.749 1.749 0 0 0 -1.75-1.75h-18.529a1.75 1.75 0 0 0 -1.75 1.75v64.131a1.75 1.75 0 0 0 1.75 1.75zm1.75-64.131h15.024v60.631h-15.024z"/><path d="m115 111.75h-100.25v-79.917a1.75 1.75 0 0 0 -3.5 0v81.667a1.75 1.75 0 0 0 1.75 1.75h102a1.75 1.75 0 0 0 0-3.5z"/><path d="m33.038 44.248c.871.043 1.728.065 2.578.065 20.807 0 35.01-12.648 38.894-16.548l3.154 2.073a1.751 1.751 0 0 0 2.686-1.758l-2.375-13.875a1.751 1.751 0 0 0 -2.237-1.379l-14.375 4.4a1.751 1.751 0 0 0 -.411 3.161l2.683 1.664a69.2 69.2 0 0 1 -30.914 18.749 1.75 1.75 0 0 0 .317 3.451zm34.617-21.435a1.75 1.75 0 0 0 -.4-2.633l-1.183-.735 8.788-2.689 1.36 7.945-1.01-.664a1.753 1.753 0 0 0 -2.271.3 56 56 0 0 1 -27.765 15.474 70.449 70.449 0 0 0 22.481-16.998z"/></svg>