<svg id="Layer_1" height="512" viewBox="0 0 128 128" width="512" xmlns="http://www.w3.org/2000/svg" data-name="Layer 1"><path d="m107.709 77.232h-1.251v-17.009a1.749 1.749 0 0 0 -1.75-1.75h-3.034v-11.1a1.749 1.749 0 0 0 -1.75-1.75h-24.717l4.383-4.66a1.75 1.75 0 0 0 -1.275-2.949h-4.015l1.859-24.882a1.75 1.75 0 0 0 -1.745-1.881h-20.831a1.75 1.75 0 0 0 -1.745 1.881l1.862 24.881h-4.015a1.75 1.75 0 0 0 -1.275 2.949l4.383 4.66h-26.077a8.185 8.185 0 0 0 -8.175 8.178v52.056a10.908 10.908 0 0 0 10.9 10.9h75.271a1.749 1.749 0 0 0 1.75-1.75v-17.016h1.251a1.749 1.749 0 0 0 1.75-1.75v-17.258a1.75 1.75 0 0 0 -1.754-1.75zm-1.75 17.258h-11.824a6.879 6.879 0 0 1 0-13.758h11.824zm-50.49-79.74h17.062l-1.859 24.882a1.75 1.75 0 0 0 1.745 1.881h1.85l-10.267 10.915-10.267-10.915h1.85a1.75 1.75 0 0 0 1.745-1.881zm-28.753 34.372h29.369l6.641 7.06a1.751 1.751 0 0 0 2.548 0l6.641-7.06h26.259v9.351h-71.458a4.676 4.676 0 0 1 0-9.351zm76.242 64.128h-73.521a7.4 7.4 0 0 1 -7.4-7.4v-45.356a8.12 8.12 0 0 0 4.675 1.479h76.242v15.259h-8.819a10.379 10.379 0 0 0 0 20.758h8.823z"/><path d="m90.721 87.611a3.73 3.73 0 1 0 3.729-3.73 3.734 3.734 0 0 0 -3.729 3.73z"/><path d="m69.162 80.7a1.75 1.75 0 0 0 3.5 0 8.659 8.659 0 0 0 -6.915-8.471v-3.296a1.75 1.75 0 0 0 -3.5 0v3.3a8.645 8.645 0 0 0 0 16.923v10.144a5.138 5.138 0 0 1 -3.4-4.818 1.75 1.75 0 0 0 -3.5 0 8.658 8.658 0 0 0 6.9 8.466v3.3a1.75 1.75 0 0 0 3.5 0v-3.3a8.646 8.646 0 0 0 0-16.933v-10.143a5.137 5.137 0 0 1 3.415 4.828zm-10.29 0a5.139 5.139 0 0 1 3.375-4.812v9.624a5.138 5.138 0 0 1 -3.375-4.812zm10.27 13.79a5.138 5.138 0 0 1 -3.395 4.81v-9.632a5.139 5.139 0 0 1 3.395 4.818z"/></svg>