<svg id="Layer_1" height="512" viewBox="0 0 128 128" width="512" xmlns="http://www.w3.org/2000/svg" data-name="Layer 1"><path d="m54.917 21.517a22.117 22.117 0 1 0 22.116 22.116 22.142 22.142 0 0 0 -22.116-22.116zm0 40.733a18.617 18.617 0 1 1 18.616-18.617 18.638 18.638 0 0 1 -18.616 18.617z"/><path d="m58.664 38.152a1.75 1.75 0 0 0 3.5 0 7.238 7.238 0 0 0 -5.5-7.012v-2.34a1.75 1.75 0 0 0 -3.5 0v2.347a7.22 7.22 0 0 0 0 14.008v7.225a3.719 3.719 0 0 1 -1.964-3.265 1.75 1.75 0 0 0 -3.5 0 7.238 7.238 0 0 0 5.466 7v2.347a1.75 1.75 0 1 0 3.5 0v-2.335a7.221 7.221 0 0 0 0-14.025v-7.233a3.718 3.718 0 0 1 1.998 3.283zm-7.463 0a3.719 3.719 0 0 1 1.966-3.266v6.533a3.721 3.721 0 0 1 -1.967-3.267zm7.463 10.963a3.718 3.718 0 0 1 -2 3.283v-6.567a3.719 3.719 0 0 1 2 3.284z"/><path d="m66.917 70.424h-36.58a1.75 1.75 0 0 0 0 3.5h36.58a1.75 1.75 0 0 0 0-3.5z"/><path d="m30.337 84.417h21.916a1.75 1.75 0 1 0 0-3.5h-21.916a1.75 1.75 0 0 0 0 3.5z"/><path d="m66.917 91.41h-36.58a1.75 1.75 0 0 0 0 3.5h36.58a1.75 1.75 0 0 0 0-3.5z"/><path d="m52.253 101.9h-21.916a1.75 1.75 0 0 0 0 3.5h21.916a1.75 1.75 0 0 0 0-3.5z"/><path d="m112.943 63.709a1.754 1.754 0 0 0 -1.571-.246c-6.994 2.293-14.21-.059-15.872-2.783v-33.6a1.75 1.75 0 0 0 -.513-1.237l-14.087-14.08a1.75 1.75 0 0 0 -1.237-.513h-63.58a1.75 1.75 0 0 0 -1.75 1.75v102a1.75 1.75 0 0 0 1.75 1.75h77.667a1.75 1.75 0 0 0 1.75-1.75v-7.507c.62-.738 2.8-2.922 9.082-6.229 8.981-4.731 9.085-12.8 9.085-13.141v-23a1.748 1.748 0 0 0 -.724-1.414zm-31.526-46.484 8.109 8.108h-8.109zm-63.584 96.025v-98.5h60.084v12.333a1.749 1.749 0 0 0 1.75 1.75h12.333v31.848c-1.662 2.723-8.877 5.076-15.872 2.782a1.751 1.751 0 0 0 -2.3 1.663v23c0 .341.1 8.41 9.085 13.141 6.352 3.345 8.511 5.541 9.082 6.214v5.772zm92.334-25.139c0 .257-.165 6.342-7.216 10.056a41.621 41.621 0 0 0 -9.2 6.095 41.621 41.621 0 0 0 -9.2-6.095c-7.051-3.714-7.213-9.8-7.216-10.044v-20.723c6.248 1.29 13.052-.148 16.417-3.356 3.365 3.208 10.167 4.648 16.417 3.356z"/><path d="m102.176 75.967a1.751 1.751 0 0 0 -2.459.273l-6.4 8-3.037-1.72a1.75 1.75 0 1 0 -1.726 3.044l4.333 2.458a1.748 1.748 0 0 0 2.229-.429l7.333-9.166a1.749 1.749 0 0 0 -.273-2.46z"/></svg>