<svg id="Layer_1" height="512" viewBox="0 0 128 128" width="512" xmlns="http://www.w3.org/2000/svg" data-name="Layer 1"><path d="m75.152 36.691-.773-6.722h3.936a1.75 1.75 0 0 0 1.275-2.949l-14.315-15.22a1.805 1.805 0 0 0 -2.55 0l-14.315 15.22a1.75 1.75 0 0 0 1.275 2.949h3.936l-.773 6.722a40.75 40.75 0 1 0 22.3 0zm-18.262-9.636a1.748 1.748 0 0 0 -1.307-.586h-1.85l10.267-10.915 10.267 10.915h-1.85a1.75 1.75 0 0 0 -1.739 1.95l.852 7.417a40.341 40.341 0 0 0 -15.06 0l.852-7.417a1.748 1.748 0 0 0 -.432-1.364zm7.11 86.072a37.25 37.25 0 1 1 37.25-37.25 37.292 37.292 0 0 1 -37.25 37.25z"/><path d="m64 43.848a32.029 32.029 0 1 0 32.028 32.029 32.064 32.064 0 0 0 -32.028-32.029zm0 60.557a28.529 28.529 0 1 1 28.528-28.528 28.561 28.561 0 0 1 -28.528 28.528z"/><path d="m70.87 67.282a1.75 1.75 0 0 0 3.5 0 10.353 10.353 0 0 0 -8.62-10.189v-4.475a1.75 1.75 0 1 0 -3.5 0v4.482a10.332 10.332 0 0 0 0 20.362v13.613a6.852 6.852 0 0 1 -5.07-6.6 1.75 1.75 0 0 0 -3.5 0 10.354 10.354 0 0 0 8.57 10.181v4.482a1.75 1.75 0 0 0 3.5 0v-4.477a10.332 10.332 0 0 0 0-20.378v-13.617a6.85 6.85 0 0 1 5.12 6.616zm-13.69 0a6.85 6.85 0 0 1 5.07-6.6v13.203a6.852 6.852 0 0 1 -5.07-6.603zm13.69 17.19a6.852 6.852 0 0 1 -5.12 6.616v-13.232a6.85 6.85 0 0 1 5.12 6.616z"/></svg>