<svg id="Layer_1" height="512" viewBox="0 0 128 128" width="512" xmlns="http://www.w3.org/2000/svg" data-name="Layer 1"><path d="m74.82 41.881 5.68-26.756a1.75 1.75 0 0 0 -.916-1.922 20.883 20.883 0 0 0 -13.684-1.336c-.025 0-.05.012-.075.018a18.078 18.078 0 0 0 -3.468 1.315 14.108 14.108 0 0 1 -12.308.026 1.75 1.75 0 0 0 -2.548 1.9l5.679 26.756c-17.371 8.584-30.666 36.942-30.666 56.486 0 6.506 1.52 11.108 4.646 14.069 5.312 5.031 14.444 4.535 25.019 3.958 3.794-.207 7.717-.42 11.821-.42s8.027.213 11.821.42c3.289.179 6.436.35 9.374.35 6.51 0 11.985-.842 15.645-4.308 3.126-2.961 4.646-7.563 4.646-14.069 0-19.544-13.295-47.902-30.666-56.487zm-10.89-25.556c.183-.093.367-.169.55-.252v10.036a1.75 1.75 0 0 0 3.5 0v-11.109a17.818 17.818 0 0 1 8.792.83l-5.637 26.554a1.65 1.65 0 0 0 -.049.2.43.43 0 0 0 -.022.213v.081c-.184.53-1.427 1.662-5.311 1.928v-7.006a1.75 1.75 0 0 0 -3.5 0v7.013c-3.889-.267-5.131-1.4-5.312-1.93 0-.025 0-.049 0-.074a.448.448 0 0 0 -.025-.226 1.6 1.6 0 0 0 -.043-.182l-5.289-24.896a17.273 17.273 0 0 0 12.346-1.18zm34.5 93.57c-4.22 4-12.254 3.559-22.422 3.005-3.841-.209-7.813-.425-12.012-.425s-8.171.216-12.012.425c-10.17.553-18.2.991-22.422-3.005-2.39-2.264-3.552-6.034-3.552-11.527 0-17.981 12.475-44.949 28.273-53.134a5.436 5.436 0 0 0 .361.432c1.682 1.793 4.829 2.7 9.352 2.7s7.67-.91 9.352-2.7a5.211 5.211 0 0 0 .36-.432c15.8 8.185 28.274 35.153 28.274 53.134.004 5.493-1.158 9.263-3.548 11.532z"/><path d="m64 61.666a21.5 21.5 0 1 0 21.5 21.5 21.525 21.525 0 0 0 -21.5-21.5zm0 39.5a18 18 0 1 1 18-18 18.021 18.021 0 0 1 -18 18z"/><path d="m67.581 77.851a1.75 1.75 0 0 0 3.5 0 7.073 7.073 0 0 0 -5.331-6.842v-2.227a1.75 1.75 0 1 0 -3.5 0v2.235a7.055 7.055 0 0 0 0 13.666v6.876a3.553 3.553 0 0 1 -1.8-3.078 1.75 1.75 0 0 0 -3.5 0 7.072 7.072 0 0 0 5.3 6.833v2.235a1.75 1.75 0 0 0 3.5 0v-2.227a7.055 7.055 0 0 0 0-13.682v-6.885a3.555 3.555 0 0 1 1.831 3.096zm-7.131 0a3.553 3.553 0 0 1 1.8-3.079v6.157a3.553 3.553 0 0 1 -1.8-3.078zm7.131 10.63a3.554 3.554 0 0 1 -1.831 3.095v-6.191a3.556 3.556 0 0 1 1.831 3.096z"/></svg>