<svg id="Layer_1" height="512" viewBox="0 0 128 128" width="512" xmlns="http://www.w3.org/2000/svg" data-name="Layer 1"><path d="m116.743 43.117a1.75 1.75 0 0 0 -1.75-1.75h-7.614v-7.616a1.75 1.75 0 0 0 -1.75-1.75l-92.629.013a1.749 1.749 0 0 0 -1.75 1.75l.007 51.119a1.75 1.75 0 0 0 1.75 1.75h7.614v7.617a1.75 1.75 0 0 0 1.751 1.75l92.628-.014a1.749 1.749 0 0 0 1.75-1.75zm-101.993-7.603 89.128-.013v7.616l.006 40-81.51.012h-7.617zm9.372 56.986v-5.869l81.514-.011a1.75 1.75 0 0 0 1.75-1.75l-.006-40h5.864l.007 47.619z"/><path d="m22.368 71.285a4.239 4.239 0 0 1 4.232 4.233 1.75 1.75 0 0 0 1.75 1.749h30.879.086s.058 0 .087 0l30.884-.005a1.75 1.75 0 0 0 1.75-1.75 4.23 4.23 0 0 1 4.232-4.233 1.751 1.751 0 0 0 1.75-1.751v-20.426a1.75 1.75 0 0 0 -1.75-1.749 4.234 4.234 0 0 1 -4.234-4.232 1.75 1.75 0 0 0 -1.75-1.75l-61.936.008a1.75 1.75 0 0 0 -1.75 1.751 4.234 4.234 0 0 1 -4.232 4.233 1.75 1.75 0 0 0 -1.75 1.75v20.427a1.75 1.75 0 0 0 1.75 1.749zm22.5-11.965a14.447 14.447 0 1 1 14.532 14.443h-.173a14.461 14.461 0 0 1 -14.356-14.443zm45.932-10.736a7.676 7.676 0 0 0 3.718 2.067v17.322a7.754 7.754 0 0 0 -5.785 5.785h-18.807a17.88 17.88 0 0 0 -.014-28.891h18.817a7.678 7.678 0 0 0 2.071 3.717zm-62.966.009a7.678 7.678 0 0 0 2.066-3.718h18.817a17.881 17.881 0 0 0 -.005 28.891h-18.81a7.759 7.759 0 0 0 -5.783-5.782v-17.324a7.681 7.681 0 0 0 3.714-2.067z"/></svg>