<svg id="Layer_1" height="512" viewBox="0 0 128 128" width="512" xmlns="http://www.w3.org/2000/svg" data-name="Layer 1"><path d="m116.5 74.205a3.282 3.282 0 0 0 -3.052-2.053h-1.7a16.879 16.879 0 0 0 -8.221 2.143l-12.415 6.942h-3.541a9.8 9.8 0 0 0 -9.63-8.036h-22.361a1.751 1.751 0 0 0 -1.338.621l-6.774 8.03a1.737 1.737 0 0 0 -1.322-.615h-33.146a1.75 1.75 0 0 0 0 3.5h21.38v25.081h-21.38a1.75 1.75 0 0 0 0 3.5h33.146a1.75 1.75 0 0 0 1.75-1.75v-8.391l35.688-1.639c.035 0 .069 0 .1-.008a25.218 25.218 0 0 0 14.916-6.994l17.157-16.73a3.283 3.283 0 0 0 .743-3.601zm-72.1 35.613h-6.52v-25.081h6.52zm51.751-17.788a21.7 21.7 0 0 1 -12.779 6.014l-35.472 1.629v-12.9l8.5-10.07h21.541a6.294 6.294 0 0 1 6.14 4.949l-17.733 4.348a1.75 1.75 0 0 0 .415 3.45 1.728 1.728 0 0 0 .419-.051l19.008-4.662h5.378a1.75 1.75 0 0 0 .854-.223l12.814-7.164a13.37 13.37 0 0 1 6.513-1.7h1.2z"/><path d="m58.317 40.946a5.359 5.359 0 0 0 1.028.1 5.288 5.288 0 0 0 2.373-.567v24.321a1.751 1.751 0 0 0 1.75 1.75h38.032a1.751 1.751 0 0 0 1.75-1.75v-24.322a5.355 5.355 0 0 0 5.383-9.231l-23.149-15.647a5.328 5.328 0 0 0 -6 0l-23.149 15.647a5.358 5.358 0 0 0 1.982 9.7zm31.661 22.108h-14.989v-14.99h14.989zm3.5 0v-16.74a1.751 1.751 0 0 0 -1.75-1.75h-18.489a1.75 1.75 0 0 0 -1.75 1.75v16.74h-6.271v-24.879l17.265-11.669 17.266 11.67v24.878zm-35.968-27.721a1.85 1.85 0 0 1 .784-1.187l23.15-15.646a1.848 1.848 0 0 1 2.079 0l23.149 15.646a1.858 1.858 0 0 1 .5 2.58 1.9 1.9 0 0 1 -2.579.5l-21.13-14.282a1.751 1.751 0 0 0 -1.96 0l-21.128 14.281a1.858 1.858 0 0 1 -2.865-1.892z"/></svg>