<svg id="Layer_1" height="512" viewBox="0 0 128 128" width="512" xmlns="http://www.w3.org/2000/svg" data-name="Layer 1"><path d="m38.1 53.308a1.75 1.75 0 0 0 3.5 0 7.346 7.346 0 0 0 -5.6-7.124v-2.413a1.75 1.75 0 0 0 -3.5 0v2.422a7.328 7.328 0 0 0 0 14.23v7.451a3.828 3.828 0 0 1 -2.073-3.389 1.75 1.75 0 0 0 -3.5 0 7.347 7.347 0 0 0 5.573 7.115v2.42a1.75 1.75 0 0 0 3.5 0v-2.41a7.33 7.33 0 0 0 0-14.248v-7.462a3.829 3.829 0 0 1 2.1 3.408zm-7.679 0a3.828 3.828 0 0 1 2.079-3.389v6.781a3.827 3.827 0 0 1 -2.077-3.392zm7.679 11.177a3.829 3.829 0 0 1 -2.1 3.407v-6.813a3.829 3.829 0 0 1 2.1 3.406z"/><path d="m98.223 78.1a18.5 18.5 0 0 0 -15.018 7.721l-28.517-16.401a22.915 22.915 0 0 0 .549-19.908l14.7-11.885a14.729 14.729 0 1 0 -2.13-2.78l-14.274 11.54a23 23 0 1 0 -.683 26.013l28.585 16.438a18.513 18.513 0 1 0 16.788-10.738zm-17.893-61.752a11.075 11.075 0 1 1 -11.075 11.075 11.086 11.086 0 0 1 11.075-11.075zm-46.081 62.052a19.5 19.5 0 1 1 19.5-19.5 19.522 19.522 0 0 1 -19.5 19.5zm63.974 33.256a15.027 15.027 0 1 1 15.027-15.031 15.044 15.044 0 0 1 -15.027 15.027z"/></svg>