<svg id="Layer_1" height="512" viewBox="0 0 128 128" width="512" xmlns="http://www.w3.org/2000/svg" data-name="Layer 1"><path d="m54.577 68.561c.006-.006.01-.014.016-.02l35.456-35.455a1.75 1.75 0 0 0 -.167-2.622 41.969 41.969 0 0 0 -25.882-8.834 42.418 42.418 0 0 0 -42.37 42.37 41.96 41.96 0 0 0 8.834 25.881 1.752 1.752 0 0 0 1.273.677h.112a1.749 1.749 0 0 0 1.237-.513l21.475-21.471zm-5.271.318-13.872-14.129 19.841-19.481 13.694 13.947-1.58 1.58-8.35-8.5a1.749 1.749 0 0 0 -1.233-.524 1.68 1.68 0 0 0 -1.243.5 1.915 1.915 0 0 1 -2.705-.025 1.748 1.748 0 0 0 -1.232-.524 1.856 1.856 0 0 0 -1.242.5l-8.927 8.764a1.75 1.75 0 0 0 -.023 2.475 1.913 1.913 0 0 1 -.025 2.706 1.751 1.751 0 0 0 -.022 2.475l8.5 8.657zm-3.4-11.646a5.442 5.442 0 0 0 .043-4.774l6.84-6.715a5.375 5.375 0 0 0 2.382.573 5.592 5.592 0 0 0 2.391-.529l7.349 7.483-11.55 11.553zm-13.856 28.9a38.452 38.452 0 0 1 -6.92-22.133 38.914 38.914 0 0 1 38.87-38.87 38.459 38.459 0 0 1 22.133 6.923l-14.689 14.688-14.9-15.173a1.75 1.75 0 0 0 -2.475-.022l-22.336 21.933a1.75 1.75 0 0 0 -.023 2.475l15.121 15.4z"/><path d="m97.536 38.119a1.748 1.748 0 0 0 -2.622-.167l-17.425 17.424-.01.009-.011.013-4.03 4.029-.015.012-.015.019-35.457 35.456a1.75 1.75 0 0 0 .167 2.622 41.969 41.969 0 0 0 25.882 8.834 42.418 42.418 0 0 0 42.37-42.37 41.96 41.96 0 0 0 -8.834-25.881zm-36.925 39.081 8.35 8.5a1.75 1.75 0 0 0 1.233.524h.016a1.75 1.75 0 0 0 1.227-.5 1.936 1.936 0 0 1 1.357-.548 1.9 1.9 0 0 1 1.348.573 1.748 1.748 0 0 0 1.232.524h.017a1.745 1.745 0 0 0 1.225-.5l8.927-8.764a1.75 1.75 0 0 0 .023-2.475 1.913 1.913 0 0 1 .025-2.706 1.751 1.751 0 0 0 .022-2.475l-8.5-8.657 1.58-1.58 13.873 14.134-19.841 19.481-13.694-13.948zm14.028-14.024 7.452 7.591a5.442 5.442 0 0 0 -.043 4.774l-6.84 6.715a5.372 5.372 0 0 0 -2.382-.573 5.129 5.129 0 0 0 -2.392.529l-7.348-7.484zm-10.639 39.694a38.457 38.457 0 0 1 -22.133-6.923l14.689-14.688 14.9 15.173a1.755 1.755 0 0 0 1.234.524h.01a1.748 1.748 0 0 0 1.226-.5l22.341-21.935a1.75 1.75 0 0 0 .023-2.475l-15.121-15.4 14.778-14.778a38.452 38.452 0 0 1 6.923 22.132 38.914 38.914 0 0 1 -38.87 38.87z"/><path d="m64 11.25a52.75 52.75 0 1 0 52.75 52.75 52.81 52.81 0 0 0 -52.75-52.75zm0 102a49.25 49.25 0 1 1 49.25-49.25 49.306 49.306 0 0 1 -49.25 49.25z"/></svg>