<svg id="Layer_1" height="512" viewBox="0 0 128 128" width="512" xmlns="http://www.w3.org/2000/svg" data-name="Layer 1"><path d="m64 75.415a23.112 23.112 0 1 0 -23.111-23.115 23.137 23.137 0 0 0 23.111 23.115zm0-42.723a19.612 19.612 0 1 1 -19.611 19.608 19.634 19.634 0 0 1 19.611-19.608z"/><path d="m60.018 58.052a1.75 1.75 0 1 0 -3.5 0 7.505 7.505 0 0 0 5.732 7.28v2.528a1.75 1.75 0 1 0 3.5 0v-2.52a7.489 7.489 0 0 0 0-14.576v-7.8a3.994 3.994 0 0 1 2.266 3.587 1.75 1.75 0 0 0 3.5 0 7.507 7.507 0 0 0 -5.766-7.288v-2.52a1.75 1.75 0 0 0 -3.5 0v2.529a7.488 7.488 0 0 0 0 14.559v7.787a3.989 3.989 0 0 1 -2.232-3.566zm8 0a3.993 3.993 0 0 1 -2.266 3.587v-7.174a3.993 3.993 0 0 1 2.264 3.587zm-8-11.5a3.989 3.989 0 0 1 2.232-3.568v7.137a3.989 3.989 0 0 1 -2.232-3.567z"/><path d="m92.586 11.25h-57.172a5.837 5.837 0 0 0 -5.831 5.83v93.84a5.837 5.837 0 0 0 5.831 5.83h57.172a5.837 5.837 0 0 0 5.831-5.83v-93.84a5.837 5.837 0 0 0 -5.831-5.83zm-59.5 11.167h61.831v79.5h-61.834zm2.331-7.667h57.169a2.333 2.333 0 0 1 2.331 2.33v1.837h-61.834v-1.837a2.333 2.333 0 0 1 2.331-2.33zm57.172 98.5h-57.175a2.333 2.333 0 0 1 -2.331-2.33v-5.5h61.834v5.5a2.333 2.333 0 0 1 -2.331 2.33z"/><path d="m64 106.852a2.313 2.313 0 1 0 2.313 2.313 2.315 2.315 0 0 0 -2.313-2.313z"/><path d="m42.639 86h21.361a1.75 1.75 0 0 0 0-3.5h-21.361a1.75 1.75 0 0 0 0 3.5z"/><path d="m85.361 90.085h-42.722a1.75 1.75 0 1 0 0 3.5h42.722a1.75 1.75 0 0 0 0-3.5z"/></svg>