<svg id="Layer_1" height="512" viewBox="0 0 128 128" width="512" xmlns="http://www.w3.org/2000/svg" data-name="Layer 1"><path d="m111.333 19.917h-11.243v-2.417a6.25 6.25 0 0 0 -12.5 0v2.417h-47.18v-2.417a6.25 6.25 0 0 0 -12.5 0v2.417h-11.243a1.749 1.749 0 0 0 -1.75 1.75v93.333a1.75 1.75 0 0 0 1.75 1.75h80.083a1.75 1.75 0 0 0 1.237-.513l14.583-14.583a1.75 1.75 0 0 0 .513-1.237v-78.75a1.749 1.749 0 0 0 -1.75-1.75zm-20.243-2.417a2.75 2.75 0 0 1 5.5 0v8.333a2.75 2.75 0 0 1 -5.5 0zm-59.68 0a2.75 2.75 0 1 1 5.5 0v8.333a2.75 2.75 0 0 1 -5.5 0zm-12.993 5.917h9.493v2.416a6.25 6.25 0 0 0 12.5 0v-2.416h47.18v2.416a6.25 6.25 0 0 0 12.5 0v-2.416h9.493v20.083h-91.166zm0 23.579h91.166v51.671h-12.833a1.749 1.749 0 0 0 -1.75 1.75v12.833h-76.583zm88.691 55.171-8.608 8.608v-8.608z"/><path d="m64 53.329a26.794 26.794 0 1 0 26.794 26.794 26.825 26.825 0 0 0 -26.794-26.794zm0 50.088a23.294 23.294 0 1 1 23.294-23.294 23.32 23.32 0 0 1 -23.294 23.294z"/><path d="m69.01 73.383a1.75 1.75 0 0 0 3.5 0 8.506 8.506 0 0 0 -6.76-8.312v-3.187a1.75 1.75 0 0 0 -3.5 0v3.2a8.488 8.488 0 0 0 0 16.6v9.834a4.984 4.984 0 0 1 -3.24-4.656 1.75 1.75 0 0 0 -3.5 0 8.5 8.5 0 0 0 6.74 8.306v3.193a1.75 1.75 0 0 0 3.5 0v-3.192a8.489 8.489 0 0 0 0-16.613v-9.836a4.984 4.984 0 0 1 3.26 4.663zm-9.981 0a4.985 4.985 0 0 1 3.221-4.65v9.3a4.986 4.986 0 0 1 -3.221-4.65zm9.961 13.48a4.984 4.984 0 0 1 -3.24 4.656v-9.313a4.985 4.985 0 0 1 3.24 4.657z"/></svg>