<svg id="Layer_1" height="512" viewBox="0 0 128 128" width="512" xmlns="http://www.w3.org/2000/svg" data-name="Layer 1"><path d="m84.512 33.6h5.788v4.25a1.75 1.75 0 0 0 3.5 0v-6a1.751 1.751 0 0 0 -1.75-1.75h-7.538a20.585 20.585 0 0 0 -41.024 0h-7.524a1.751 1.751 0 0 0 -1.75 1.75v6a1.75 1.75 0 0 0 3.5 0v-4.25h5.774a20.585 20.585 0 0 0 41.024 0zm-20.512 15.352a17.1 17.1 0 1 1 17.1-17.1v.006a17.12 17.12 0 0 1 -17.1 17.094z"/><path d="m67.338 26.778a1.75 1.75 0 0 0 3.5 0 6.828 6.828 0 0 0 -5.088-6.591v-2.065a1.75 1.75 0 0 0 -3.5 0v2.072a6.813 6.813 0 0 0 0 13.167v6.376a3.313 3.313 0 0 1 -1.573-2.813 1.75 1.75 0 0 0 -3.5 0 6.829 6.829 0 0 0 5.073 6.588v2.068a1.75 1.75 0 0 0 3.5 0v-2.068a6.814 6.814 0 0 0 0-13.175v-6.38a3.314 3.314 0 0 1 1.588 2.821zm-6.647 0a3.316 3.316 0 0 1 1.559-2.8v5.61a3.316 3.316 0 0 1 -1.559-2.81zm6.632 10.146a3.313 3.313 0 0 1 -1.573 2.813v-5.626a3.316 3.316 0 0 1 1.573 2.813z"/><path d="m43.376 91.422a12.882 12.882 0 1 0 -14.823 0 24.758 24.758 0 0 0 -17.303 23.578 1.751 1.751 0 0 0 1.75 1.75h45.929a1.75 1.75 0 0 0 1.75-1.75 24.758 24.758 0 0 0 -17.303-23.578zm-16.793-10.522a9.382 9.382 0 1 1 9.381 9.382 9.392 9.392 0 0 1 -9.381-9.382zm-11.762 32.35a21.216 21.216 0 0 1 42.287 0z"/><path d="m99.464 91.422a12.882 12.882 0 1 0 -14.823 0 24.758 24.758 0 0 0 -17.303 23.578 1.751 1.751 0 0 0 1.75 1.75h45.929a1.751 1.751 0 0 0 1.75-1.75 24.758 24.758 0 0 0 -17.303-23.578zm-16.793-10.522a9.382 9.382 0 1 1 9.382 9.382 9.392 9.392 0 0 1 -9.382-9.382zm-11.762 32.35a21.216 21.216 0 0 1 42.287 0z"/><path d="m92.053 56.25a1.75 1.75 0 0 0 -1.753 1.75v6a1.75 1.75 0 0 0 3.5 0v-6a1.751 1.751 0 0 0 -1.747-1.75z"/><path d="m93.8 44.567a1.75 1.75 0 0 0 -3.5 0v6.717a1.75 1.75 0 0 0 3.5 0z"/><path d="m35.964 53.034a1.75 1.75 0 0 0 1.75-1.75v-6.717a1.75 1.75 0 0 0 -3.5 0v6.717a1.751 1.751 0 0 0 1.75 1.75z"/><path d="m35.964 65.75a1.75 1.75 0 0 0 1.75-1.75v-6a1.75 1.75 0 0 0 -3.5 0v6a1.751 1.751 0 0 0 1.75 1.75z"/></svg>