<svg id="Layer_1" height="512" viewBox="0 0 128 128" width="512" xmlns="http://www.w3.org/2000/svg" data-name="Layer 1"><path d="m112.084 67.087h-2.878a31.936 31.936 0 0 0 -13.684-16.827v-11.195a1.75 1.75 0 0 0 -1.75-1.75 17.183 17.183 0 0 0 -8.34 2.161 22.116 22.116 0 1 0 -43.548-5.457 22.072 22.072 0 0 0 4.353 13.181 31.391 31.391 0 0 0 -21.593 23.864c-.122-.118-.239-.238-.37-.352a9.59 9.59 0 0 0 -1.942-6.26 11.254 11.254 0 0 0 -9.486-4.834 1.75 1.75 0 0 0 .292 3.487 7.818 7.818 0 0 1 6.389 3.441 6.318 6.318 0 0 1 1.113 2.333 6.31 6.31 0 0 0 -2.029-.017c-3.282.5-4.357 2.665-4.281 4.37a4.238 4.238 0 0 0 3.9 4.027c.1.006.2.009.3.009a5.4 5.4 0 0 0 4.545-2.73 11.515 11.515 0 0 1 .968 1.462q-.03.687-.029 1.38a31.686 31.686 0 0 0 13.212 25.7 14.63 14.63 0 0 1 5.974 11.92 1.75 1.75 0 0 0 1.75 1.75h16.03a1.75 1.75 0 0 0 1.75-1.75v-6.016h9.482v6.016a1.75 1.75 0 0 0 1.75 1.75h16.027a1.765 1.765 0 0 0 1.75-1.768 15.213 15.213 0 0 1 6.292-12.152 31.8 31.8 0 0 0 11.175-15.154h2.878a4.671 4.671 0 0 0 4.666-4.666v-11.257a4.671 4.671 0 0 0 -4.666-4.666zm-91.844 5.372a2.065 2.065 0 0 1 -1.794 1.307.766.766 0 0 1 -.62-.69c-.023-.524 1.087-.719 1.31-.753a2.688 2.688 0 0 1 .408-.031 2.847 2.847 0 0 1 .733.1c-.012.022-.024.045-.037.067zm43.76-57.059a18.643 18.643 0 0 1 15.491 28.977 20.272 20.272 0 0 0 -1.359 1.776 18.615 18.615 0 0 1 -6.832 4.985 39.921 39.921 0 0 0 -6.562-.7 1.746 1.746 0 0 0 1.015-1.583v-2.347a7.221 7.221 0 0 0 0-14.016v-7.238a3.72 3.72 0 0 1 2 3.284 1.75 1.75 0 0 0 3.5 0 7.237 7.237 0 0 0 -5.5-7.012v-2.34a1.75 1.75 0 0 0 -3.5 0v2.348a7.22 7.22 0 0 0 0 14.007v7.234a3.719 3.719 0 0 1 -1.984-3.275 1.75 1.75 0 0 0 -3.5 0 7.237 7.237 0 0 0 5.481 7.008v2.343a1.746 1.746 0 0 0 .991 1.571 40.721 40.721 0 0 0 -6.791.606 18.612 18.612 0 0 1 7.55-35.628zm3.731 24.1a3.719 3.719 0 0 1 -1.981 3.275v-6.55a3.718 3.718 0 0 1 1.981 3.275zm-5.481-7.7a3.7 3.7 0 0 1 0-6.532zm51 51.206a1.167 1.167 0 0 1 -1.166 1.166h-4.152a1.751 1.751 0 0 0 -1.677 1.25 28.249 28.249 0 0 1 -10.3 14.584 18.825 18.825 0 0 0 -7.634 13.24h-12.609v-6.016a1.75 1.75 0 0 0 -1.75-1.75h-12.982a1.751 1.751 0 0 0 -1.75 1.75v6.016h-12.609a18.054 18.054 0 0 0 -7.356-13.018 28.093 28.093 0 0 1 9.561-50.113 22.05 22.05 0 0 0 2.718 2.173 18.759 18.759 0 0 0 -5.47 2.882 1.75 1.75 0 1 0 2.184 2.735c3.084-2.463 8.949-3.992 15.308-3.992s12.222 1.528 15.3 3.989a1.75 1.75 0 1 0 2.184-2.735 18.175 18.175 0 0 0 -4.9-2.672 22.03 22.03 0 0 0 4.2-3.554 1.729 1.729 0 0 0 .477-.517c0-.006.046-.072.105-.162.456-.54.892-1.1 1.292-1.676a16.108 16.108 0 0 1 9.8-5.66v10.344a1.748 1.748 0 0 0 .9 1.53 28.362 28.362 0 0 1 13.331 16.537 1.749 1.749 0 0 0 1.677 1.25h4.152a1.167 1.167 0 0 1 1.166 1.166z"/><path d="m95.367 66.163a1.749 1.749 0 0 0 -1.75 1.75 2.344 2.344 0 1 1 -4.688 0 1.75 1.75 0 1 0 -3.5 0 5.844 5.844 0 1 0 11.688 0 1.749 1.749 0 0 0 -1.75-1.75z"/></svg>