<svg id="Layer_1" height="512" viewBox="0 0 128 128" width="512" xmlns="http://www.w3.org/2000/svg" data-name="Layer 1"><path d="m116.5 74.206a3.281 3.281 0 0 0 -3.052-2.054h-1.7a16.893 16.893 0 0 0 -8.222 2.143l-12.414 6.942h-3.541a9.8 9.8 0 0 0 -9.63-8.036h-22.361a1.754 1.754 0 0 0 -1.338.621l-6.775 8.029a1.742 1.742 0 0 0 -1.321-.614h-33.146a1.75 1.75 0 0 0 0 3.5h21.38v25.081h-21.38a1.75 1.75 0 0 0 0 3.5h33.146a1.75 1.75 0 0 0 1.75-1.75v-8.392l35.688-1.638c.034 0 .068 0 .1-.008a25.21 25.21 0 0 0 14.908-7l17.157-16.729a3.28 3.28 0 0 0 .751-3.595zm-72.1 35.612h-6.52v-25.081h6.52zm51.751-17.789a21.693 21.693 0 0 1 -12.78 6.015l-35.471 1.629v-12.9l8.5-10.071h21.541a6.3 6.3 0 0 1 6.14 4.95l-17.733 4.353a1.75 1.75 0 0 0 .416 3.449 1.725 1.725 0 0 0 .418-.051l19.006-4.666h5.38a1.755 1.755 0 0 0 .855-.222l12.813-7.165a13.37 13.37 0 0 1 6.513-1.7h1.2z"/><path d="m82.316 66.554a25.936 25.936 0 1 0 -25.936-25.936 25.966 25.966 0 0 0 25.936 25.936zm0-48.372a22.436 22.436 0 1 1 -22.436 22.436 22.462 22.462 0 0 1 22.436-22.436z"/><path d="m71.508 43.038h3.492a8.425 8.425 0 0 1 -1.566 2.933l-2.75 3.318a1.749 1.749 0 0 0 1.347 2.866h18.709a1.75 1.75 0 0 0 0-3.5h-14.989l.375-.451a11.913 11.913 0 0 0 2.474-5.166h7.22a1.75 1.75 0 0 0 0-3.5h-6.955v-6.438a4.825 4.825 0 0 1 4.82-4.82h.486a4.825 4.825 0 0 1 4.819 4.82 1.75 1.75 0 1 0 3.5 0 8.329 8.329 0 0 0 -8.319-8.32h-.486a8.33 8.33 0 0 0 -8.32 8.32v6.438h-3.857a1.75 1.75 0 0 0 0 3.5z"/></svg>