<?xml version="1.0"?>
<svg xmlns="http://www.w3.org/2000/svg" id="Layer_1" data-name="Layer 1" viewBox="0 0 128 128" width="512" height="512"><title>PROCESSING</title><path d="M64,32.869A31.131,31.131,0,1,0,95.131,64,31.166,31.166,0,0,0,64,32.869Zm0,58.762A27.631,27.631,0,1,1,91.631,64,27.662,27.662,0,0,1,64,91.631Z"/><path d="M64,40.8A23.2,23.2,0,1,0,87.2,64,23.228,23.228,0,0,0,64,40.8Zm0,42.9A19.7,19.7,0,1,1,83.7,64,19.724,19.724,0,0,1,64,83.7Z"/><path d="M68.04,58.227a1.75,1.75,0,0,0,3.5,0,7.531,7.531,0,0,0-5.79-7.314V48.376a1.75,1.75,0,0,0-3.5,0v2.545a7.514,7.514,0,0,0,0,14.611V73.38a4.018,4.018,0,0,1-2.273-3.607,1.75,1.75,0,0,0-3.5,0,7.53,7.53,0,0,0,5.773,7.31v2.541a1.75,1.75,0,0,0,3.5,0V77.083a7.514,7.514,0,0,0,0-14.619V54.611A4.019,4.019,0,0,1,68.04,58.227Zm-8.046,0a4.015,4.015,0,0,1,2.256-3.6v7.193A4.013,4.013,0,0,1,59.994,58.227Zm8.029,11.546A4.018,4.018,0,0,1,65.75,73.38V66.167A4.017,4.017,0,0,1,68.023,69.773Z"/><path d="M115,54.338H104.029a40.733,40.733,0,0,0-4.9-11.8l7.764-7.764a1.749,1.749,0,0,0,0-2.475L95.705,21.106a1.749,1.749,0,0,0-2.475,0L85.466,28.87a40.744,40.744,0,0,0-11.8-4.9V13a1.751,1.751,0,0,0-1.75-1.75H56.088A1.751,1.751,0,0,0,54.338,13V23.971a40.744,40.744,0,0,0-11.8,4.9L34.77,21.106a1.749,1.749,0,0,0-2.475,0L21.106,32.3a1.749,1.749,0,0,0,0,2.475l7.764,7.764a40.733,40.733,0,0,0-4.9,11.8H13a1.751,1.751,0,0,0-1.75,1.75V71.912A1.751,1.751,0,0,0,13,73.662H23.971a40.733,40.733,0,0,0,4.9,11.8L21.106,93.23a1.749,1.749,0,0,0,0,2.475L32.3,106.894a1.749,1.749,0,0,0,2.475,0l7.764-7.764a40.756,40.756,0,0,0,11.8,4.9V115a1.751,1.751,0,0,0,1.75,1.75H71.912a1.751,1.751,0,0,0,1.75-1.75V104.029a40.756,40.756,0,0,0,11.8-4.9l7.764,7.764a1.749,1.749,0,0,0,2.475,0l11.189-11.189a1.749,1.749,0,0,0,0-2.475L99.13,85.466a40.733,40.733,0,0,0,4.9-11.8H115a1.751,1.751,0,0,0,1.75-1.75V56.088A1.751,1.751,0,0,0,115,54.338Zm-1.75,15.824H102.625a1.749,1.749,0,0,0-1.715,1.4,37.291,37.291,0,0,1-5.47,13.182,1.75,1.75,0,0,0,.222,2.2l7.52,7.52-8.714,8.714-7.52-7.52a1.749,1.749,0,0,0-2.2-.223,37.268,37.268,0,0,1-13.183,5.471,1.75,1.75,0,0,0-1.4,1.715V113.25H57.838V102.625a1.749,1.749,0,0,0-1.4-1.715,37.271,37.271,0,0,1-13.182-5.471,1.749,1.749,0,0,0-2.2.223l-7.52,7.52-8.714-8.714,7.52-7.52a1.75,1.75,0,0,0,.222-2.2,37.291,37.291,0,0,1-5.47-13.182,1.749,1.749,0,0,0-1.715-1.4H14.75V57.838H25.375a1.75,1.75,0,0,0,1.715-1.4,37.288,37.288,0,0,1,5.47-13.183,1.75,1.75,0,0,0-.222-2.2l-7.52-7.52,8.714-8.714,7.52,7.52a1.753,1.753,0,0,0,2.2.223A37.29,37.29,0,0,1,56.437,27.09a1.749,1.749,0,0,0,1.4-1.715V14.75H70.162V25.375a1.75,1.75,0,0,0,1.4,1.715,37.287,37.287,0,0,1,13.183,5.471,1.753,1.753,0,0,0,2.2-.223l7.52-7.52,8.714,8.714-7.52,7.52a1.75,1.75,0,0,0-.222,2.2,37.288,37.288,0,0,1,5.47,13.183,1.75,1.75,0,0,0,1.715,1.4H113.25Z"/></svg>
