<?xml version="1.0"?>
<svg xmlns="http://www.w3.org/2000/svg" id="Layer_1" data-name="Layer 1" viewBox="0 0 128 128" width="512" height="512"><title>PROPERTY</title><path d="M13,107.676H115a1.75,1.75,0,0,0,0-3.5h-5.618V84.994a1.752,1.752,0,0,0-.621-1.337L96.55,73.349v-4.7a6.863,6.863,0,0,0,.9.067,6.964,6.964,0,0,0,3.9-12.734L67.9,33.372a6.927,6.927,0,0,0-7.8,0l-9.325,6.3v-2.79a1.749,1.749,0,0,0-1.75-1.75H38.648a1.75,1.75,0,0,0-1.75,1.75v12.17L26.65,55.98a6.964,6.964,0,0,0,2.577,12.607,7.039,7.039,0,0,0,1.336.129,6.927,6.927,0,0,0,.888-.066v4.7L19.239,83.657a1.749,1.749,0,0,0-.621,1.337v19.182H13a1.75,1.75,0,0,0,0,3.5Zm21.951-40.5L64,47.546,93.05,67.18v37H80.724V76.688a1.75,1.75,0,0,0-1.75-1.75H49.026a1.75,1.75,0,0,0-1.75,1.75v27.488H34.951Zm42.273,37H50.776V78.438H77.224Zm28.658-18.369v18.369H96.55V77.928ZM40.4,38.634h6.878v3.405L40.4,46.688ZM29.891,65.15a3.462,3.462,0,0,1-1.281-6.269l33.452-22.61a3.446,3.446,0,0,1,3.877,0l33.452,22.61a3.463,3.463,0,1,1-3.879,5.738L64.98,43.983a1.751,1.751,0,0,0-1.96,0L32.488,64.619A3.425,3.425,0,0,1,29.891,65.15ZM22.118,85.807l9.333-7.879v26.248H22.118Z"/><path d="M115,110.94H13a1.75,1.75,0,0,0,0,3.5H115a1.75,1.75,0,0,0,0-3.5Z"/><path d="M39.6,27.083a4.953,4.953,0,0,0-.187,1.352,5.042,5.042,0,0,0,10.041.65A8.623,8.623,0,1,0,49.431,15.3,7.671,7.671,0,0,0,39.6,27.083Zm4.97-10.023a4.133,4.133,0,0,1,3.377,1.729,1.75,1.75,0,0,0,1.353.721,1.731,1.731,0,0,0,1.4-.622,5.125,5.125,0,1,1-.549,5.8,1.751,1.751,0,0,0-2.724-.416,4.206,4.206,0,0,1-1.038.716,1.75,1.75,0,0,0-.671,2.573,1.546,1.546,0,1,1-2.5-.037,1.75,1.75,0,0,0-.592-2.591,4.175,4.175,0,0,1,1.938-7.873Z"/></svg>
