<svg id="Layer_1" height="512" viewBox="0 0 128 128" width="512" xmlns="http://www.w3.org/2000/svg" data-name="Layer 1"><path d="m90.779 68.991h-6.511v-19.139a4.238 4.238 0 0 0 -5.95-3.878 11.924 11.924 0 0 0 -6.879 8.588l-.683 3.451a10.315 10.315 0 0 1 -8.016 8.108l-2.839.6h-46.901a1.75 1.75 0 0 0 0 3.5h36.333v34.834h-36.333a1.75 1.75 0 0 0 0 3.5h47.083a1.749 1.749 0 0 0 1.75-1.75v-2.174h25.806a5.758 5.758 0 0 0 5.127-8.394 5.753 5.753 0 0 0 2.143-9.425 5.745 5.745 0 0 0 0-8.032 5.761 5.761 0 0 0 -4.13-9.785zm2.267 13.8a2.27 2.27 0 0 1 -2.267 2.267h-13.557a2.267 2.267 0 0 1 0-4.534h13.557a2.27 2.27 0 0 1 2.267 2.268zm0-8.034a2.27 2.27 0 0 1 -2.268 2.267h-11.292a2.267 2.267 0 0 1 0-4.534h11.293a2.27 2.27 0 0 1 2.268 2.268zm-34.713 30.294h-5.5v-34.834h5.5zm3.5-35.163 1.625-.341a13.812 13.812 0 0 0 10.731-10.855l.684-3.451a8.42 8.42 0 0 1 4.857-6.065.738.738 0 0 1 1.038.676v19.139h-1.282a5.756 5.756 0 0 0 -4.954 8.7 5.76 5.76 0 0 0 0 10.194 5.735 5.735 0 0 0 .825 6.954 5.751 5.751 0 0 0 -1.172 6.284h-12.352zm25.806 31.239h-8.153a2.267 2.267 0 0 1 0-4.534h8.153a2.267 2.267 0 0 1 0 4.534zm3.14-8.034h-11.293a2.267 2.267 0 0 1 0-4.534h11.293a2.267 2.267 0 1 1 0 4.534z"/><path d="m44.714 53.37-.9 5.272a1.749 1.749 0 0 0 2.539 1.844l4.73-2.486 4.734 2.488a1.748 1.748 0 0 0 2.539-1.844l-.9-5.272 3.83-3.733a1.75 1.75 0 0 0 -.971-2.985l-5.292-.769-2.367-4.8a1.75 1.75 0 0 0 -3.139 0l-2.367 4.8-5.293.769a1.75 1.75 0 0 0 -.97 2.985zm3.847-4.156a1.746 1.746 0 0 0 1.317-.957l1.2-2.442 1.2 2.442a1.75 1.75 0 0 0 1.318.957l2.694.391-1.949 1.9a1.745 1.745 0 0 0 -.5 1.549l.46 2.683-2.401-1.265a1.751 1.751 0 0 0 -1.629 0l-2.41 1.266.46-2.683a1.748 1.748 0 0 0 -.5-1.549l-1.95-1.9z"/><path d="m73.314 31.265-.763 4.452a1.75 1.75 0 0 0 2.539 1.845l4-2.1 4 2.1a1.75 1.75 0 0 0 2.539-1.845l-.764-4.452 3.235-3.155a1.75 1.75 0 0 0 -.971-2.984l-4.471-.649-2-4.052a1.749 1.749 0 0 0 -3.138 0l-2 4.052-4.47.649a1.75 1.75 0 0 0 -.971 2.984zm3.619-3.457a1.75 1.75 0 0 0 1.318-.957l.838-1.7.837 1.7a1.75 1.75 0 0 0 1.318.957l1.871.272-1.354 1.32a1.75 1.75 0 0 0 -.5 1.549l.319 1.864-1.68-.879a1.751 1.751 0 0 0 -1.629 0l-1.674.88.319-1.865a1.751 1.751 0 0 0 -.5-1.549l-1.354-1.32z"/><path d="m116.664 52.058a1.749 1.749 0 0 0 -1.412-1.191l-6.07-.882-2.714-5.5a1.751 1.751 0 0 0 -3.139 0l-2.715 5.5-6.069.882a1.751 1.751 0 0 0 -.97 2.985l4.393 4.282-1.037 6.045a1.749 1.749 0 0 0 2.539 1.844l5.43-2.853 5.429 2.853a1.749 1.749 0 0 0 2.539-1.844l-1.037-6.045 4.393-4.282a1.752 1.752 0 0 0 .44-1.794zm-7.936 4.212a1.745 1.745 0 0 0 -.5 1.548l.592 3.457-3.1-1.631a1.743 1.743 0 0 0 -1.629 0l-3.105 1.631.593-3.457a1.748 1.748 0 0 0 -.5-1.548l-2.511-2.449 3.47-.5a1.747 1.747 0 0 0 1.318-.957l1.552-3.145 1.552 3.145a1.747 1.747 0 0 0 1.318.957l3.471.5z"/></svg>