<svg id="Layer_1" height="512" viewBox="0 0 128 128" width="512" xmlns="http://www.w3.org/2000/svg" data-name="Layer 1"><path d="m115 109.25h-15.25v-46.917a1.753 1.753 0 0 0 -1.043-1.6l-22.457-9.909v-25.824a1.75 1.75 0 0 0 -1.75-1.75h-19.741v-6.25a1.75 1.75 0 0 0 -3.5 0v6.25h-19.741a1.75 1.75 0 0 0 -1.75 1.75v84.25h-16.768a1.75 1.75 0 0 0 0 3.5h102a1.75 1.75 0 0 0 0-3.5zm-18.75 0h-4v-19.418a1.75 1.75 0 0 0 -1.75-1.75h-18.833a1.749 1.749 0 0 0 -1.75 1.75v19.418h-4.167v-59.232l8.06 3.556.016.006 22.424 9.894zm-7.5 0h-15.333v-17.668h15.333zm-55.482-82.5h39.482v22.53l-8.043-3.549a1.751 1.751 0 0 0 -2.457 1.6v61.919h-28.982z"/><path d="m48.134 30.5h-7.75a1.75 1.75 0 0 0 -1.75 1.75v7.75a1.75 1.75 0 0 0 1.75 1.75h7.75a1.749 1.749 0 0 0 1.75-1.75v-7.75a1.749 1.749 0 0 0 -1.75-1.75zm-1.75 7.75h-4.25v-4.25h4.25z"/><path d="m48.134 48.4h-7.75a1.751 1.751 0 0 0 -1.75 1.75v7.75a1.75 1.75 0 0 0 1.75 1.75h7.75a1.749 1.749 0 0 0 1.75-1.75v-7.75a1.75 1.75 0 0 0 -1.75-1.75zm-1.75 7.75h-4.25v-4.25h4.25z"/><path d="m48.134 66.305h-7.75a1.75 1.75 0 0 0 -1.75 1.75v7.75a1.751 1.751 0 0 0 1.75 1.75h7.75a1.75 1.75 0 0 0 1.75-1.75v-7.75a1.749 1.749 0 0 0 -1.75-1.75zm-1.75 7.75h-4.25v-4.25h4.25z"/><path d="m48.134 84.207h-7.75a1.75 1.75 0 0 0 -1.75 1.75v7.75a1.75 1.75 0 0 0 1.75 1.75h7.75a1.749 1.749 0 0 0 1.75-1.75v-7.75a1.749 1.749 0 0 0 -1.75-1.75zm-1.75 7.75h-4.25v-4.25h4.25z"/><path d="m65.634 41.75a1.749 1.749 0 0 0 1.75-1.75v-7.75a1.749 1.749 0 0 0 -1.75-1.75h-7.75a1.75 1.75 0 0 0 -1.75 1.75v7.75a1.75 1.75 0 0 0 1.75 1.75zm-6-7.75h4.25v4.25h-4.25z"/><path d="m71.667 69.292a1.749 1.749 0 0 0 -1.75 1.75v7.1a1.75 1.75 0 0 0 1.75 1.75h18.833a1.751 1.751 0 0 0 1.75-1.75v-7.1a1.75 1.75 0 0 0 -1.75-1.75zm17.083 7.1h-15.333v-3.6h15.333z"/></svg>