<svg id="Layer_1" height="512" viewBox="0 0 128 128" width="512" xmlns="http://www.w3.org/2000/svg" data-name="Layer 1"><path d="m57.458 60.915a19.5 19.5 0 1 0 -19.5-19.5 19.523 19.523 0 0 0 19.5 19.5zm0-35.5a16 16 0 1 1 -16 16 16.019 16.019 0 0 1 16-16z"/><path d="m54.432 46.192a1.75 1.75 0 1 0 -3.5 0 6.532 6.532 0 0 0 4.776 6.281v1.869a1.75 1.75 0 0 0 3.5 0v-1.868a6.519 6.519 0 0 0 0-12.564v-5.744a3.022 3.022 0 0 1 1.292 2.473 1.75 1.75 0 0 0 3.5 0 6.533 6.533 0 0 0 -4.791-6.286v-1.865a1.75 1.75 0 0 0 -3.5 0v1.872a6.519 6.519 0 0 0 0 12.556v5.737a3.02 3.02 0 0 1 -1.277-2.461zm6.053 0a3.02 3.02 0 0 1 -1.277 2.461v-4.922a3.022 3.022 0 0 1 1.277 2.461zm-6.04-9.553a3.02 3.02 0 0 1 1.263-2.449v4.9a3.018 3.018 0 0 1 -1.263-2.451z"/><path d="m96.667 11.25h-63.291a10.346 10.346 0 0 0 -10.334 10.334v93.416a1.75 1.75 0 0 0 3.157 1.041l5.126-6.931 5.126 6.931a1.816 1.816 0 0 0 2.815 0l5.126-6.931 5.126 6.931a1.815 1.815 0 0 0 2.814 0l5.126-6.931 5.126 6.931a1.751 1.751 0 0 0 2.814 0l5.127-6.932 5.126 6.932a1.816 1.816 0 0 0 2.815 0l5.126-6.931 5.126 6.931a1.753 1.753 0 0 0 1.407.709 1.75 1.75 0 0 0 1.75-1.75v-52.25h11.333a1.749 1.749 0 0 0 1.75-1.75v-41.458a8.3 8.3 0 0 0 -8.291-8.292zm-8.292 98.441-3.375-4.565a1.815 1.815 0 0 0 -2.814 0l-5.126 6.931-5.126-6.931a1.752 1.752 0 0 0 -2.815 0l-5.127 6.932-5.126-6.932a1.815 1.815 0 0 0 -2.814 0l-5.126 6.931-5.126-6.931a1.816 1.816 0 0 0 -2.815 0l-5.126 6.931-5.126-6.931a1.815 1.815 0 0 0 -2.814 0l-3.376 4.565v-88.107a6.841 6.841 0 0 1 6.834-6.834h56.535a8.238 8.238 0 0 0 -1.537 4.792zm13.083-50.441h-9.583v-39.708a4.792 4.792 0 1 1 9.583 0z"/><path d="m78.292 70.25h-41.667a1.75 1.75 0 0 0 0 3.5h41.667a1.75 1.75 0 0 0 0-3.5z"/><path d="m78.292 80.025h-41.667a1.75 1.75 0 0 0 0 3.5h41.667a1.75 1.75 0 0 0 0-3.5z"/><path d="m78.292 89.8h-41.667a1.75 1.75 0 0 0 0 3.5h41.667a1.75 1.75 0 0 0 0-3.5z"/></svg>