<svg id="Layer_1" height="512" viewBox="0 0 128 128" width="512" xmlns="http://www.w3.org/2000/svg" data-name="Layer 1"><path d="m116.068 51.71a.408.408 0 0 0 -.046-.054l-8.517-6.129v-6.994a1.75 1.75 0 0 0 -1.75-1.75h-10.4l-30.333-21.829a1.751 1.751 0 0 0 -2.044 0l-30.346 21.839h-10.393a1.751 1.751 0 0 0 -1.75 1.75v6.987l-8.512 6.126a.437.437 0 0 0 -.054.06 1.74 1.74 0 0 0 -.674 1.361v58.548a1.749 1.749 0 0 0 1.75 1.75h102.001a1.749 1.749 0 0 0 1.75-1.75v-58.548a1.74 1.74 0 0 0 -.682-1.367zm-101.318 4.39 35.85 20.58-35.85 31.109zm17.684-2.185a7.172 7.172 0 0 0 5.178-5.18h16.312a16.3 16.3 0 0 0 .634 26.181l-22.124-12.7zm31.566-5.182a12.853 12.853 0 1 1 -12.853 12.854 12.868 12.868 0 0 1 12.853-12.854zm0 29.206a16.23 16.23 0 0 0 6.7-1.453l-6.7 3.848-6.7-3.848a16.23 16.23 0 0 0 6.7 1.453zm9.442-3.025a16.3 16.3 0 0 0 .63-26.184h16.313a7.168 7.168 0 0 0 5.179 5.178v8.309zm-19.624 3.611 9.311 5.344a1.743 1.743 0 0 0 1.742 0l9.311-5.344 36.131 31.35h-92.626zm23.582-1.845 35.85-20.58v51.689zm34.377-23.768-4.267 2.449v-5.52zm-47.777-34.381 25.364 18.254-50.738.007zm-30.8 21.762 61.521-.009h9.279v17.087l-4.942 2.836v-7.837a1.75 1.75 0 0 0 -1.75-1.75 3.641 3.641 0 0 1 -3.642-3.642 1.75 1.75 0 0 0 -1.75-1.75l-55.844.007a1.751 1.751 0 0 0 -1.75 1.751 3.648 3.648 0 0 1 -3.643 3.644 1.75 1.75 0 0 0 -1.749 1.75v7.826l-4.942-2.837v-17.075zm-12.708 15.067-4.265-2.448 4.264-3.069z"/></svg>