<svg id="Layer_1" height="512" viewBox="0 0 128 128" width="512" xmlns="http://www.w3.org/2000/svg" data-name="Layer 1"><path d="m105.5 20.443a1.75 1.75 0 0 0 -1.573-.246c-16.167 5.3-34.595.067-38.341-7.939a1.75 1.75 0 0 0 -3.17 0c-3.746 8.006-22.175 13.242-38.342 7.942a1.75 1.75 0 0 0 -2.3 1.663v51.228c0 .707.217 17.433 19.092 27.374 18.364 9.673 21.543 15.279 21.556 15.3a1.747 1.747 0 0 0 1.545.968h.036a1.781 1.781 0 0 0 1.55-.935c.03-.055 3.209-5.661 21.573-15.334 18.875-9.941 19.092-26.667 19.092-27.374v-51.23a1.75 1.75 0 0 0 -.718-1.417zm-2.777 52.643c0 .623-.283 15.36-17.222 24.283-13.367 7.039-19.113 12.068-21.501 14.731-2.388-2.664-8.134-7.693-21.5-14.732-16.939-8.923-17.218-23.66-17.222-24.278v-48.878c16.159 4.409 32.577-.257 38.722-7.95 6.143 7.692 22.564 12.357 38.722 7.949z"/><path d="m64.872 24.506a1.748 1.748 0 0 0 -1.751 0c-12.055 7-25.473 6.234-30.681 5.579-.244-.03-.4-.045-.452-.047a1.712 1.712 0 0 0 -1.282.487 1.75 1.75 0 0 0 -.537 1.262v41.3c0 .122.4 12.464 14.611 19.951a114.678 114.678 0 0 1 18.12 11.429 1.751 1.751 0 0 0 2.2 0 114.678 114.678 0 0 1 18.12-11.425c13.685-7.209 14.555-18.683 14.611-20.042v-41.209a1.75 1.75 0 0 0 -.537-1.262 1.708 1.708 0 0 0 -1.282-.487c-.057 0-.219.018-.476.053-5.103.683-18.307 1.511-30.664-5.589zm29.459 9.252v39.169c-.019.43-.585 10.613-12.744 17.018a123.587 123.587 0 0 0 -17.587 10.931 123.587 123.587 0 0 0 -17.589-10.931c-12.244-6.445-12.739-16.794-12.742-16.854v-39.347c6.253.583 18.743.666 30.335-5.713 11.832 6.455 24.166 6.34 30.327 5.727z"/><path d="m40.889 61.509a23.111 23.111 0 1 0 23.111-23.109 23.137 23.137 0 0 0 -23.111 23.109zm42.722 0a19.611 19.611 0 1 1 -19.611-19.609 19.634 19.634 0 0 1 19.611 19.609z"/><path d="m62.25 45.952v2.528a7.489 7.489 0 0 0 0 14.56v7.787a3.989 3.989 0 0 1 -2.232-3.569 1.75 1.75 0 0 0 -3.5 0 7.506 7.506 0 0 0 5.732 7.28v2.528a1.75 1.75 0 0 0 3.5 0v-2.52a7.49 7.49 0 0 0 0-14.577v-7.8a3.993 3.993 0 0 1 2.266 3.587 1.75 1.75 0 1 0 3.5 0 7.507 7.507 0 0 0 -5.766-7.288v-2.52a1.75 1.75 0 0 0 -3.5 0zm-2.232 9.808a3.989 3.989 0 0 1 2.232-3.569v7.138a3.989 3.989 0 0 1 -2.232-3.569zm8 11.5a3.993 3.993 0 0 1 -2.266 3.587v-7.177a3.994 3.994 0 0 1 2.264 3.588z"/></svg>