<svg id="Layer_1" height="512" viewBox="0 0 128 128" width="512" xmlns="http://www.w3.org/2000/svg" data-name="Layer 1"><path d="m116.742 34.165a1.746 1.746 0 0 0 -.513-1.237l-11.742-11.742a1.746 1.746 0 0 0 -1.237-.513l-54.243.007a1.751 1.751 0 0 0 -1.75 1.751v25.17h-.117a12.181 12.181 0 0 0 -8.354 3.3l-9.637 9.016h-16.149a1.75 1.75 0 0 0 0 3.5h15.089v30h-15.089a1.75 1.75 0 0 0 0 3.5h16.839a1.75 1.75 0 0 0 1.75-1.75v-3h2.917a1.751 1.751 0 0 0 .838-.213l11.922-6.5v20.124a1.75 1.75 0 0 0 1.75 1.75l65.984-.008a1.751 1.751 0 0 0 1.75-1.751zm-11.742-7.517 5.767 5.767h-5.767zm-70.94 62.021h-2.471v-26.24l9.591-8.973a8.7 8.7 0 0 1 5.963-2.356h.118v18.237a1.75 1.75 0 0 0 3.114 1.1l8.166-10.168a3.417 3.417 0 0 1 2.676-1.283h1.428l-6.945 14.093a18.164 18.164 0 0 1 -7.637 7.956zm16.709 15.16v-20.334a21.626 21.626 0 0 0 8.071-8.868l5.528-11.211h36.382a1.75 1.75 0 0 0 0-3.5h-34.72a3.325 3.325 0 0 0 -3.153-4.434h-1.656a6.9 6.9 0 0 0 -5.4 2.591l-5.052 6.292v-15.014-25.171l50.743-.007v9.992a1.75 1.75 0 0 0 1.75 1.75h9.992l.011 67.905z"/><path d="m100.75 38.25h-36.263a1.751 1.751 0 0 0 -1.75 1.75v10.75a1.751 1.751 0 0 0 1.75 1.75h36.263a1.75 1.75 0 0 0 1.75-1.75v-10.75a1.75 1.75 0 0 0 -1.75-1.75zm-1.75 10.75h-32.763v-7.25h32.763z"/><path d="m100.75 67.531h-36.431a1.75 1.75 0 0 0 0 3.5h36.431a1.75 1.75 0 0 0 0-3.5z"/><path d="m100.75 75.145h-36.431a1.75 1.75 0 0 0 0 3.5h36.431a1.75 1.75 0 0 0 0-3.5z"/><path d="m100.75 82.76h-36.431a1.75 1.75 0 0 0 0 3.5h36.431a1.75 1.75 0 0 0 0-3.5z"/><path d="m100.75 90.375h-18.131a1.75 1.75 0 0 0 0 3.5h18.131a1.75 1.75 0 0 0 0-3.5z"/></svg>