<svg id="Layer_1" height="512" viewBox="0 0 128 128" width="512" xmlns="http://www.w3.org/2000/svg" data-name="Layer 1"><path d="m113.8 33.717a8.836 8.836 0 0 0 -6.491-2.851h-25.226v-3.253a6.82 6.82 0 0 0 -6.813-6.813h-22.54a6.82 6.82 0 0 0 -6.813 6.812v3.253h-25.23a8.817 8.817 0 0 0 -8.787 9.56l3.356 39.675a1.751 1.751 0 0 0 1.477 1.582l1.579.243v23.527a1.75 1.75 0 0 0 1.75 1.75h87.875a1.749 1.749 0 0 0 1.75-1.75v-23.53l1.58-.243a1.751 1.751 0 0 0 1.477-1.582l3.356-39.672a8.838 8.838 0 0 0 -2.3-6.708zm-64.386-6.1a3.316 3.316 0 0 1 3.316-3.317h22.54a3.316 3.316 0 0 1 3.313 3.312v3.253h-29.166zm56.77 76.086h-84.372v-21.241l33.56 5.178a8.632 8.632 0 0 0 17.256 0l33.559-5.178zm-47.327-16.342v-9.573a5.143 5.143 0 0 1 10.286 0v9.573a5.143 5.143 0 0 1 -10.286 0zm53.751-47.231-3.236 38.3-36.729 5.67v-6.312a8.643 8.643 0 0 0 -17.286 0v6.312l-36.729-5.67-3.236-38.3a5.315 5.315 0 0 1 5.3-5.764h86.625a5.315 5.315 0 0 1 5.3 5.764z"/><path d="m67.38 77.979a3.38 3.38 0 1 0 -3.38 3.38 3.384 3.384 0 0 0 3.38-3.38z"/></svg>