<svg id="Layer_1" height="512" viewBox="0 0 128 128" width="512" xmlns="http://www.w3.org/2000/svg" data-name="Layer 1"><path d="m114.92 84.715a22.141 22.141 0 0 0 -20.673-22.064v-35.568a1.75 1.75 0 0 0 -.513-1.237l-14.083-14.083a1.75 1.75 0 0 0 -1.237-.513h-63.584a1.749 1.749 0 0 0 -1.75 1.75v102a1.749 1.749 0 0 0 1.75 1.75h77.67a1.749 1.749 0 0 0 1.75-1.75v-8.221a22.142 22.142 0 0 0 20.67-22.064zm-34.756-67.49 8.108 8.108h-8.108zm-63.584 96.025v-98.5h60.084v12.333a1.749 1.749 0 0 0 1.75 1.75h12.333v33.867a22.112 22.112 0 0 0 0 44.034v6.518zm76.22-9.919a18.616 18.616 0 1 1 18.62-18.616 18.638 18.638 0 0 1 -18.62 18.616z"/><path d="m101.772 76.246a1.751 1.751 0 0 0 -2.425.488l-9.058 13.625-5.168-5.459a1.75 1.75 0 1 0 -2.543 2.4l6.679 7.063a1.746 1.746 0 0 0 1.271.548c.05 0 .1 0 .15-.007a1.746 1.746 0 0 0 1.307-.774l10.276-15.457a1.75 1.75 0 0 0 -.489-2.427z"/><path d="m65.664 70.424h-36.58a1.75 1.75 0 0 0 0 3.5h36.58a1.75 1.75 0 1 0 0-3.5z"/><path d="m29.084 84.417h21.916a1.75 1.75 0 0 0 0-3.5h-21.916a1.75 1.75 0 0 0 0 3.5z"/><path d="m65.664 91.41h-36.58a1.75 1.75 0 0 0 0 3.5h36.58a1.75 1.75 0 1 0 0-3.5z"/><path d="m51 101.9h-21.916a1.75 1.75 0 1 0 0 3.5h21.916a1.75 1.75 0 1 0 0-3.5z"/><path d="m29.084 62.25h49.33a1.749 1.749 0 0 0 1.75-1.75v-24.952a1.749 1.749 0 0 0 -1.75-1.75h-49.33a1.749 1.749 0 0 0 -1.75 1.75v24.952a1.749 1.749 0 0 0 1.75 1.75zm1.75-24.95h45.83v21.45h-45.83z"/></svg>