<svg id="Layer_1" height="512" viewBox="0 0 128 128" width="512" xmlns="http://www.w3.org/2000/svg" data-name="Layer 1"><path d="m115 59.678h-1.752v-20.138a1.75 1.75 0 0 0 -1.75-1.75h-3.831v-13.244a1.75 1.75 0 0 0 -1.75-1.75h-85.417a9.257 9.257 0 0 0 -9.247 9.247v60.739a12.435 12.435 0 0 0 12.418 12.418h87.829a1.75 1.75 0 0 0 1.75-1.75v-20.135h1.75a1.75 1.75 0 0 0 1.75-1.75v-20.137a1.75 1.75 0 0 0 -1.75-1.75zm-94.5-33.378h83.67v11.49h-83.67a5.747 5.747 0 0 1 0-11.494zm89.248 75.4h-86.077a8.931 8.931 0 0 1 -8.921-8.922v-53.504a9.2 9.2 0 0 0 5.75 2.016h89.251v18.388h-10.589a11.819 11.819 0 1 0 0 23.637h10.586zm3.5-21.889h-14.086a8.319 8.319 0 1 1 0-16.637h14.088z"/><path d="m99.529 67.437a4.06 4.06 0 1 0 4.06 4.06 4.065 4.065 0 0 0 -4.06-4.06z"/></svg>