<svg id="Capa_1" enable-background="new 0 0 511.965 511.965" height="512" viewBox="0 0 511.965 511.965" width="512" xmlns="http://www.w3.org/2000/svg"><path d="m175.066 344.651h-7.222c0 11.894-9.676 21.569-21.569 21.569s-21.569-9.676-21.569-21.569h-30c0 11.894-9.676 21.569-21.569 21.569-11.894 0-21.569-9.676-21.569-21.569h-30c0 11.894-9.676 21.569-21.569 21.569v30c14.28 0 27.222-5.833 36.569-15.243 9.348 9.41 22.289 15.243 36.569 15.243s27.221-5.833 36.569-15.243c9.348 9.411 22.289 15.243 36.569 15.243s27.221-5.833 36.569-15.243c9.348 9.411 22.289 15.243 36.569 15.243s27.221-5.833 36.569-15.243c9.348 9.411 22.289 15.243 36.569 15.243s27.221-5.833 36.569-15.243c9.348 9.411 22.289 15.243 36.569 15.243s27.221-5.833 36.569-15.243c9.348 9.411 22.289 15.243 36.569 15.243s27.222-5.833 36.569-15.243c9.347 9.41 22.289 15.243 36.569 15.243v-30c-11.893 0-21.569-9.676-21.569-21.569h-30c0 11.894-9.676 21.569-21.569 21.569s-21.569-9.676-21.569-21.569h-30c0 11.894-9.676 21.569-21.569 21.569s-21.569-9.676-21.569-21.569h-6.935v-64.889h115.016c21.936 0 39.783-17.846 39.783-39.783 0-21.936-17.847-39.782-39.783-39.782h-188.671c36.144-3.736 64.425-34.368 64.425-71.483v-21.106c0-39.628-32.24-71.868-71.868-71.868s-71.868 32.24-71.868 71.868v21.106c0 37.115 28.281 67.747 64.424 71.483h-107.87l-12.002-38.957c-3.229-10.482-10.409-18.957-20.218-23.865s-20.898-5.572-31.229-1.87l-.362.13c-20.265 7.263-31.019 29.019-24.481 49.53l30.148 94.597h92.438v64.889zm81.021-278.911c18.044 0 33.458 11.474 39.331 27.508h-78.661c5.872-16.035 21.286-27.508 39.33-27.508zm-41.868 62.974v-5.466h83.736v5.466c0 23.086-18.782 41.868-41.868 41.868s-41.868-18.782-41.868-41.868zm-9.153 101.483h102.119v30.244c-7.878-4.19-16.856-6.574-26.384-6.574-8.671 0-17.046 1.938-24.676 5.667-7.629-3.728-16.005-5.667-24.676-5.667-9.528 0-18.506 2.384-26.384 6.574v-30.244zm256.918 9.782c0 5.394-4.389 9.783-9.783 9.783h-115.015v-19.565h115.016c5.394 0 9.782 4.388 9.782 9.782zm-357.429 9.783-23.491-73.706c-1.607-5.043 1.037-10.394 6.027-12.182l.362-.13c2.54-.91 5.267-.746 7.678.46 2.412 1.207 4.178 3.291 4.972 5.868l18.522 60.124h56.442v19.565h-70.512zm166.427 94.889h-30c0 11.894-9.676 21.569-21.569 21.569-5.511 0-10.53-2.095-14.347-5.509v-50.461c0-14.548 11.836-26.384 26.384-26.384 5.717 0 11.153 1.797 15.722 5.196l8.954 6.661 8.954-6.661c4.569-3.399 10.005-5.196 15.722-5.196 14.548 0 26.384 11.836 26.384 26.384v50.2c-3.85 3.568-8.984 5.77-14.634 5.77-11.894 0-21.57-9.675-21.57-21.569z"/><path d="m490.396 424.656h-30c0 11.893-9.676 21.569-21.569 21.569s-21.569-9.676-21.569-21.569h-30c0 11.893-9.676 21.569-21.569 21.569s-21.569-9.676-21.569-21.569h-30c0 11.893-9.676 21.569-21.569 21.569s-21.569-9.676-21.569-21.569h-30c0 11.893-9.676 21.569-21.569 21.569s-21.569-9.676-21.569-21.569h-30c0 11.893-9.676 21.569-21.569 21.569s-21.569-9.676-21.569-21.569h-30c0 11.893-9.676 21.569-21.569 21.569-11.894 0-21.569-9.676-21.569-21.569h-30c0 11.893-9.676 21.569-21.569 21.569v30c14.28 0 27.222-5.833 36.569-15.243 9.348 9.411 22.289 15.243 36.569 15.243s27.221-5.833 36.569-15.243c9.348 9.41 22.289 15.243 36.569 15.243s27.221-5.833 36.569-15.243c9.348 9.41 22.289 15.243 36.569 15.243s27.221-5.833 36.569-15.243c9.348 9.41 22.289 15.243 36.569 15.243s27.221-5.833 36.569-15.243c9.348 9.41 22.289 15.243 36.569 15.243s27.221-5.833 36.569-15.243c9.348 9.41 22.289 15.243 36.569 15.243s27.222-5.833 36.569-15.243c9.347 9.411 22.289 15.243 36.569 15.243v-30c-11.893 0-21.569-9.675-21.569-21.569z"/></svg>