<svg id="Capa_1" enable-background="new 0 0 512.004 512.004" height="512" viewBox="0 0 512.004 512.004" width="512" xmlns="http://www.w3.org/2000/svg"><path d="m512.004 36.85h-30v45.396h-34.653v-4.396c0-29.067-23.647-52.714-52.714-52.714h-266.494c-29.067 0-52.714 23.647-52.714 52.714v4.396h-45.429v-45.396h-30v75.396h75.429v192.282h75.429v182.342h296.493v-374.625h64.653zm-406.575 40.999c0-12.525 10.189-22.714 22.714-22.714s22.715 10.189 22.715 22.714v4.396h-45.429zm0 34.396h45.429v162.282h-45.429zm75.429-34.396c0-8.129-1.852-15.832-5.152-22.714h218.931c12.525 0 22.714 10.189 22.714 22.714v304.366h-236.493zm0 379.02v-44.654h236.493v44.654z"/></svg>