<svg id="Capa_1" enable-background="new 0 0 511.959 511.959" height="512" viewBox="0 0 511.959 511.959" width="512" xmlns="http://www.w3.org/2000/svg"><path d="m125.88 217.041c11.415 2.459 26.375 3.814 42.124 3.814s30.708-1.354 42.123-3.814c6.92-1.491 27.979-6.029 27.979-23.059s-21.059-21.568-27.979-23.06c-11.415-2.459-26.375-3.814-42.123-3.814-15.749 0-30.708 1.354-42.124 3.814-6.92 1.491-27.979 6.029-27.979 23.06s21.059 21.568 27.979 23.059z"/><path d="m511.959 109.448h-343.956c-42.963 0-83.59 7.71-114.396 21.71-34.569 15.71-53.607 38.021-53.607 62.824v123.996c0 24.802 19.038 47.113 53.607 62.824 30.806 14 71.433 21.71 114.396 21.71s83.59-7.71 114.396-21.71c34.569-15.71 53.607-38.021 53.607-62.824v-39.462h175.953zm-445.939 49.021c26.992-12.267 63.21-19.022 101.984-19.022 78.985 0 138.003 28.792 138.003 54.534 0 11.986-13.465 25.262-36.02 35.512-26.992 12.267-63.21 19.022-101.983 19.022-78.985.001-138.004-28.791-138.004-54.533 0-11.987 13.465-25.263 36.02-35.513zm203.967 195.021c-26.992 12.267-63.21 19.022-101.983 19.022-78.985 0-138.004-28.792-138.004-54.534v-74.599c5.599 4.01 11.943 7.768 18.997 11.236v38.732h30v-27.077c7.04 2.131 14.395 3.996 22.003 5.588v63.99h30v-59.292c7.208.774 14.555 1.324 22.003 1.639v32.651h30v-32.651c7.448-.315 14.795-.864 22.003-1.639v59.292h30v-63.99c7.608-1.592 14.963-3.456 22.003-5.588v27.077h30v-38.732c7.053-3.469 13.398-7.227 18.997-11.237v74.599c0 11.987-13.464 25.263-36.019 35.513zm66.019-159.508c0-20.715-13.29-39.689-37.807-54.534h123.757v109.068h-85.95zm145.953 54.534h-30.003v-109.068h30.003z"/></svg>