<svg id="Capa_1" enable-background="new 0 0 511.96 511.96" height="512" viewBox="0 0 511.96 511.96" width="512" xmlns="http://www.w3.org/2000/svg"><path d="m398.047 110.704c-29.131-17.479-47.227-49.44-47.227-83.411v-27.293h-169.527v27.293c0 33.971-18.096 65.932-47.227 83.411l-7.282 4.37v48.001h-20.153v30h20.153v27.779h-20.153v30h20.153v146.034l7.282 4.37c29.131 17.479 47.227 49.439 47.227 83.41v27.293h169.527v-27.293c0-33.971 18.096-65.932 47.227-83.41l7.282-4.37v-281.815zm-241.263 262.691v-234.829h218.545v234.829zm164.066-343.395c.627 28.973 11.289 56.677 29.4 78.566h-168.386c18.111-21.888 28.773-49.593 29.4-78.566zm-109.586 451.96c-.627-28.974-11.289-56.677-29.4-78.565h168.385c-18.111 21.888-28.773 49.592-29.4 78.565z"/><path d="m266.057 288.339 51.887-51.886c15.669-15.669 15.669-41.165 0-56.834-7.591-7.59-17.683-11.771-28.417-11.771-8.543 0-16.679 2.647-23.47 7.554-6.792-4.907-14.927-7.554-23.47-7.554-10.734 0-20.826 4.18-28.417 11.771-15.669 15.669-15.669 41.165 0 56.833zm-30.674-87.506c1.925-1.924 4.483-2.984 7.204-2.984 2.722 0 5.279 1.06 7.204 2.984l16.266 16.264 16.266-16.265c1.925-1.924 4.482-2.984 7.204-2.984 2.721 0 5.279 1.06 7.204 2.984 3.972 3.972 3.972 10.436 0 14.408l-30.674 30.673-30.674-30.673c-3.972-3.972-3.972-10.435 0-14.407z"/><path d="m249.704 313.924h32.705v30h-32.705z"/><path d="m195.196 313.924h32.705v30h-32.705z"/><path d="m304.213 313.924h32.705v30h-32.705z"/></svg>