<svg id="Capa_1" enable-background="new 0 0 512 512" height="512" viewBox="0 0 512 512" width="512" xmlns="http://www.w3.org/2000/svg"><path d="m384.299 188.087c-40.228 0-72.955 32.727-72.955 72.955s32.728 72.955 72.955 72.955 72.954-32.727 72.954-72.955-32.726-72.955-72.954-72.955zm0 115.909c-23.686 0-42.955-19.27-42.955-42.955s19.27-42.955 42.955-42.955 42.954 19.27 42.954 42.955-19.269 42.955-42.954 42.955z"/><path d="m127.701 311.379c-40.228 0-72.954 32.727-72.954 72.955s32.727 72.955 72.954 72.955 72.955-32.727 72.955-72.955-32.727-72.955-72.955-72.955zm0 115.91c-23.685 0-42.954-19.27-42.954-42.955s19.27-42.955 42.954-42.955c23.686 0 42.955 19.27 42.955 42.955s-19.269 42.955-42.955 42.955z"/><path d="m442.301 147.284v-63.621h-14v-83.663h-88.004v83.663h-14.001v63.621c-42.634 21.694-69.664 65.306-69.664 113.758 0 70.396 57.271 127.667 127.667 127.667s127.666-57.271 127.666-127.667c0-48.453-27.03-92.064-69.664-113.758zm-72.004-117.284h28.004v53.663h-28.004zm14.002 328.708c-53.854 0-97.667-43.813-97.667-97.667 0-39.691 23.706-75.135 60.394-90.298l9.271-3.832v-53.249h56.005v53.249l9.271 3.832c36.688 15.163 60.394 50.606 60.394 90.298-.002 53.854-43.814 97.667-97.668 97.667z"/><path d="m185.704 270.576v-63.62h-14.001v-206.956h-88.004v206.956h-14v63.62c-42.633 21.694-69.664 65.306-69.664 113.758 0 70.395 57.271 127.666 127.666 127.666s127.667-57.271 127.667-127.667c0-48.451-27.03-92.062-69.664-113.757zm-72.005-240.576h28.004v176.956h-28.004zm14.002 452c-53.854 0-97.666-43.813-97.666-97.667 0-39.691 23.706-75.135 60.394-90.298l9.271-3.832v-53.249h56.005v53.249l9.271 3.832c36.688 15.164 60.394 50.608 60.394 90.298-.002 53.855-43.815 97.667-97.669 97.667z"/></svg>