<svg id="Capa_1" enable-background="new 0 0 511.904 511.904" height="512" viewBox="0 0 511.904 511.904" width="512" xmlns="http://www.w3.org/2000/svg"><path d="m270.952 30.173v-30.173h-30v30.173h-34.417v60.226h-24.075l-45.84 52.388v369.117h238.665v-369.117l-26.487-30.271c11.867-8.135 19.671-21.786 19.671-37.23 0-24.875-20.237-45.113-45.113-45.113zm52.403 30c8.333 0 15.113 6.78 15.113 15.113s-6.78 15.113-15.113 15.113h-17.986v-30.226zm-86.821 0h38.835v30.226h-38.835zm79.297 60.226 29.453 33.661v29.908h-178.665v-29.908l29.453-33.661zm29.453 93.568v34.537h-178.665v-34.537zm-178.665 267.937v-203.4h178.665v203.399h-178.665z"/></svg>