<svg id="Capa_1" enable-background="new 0 0 512.339 512.339" height="512" viewBox="0 0 512.339 512.339" width="512" xmlns="http://www.w3.org/2000/svg"><path d="m376.581 455.659h-253.85l-122.731-91.335v-182.333l164.228-125.312h211.26v31.939c0 13.045-3.957 25.185-10.732 35.281l49.482 57.485-49.089 63.137h102c24.917 0 45.189 20.272 45.189 45.189s-20.272 45.189-45.189 45.189h-7.753c1.7 4.749 2.626 9.864 2.626 15.19 0 24.149-19.042 43.936-42.9 45.132 1.713 4.765 2.647 9.9 2.647 15.247.001 24.919-20.271 45.191-45.188 45.191zm-243.912-30h243.912c8.375 0 15.189-6.814 15.189-15.189 0-8.376-6.814-15.19-15.189-15.19h-121.417v-30h161.669c8.375 0 15.19-6.814 15.19-15.189 0-8.376-6.814-15.19-15.19-15.19h-161.669v-30h211.986c8.375 0 15.189-6.814 15.189-15.189s-6.814-15.189-15.189-15.189h-211.986v-30h71.985l48.337-62.171-32.84-38.152c-9.087 5.027-19.531 7.892-30.63 7.892h-.781l18.177 22.67-34.59 39.382h-137.71l59.713-92.052h95.191c18.457 0 33.472-15.016 33.472-33.472v-1.939h-171.122l-144.366 110.155v152.418zm79.662-241.517h68.911l9.012-10.261-17.472-21.791h-39.659z"/></svg>