<svg id="Capa_1" enable-background="new 0 0 512.325 512.325" height="512" viewBox="0 0 512.325 512.325" width="512" xmlns="http://www.w3.org/2000/svg"><path d="m256.341 115.463c-86.584 0-157.025 70.441-157.025 157.025s70.441 157.025 157.025 157.025c86.583 0 157.025-70.441 157.025-157.025s-70.442-157.025-157.025-157.025zm0 284.05c-70.042 0-127.025-56.983-127.025-127.025s56.983-127.025 127.025-127.025 127.025 56.983 127.025 127.025-56.984 127.025-127.025 127.025z"/><path d="m256.341 168.107c-57.556 0-104.382 46.825-104.382 104.381s46.826 104.382 104.382 104.382 104.381-46.826 104.381-104.382-46.825-104.381-104.381-104.381zm0 178.763c-41.014 0-74.382-33.368-74.382-74.382s33.368-74.381 74.382-74.381 74.381 33.367 74.381 74.381-33.367 74.382-74.381 74.382z"/><path d="m248.238 270.164-21.087-15.927-18.081 23.938 44.453 33.577 48.41-60.971-23.494-18.654z"/><path d="m512.325 98.487c0-18.405-14.974-33.379-33.378-33.379-17.425 0-31.719 13.089-33.25 30.445l-16.411 186.023c-.828 9.394 2.349 18.77 8.717 25.725s15.43 10.943 24.859 10.943h19.463v123.731h30zm-52.197 188.555c-.503-.549-1.077-1.485-.958-2.828l16.411-186.024c.154-1.757 1.602-3.082 3.365-3.082 1.862 0 3.378 1.516 3.378 3.379v189.758h-19.463c-1.348 0-2.23-.655-2.733-1.203z"/><path d="m119.611 149.63v-69.587h-30v69.587c0 8.256-6.604 14.984-14.805 15.216v-84.803h-30v84.803c-8.202-.231-14.806-6.959-14.806-15.216v-69.587h-30v69.587c0 24.799 20.06 44.993 44.806 45.227v252.36h30v-252.36c24.744-.234 44.805-20.427 44.805-45.227z"/></svg>