<svg id="Capa_1" enable-background="new 0 0 512.016 512.016" height="512" viewBox="0 0 512.016 512.016" width="512" xmlns="http://www.w3.org/2000/svg"><path d="m424.504 0h-336.992c-48.254 0-87.512 39.258-87.512 87.512v336.992c0 48.254 39.258 87.512 87.512 87.512h336.992c48.254 0 87.512-39.258 87.512-87.512v-336.992c0-48.254-39.258-87.512-87.512-87.512zm-61.654 30.858c0 53.822-40.006 98.469-91.842 105.784v-63.148h-30v63.149c-51.836-7.316-91.842-51.962-91.842-105.784 0-.293.011-.569.013-.858h213.658c.002.288.013.565.013.857zm119.166 393.646c0 31.712-25.8 57.512-57.512 57.512h-336.992c-31.712 0-57.512-25.8-57.512-57.512v-336.992c0-31.712 25.8-57.512 57.512-57.512h31.668c-.002.288-.013.569-.013.858 0 75.455 61.387 136.842 136.842 136.842s136.841-61.387 136.841-136.842c0-.292-.011-.569-.013-.858h31.667c31.712 0 57.512 25.8 57.512 57.512z"/><path d="m136.147 136.822-4.503-5.549h-68.652v317.735h178.014v-255.237l-12.359-2.21c-36.273-6.489-69.124-25.929-92.5-54.739zm74.859 282.186h-118.014v-257.735h24.544c24.74 28.164 57.373 48.091 93.47 57.163z"/><path d="m375.868 136.822c-23.375 28.809-56.223 48.248-92.492 54.737l-12.358 2.211v255.238h178.014v-317.735h-68.66zm18.611 24.451h24.552v257.735h-118.013v-200.574c36.092-9.073 68.723-28.999 93.461-57.161z"/></svg>