<svg id="Capa_1" enable-background="new 0 0 511.999 511.999" height="512" viewBox="0 0 511.999 511.999" width="512" xmlns="http://www.w3.org/2000/svg"><path d="m310.986 247.219v-15c0-22.979 8.122-45.022 22.869-62.068 16.148-18.666 25.041-42.55 25.041-67.253 0-57.565-47.518-104.245-105.379-102.867-26.84.634-52.048 11.645-70.979 31.004-18.926 19.353-29.379 44.798-29.435 71.646-.052 24.81 8.858 48.791 25.09 67.526 14.716 16.985 22.82 39.009 22.82 62.013v15h39.994v182.452c-26.017 5.793-46.534 26.311-52.327 52.328h-71.002v30h276.643v-30h-70.985c-5.793-26.017-26.311-46.535-52.328-52.328v-182.452zm-110.119-96.657c-11.491-13.265-17.8-30.248-17.764-47.82.081-39.174 31.986-71.796 71.123-72.721.595-.014 1.183-.021 1.774-.021 40.194 0 72.896 32.702 72.896 72.897 0 17.497-6.296 34.41-17.729 47.625-3.477 4.018-6.656 8.255-9.563 12.659h-91.194c-2.902-4.391-6.074-8.615-9.543-12.619zm23.976 42.619h62.326c-2.528 7.781-4.319 15.827-5.295 24.039h-51.745c-.975-8.215-2.762-16.261-5.286-24.039zm31.165 264.829c16.186 0 30.096 9.916 35.985 23.99h-71.97c5.889-14.075 19.799-23.99 35.985-23.99z"/></svg>