<svg id="Capa_1" enable-background="new 0 0 511.906 511.906" height="512" viewBox="0 0 511.906 511.906" width="512" xmlns="http://www.w3.org/2000/svg"><path d="m446.225 45.578-24.799 45.09-173.449 21.958-37.493 61.949 25.665 15.533 29.984-49.541 149.755-18.958v208.821l-363.787 24.361c-29.216 1.957-52.101 26.426-52.101 55.706 0 30.785 25.046 55.831 55.831 55.831h387.291c37.928 0 68.784-30.856 68.784-68.784v-351.966zm17.738 30h17.943v265.175c-10.338-7.084-22.697-11.408-36.019-11.926v-220.384zm-20.841 360.75h-387.291c-14.243 0-25.831-11.588-25.831-25.831 0-13.547 10.588-24.868 24.105-25.773l386.425-25.877c.883-.059 1.776-.089 2.655-.089 21.351 0 38.72 17.399 38.72 38.787.001 21.385-17.397 38.783-38.783 38.783z"/><path d="m82.95 394.123c-9.029 0-16.374 7.345-16.374 16.374s7.345 16.374 16.374 16.374 16.374-7.345 16.374-16.374-7.345-16.374-16.374-16.374z"/><path d="m428.887 381.169c-9.028 0-16.374 7.345-16.374 16.374s7.345 16.374 16.374 16.374 16.374-7.345 16.374-16.374-7.345-16.374-16.374-16.374z"/></svg>