<svg id="Capa_1" enable-background="new 0 0 512.054 512.054" height="512" viewBox="0 0 512.054 512.054" width="512" xmlns="http://www.w3.org/2000/svg"><path d="m491.898 31.503h-116.635v-31.503h-238.472v31.503h-116.635v384.055h-20.111v96.496h511.965v-96.496h-20.111v-384.055zm-441.742 185.02v-82.624h86.635v31.503h238.473v-31.503h86.635v82.624zm141.129 30h49.742v169.035h-49.742zm79.742 0h49.741v169.035h-49.741zm79.741 0h111.13v169.035h-111.13zm111.13-185.02v42.396h-86.635v-42.396zm-295.107-31.503h178.473v105.402h-178.473zm-116.635 31.503h86.635v42.396h-86.635zm0 185.02h111.129v169.035h-111.129zm431.854 235.531h-451.965v-36.496h451.965z"/><path d="m311.242 50.022h-30v17.679h-50.445v-17.679h-30v17.679h-8.802v30h8.802v17.679h30v-17.679h50.445v17.679h30v-17.679h8.802v-30h-8.802z"/></svg>