<svg id="Capa_1" enable-background="new 0 0 511.938 511.938" height="512" viewBox="0 0 511.938 511.938" width="512" xmlns="http://www.w3.org/2000/svg"><path d="m468.696 43.268c-27.865-27.866-65.821-43.212-106.877-43.212-45.908 0-91.736 19.498-125.731 53.494-32.247 32.247-51.175 74.048-53.299 117.705-1.894 38.935 9.737 75.227 32.956 103.751l-68.322 68.322-23.366-23.366-109.96 109.959c-9.075 9.074-14.072 21.139-14.072 33.973 0 12.833 4.997 24.898 14.072 33.972 9.074 9.074 21.139 14.072 33.972 14.072s24.897-4.998 33.972-14.072l109.96-109.959-23.365-23.365 68.327-68.327c26.455 21.477 59.907 33.157 95.719 33.157 45.908 0 91.736-19.498 125.731-53.494 32.247-32.247 51.175-74.048 53.299-117.705 2.151-44.209-13.126-85.015-43.016-114.905zm-407.868 433.385c-3.408 3.408-7.939 5.285-12.759 5.285s-9.351-1.877-12.759-5.285-5.285-7.939-5.285-12.758c0-4.82 1.877-9.351 5.285-12.759l88.746-88.746 25.519 25.518zm418.737-301.25-10.689-10.689 13.014-13.014c-.02 1.666-.061 3.336-.143 5.015-.305 6.283-1.044 12.523-2.182 18.688zm-132.314 110.935 10.662 10.662c-7.83 1.466-15.751 2.256-23.674 2.349zm21.213-21.212 28.993-28.993 28.63 28.63c-11.005 9.078-23.102 16.519-35.833 22.153zm-153.528-111.102 10.689 10.689-13.015 13.015c.02-1.666.061-3.336.143-5.016.306-6.283 1.045-12.523 2.183-18.688zm10.039-32.387c5.623-12.7 13.081-24.741 22.218-35.769l28.639 28.639-28.993 28.993zm122.276 21.863-28.993-28.993 28.993-28.993 28.993 28.993zm50.206-7.78 28.993 28.993-28.993 28.993-28.993-28.993zm-28.993-71.419 29.188-29.188c14.045 4.113 27.072 10.676 38.526 19.46l-38.72 38.72zm-21.213-21.213-10.662-10.662c7.83-1.466 15.75-2.256 23.674-2.349zm-21.213 21.213-28.993 28.993-28.63-28.63c11.005-9.078 23.102-16.52 35.834-22.153zm-28.993 71.419 28.993 28.993-28.993 28.993-28.993-28.993zm50.206 50.206 28.993 28.993-28.993 28.993-28.993-28.993zm71.419 28.994 28.993-28.993 21.864 21.864c-5.623 12.7-13.081 24.741-22.218 35.769zm58.212-100.638-29.219 29.219-28.993-28.993 38.728-38.728c8.831 11.479 15.385 24.479 19.484 38.502zm-259.262 100.863 29.219-29.219 28.993 28.993-38.728 38.728c-8.831-11.48-15.386-24.479-19.484-38.502zm79.425 20.987 28.993 28.993-29.188 29.188c-14.045-4.113-27.072-10.676-38.526-19.46z"/><path d="m49.142 186.497c0 25.16 20.469 45.629 45.629 45.629s45.629-20.469 45.629-45.629v-28.361l48.918-158.136-94.547 43.061-94.546-43.061 48.917 158.135zm61.258 0c0 8.618-7.011 15.629-15.629 15.629s-15.629-7.011-15.629-15.629v-15.629h31.258zm-15.629-110.471 46.125-21.007-26.557 85.849h-39.135l-26.557-85.849z"/></svg>