<svg id="Capa_1" enable-background="new 0 0 512.025 512.025" height="512" viewBox="0 0 512.025 512.025" width="512" xmlns="http://www.w3.org/2000/svg"><path d="m500.04 326.859c-12.18-25.913-32.04-42.5-55.923-46.708-3.805-.67-7.693-1.01-11.559-1.01-12.434 0-24.773 3.446-36.333 9.981v-14.279c0-10.945 8.904-19.849 19.85-19.849h8.527v-30h-8.527c-27.487 0-49.85 22.362-49.85 49.849v14.279c-7.777-4.396-15.908-7.377-24.183-8.867v-247.815h-66.138v-32.44h-209.643v32.44h-66.138v479.584l344.092-.084c1.076.052 2.152.085 3.229.085 3.866 0 7.756-.34 11.562-1.01 7.847-1.382 15.284-4.116 22.221-8.159 6.937 4.042 14.375 6.776 22.222 8.159 3.803.67 7.691 1.01 11.56 1.01h.008c21.85 0 43.553-10.712 61.112-30.164 16.666-18.462 28.507-43.742 33.341-71.183 5.266-29.906 1.918-59.673-9.43-83.819zm-403.779-296.859h149.645v34.879h-149.645zm-66.138 32.44h36.138v32.439h209.645v-32.439h36.138v219.135c-21.073 5.822-38.539 21.683-49.631 45.284-.226.481-.429.978-.648 1.463h-127.575v30h118.484c-1.835 10.568-2.475 21.625-1.889 32.881h-116.595v30h121.021c5.755 23.336 16.603 44.579 31.114 60.654.029.032.059.063.088.096l-256.291.063v-419.576zm449.8 343.033c-7.563 42.929-36.075 76.555-64.913 76.552-2.129 0-4.268-.187-6.357-.555-6.435-1.134-12.467-3.975-17.928-8.443l-9.499-7.772-9.499 7.772c-5.462 4.469-11.493 7.309-17.927 8.443-2.092.368-4.229.555-6.356.555-28.839 0-57.354-33.625-64.915-76.552-4.204-23.869-1.706-47.256 7.034-65.853 7.91-16.831 19.978-27.458 33.978-29.924 15.606-2.748 32.428 4.954 46.352 21.017l11.334 13.076 11.334-13.075c13.926-16.063 30.749-23.766 46.353-21.018 14 2.466 26.066 13.094 33.977 29.924 8.739 18.598 11.237 41.984 7.032 65.853z"/><path d="m71.308 139.678h31.44v30h-31.44z"/><path d="m71.308 202.56h31.44v30h-31.44z"/><path d="m71.308 265.441h31.44v30h-31.44z"/><path d="m71.308 328.323h31.44v30h-31.44z"/><path d="m71.308 391.204h31.44v30h-31.44z"/><path d="m134.19 139.678h136.67v30h-136.67z"/><path d="m134.19 202.56h136.67v30h-136.67z"/><path d="m134.19 265.441h136.67v30h-136.67z"/></svg>