<svg id="Capa_1" enable-background="new 0 0 511.807 511.807" height="512" viewBox="0 0 511.807 511.807" width="512" xmlns="http://www.w3.org/2000/svg"><path d="m413.112 219.949c-6.165 0-12.198.574-18.054 1.661l-33.983-97.142h42.792v-30h-85.069l18.774 53.667-77.304 142.099c-1.58-.269-3.201-.417-4.857-.417-1.721 0-3.404.16-5.042.451l-73.067-134.324h28.588v-30h-104.777v30h42.039l9.695 17.823-24.77 50.65c-9.285-2.901-19.154-4.466-29.383-4.466-54.42-.002-98.694 44.272-98.694 98.693s44.274 98.695 98.694 98.695c49.322 0 90.31-36.367 97.556-83.695h34.553c5.07 8.286 14.203 13.828 24.608 13.828 15.896 0 28.828-12.932 28.828-28.828 0-2.681-.376-5.275-1.064-7.74l67.763-124.561 15.811 45.197c-31.112 16.627-52.331 49.432-52.331 87.104 0 54.42 44.274 98.695 98.694 98.695s98.694-44.274 98.694-98.695-44.273-98.695-98.694-98.695zm-242.68-13.855 53.063 97.549h-27.244c-4.174-27.257-19.542-50.872-41.245-66.005zm-28.833 58.959c11.969 9.602 20.658 23.116 24.12 38.59h-42.992zm-42.905 122.285c-37.878 0-68.694-30.816-68.694-68.694s30.816-68.694 68.694-68.694c5.499 0 10.841.668 15.97 1.894l-40.003 81.8h91.058c-6.864 30.685-34.299 53.694-67.025 53.694zm314.418 0c-37.878 0-68.694-30.816-68.694-68.695 0-24.564 12.969-46.147 32.411-58.292l22.125 63.245 28.317-9.906-22.131-63.264c2.618-.304 5.275-.478 7.973-.478 37.878 0 68.694 30.816 68.694 68.694 0 37.88-30.816 68.696-68.695 68.696z"/></svg>