<svg id="Capa_1" enable-background="new 0 0 511.918 511.918" height="512" viewBox="0 0 511.918 511.918" width="512" xmlns="http://www.w3.org/2000/svg"><path d="m430.461 175.293-3.788-4.262c-16.904-19.02-26.214-43.508-26.214-68.954v-102.077h-90.004v77.743c0 30.049-24.447 54.496-54.496 54.496s-54.496-24.447-54.496-54.496v-77.743h-90.004v102.077c0 25.446-9.31 49.935-26.214 68.954l-3.788 4.262v87.704h349.004zm-30 57.704h-30.004v-34.79h-30v34.79h-20.003v-34.79h-30v34.79h-178.997v-46.49c19.388-23.827 30.002-53.583 30.002-84.43v-72.077h30.004v47.743c0 46.591 37.905 84.496 84.496 84.496s84.496-37.905 84.496-84.496v-47.743h30.004v72.077c0 30.847 10.614 60.604 30.002 84.43z"/><path d="m430.461 358.851v-65.851h-349.004v65.85l-22.35 153.067h180.653l10.001-41.333h12.396l10.001 41.333h180.653zm-30-35.851v21.939h-289.004v-21.939zm-104.697 158.918-10.001-41.333h-59.608l-10.001 41.333h-122.349l15.621-106.979h32.035v34.79h30v-34.79h20.003v34.79h30v-34.79h181.028l15.621 106.979z"/></svg>