<svg id="Capa_1" enable-background="new 0 0 512.149 512.149" height="512" viewBox="0 0 512.149 512.149" width="512" xmlns="http://www.w3.org/2000/svg"><path d="m512.149 175.617c0-50.173-40.818-90.991-90.991-90.991h-32.839v-36.386h-30v36.386h-204.472v-36.386h-30v36.386h-32.856c-50.173 0-90.991 40.819-90.991 90.991v115.87h74.37l-40.688 172.422h91.856l21.24-90.006h218.594l21.24 90.006h91.856l-40.689-172.421h74.37zm-421.158-60.991h330.167c33.631 0 60.991 27.36 60.991 60.991v24.837h-452.149v-24.837c0-33.63 27.36-60.991 60.991-60.991zm10.802 319.283h-30.208l33.609-142.421h30.208zm52.064-90.006 12.369-52.416h179.697l12.369 52.416zm286.707 90.006h-30.208l-33.609-142.421h30.209zm-410.564-172.421v-31.033h452.149v31.033z"/></svg>