<svg id="Capa_1" enable-background="new 0 0 512.097 512.097" height="512" viewBox="0 0 512.097 512.097" width="512" xmlns="http://www.w3.org/2000/svg"><path d="m425.363 225.112h-87.634c27.932-23.391 45.729-58.505 45.729-97.702.001-70.254-57.156-127.41-127.409-127.41s-127.41 57.156-127.41 127.41c0 39.197 17.797 74.312 45.73 97.702h-87.635v86.614h26.951l5.452 13.992c15.334 39.349 23.108 80.713 23.108 122.944v63.435h30v-42.724h36.615v42.724h30v-42.724h33.634v42.724h30v-42.724h37.356v42.724h30v-63.435c0-42.231 7.774-83.595 23.108-122.944l5.452-13.992h26.951v-86.614zm-132.501-82.702c2.29 22.468 9.742 43.723 21.952 62.633-12.566 9.536-27.506 16.098-43.766 18.622v-81.255zm30.211 0h29.23c-2.286 14.727-7.886 28.371-16.007 40.151-6.922-12.415-11.383-25.954-13.223-40.151zm.001-30c1.841-14.19 6.302-27.727 13.224-40.148 8.12 11.779 13.72 25.422 16.005 40.148zm-30.211 0h-21.814v-81.255c16.26 2.524 31.199 9.086 43.766 18.622-12.211 18.921-19.662 40.176-21.952 62.633zm-51.814 0h-21.807c-2.291-22.459-9.743-43.715-21.954-62.637 12.566-9.534 27.504-16.095 43.761-18.618zm-52.019 0h-29.236c2.286-14.728 7.887-28.373 16.009-40.154 6.924 12.423 11.386 25.962 13.227 40.154zm.001 30c-1.84 14.2-6.302 27.74-13.227 40.156-8.123-11.781-13.725-25.427-16.011-40.156zm30.211 0h21.806v81.255c-16.257-2.523-31.195-9.084-43.761-18.618 12.213-18.911 19.665-40.167 21.955-62.637zm-102.508 112.702h278.629v26.614h-278.629zm161.783 105.433h-45.678c-1.689-9.24-3.724-18.42-6.117-27.514l-5.607-21.305h69.126l-5.607 21.305c-2.394 9.094-4.428 18.274-6.117 27.514zm-132.634-48.818h44.21l7.617 28.94c1.732 6.581 3.256 13.211 4.587 19.878h-40.741c-3.816-15.471-8.625-30.732-14.465-45.72zm26.24 127.646c-.409-16.428-1.91-32.722-4.478-48.828h39.253c1.3 12.049 1.963 24.169 1.963 36.304v12.524zm66.738 0v-12.524c0-12.13-.605-24.247-1.799-36.304h37.232c-1.194 12.057-1.799 24.174-1.799 36.304v12.524zm63.634-12.524c0-12.134.663-24.254 1.963-36.304h39.995c-2.568 16.106-4.07 32.4-4.479 48.828h-37.479zm62.512-112.023c-5.84 14.988-10.649 30.249-14.465 45.72h-41.483c1.331-6.667 2.855-13.298 4.586-19.878l7.617-28.94h44.952z"/></svg>