<svg id="Capa_1" enable-background="new 0 0 512.053 512.053" height="512" viewBox="0 0 512.053 512.053" width="512" xmlns="http://www.w3.org/2000/svg"><path d="m433.802 408.31c19.772-14.117 32.7-37.232 32.7-63.325 0-24.625-8.58-48.689-24.159-67.76s-37.448-32.279-61.578-37.192l-92.058-18.743v-221.29h-81.77l-25.538 29.471h-135.848v315.515c0 26.093 12.928 49.208 32.7 63.325-11.991 10.917-19.529 26.644-19.529 44.1 0 32.887 26.756 59.643 59.643 59.643s59.643-26.756 59.643-59.643c0-10.786-2.893-20.904-7.921-29.643h34.218c-5.029 8.74-7.921 18.857-7.921 29.643 0 32.887 26.756 59.643 59.643 59.643s59.643-26.756 59.643-59.643c0-10.786-2.893-20.904-7.921-29.643h34.218c-5.029 8.74-7.921 18.857-7.921 29.643 0 32.887 26.756 59.643 59.643 59.643s59.643-26.756 59.643-59.643c-.001-17.456-7.539-33.184-19.53-44.101zm2.7-63.325c0 26.347-21.435 47.782-47.781 47.782h-55.79v-131.857l41.849 8.52c35.764 7.281 61.722 39.057 61.722 75.555zm-177.795-126.441h-55.458v-41.852h55.458zm0-71.851h-55.458v-38.765h55.458zm-38.07-116.693h38.07v47.928h-55.458v-27.862zm-47.388 29.471v24.495l-52.354 28.168 14.214 26.419 38.141-20.521v34.698l-52.354 28.168 14.214 26.419 38.141-20.521v61.748h98.946l30.735 6.257v137.965h-118.755c-6.848-56.631-51.95-101.638-108.625-108.342v-224.953zm-97.698 255.229c40.11 6.302 71.897 38.002 78.335 78.068h-30.553c-26.347 0-47.781-21.435-47.781-47.782v-30.286zm42.814 167.353c-16.345 0-29.643-13.298-29.643-29.643s13.298-29.643 29.643-29.643 29.643 13.298 29.643 29.643-13.298 29.643-29.643 29.643zm167.305-29.643c0 16.345-13.298 29.643-29.643 29.643s-29.643-13.298-29.643-29.643 13.298-29.643 29.643-29.643 29.643 13.298 29.643 29.643zm108.018 29.643c-16.345 0-29.643-13.298-29.643-29.643s13.298-29.643 29.643-29.643 29.643 13.298 29.643 29.643-13.298 29.643-29.643 29.643z"/></svg>