<svg id="Capa_1" enable-background="new 0 0 512.3 512.3" height="512" viewBox="0 0 512.3 512.3" width="512" xmlns="http://www.w3.org/2000/svg"><path d="m435.653 512.3v-30h-92.499v-52.775h40.164v-38.498c0-24.503-17.204-45.05-40.164-50.232v-225.789h56.312l40.58 63.617 25.292-16.134-49.425-77.483h-72.759v-60.004h-71.997v-25.002h-30v25.002h-72.012v60.004h-72.759l-49.425 77.484 25.292 16.134 40.58-63.617h56.312v225.789c-22.96 5.182-40.164 25.729-40.164 50.232v38.498h40.164v52.774h-95.502v30zm-122.498-457.298v30.004h-41.997v-30.004zm-114.009 0h42.012v30.004h-42.012zm114.009 427.298h-114.009v-52.775h114.009zm40.164-91.273v8.498h-194.337v-8.498c0-11.858 9.648-21.506 21.507-21.506h151.323c11.859 0 21.507 9.648 21.507 21.506zm-40.164-51.506h-114.009v-224.515h114.009z"/></svg>