<svg id="Capa_1" enable-background="new 0 0 511.845 511.845" height="512" viewBox="0 0 511.845 511.845" width="512" xmlns="http://www.w3.org/2000/svg"><path d="m371.303 225.613c-37.648-.139-73.087 14.435-99.758 41.014-2.266 2.258-4.444 4.579-6.536 6.96-20.378-14.021-44.622-21.608-69.729-21.608-23.198 0-45.763 6.597-65.139 18.657v-117.56h87.604v-78.571c.001-41.082-33.422-74.505-74.504-74.505h-97.833l-3.36 10.381c-38.443 118.774-58.75 311.268-23.18 449.367l1.938 7.521 7.261 2.759c67.445 25.625 144.18 39.616 228.074 41.586 6.563.154 13.151.23 19.784.23 73.155-.001 150.186-9.347 224.039-27.26l11.465-2.78v-114.206c0-78.023-62.86-141.717-140.126-141.985zm110.126 232.523c-155.617 35.725-313.152 30.876-435.386-13.434-30.567-127.985-13.003-301.718 21.294-414.702h75.904c23.821 0 43.327 18.812 44.45 42.36h-37.789v-17.638h-30v47.638h67.843v20.716h-87.604v218.273l26.109-28.778c17.639-19.442 42.799-30.593 69.03-30.593 18.874 0 37.095 5.66 52.435 16.127-11.446 20.608-17.53 43.897-17.53 68.129h30.001c0-29.621 11.555-57.449 32.536-78.358 20.889-20.816 48.603-32.264 78.083-32.264.131 0 .265 0 .395.001 60.78.21 110.229 50.446 110.229 111.984z"/><path d="m329.251 189.924h84.003v-59.883h47.683l-89.685-105.111-89.684 105.11h47.683zm42.001-118.774 24.651 28.891h-12.649v59.883h-24.003v-59.883h-12.649z"/></svg>