<svg id="Capa_1" enable-background="new 0 0 511.987 511.987" height="512" viewBox="0 0 511.987 511.987" width="512" xmlns="http://www.w3.org/2000/svg"><path d="m428.177 132.017 17.312-17.312 17.177 17.177 21.213-21.214-55.567-55.566-21.213 21.214 17.177 17.177-17.312 17.312c-38.04-33.448-85.42-53.074-135.97-56.321v-24.484h53v-30h-136v30h53v24.483c-55.522 3.567-107.23 26.879-146.928 66.576-43.252 43.252-67.072 100.759-67.072 161.927s23.82 118.675 67.072 161.927c43.253 43.252 100.76 67.073 161.928 67.073s118.676-23.82 161.928-67.073c43.252-43.252 67.072-100.759 67.072-161.927-.001-56.139-20.08-109.187-56.817-150.969zm-172.184 349.97c-109.729 0-199-89.271-199-199s89.271-199 199-199 199 89.271 199 199-89.271 199-199 199z"/><path d="m255.993 112.715c-93.888 0-170.271 76.384-170.271 170.272s76.384 170.272 170.271 170.272c93.889 0 170.272-76.384 170.272-170.272s-76.383-170.272-170.272-170.272zm15 309.74v-31.004h-30v31.004c-65.389-6.984-117.485-59.079-124.468-124.469h31.004v-30h-31.004c6.984-65.389 59.079-117.485 124.468-124.469v31.004h30v-31.004c65.39 6.984 117.486 59.079 124.469 124.469h-31.004v30h31.004c-6.983 65.39-59.079 117.486-124.469 124.469z"/><path d="m255.993 257.019c-1.493 0-2.954.134-4.379.377l-40.914-40.916-21.213 21.213 40.915 40.915c-.243 1.424-.377 2.886-.377 4.378 0 14.319 11.649 25.968 25.968 25.968s25.969-11.649 25.969-25.968-11.649-25.967-25.969-25.967z"/></svg>