<svg id="Capa_1" enable-background="new 0 0 512.062 512.062" height="512" viewBox="0 0 512.062 512.062" width="512" xmlns="http://www.w3.org/2000/svg"><path d="m168.3 396.026c6.558-9.221 10.432-20.479 10.432-32.632 0-31.125-25.321-56.446-56.446-56.446s-56.446 25.322-56.446 56.446c0 31.125 25.321 56.447 56.446 56.447 8.109 0 15.816-1.732 22.792-4.824l15.454 18.924h48.37v-30h-34.138zm-46.015-6.186c-14.583 0-26.446-11.864-26.446-26.447s11.863-26.446 26.446-26.446 26.446 11.864 26.446 26.446c0 2.561-.373 5.035-1.055 7.378l-13.773-16.866-23.236 18.976 13.772 16.864c-.712.058-1.428.095-2.154.095z"/><path d="m209.404 210.526v-15c0-30.709-21.963-56.791-52.224-62.016l-57.401-9.913c-2.603-.449-5.25-.677-7.87-.677-25.259 0-45.808 20.582-45.808 45.88v41.727h61.184v35.672c-60.32 7.418-107.18 58.966-107.18 121.258v48.361c0 35.019 24.846 64.338 57.833 71.272v24.972h30v-23.411h309.043v23.411h30v-24.972c32.988-6.934 57.834-36.253 57.834-71.273v-193.09h-35.324v-120.326l62.466-55.733v-46.668h-30v33.23l-62.466 55.733v133.765h-25.973l-72.152 105.228h-83.418c-7.427-21.805-21.048-41.331-39.148-55.854-17.656-14.166-39.079-23.11-61.515-25.889v-35.687zm-133.303-41.726c0-8.756 7.092-15.88 15.808-15.88.914 0 1.844.081 2.765.24l57.401 9.913c10.537 1.819 19.151 8.472 23.736 17.454h-99.71zm378.714 247.018c0 23.619-19.215 42.833-42.834 42.833h-339.043c-23.618 0-42.833-19.215-42.833-42.833v-48.361c0-50.828 41.352-92.18 92.18-92.18 21.283 0 41.249 6.994 57.74 20.225 16.032 12.863 27.401 30.917 32.012 50.836l2.688 11.618h122.445l72.152-105.228h45.492v163.09z"/></svg>