<svg id="Capa_1" enable-background="new 0 0 512.055 512.055" height="512" viewBox="0 0 512.055 512.055" width="512" xmlns="http://www.w3.org/2000/svg"><path d="m512.055 76.882h-35.44l29.302-26.163-19.98-22.377-38.408 34.294c-12.223-36.363-46.586-62.624-86.96-62.624-3.538 0-7.126.207-10.664.615l-299.363 34.544c-28.813 3.326-50.542 27.705-50.542 56.711 0 29.005 21.729 53.385 50.542 56.71l96.944 11.187v56.205c0 24.183 15.529 44.797 37.136 52.422v243.636h83.051v-243.636c21.606-7.626 37.135-28.239 37.135-52.422v-38.051l45.096 5.204c3.538.408 7.125.615 10.663.615 40.374 0 74.738-26.262 86.961-62.624l38.409 34.294 19.98-22.377-29.302-26.163h35.44zm-334.569 86.359 33.661 3.884v74.441h-8.079c-14.106 0-25.583-11.476-25.583-25.582v-52.743zm37.136 318.801v-210.476h23.051v210.477h-23.051zm60.186-266.058c0 14.106-11.476 25.582-25.583 25.582h-8.078v-70.979l33.661 3.884zm85.758-62.232c-2.393 0-4.823-.141-7.224-.418l-7.775-.897v-48.953h-30v45.492l-178.842-20.638v-36.456h-30v32.994l-52.745-6.086c-13.67-1.578-23.98-13.145-23.98-26.908s10.31-25.331 23.981-26.908l157.166-18.136v29.968h30v-33.43l112.196-12.946c2.401-.277 4.832-.418 7.225-.418 34.036 0 61.726 27.755 61.726 61.87s-27.691 61.87-61.728 61.87z"/></svg>