<svg id="Capa_1" enable-background="new 0 0 512.103 512.103" height="512" viewBox="0 0 512.103 512.103" width="512" xmlns="http://www.w3.org/2000/svg"><path d="m482.214 369.231c-19.199-20.847-45.327-33.61-73.529-35.936l-28.877-2.465-13.259-29.654c-6.987-15.626-9.038-32.783-5.932-49.616s11.146-32.128 23.25-44.231l46.588-46.59-81.412-81.411-56.477 56.476c-2.125 2.125-4.95 3.296-7.956 3.296-3.005 0-5.83-1.171-7.956-3.296l-49.324-49.324c-2.125-2.124-3.295-4.949-3.295-7.955 0-3.005 1.17-5.831 3.299-7.959l.145-.146c7.792-7.791 12.083-18.15 12.083-29.169s-4.291-21.378-12.083-29.169c-7.791-7.791-18.15-12.082-29.168-12.082-11.019 0-21.378 4.291-29.169 12.082l-152.183 152.183-1.763 1.763c-9.724 9.724-15.079 22.652-15.079 36.404 0 13.751 5.355 26.681 15.079 36.404l273.265 273.266h172.041c28.388 0 51.484-23.096 51.484-51.484v-.121-14.989c-.001-28.341-10.574-55.429-29.772-76.277zm-197.604-200.131c11.019 0 21.378-4.291 29.169-12.083l35.263-35.263 38.986 38.985-25.376 25.377c-11.484 11.483-20.26 25.09-25.946 40.043h-53.108v30h46.133c-1.071 11.288-.458 22.591 1.812 33.613h-36.12v30h46.577l17.638 39.447 46.539 3.971c20.719 1.708 39.886 11.071 53.969 26.364 10.65 11.564 17.682 25.746 20.477 40.965l-154.872.109-90.013-90.013v-203.301l19.703 19.703c7.791 7.791 18.15 12.083 29.169 12.083zm-94.255-135.805c2.125-2.124 4.95-3.295 7.956-3.295 3.005 0 5.831 1.171 7.956 3.295 2.125 2.125 3.295 4.951 3.295 7.956s-1.17 5.831-3.299 7.96l-.145.145c-7.792 7.791-12.083 18.15-12.083 29.169 0 10.835 4.157 21.026 11.703 28.77v203.322l-44.216-44.216v-204.273zm-58.833 58.833v144.273l-72.136-72.136zm350.463 368.49c0 11.847-9.638 21.484-21.484 21.484h-159.614l-264.477-264.478c-4.058-4.058-6.292-9.453-6.292-15.191 0-5.739 2.234-11.134 6.292-15.191l1.763-1.763 275.16 275.16 168.652-.119z"/></svg>