<svg id="Capa_1" enable-background="new 0 0 512 512" height="512" viewBox="0 0 512 512" width="512" xmlns="http://www.w3.org/2000/svg"><path d="m303.957 308.668h-95.96c-28.856 0-52.333 23.477-52.333 52.333v37.667h85.336v65.332h-37.67v30h105.294v-30h-37.624v-65.332h85.29v-37.667c0-28.856-23.477-52.333-52.333-52.333zm22.333 60h-140.626v-7.667c0-12.314 10.019-22.333 22.333-22.333h95.96c12.314 0 22.333 10.019 22.333 22.333z"/><path d="m396.994 464h-31.001v30h92.001v-30h-31v-103.321h23.33v-30h-23.33v-30.004h23.33v-30h-23.33v-30.004h23.33v-30h-23.33v-30.003h60.003v-66.334h25.003v-30h-25.003v-66.334h-90.003v66.334h-281.988v-66.334h-90.003v66.334h-25.003v30h25.003v66.334h60.003v30.003h-23.33v30h23.33v30.004h-23.33v30h23.33v30.004h-23.33v30h23.33v103.321h-31v30h92.001v-30h-31.001v-349.666h281.988zm-341.991-416h30.003v102.668h-30.003zm401.994 102.668h-30.003v-102.668h30.003z"/></svg>