<svg id="Capa_1" enable-background="new 0 0 511.854 511.854" height="512" viewBox="0 0 511.854 511.854" width="512" xmlns="http://www.w3.org/2000/svg"><path d="m436.877 211.852v-63.742c25.865-6.678 45.027-30.208 45.027-58.13v-29.953c0-33.1-26.928-60.027-60.027-60.027h-331.9c-33.1 0-60.027 26.928-60.027 60.027v29.953c0 27.922 19.163 51.452 45.027 58.13v63.741h-67.858v121.146c0 40.565 29.309 74.391 67.858 81.472v97.385h361.9v-97.384c38.549-7.081 67.858-40.907 67.858-81.472v-121.146zm-155.951 30.002h-49.998v-91.846h49.998zm-100.002-211.854h20.004v270.523c0 5.515-4.487 10.001-10.002 10.001s-10.002-4.486-10.002-10.001zm100.002 90.008h-49.998v-90.008h49.998zm30-90.008h20.004v270.523c0 5.515-4.487 10.001-10.002 10.001s-10.002-4.486-10.002-10.001zm50.004 120.008h45.947v46.842c0 24.815-20.188 45.004-45.004 45.004h-.943zm90.975-89.981v29.953c0 16.558-13.47 30.027-30.027 30.027h-60.948v-90.007h60.947c16.558 0 30.028 13.47 30.028 30.027zm-391.955 29.953v-29.953c0-16.557 13.469-30.027 30.027-30.027h60.947v90.008h-60.947c-16.558 0-30.027-13.47-30.027-30.028zm45.027 60.028h45.947v91.846h-.943c-24.815 0-45.004-20.188-45.004-45.004zm-67.858 182.989v-91.146h37.858v141.823c-21.861-6.482-37.858-26.741-37.858-50.677zm311.475 148.857h-185.334v-70.999h185.334zm30 0v-100.999h-245.334v100.999h-28.283v-225.043c12.545 9.439 28.131 15.043 45.004 15.043h.943v28.67c0 22.057 17.944 40.001 40.002 40.001s40.002-17.944 40.002-40.001v-28.67h49.998v28.67c0 22.057 17.944 40.001 40.002 40.001s40.002-17.944 40.002-40.001v-28.67h.943c16.873 0 32.459-5.604 45.004-15.043v225.044h-28.283zm96.142-148.857c0 23.936-15.997 44.195-37.858 50.678v-141.823h37.858z"/></svg>