<svg id="Capa_1" enable-background="new 0 0 511.906 511.906" height="512" viewBox="0 0 511.906 511.906" width="512" xmlns="http://www.w3.org/2000/svg"><path d="m450.235 488.284c34.005 0 61.671-27.665 61.671-61.671s-27.666-61.671-61.671-61.671h-78.839v-121.713c0-47.633-38.752-86.386-86.386-86.386h-1.035v-28.283h34.341v-104.938h-265.219v104.938h34.341v28.284h-1.051c-47.634 0-86.387 38.753-86.387 86.385v245.055zm-367.138-434.662h205.219v44.938h-205.219zm34.341 74.938h136.537v28.284h-136.537zm-31.052 58.284h198.624c31.091 0 56.386 25.295 56.386 56.386v5.144h-311.396v-5.144c0-31.091 25.295-56.386 56.386-56.386zm-56.386 91.529h311.396v87.328c-29.442 4.642-52.03 30.186-52.03 60.912 0 11.573 3.21 22.407 8.778 31.671h-268.144zm321.037 179.911c-17.463 0-31.671-14.208-31.671-31.671s14.208-31.671 31.671-31.671h34.6v63.342h-29.24zm99.198 0h-34.599v-63.342h34.599c17.463 0 31.671 14.208 31.671 31.671s-14.207 31.671-31.671 31.671z"/><path d="m197.731 320.493-28.226-10.162-25.965 72.124h41.631l-11.506 31.961 28.227 10.162 25.964-72.123h-41.631z"/></svg>