<svg id="Capa_1" enable-background="new 0 0 512.002 512.002" height="512" viewBox="0 0 512.002 512.002" width="512" xmlns="http://www.w3.org/2000/svg"><path d="m382.353 67.705v-18.91c0-26.905-21.89-48.795-48.796-48.795h-212.676c-26.906 0-48.796 21.89-48.796 48.796v72.942 161.675c0 31.903 11.873 62.426 33.431 85.944l23.106 25.207v117.438h254.758v-117.438l23.106-25.207c21.558-23.519 33.431-54.041 33.431-85.944v-154.572c0-32.537-25.501-59.218-57.564-61.136zm-280.268-18.909c0-10.364 8.432-18.796 18.796-18.796h212.676c10.364 0 18.796 8.432 18.796 18.796v72.942c0 29.8-24.244 54.043-54.044 54.043h-142.181c-29.799 0-54.043-24.243-54.043-54.043zm56.537 433.206v-78.272h194.758v24.137h-51.127v30h51.127v24.136h-194.758zm251.295-198.589c0 24.379-9.072 47.701-25.546 65.673l-22.59 24.644h-211.561l-22.59-24.644c-16.473-17.972-25.545-41.295-25.545-65.673v-97.38c14.623 12.311 33.477 19.748 54.043 19.748h142.181c6.569 0 12.955-.782 19.094-2.214v39.203h30v-52.881c21.149-15.278 34.95-40.125 34.95-68.15v-23.929c15.5 1.833 27.564 15.046 27.564 31.031z"/></svg>