<svg id="Capa_1" enable-background="new 0 0 511.962 511.962" height="512" viewBox="0 0 511.962 511.962" width="512" xmlns="http://www.w3.org/2000/svg"><path d="m264.305.079h-110.478v52.979h-153.827v458.826h294.869v-458.827h-30.564zm-80.478 30h50.478v22.979h-50.478zm-153.827 154.859h234.869v195.064h-234.869zm0 296.945v-71.881h234.869v71.881zm234.869-326.945h-234.869v-71.881h234.869z"/><path d="m147.435 221.638c-33.543 0-60.832 27.289-60.832 60.832s27.289 60.832 60.832 60.832 60.832-27.289 60.832-60.832-27.289-60.832-60.832-60.832zm0 91.664c-17.001 0-30.832-13.831-30.832-30.832s13.831-30.832 30.832-30.832 30.832 13.831 30.832 30.832-13.831 30.832-30.832 30.832z"/><path d="m321.665 275.115 18.495 236.769h153.307l18.495-236.769zm157.861 30-2.283 29.226h-120.86l-2.283-29.226zm-111.618 176.768-9.181-117.543h116.173l-9.181 117.543z"/></svg>