<svg id="Capa_1" enable-background="new 0 0 512.01 512.01" height="512" viewBox="0 0 512.01 512.01" width="512" xmlns="http://www.w3.org/2000/svg"><path d="m145.059 228.67v-69.333h122.658v69.333h88.004v-35.003h57.003v-158.664h-57.003v-35.003h-88.004v69.333h-122.658v-69.333h-88.004v35.003h-57.003v158.664h57.003v35.003zm237.666-163.667v98.664h-27.003v-98.664zm-57.004 133.667h-28.004v-168.67h28.004zm-58.004-99.337v30.004h-122.658v-30.004zm-180.662-69.333h28.004v168.67h-28.004zm-57.003 133.667v-98.664h27.003v98.664z"/><path d="m511.958 318.343h-57.003v-35.002h-88.004v69.333h-122.659v-69.333h-88.004v35.002h-57.003v158.665h57.003v35.002h88.004v-69.333h122.658v69.333h88.004v-35.002h57.003v-158.665zm-382.673 128.665v-98.665h27.003v98.665zm57.004-133.667h28.004v168.669h-28.004zm58.003 99.336v-30.003h122.658v30.003zm180.663 69.333h-28.004v-168.669h28.004zm57.003-35.002h-27.003v-98.665h27.003z"/></svg>