<svg id="Capa_1" enable-background="new 0 0 512.009 512.009" height="512" viewBox="0 0 512.009 512.009" width="512" xmlns="http://www.w3.org/2000/svg"><path d="m255.913 481.917c-60.344 0-117.075-23.499-159.745-66.168-42.669-42.669-66.168-99.401-66.168-159.745s23.499-117.075 66.168-159.745c42.669-42.669 99.401-66.168 159.745-66.168h256.096v-30h-256.096c-68.357 0-132.622 26.619-180.958 74.955-48.335 48.336-74.955 112.602-74.955 180.958s26.62 132.622 74.955 180.958c48.336 48.336 112.601 74.955 180.958 74.955h256.096v-30h-70.062v-30.608h70.062v-30h-70.062v-30.609h70.062v-30h-100.064v-59.693h80.999l-22.501-45.002 22.501-45.002h-110.999v149.697h-126.031c-57.729 0-104.695-46.966-104.695-104.695s46.966-104.695 104.695-104.695h256.095v-30h-256.095c-74.271 0-134.695 60.424-134.695 134.695s60.424 134.695 134.695 134.695h156.034v30.609h-156.034c-91.149 0-165.304-74.155-165.304-165.305s74.155-165.304 165.304-165.304h256.095v-30h-256.095c-107.691 0-195.304 87.613-195.304 195.305s87.613 195.305 195.304 195.305h156.034v30.608h-156.035zm156.032-240.915h32.458l-7.501 15.002 7.501 15.002h-32.458z"/></svg>