<svg id="Capa_1" enable-background="new 0 0 511.935 511.935" height="512" viewBox="0 0 511.935 511.935" width="512" xmlns="http://www.w3.org/2000/svg"><path d="m450.654 511.935h-389.373v-306.374l5.76-4.504c25.521-19.959 40.158-49.989 40.158-82.39v-118.667h89.835v103.027c0 32.495 26.438 58.933 58.934 58.933s58.934-26.438 58.934-58.933v-103.027h89.835v118.667c0 32.4 14.638 62.431 40.158 82.39l5.76 4.504v306.374zm-359.373-30h329.373v-262.008c-29.275-25.571-45.918-62.067-45.918-101.26v-88.667h-29.835v73.027c0 49.038-39.896 88.933-88.934 88.933s-88.934-39.895-88.934-88.933v-73.027h-29.835v88.667c0 39.192-16.643 75.688-45.918 101.26v262.008z"/><path d="m358.957 420.454h-205.979v-161.917h205.979zm-175.979-30h145.979v-101.917h-145.979z"/></svg>