<svg id="Capa_1" enable-background="new 0 0 512.027 512.027" height="512" viewBox="0 0 512.027 512.027" width="512" xmlns="http://www.w3.org/2000/svg"><path d="m463.7 359.414c-19.948-1.949-34.99-18.561-34.99-38.64 0-21.411 17.42-38.831 38.831-38.831v-30c-21.411 0-38.831-17.419-38.831-38.83 0-14.929 8.337-28.294 21.758-34.881l15.872-7.791-10.273-14.391c-20.75-29.065-48.168-47.327-79.289-52.809-6.385-1.125-12.911-1.695-19.397-1.695-24.453 0-49.427 8.155-72.221 23.583-2.841 1.923-5.878 3.477-9.047 4.657v-49.431c-.001-44.308-36.048-80.355-80.357-80.355h-15.991v30h15.991c27.767 0 50.355 22.589 50.355 50.355v49.432c-3.169-1.181-6.205-2.735-9.046-4.657-22.795-15.428-47.769-23.583-72.223-23.583-6.486 0-13.013.57-19.397 1.695-40.464 7.128-74.298 35.627-95.27 80.248-20.142 42.853-26.049 95.885-16.635 149.327 8.643 49.061 29.718 94.151 59.343 126.969 30.413 33.688 67.657 52.241 104.873 52.241 6.488 0 13.017-.57 19.403-1.695 8.841-1.558 17.512-4.192 25.771-7.832 5.785-2.549 11.901-3.842 18.181-3.842 6.278 0 12.396 1.293 18.18 3.842 8.261 3.64 16.932 6.274 25.771 7.832 6.382 1.124 12.909 1.694 19.4 1.695h.013c31.509-.001 62.766-13.073 90.387-37.803 26.503-23.729 47.769-56.518 61.498-94.82l6.495-18.118zm-139.224 122.613c-.003 0-.006 0-.009 0-4.753 0-9.53-.418-14.199-1.24-6.47-1.14-12.822-3.071-18.879-5.74-9.621-4.239-19.808-6.389-30.277-6.389s-20.657 2.149-30.278 6.389c-6.057 2.669-12.407 4.601-18.878 5.74-4.673.823-9.449 1.24-14.198 1.24-28.617 0-57.953-15.038-82.604-42.345-25.897-28.688-44.389-68.488-52.066-112.07-8.351-47.404-3.293-94.057 14.24-131.361 16.703-35.538 42.743-58.077 73.324-63.464 4.671-.823 9.446-1.24 14.192-1.24 18.437 0 37.596 6.372 55.407 18.428 12.092 8.184 26.222 12.51 40.861 12.51s28.77-4.326 40.861-12.511c17.812-12.055 36.971-18.427 55.406-18.427 4.747 0 9.521.417 14.192 1.24 18.781 3.309 35.965 13.15 50.361 28.719-14.63 12.852-23.224 31.422-23.224 51.607 0 21.768 10.157 41.208 25.981 53.83-15.824 12.622-25.981 32.063-25.981 53.831 0 28.94 17.643 53.817 43.261 63.965-25.822 58.812-71.618 97.288-117.493 97.288z"/></svg>