<svg id="Capa_1" enable-background="new 0 0 511.969 511.969" height="512" viewBox="0 0 511.969 511.969" width="512" xmlns="http://www.w3.org/2000/svg"><path d="m405.718 0h-174.843c-54.211 0-98.315 44.104-98.315 98.315v51.653h-9.029c-25.245 0-45.782 20.538-45.782 45.782v14.991h-69.813v95.773h334.059v-95.773h-69.812v-14.991c0-25.244-20.538-45.782-45.782-45.782h-9.029v-48.368c0-9.257 7.531-16.788 16.788-16.788h168.274c9.257 0 16.789 7.531 16.789 16.788v410.369h84.811v-413.654c-.001-54.211-44.105-98.315-98.316-98.315zm-93.723 240.742v35.773h-274.059v-35.773zm-69.812-44.991v14.991h-134.435v-14.991c0-8.702 7.08-15.782 15.782-15.782h102.87c8.703 0 15.783 7.08 15.783 15.782zm231.85 286.218h-24.811v-380.369c0-25.799-20.989-46.788-46.789-46.788h-168.274c-25.799 0-46.788 20.989-46.788 46.788v48.369h-24.811v-51.654c0-37.669 30.646-68.315 68.315-68.315h174.844c37.669 0 68.314 30.646 68.314 68.315z"/><path d="m159.964 337.928h30.002v30h-30.002z"/><path d="m219.968 337.928h30.002v30h-30.002z"/><path d="m99.96 337.928h30.002v30h-30.002z"/><path d="m129.962 397.932h30.002v30h-30.002z"/><path d="m189.966 397.932h30.002v30h-30.002z"/><path d="m249.97 397.932h30.002v30h-30.002z"/><path d="m69.959 397.932h30.001v30h-30.001z"/><path d="m99.96 457.936h30.002v30h-30.002z"/><path d="m159.964 457.936h30.002v30h-30.002z"/><path d="m219.968 457.936h30.002v30h-30.002z"/><path d="m279.972 457.936h30.001v30h-30.001z"/><path d="m39.957 457.936h30.002v30h-30.002z"/></svg>