<svg id="Capa_1" enable-background="new 0 0 511.864 511.864" height="512" viewBox="0 0 511.864 511.864" width="512" xmlns="http://www.w3.org/2000/svg"><path d="m318.223 164.44c-43.994 0-79.785 35.791-79.785 79.785 0 43.993 35.791 79.784 79.785 79.784s79.785-35.791 79.785-79.784c0-43.994-35.791-79.785-79.785-79.785zm0 129.569c-27.451 0-49.785-22.333-49.785-49.784s22.333-49.785 49.785-49.785 49.785 22.334 49.785 49.785-22.334 49.784-49.785 49.784z"/><path d="m511.864 244.225c0-22.582-18.372-40.954-40.954-40.954h-16.02c-17.843-58.783-73.043-101.781-138.053-101.781h-105.448v15c0 8.303-6.754 15.058-15.057 15.058h-.498c-8.303 0-15.057-6.755-15.057-15.058v-15h-180.777v128.368l111.485 18.215c33.727 5.511 63.113 27.604 78.61 59.098 11.598 23.573 29.469 43.494 51.68 57.607 22.838 14.511 49.273 22.182 76.448 22.182 38.219 0 74.125-14.909 101.104-41.982 16.921-16.979 29.043-37.458 35.698-59.798h.048v85.949c0 24.316-19.782 44.099-44.098 44.099h-151.927c-24.845 0-45.057 20.213-45.057 45.058s20.212 45.057 45.057 45.057h151.927c40.858 0 74.098-33.24 74.098-74.099v-148.592c15.623-5.777 26.791-20.821 26.791-38.427zm-56.79 187.018c0 24.316-19.782 44.099-44.098 44.099h-151.928c-8.303 0-15.057-6.755-15.057-15.058 0-8.302 6.754-15.057 15.057-15.057h151.927c16.506 0 31.768-5.424 44.098-14.585v.601zm15.836-197.972c6.04 0 10.954 4.914 10.954 10.954s-4.914 10.954-10.954 10.954h-10.37c.286-3.792.431-7.613.417-11.458-.012-3.515-.159-6.999-.425-10.45zm-72.832 90.53c-21.309 21.382-49.668 33.158-79.854 33.158-21.467 0-42.338-6.053-60.359-17.503-17.56-11.157-31.686-26.901-40.851-45.53-19.77-40.18-57.411-68.39-100.69-75.461l-86.324-14.103v-72.872h123.344c6.193 17.494 22.901 30.058 42.49 30.058h.498c19.589 0 36.297-12.563 42.49-30.058h78.015c62.712 0 113.906 50.394 114.12 112.335.105 30.192-11.572 58.594-32.879 79.976z"/><path d="m181.332 6.523h30v53.86h-30z"/><path d="m228.416 33.511h54.571v30h-54.571z" transform="matrix(.597 -.802 .802 .597 64.143 224.698)"/><path d="m121.961 21.226h30v54.571h-30z" transform="matrix(.802 -.597 .597 .802 -1.878 91.352)"/></svg>