<svg id="Capa_1" enable-background="new 0 0 511.887 511.887" height="512" viewBox="0 0 511.887 511.887" width="512" xmlns="http://www.w3.org/2000/svg"><path d="m255.944 312.183c69.026 0 125.183-56.156 125.183-125.183v-61.817c-.001-69.027-56.157-125.183-125.183-125.183s-125.183 56.156-125.183 125.183v61.817c0 69.026 56.157 125.183 125.183 125.183zm0-30c-40.657 0-75.436-25.627-89.049-61.573h37.494c16.796 0 31.203-10.39 37.154-25.077h28.802c5.951 14.687 20.358 25.077 37.154 25.077h37.494c-13.613 35.946-48.393 61.573-89.049 61.573zm-95.059-161.882h190.118c.082 1.617.124 3.245.124 4.882v15.272h-43.628c-16.796 0-31.203 10.39-37.154 25.077h-28.802c-5.951-14.687-20.358-25.077-37.154-25.077h-43.628v-15.272c0-1.638.042-3.265.124-4.882zm190.166 70.308h-43.553c-5.557 0-10.077-4.521-10.077-10.077s4.521-10.077 10.077-10.077h43.628v16.545c0 1.209-.03 2.411-.075 3.609zm-146.662-20.154c5.557 0 10.077 4.521 10.077 10.077s-4.521 10.077-10.077 10.077h-43.553c-.045-1.198-.075-2.4-.075-3.609v-16.545zm51.555-140.455c40.177 0 74.62 25.022 88.563 60.301h-177.127c13.944-35.279 48.386-60.301 88.564-60.301z"/><path d="m130.922 428.922h30v82.965h-30z"/><path d="m361.194 312.185h-210.5c-49.708 0-90.149 40.44-90.149 90.148v109.554h30v-109.554c0-33.166 26.983-60.148 60.149-60.148h210.5c33.166 0 60.148 26.982 60.148 60.148v109.554h30v-109.554c0-49.708-40.44-90.148-90.148-90.148z"/><path d="m351.095 428.922h30v82.965h-30z"/><path d="m179.024 455.404h30.092v30h-30.092z"/><path d="m302.901 455.404h30.093v30h-30.093z"/></svg>