<svg id="Capa_1" enable-background="new 0 0 512.024 512.024" height="512" viewBox="0 0 512.024 512.024" width="512" xmlns="http://www.w3.org/2000/svg"><path d="m360.834 32.439v-32.439h-209.644v32.439h-76.139v479.585l361.922-.086v-479.499zm-179.644-2.439h149.645v34.88h-149.645zm225.783 451.946-301.922.07v-419.577h46.139v32.44h209.645v-32.44h46.139v419.507z"/><path d="m146.236 227.936h31.44v30h-31.44z"/><path d="m146.236 290.817h31.44v30h-31.44z"/><path d="m146.236 353.699h31.44v30h-31.44z"/><path d="m146.236 416.58h31.44v30h-31.44z"/><path d="m209.118 227.936h156.671v30h-156.671z"/><path d="m209.118 290.817h156.671v30h-156.671z"/><path d="m209.118 353.699h156.671v30h-156.671z"/><path d="m209.118 416.58h156.671v30h-156.671z"/><path d="m226.586 191.578v-21.082h58.821v21.082h30v-21.082h11.281v-30h-11.281v-21.081h-30v21.081h-58.821v-21.081h-30v21.081h-11.281v30h11.281v21.082z"/></svg>