<svg id="Capa_1" enable-background="new 0 0 512.138 512.138" height="512" viewBox="0 0 512.138 512.138" width="512" xmlns="http://www.w3.org/2000/svg"><path d="m435.547 53.338v-53.338h-235.628v53.338h-46.758v30h47.976l22.609 266.717-9.429 14.305c-8.38-19.789-22.587-36.532-40.455-48.073 11.87-10.076 19.423-25.09 19.423-41.844v-26.609h-37.095c-29.482 0-53.599 23.367-54.828 52.551-51.611 7.285-91.443 51.739-91.443 105.328 0 58.659 47.723 106.382 106.383 106.382 30.419 0 57.894-12.837 77.301-33.374v33.417h248.261v-116.354l-30.145-45.729 22.61-266.717h8.324c16.302 0 29.564 13.262 29.564 29.563v121.061h30v-121.061c0-32.844-26.721-59.563-59.564-59.563zm-185.235 254.931h26.366v-30h-28.909l-2.098-24.744h31.007v-30h-33.55l-2.098-24.743h35.647v-30h-38.191l-2.098-24.744h40.288v-30h-42.831l-2.602-30.699h172.978l-21.671 255.631h-129.635zm155.235-278.269v23.338h-175.628v-23.338zm-249.357 247.833h6.865c-1.658 12.125-12.084 21.497-24.657 21.497h-6.865c1.659-12.125 12.084-21.497 24.657-21.497zm-39.888 204.262c-42.117 0-76.383-34.265-76.383-76.382s34.266-76.383 76.383-76.383 76.382 34.266 76.382 76.383-34.265 76.382-76.382 76.382zm295.562.043h-188.261v-77.355l23.607-35.813h141.046l23.608 35.813z"/><path d="m301.933 412.132h31.583v30h-31.583z"/><path d="m249.295 412.132h31.583v30h-31.583z"/><path d="m354.572 412.132h31.583v30h-31.583z"/></svg>