<svg id="Capa_1" enable-background="new 0 0 512.085 512.085" height="512" viewBox="0 0 512.085 512.085" width="512" xmlns="http://www.w3.org/2000/svg"><path d="m342.72 222.592c-12.964-11.444-14.84-31.129-4.271-44.816 8.461-10.959 13.121-24.618 13.121-38.462v-24.874c0-29.533-20.452-54.366-47.933-61.113v-53.327h-95.188v53.327c-27.481 6.747-47.933 31.58-47.933 61.113v24.873c0 13.844 4.66 27.503 13.121 38.463 10.568 13.687 8.692 33.371-4.272 44.815-16.733 14.771-26.33 36.044-26.33 58.364v231.129h226.015v-231.128c0-22.32-9.596-43.593-26.33-58.364zm-3.67 78.158v122.958h-166.015v-122.958zm-65.414-270.75v21.507h-35.188v-21.507zm-84.418 215.082c24.773-21.868 28.359-59.486 8.164-85.641-4.428-5.735-6.867-12.884-6.867-20.128v-24.873c0-18.159 14.774-32.934 32.933-32.934h65.188c18.159 0 32.933 14.774 32.933 32.934v24.873c0 7.244-2.438 14.393-6.866 20.127-20.196 26.155-16.61 63.773 8.164 85.642 7.69 6.789 12.926 15.813 15.079 25.668h-163.807c2.154-9.855 7.389-18.879 15.079-25.668zm-16.183 237.003v-28.377h166.015v28.377z"/><path d="m256.042 405.619c19.983 0 36.241-16.258 36.241-36.24 0-16.479-18.194-35.207-26.016-42.494l-10.225-9.524-10.225 9.524c-7.822 7.287-26.016 26.015-26.016 42.494.001 19.982 16.258 36.24 36.241 36.24zm0-45.677c3.269 4.095 5.687 7.805 6.229 9.816-.197 3.265-2.916 5.86-6.229 5.86s-6.032-2.596-6.229-5.86c.542-2.011 2.961-5.722 6.229-9.816z"/></svg>