<svg id="Capa_1" enable-background="new 0 0 512.022 512.022" height="512" viewBox="0 0 512.022 512.022" width="512" xmlns="http://www.w3.org/2000/svg"><path d="m419.401.021v65.092h-26.569c-5.698-15.073-20.272-25.823-37.315-25.823-9.402 0-18.056 3.271-24.881 8.734-6.825-5.463-15.479-8.734-24.881-8.734s-18.056 3.271-24.881 8.734c-6.825-5.463-15.479-8.734-24.881-8.734s-18.056 3.271-24.881 8.734c-6.825-5.463-15.479-8.734-24.881-8.734-17.044 0-31.618 10.75-37.315 25.823h-76.335v-65.092h-92.581v253.422h92.581v-65.188h24.003v18.889c0 35.145 24.942 64.572 58.057 71.509v42.243c0 13.767-1.953 27.448-5.805 40.664l-17.194 58.996c-4.647 15.945-7.003 32.451-7.003 49.059v42.387h30v-42.387c0-13.766 1.953-27.447 5.805-40.664l17.194-58.996c4.647-15.944 7.003-32.45 7.003-49.059v-70.696h-15c-23.742 0-43.057-19.315-43.057-43.057v-18.889h19.763v17.12h30v-126.203c0-5.448 4.433-9.881 9.881-9.881s9.881 4.433 9.881 9.881v29.489h30v-29.489c0-5.448 4.433-9.881 9.881-9.881s9.881 4.433 9.881 9.881v29.489h30v-29.489c0-5.448 4.433-9.881 9.881-9.881s9.881 4.433 9.881 9.881v29.489h30v-29.489c0-5.448 4.433-9.881 9.881-9.881s9.881 4.433 9.881 9.881v140.482c0 16.844-13.703 30.547-30.547 30.547h-15v70.695c0 16.608 2.356 33.114 7.003 49.059l17.194 58.996c3.852 13.217 5.805 26.898 5.805 40.664v42.387h30v-42.387c0-16.607-2.356-33.113-7.003-49.059l-17.194-58.996c-3.852-13.216-5.805-26.897-5.805-40.664v-42.575c26.154-6.691 45.547-30.457 45.547-58.667v-31.398h24.003v65.188h92.621v-253.422zm-356.82 223.422h-32.581v-193.422h32.581zm30-65.188v-63.142h73.766v63.142zm302.817 0v-63.142h24.003v63.142zm86.624 65.188h-32.621v-193.422h32.621z"/></svg>