<svg id="Capa_1" enable-background="new 0 0 512.323 512.323" height="512" viewBox="0 0 512.323 512.323" width="512" xmlns="http://www.w3.org/2000/svg"><path d="m183.661 19.507v243.109c-2.699-.486-5.461-.751-8.27-.751-2.369 0-4.713.179-7.026.534-8.256-7.003-18.843-10.991-29.845-10.991s-21.589 3.988-29.846 10.991c-2.312-.355-4.657-.534-7.026-.534-7.631 0-14.944 1.861-21.435 5.27l-25.209-52.166-27.012 13.053 25.375 52.51c-14.577 6.715-25.075 20.818-26.661 37.483h-26.706v54.969c0 66.076 53.757 119.833 119.833 119.833h37.372 355.117v-473.31zm-111.076 286.82c.426 0 .89.022 1.418.068l9.133.796 4.873-7.765c2.972-4.735 8.07-7.563 13.638-7.563 2.102 0 4.148.401 6.08 1.191l10.866 4.447 6.927-9.479c3.073-4.205 7.811-6.617 12.999-6.617s9.925 2.412 12.999 6.617l6.927 9.479 10.866-4.447c1.932-.79 3.978-1.191 6.08-1.191 5.568 0 10.667 2.827 13.639 7.563l4.874 7.765 9.133-.796c.528-.046.991-.068 1.417-.068 7.343 0 13.539 4.951 15.46 11.687h-162.788c1.92-6.735 8.116-11.687 15.459-11.687zm47.248 156.489c-49.534 0-89.833-40.299-89.833-89.833v-24.969h217.039v24.969c0 49.534-40.299 89.833-89.833 89.833zm362.49 0h-245.902c24.89-21.974 40.617-54.099 40.617-89.833v-54.969h-26.707c-1.93-20.28-17.056-36.765-36.671-40.758v-227.749h268.662v413.309z"/><path d="m321.057 292.481h11.935v34.996h30v-34.996h11.935c28.156 0 51.063-22.906 51.063-51.063v-26.605h-41.935c-7.508 0-14.636 1.642-21.063 4.565v-14.568h11.935c28.156 0 51.063-22.906 51.063-51.063v-26.605h-41.935c-7.508 0-14.636 1.642-21.063 4.565v-22.897h-30v22.897c-6.427-2.923-13.554-4.565-21.063-4.565h-41.935v26.605c0 28.156 22.906 51.063 51.063 51.063h11.935v14.568c-6.427-2.923-13.554-4.565-21.063-4.565h-41.935v26.605c.001 28.156 22.907 51.063 51.063 51.063zm0-117.671c-10.458 0-19.161-7.662-20.789-17.668h11.661c10.458 0 19.161 7.662 20.789 17.668zm62.997-17.668h11.661c-1.628 10.006-10.331 17.668-20.789 17.668h-11.661c1.628-10.006 10.331-17.668 20.789-17.668zm0 87.671h11.661c-1.628 10.006-10.331 17.668-20.789 17.668h-11.661c1.628-10.006 10.331-17.668 20.789-17.668zm-72.125 0c10.458 0 19.161 7.662 20.789 17.668h-11.661c-10.458 0-19.161-7.662-20.789-17.668z"/><path d="m289.995 376.479h115.994v30h-115.994z"/></svg>