<svg id="Capa_1" enable-background="new 0 0 512.022 512.022" height="512" viewBox="0 0 512.022 512.022" width="512" xmlns="http://www.w3.org/2000/svg"><path d="m256.004 59.826c-33.725 0-61.162 27.438-61.162 61.162s27.438 61.161 61.162 61.161 61.161-27.437 61.161-61.161-27.436-61.162-61.161-61.162zm0 92.323c-17.183 0-31.162-13.979-31.162-31.161s13.979-31.162 31.162-31.162 31.161 13.979 31.161 31.162-13.978 31.161-31.161 31.161z"/><path d="m461.021 353.053-19.511-88.493-31.206 6.88-33.334-152.174c-.926-65.921-54.829-119.266-120.966-119.266-66.151 0-120.073 53.368-120.977 119.309l-33.396 152.114-31.121-6.861-19.51 88.49 31.14 6.865-29.087 131.979 91.345 20.127 29.087-131.966 31.046 6.845 19.51-88.49-31.052-6.846 13.281-60.253c15.526 7.017 32.403 10.664 49.735 10.664 17.685 0 34.495-3.815 49.652-10.664l13.285 60.272-30.96 6.826 19.511 88.494 30.954-6.825 29.082 131.943 91.345-20.127-29.083-131.957zm-70.653 123.218-22.625-102.65 32.75-7.221 22.626 102.654zm-246.18-102.673-22.63 102.673-32.751-7.217 22.631-102.677zm37.505-22.452-94.936-20.932 6.592-29.896 94.936 20.932zm22.786-155.162-18.357-12.642-22.429 101.763-32.763-7.223 34.087-155.267v-1.627c0-50.171 40.817-90.988 90.988-90.988s90.987 40.817 90.987 90.988-40.816 90.987-90.987 90.987c-18.516.001-36.334-5.529-51.526-15.991zm128.194 18.528c10.902-8.954 20.212-19.774 27.447-31.966l20.887 95.353-32.771 7.225zm-2.343 136.636-6.593-29.901 94.936-20.932 6.593 29.9z"/></svg>