<svg id="Capa_1" enable-background="new 0 0 511.912 511.912" height="512" viewBox="0 0 511.912 511.912" width="512" xmlns="http://www.w3.org/2000/svg"><path d="m511.912 448.623v-188.354c0-35.829-29.149-64.979-64.979-64.979h-.301c-6.866-11.939-19.743-20.002-34.476-20.002h-10.499c-11.831 0-22.466 5.202-29.754 13.432v-49.123c0-42.076-34.231-76.308-76.308-76.308h-79.279c-42.076 0-76.308 34.231-76.308 76.308v49.123c-7.288-8.23-17.923-13.432-29.754-13.432h-10.498c-14.733 0-27.61 8.063-34.476 20.002h-.301c-35.83.001-64.979 29.15-64.979 64.979v188.354zm-295.596-355.333h79.279c25.534 0 46.308 20.773 46.308 46.308v55.693h-171.894v-55.693c0-25.535 20.773-46.308 46.307-46.308zm-186.316 325.333v-158.354c0-17.598 13.065-32.196 30.004-34.619v192.972h-30.004zm90.007 0h-30.003v-203.581c0-5.378 4.375-9.753 9.752-9.753h10.499c5.377 0 9.752 4.375 9.752 9.753zm184.612 0h-97.326v-42.167h97.326zm30 0v-72.167h-157.326v72.167h-27.286v-193.332h211.898v193.332zm87.289 0h-30.003v-203.581c0-5.378 4.375-9.753 9.752-9.753h10.499c5.377 0 9.752 4.375 9.752 9.753zm60.004 0h-30.004v-192.973c16.938 2.423 30.004 17.021 30.004 34.619z"/><path d="m179.582 283.956h111.377v21h30v-21h12.625v-30h-154.002z"/></svg>