<svg viewBox="-100 0 511 511.99834" xmlns="http://www.w3.org/2000/svg"><path d="m155.765625 245.710938c-46.125 0-83.648437 37.523437-83.648437 83.648437 0 .808594.039062 1.609375.0625 2.410156v.035157c1.300781 44.996093 38.28125 81.203124 83.585937 81.203124 45.675781 0 82.894531-36.804687 83.613281-82.308593.003906-.0625.003906-.121094.007813-.183594.003906-.386719.027343-.769531.027343-1.15625 0-46.125-37.523437-83.648437-83.648437-83.648437zm0 152.296874c-35.855469 0-65.363281-27.636718-68.378906-62.726562 13.636719-10.015625 35.488281-17.886719 66.0625-4.785156 12.066406 5.171875 31.828125 11.933594 52.625 11.933594 5.765625 0 11.605469-.53125 17.386719-1.746094-5.414063 32.480468-33.699219 57.324218-67.695313 57.324218zm3.59375-81.296874c-31.238281-13.386719-55.292969-7.871094-71.132813.433593 5.78125-32.042969 33.855469-56.433593 67.539063-56.433593 36.398437 0 66.257813 28.480468 68.5 64.328124-12.085937 3.378907-33.640625 5.070313-64.90625-8.328124zm0 0"/><path d="m294.375 130.242188h-17.402344l-4.105468-19.902344c-1.308594-6.34375-6.960938-10.949219-13.4375-10.949219h-95.65625v-65.710937c0-.964844.609374-1.835938 1.507812-2.15625l47.332031-16.960938c3.898438-1.394531 5.929688-5.6875 4.53125-9.589844-1.398437-3.898437-5.6875-5.929687-9.589843-4.53125l-47.34375 16.964844c-6.839844 2.460938-11.4375 9-11.4375 16.273438v65.710937h-96.671876c-6.480468 0-12.128906 4.605469-13.4375 10.949219l-4.105468 19.902344h-17.402344c-9.183594 0-16.65625 7.472656-16.65625 16.65625v24.285156c0 9.183594 7.472656 16.65625 16.65625 16.65625h4.257812l36.976563 308.109375c1.097656 9.148437 8.875 16.050781 18.089844 16.050781h158.574219c9.214843 0 16.988281-6.902344 18.089843-16.050781l36.972657-308.109375h4.257812c9.183594 0 16.65625-7.472656 16.65625-16.65625v-24.285156c0-9.183594-7.472656-16.65625-16.65625-16.65625zm-241.230469-15.851563h205.242188l3.269531 15.851563h-211.785156zm185.105469 379.773437c-.195312 1.617188-1.566406 2.835938-3.195312 2.835938h-16.921876l5.183594-74.167969c.289063-4.132812-2.824218-7.714843-6.957031-8.003906-4.125-.292969-7.714844 2.824219-8.003906 6.957031l-5.261719 75.214844h-21.542969l1.375-59c.097657-4.140625-3.183593-7.578125-7.324219-7.675781-4.121093-.046875-7.574218 3.183593-7.671874 7.324219l-1.382813 59.351562h-21.5625l-1.371094-58.894531c-.097656-4.140625-3.523437-7.402344-7.671875-7.324219-4.140625.097656-7.421875 3.535156-7.324218 7.675781l1.363281 58.542969h-21.542969l-5.257812-75.214844c-.292969-4.128906-3.882813-7.253906-8.007813-6.957031-4.128906.289063-7.246094 3.875-6.957031 8.003906l5.1875 74.167969h-16.921875c-1.628907 0-3.003907-1.21875-3.199219-2.835938l-36.761719-306.320312h35.261719l4.082031 58.363281c.277344 3.953125 3.570313 6.976563 7.472657 6.976563.175781 0 .355468-.007813.53125-.019532 4.132812-.289062 7.25-3.871093 6.960937-8.003906l-4.007813-57.316406h35.953126l.789062 33.796875c.09375 4.082031 3.433594 7.324219 7.496094 7.324219h.175781c4.140625-.097656 7.421875-3.53125 7.324219-7.671875l-.78125-33.449219h35.976562l-.78125 33.449219c-.097656 4.140625 3.179688 7.574219 7.324219 7.671875h.175781c4.0625 0 7.398438-3.242188 7.496094-7.324219l.789062-33.796875h35.953126l-4.007813 57.316406c-.289063 4.128906 2.828125 7.714844 6.960937 8.003906 4.140626.296876 7.714844-2.828124 8.003907-6.957031l4.082031-58.363281h35.257812zm57.78125-322.980468c0 .914062-.742188 1.65625-1.65625 1.65625h-277.21875c-.914062 0-1.65625-.742188-1.65625-1.65625v-24.28125c0-.914063.742188-1.660156 1.65625-1.660156h277.21875c.914062 0 1.65625.746093 1.65625 1.660156zm0 0"/></svg>