<svg viewBox="-34 0 511 511.999" xmlns="http://www.w3.org/2000/svg"><path d="m425.859375 468.890625h-18.117187c10.664062-10.859375 17.015624-25.679687 17.015624-41.636719 0-7.988281-5.375-14.726562-12.695312-16.828125v-14.910156c0-1.078125-.09375-2.140625-.261719-3.1875 4.230469-3.75 7.054688-9.855469 7.054688-16.609375 0-3.621094-.226563-8.609375-.824219-12.632812 1.140625-2.4375 1.746094-5.113282 1.742188-7.910157 0-2.445312-.476563-5.160156-1.332032-7.847656 3.855469-3.21875 6.316406-8.050781 6.316406-13.453125 0-9.359375-3.84375-30.28125-18.242187-49.324219-2.507813-3.320312-7.234375-3.976562-10.554687-1.464843-3.320313 2.511718-3.976563 7.238281-1.46875 10.558593 15.015624 19.855469 15.191406 40.027344 15.191406 40.230469 0 1.347656-1.097656 2.441406-2.445313 2.441406h-225.871093c-1.347657 0-2.441407-1.09375-2.441407-2.441406 0-.214844.191407-21.847656 16.851563-42.355469 10.796875-13.289062 25.730468-22.960937 44.625-28.96875.636718-.113281 1.246094-.304687 1.820312-.566406 11.855469-3.578125 25.222656-5.75 40.082032-6.5h.046874c.246094 0 .492188-.011719.734376-.035156 3.652343-.171875 7.382812-.265625 11.214843-.269531 31.019531.011718 56.527344 5.753906 75.816407 17.066406 3.589843 2.105468 8.207031.902344 10.3125-2.6875 2.105468-3.589844.902343-8.207032-2.6875-10.3125-21.628907-12.6875-49.703126-19.125-83.441407-19.140625-1.164062 0-2.316406.015625-3.464843.03125l7.070312-61.054688h3.132812c8.859376 0 16.070313-7.214843 16.070313-16.078125v-23.34375c0-8.863281-7.210937-16.074218-16.070313-16.074218h-15.207031l-3.683593-18.5c-1.242188-6.242188-6.695313-10.777344-12.972657-10.777344h-86.949219v-61.933594c0-.765625.421876-1.457031 1.019532-1.679688l43.355468-16.089843c3.902344-1.449219 5.890626-5.785157 4.441407-9.6875-1.445313-3.902344-5.789063-5.894531-9.6875-4.445313l-43.367188 16.097656c-6.480469 2.417969-10.835937 8.769532-10.835937 15.804688v61.933594h-87.882813c-6.273437 0-11.730469 4.535156-12.972656 10.777344l-3.683594 18.5h-15.203125c-8.863281 0-16.074218 7.210937-16.074218 16.074218v23.347656c0 8.863282 7.210937 16.074219 16.074218 16.074219h3.128906l33.574219 289.808594h-65.488281c-9.996094 0-18.125 8.132813-18.125 18.125v6.859375c0 9.992188 8.128906 18.125 18.125 18.125h407.234375c9.996094 0 18.125-8.132812 18.125-18.125v-6.859375c0-9.992187-8.128906-18.125-18.125-18.125zm-241.257813-117.5h219.308594c.515625 1.464844.789063 2.839844.789063 3.792969.003906 1.164062-.402344 2.015625-1.359375 2.839844-1.945313 1.683593-6.59375 3.296874-13.292969 2.316406-4.070313-.59375-6.066406-1.652344-8.597656-2.992188-3.511719-1.859375-7.882813-4.175781-16.171875-4.175781-8 0-12.453125 2.667969-15.707032 4.617187-2.578124 1.542969-4.132812 2.472657-7.964843 2.472657-3.835938 0-5.390625-.929688-7.96875-2.472657-3.25-1.949218-7.703125-4.617187-15.707031-4.617187-8.003907 0-12.457032 2.667969-15.710938 4.617187-2.574219 1.542969-4.128906 2.472657-7.964844 2.472657-3.835937 0-5.390625-.929688-7.964844-2.472657-3.253906-1.949218-7.707031-4.617187-15.710937-4.617187s-12.457031 2.667969-15.710937 4.617187c-2.574219 1.542969-4.128907 2.472657-7.964844 2.472657-3.835938 0-5.386719-.929688-7.964844-2.472657-3.253906-1.949218-7.707031-4.617187-15.710938-4.617187-8.285156 0-12.65625 2.316406-16.167968 4.175781-2.53125 1.339844-4.53125 2.398438-8.597656 2.992188-6.703126.980468-11.347657-.632813-13.292969-2.316406-.238281-.207032-.441407-.414063-.613281-.628907-.003907 0-.003907 0-.003907-.003906-.515625-.640625-.746093-1.335937-.746093-2.210937.007812-.949219.28125-2.324219.796874-3.789063zm205.667969 29.710937c-4.503906 0-8.898437 1.84375-12.050781 5.054688l-15.0625 15.332031c-2.472656 2.515625-6.503906 2.6875-9.183594.394531l-19.507812-16.71875c-3.058594-2.617187-6.964844-4.0625-10.992188-4.0625h-135.949218c-.671876-1.019531-1.6875-3.203124-2.28125-6.4375-.011719-.046874-.015626-.09375-.023438-.140624 4.621094 1.261718 9.890625 1.539062 15.429688.730468 6.640624-.972656 10.425781-2.976562 13.464843-4.585937 2.855469-1.511719 4.574219-2.421875 9.117188-2.421875 3.835937 0 5.390625.929687 7.964843 2.472656 3.253907 1.949219 7.707032 4.617188 15.710938 4.617188s12.457031-2.667969 15.710938-4.617188c2.574218-1.542969 4.128906-2.472656 7.964843-2.472656 3.832031 0 5.386719.929687 7.964844 2.472656 3.253906 1.949219 7.707031 4.617188 15.710937 4.617188 8 0 12.457032-2.667969 15.707032-4.617188 2.578125-1.542969 4.132812-2.472656 7.96875-2.472656 3.832031 0 5.386718.929687 7.964844 2.472656 3.25 1.949219 7.707031 4.617188 15.707031 4.617188 8.003906 0 12.457031-2.667969 15.710937-4.617188 2.574219-1.542969 4.128906-2.472656 7.964844-2.472656 4.542969 0 6.265625.910156 9.117188 2.421875 3.039062 1.609375 6.824218 3.613281 13.46875 4.585937 2.105468.308594 4.175781.460938 6.183593.460938 3.457031 0 6.726563-.472656 9.722657-1.34375.007812.445312.011718.894531.011718 1.34375 0 2.851562-1.273437 4.824218-1.964844 5.386718zm6.722657 15.074219v13.558594h-20.804688l12.785156-13.015625c.335938-.347656.8125-.542969 1.296875-.542969zm-57.019532 13.558594h-148.269531v-13.558594h131.769531c.4375 0 .859375.15625 1.1875.4375zm-158.605468 15.070313h225.875c1.34375 0 2.441406 1.097656 2.441406 2.445312 0 18.675781-11.65625 35.261719-29.117188 41.640625h-172.523437c-17.464844-6.378906-29.117188-22.960937-29.117188-41.640625 0-1.347656 1.09375-2.445312 2.441407-2.445312zm-.5 44.085937h-15.921876l-.808593-35.917969c1.320312 13.753906 7.351562 26.367188 16.730469 35.917969zm6.9375-191.175781c-1.277344 1.398437-2.527344 2.824218-3.722657 4.296875-15.96875 19.65625-20.230469 41.847656-20.230469 51.863281 0 5.363281 2.429688 10.167969 6.242188 13.386719-.867188 2.710937-1.355469 5.449219-1.355469 7.910156-.003906 2.792969.597657 5.46875 1.738281 7.90625-2.078124 9.179687.4375 20.316406 4.546876 26.453125.628906.9375 1.28125 1.734375 1.941406 2.433594-.214844 1.164062-.335938 2.347656-.335938 3.550781v14.886719c-6.761718 1.90625-11.875 7.761718-12.664062 14.914062l-5.542969-246.234375h31.597656zm44.128906-28.246094c-10.726563 3.761719-20.3125 8.652344-28.746094 14.664062l1.910156-85.050781h31.585938zm43.648437-8.660156c-10.035156.769531-19.453125 2.175781-28.242187 4.214844l4.449218-65.941407h30.945313zm-228.171875-76.800782c-.554687 0-1.003906-.449218-1.003906-1v-23.347656c0-.550781.449219-1 1.003906-1h47.039063c4.164062 0 7.535156-3.375 7.535156-7.535156 0-4.164062-3.371094-7.539062-7.535156-7.539062h-16.46875l2.828125-14.203126h186.828125l2.828125 14.203126h-140.949219c-4.164063 0-7.535156 3.375-7.535156 7.539062 0 4.160156 3.371093 7.535156 7.535156 7.535156h171.523437c.550782 0 1 .449219 1 1v23.347656c0 .550782-.449218 1-1 1zm102.457032 304.882813h-18.539063l-19.5625-289.808594h31.582031zm-84.152344-289.808594h30.941406l19.5625 289.808594h-16.933594zm363.195312 314.792969c0 1.683594-1.367187 3.050781-3.050781 3.050781h-407.234375c-1.683594 0-3.050781-1.367187-3.050781-3.050781v-6.859375c0-1.679687 1.367187-3.050781 3.050781-3.050781h407.234375c1.683594 0 3.054687 1.371094 3.054687 3.050781v6.859375zm0 0"/></svg>