<svg viewBox="0 0 512 512" xmlns="http://www.w3.org/2000/svg"><path d="m440.746094 81.722656c-9.113282 9.117188-17.410156 9.367188-27.914063 9.6875-11.601562.351563-24.75.75-38.070312 14.066406-13.324219 13.324219-13.722657 26.472657-14.074219 38.074219-.316406 10.503907-.566406 18.800781-9.683594 27.917969-9.113281 9.113281-17.410156 9.363281-27.917968 9.683594-11.601563.351562-24.746094.746094-38.070313 14.066406-13.320313 13.324219-13.71875 26.472656-14.070313 38.074219-.316406 10.503906-.566406 18.800781-9.683593 27.914062-9.113281 9.117188-17.414063 9.367188-27.917969 9.6875-11.601562.351563-24.75.75-38.070312 14.070313-13.324219 13.320312-13.71875 26.46875-14.074219 38.070312-.316407 10.503906-.566407 18.804688-9.683594 27.917969-9.113281 9.117187-17.414063 9.367187-27.917969 9.6875-11.601562.351563-24.75.75-38.074218 14.074219-13.324219 13.320312-13.722657 26.472656-14.074219 38.074218-.320313 10.503907-.570313 18.804688-9.6875 27.917969-2.929688 2.929688-2.929688 7.679688 0 10.609375 1.464843 1.460938 3.382812 2.195313 5.300781 2.195313 1.921875 0 3.839844-.734375 5.304688-2.195313 13.324218-13.324218 13.722656-26.472656 14.074218-38.074218.320313-10.507813.570313-18.804688 9.6875-27.921876 9.117188-9.117187 17.414063-9.367187 27.921875-9.6875 11.601563-.351562 24.75-.75 38.070313-14.074218 13.324218-13.320313 13.722656-26.46875 14.074218-38.066406.316407-10.507813.570313-18.804688 9.683594-27.921876 9.113282-9.113281 17.410156-9.363281 27.917969-9.683593 11.601563-.351563 24.75-.75 38.070313-14.070313 13.320312-13.320312 13.71875-26.46875 14.070312-38.070312.320312-10.503906.570312-18.804688 9.683594-27.917969 9.113281-9.113281 17.414062-9.363281 27.917968-9.683594 11.601563-.351562 24.75-.75 38.070313-14.070312 13.320313-13.320313 13.71875-26.46875 14.070313-38.070313.316406-10.503906.570312-18.804687 9.683593-27.917968 9.117188-9.113282 17.414063-9.367188 27.917969-9.683594 11.601562-.351563 24.75-.75 38.070312-14.070313 2.929688-2.929687 2.929688-7.679687 0-10.609375-2.925781-2.925781-7.675781-2.925781-10.605468 0zm0 0"/><path d="m488.351562 130.3125c-2.257812-2.257812-4.882812-4.011719-7.742187-5.210938l2.648437-2.648437c12.519532-12.519531 19.417969-29.167969 19.417969-46.875s-6.898437-34.355469-19.417969-46.875c-25.847656-25.84375-67.902343-25.847656-93.75 0l-2.667968 2.667969c-1.175782-2.824219-2.898438-5.46875-5.191406-7.761719-31.480469-31.480469-82.707032-31.480469-114.1875 0l-5.480469 5.480469c-2.929688 2.929687-2.925781 7.679687 0 10.605468 2.929687 2.929688 7.679687 2.929688 10.609375 0l5.476562-5.476562c25.632813-25.636719 67.339844-25.632812 92.976563-.003906 3.566406 3.570312 3.570312 9.378906.003906 12.949218l-11.171875 11.171876c-6.46875-5.113282-12.8125-7.566407-19.246094-7.515626-12.375.179688-21.324218 9.824219-29.21875 18.332032-1.789062 1.933594-3.480468 3.753906-5.199218 5.472656-1.25 1.253906-3.816407 1.59375-7.898438 2.050781-5.707031.636719-12.8125 1.425781-19.820312 6.597657-11.460938 8.457031-15.871094 16.0625-19.761719 22.769531-2.585938 4.457031-4.820313 8.308593-9.054688 12.542969-7.363281 7.363281-13.222656 10.28125-18.886719 13.101562-5.289062 2.636719-10.761718 5.363281-16.460937 11.0625-10.796875 10.796875-14.792969 20.808594-18.316406 29.640625-2.332031 5.855469-4.359375 10.929687-8.160157 15.421875-4.492187 3.800781-9.570312 5.828125-15.421874 8.160156-8.832032 3.523438-18.84375 7.519532-29.640626 18.316406-5.699218 5.699219-8.425781 11.171876-11.0625 16.460938-2.820312 5.664062-5.738281 11.523438-13.101562 18.886719-4.234375 4.238281-8.085938 6.46875-12.542969 9.054687-6.710937 3.890625-14.3125 8.300782-22.769531 19.765625-5.171875 7.003907-5.960938 14.109375-6.597656 19.820313-.457032 4.078125-.800782 6.644531-2.050782 7.898437-1.71875 1.714844-3.542968 3.40625-5.472656 5.199219-8.507812 7.894531-18.152344 16.839844-18.332031 29.214844-.089844 6.4375 2.382813 12.78125 7.511719 19.25l-11.164063 11.164062c-1.730469 1.730469-4.027343 2.683594-6.472656 2.683594-2.449219 0-4.746094-.953125-6.476563-2.683594-25.636718-25.632812-25.636718-67.34375 0-92.976562l213.65625-213.65625c2.929688-2.929688 2.929688-7.679688 0-10.605469-2.929687-2.929687-7.679687-2.929687-10.605468 0l-213.660156 213.65625c-15.25 15.25-23.648438 35.523437-23.648438 57.09375 0 21.566406 8.398438 41.84375 23.648438 57.09375 2.257812 2.257813 4.882812 4.011719 7.742187 5.210937l-2.648437 2.648438c-12.519532 12.523438-19.417969 29.167969-19.417969 46.875s6.898437 34.355469 19.417969 46.875c12.921874 12.925781 29.898437 19.386719 46.875 19.386719 16.976562 0 33.949218-6.460938 46.875-19.386719l2.652343-2.648438c1.195313 2.859376 2.949219 5.484376 5.207031 7.742188 15.742188 15.742188 36.417969 23.613281 57.09375 23.609375 20.675782 0 41.355469-7.871094 57.09375-23.609375l5.480469-5.476562c2.929688-2.929688 2.929688-7.679688 0-10.609376-2.929687-2.929687-7.679687-2.925781-10.609375 0l-5.476562 5.480469c-25.632813 25.632813-67.339844 25.632813-92.976563 0-1.726562-1.730469-2.679687-4.03125-2.679687-6.476562 0-2.441407.949218-4.738281 2.671875-6.46875l11.171875-11.171875c6.351562 5.035156 12.582031 7.515625 18.898437 7.515625.117188 0 .234375-.003907.351563-.003907 12.375-.179687 21.324218-9.824218 29.21875-18.332031 1.789062-1.929687 3.480468-3.753906 5.199218-5.46875 1.253907-1.253906 3.816407-1.597656 7.898438-2.050781 5.707031-.636719 12.816406-1.429688 19.820312-6.597656 11.460938-8.460938 15.871094-16.0625 19.761719-22.773438 2.585938-4.457031 4.820313-8.308594 9.054688-12.539062 7.363281-7.367188 13.222656-10.285156 18.886719-13.105469 5.292968-2.636719 10.761718-5.359375 16.460937-11.058594 10.796875-10.800781 14.792969-20.808593 18.316406-29.640625 2.335938-5.855468 4.359375-10.933594 8.160157-15.425781 4.496093-3.800781 9.570312-5.824219 15.421874-8.160156 8.832032-3.523438 18.84375-7.519531 29.644532-18.316407 5.695312-5.699218 8.421875-11.167968 11.058594-16.460937 2.820312-5.664063 5.738281-11.519531 13.105468-18.886719 4.234375-4.234375 8.082032-6.46875 12.539063-9.054687 6.710937-3.890625 14.3125-8.300781 22.773437-19.761719 5.167969-7.007812 5.960938-14.113281 6.597656-19.820312.453126-4.082032.796876-6.648438 2.050782-7.898438 1.714844-1.71875 3.539062-3.410156 5.46875-5.199219 8.507812-7.894531 18.152344-16.84375 18.332031-29.21875.09375-6.4375-2.382813-12.78125-7.511719-19.25l11.160156-11.15625c0-.003906.003907-.003906.003907-.003906 1.730469-1.730469 4.03125-2.6875 6.476562-2.6875 2.445313 0 4.746094.953125 6.476563 2.6875 25.632812 25.632813 25.632812 67.339844 0 92.972656l-213.660156 213.65625c-2.929688 2.929688-2.929688 7.679688 0 10.609375 1.464843 1.460938 3.386718 2.195313 5.304687 2.195313s3.839844-.734375 5.300781-2.195313l213.660156-213.65625c15.25-15.253906 23.648438-35.527344 23.648438-57.097656 0-21.566406-8.398438-41.84375-23.648438-57.09375zm-408.957031 192.054688c1.945313-1.804688 3.957031-3.671876 5.875-5.589844 5.035157-5.03125 5.734375-11.304688 6.351563-16.839844.527344-4.730469.980468-8.8125 3.761718-12.578125 6.605469-8.957031 11.988282-12.078125 18.226563-15.695313 4.6875-2.71875 10-5.800781 15.621094-11.421874 9.09375-9.09375 12.882812-16.695313 15.925781-22.804688 2.382812-4.789062 4.269531-8.570312 8.238281-12.542969 8.617188-8.617187 16.375-11.710937 24.59375-14.992187 6.6875-2.667969 13.601563-5.425782 20.121094-11.128906.25-.21875.484375-.453126.703125-.707032 5.707031-6.519531 8.464844-13.433594 11.132812-20.121094 3.277344-8.214843 6.375-15.972656 14.992188-24.589843 3.96875-3.96875 7.75-5.855469 12.542969-8.238281 6.105469-3.046876 13.707031-6.832032 22.804687-15.925782 5.621094-5.621094 8.703125-10.933594 11.421875-15.625 3.613281-6.230468 6.738281-11.617187 15.691407-18.226562 3.765624-2.777344 7.847656-3.230469 12.578124-3.757813 5.535157-.617187 11.808594-1.316406 16.84375-6.355469 1.914063-1.914062 3.78125-3.925781 5.585938-5.871093 6.417969-6.917969 12.480469-13.449219 18.441406-13.535157 2.5-.082031 5.261719 1.039063 8.332032 3.214844l-280.105469 280.105469c-2.171875-3.070313-3.25-5.855469-3.214844-8.332031.085937-5.960938 6.621094-12.023438 13.535156-18.441406zm353.210938-132.8125c-1.945313 1.804687-3.957031 3.671874-5.875 5.585937v.003906c-5.035157 5.035157-5.734375 11.308594-6.351563 16.839844-.527344 4.730469-.980468 8.816406-3.757812 12.578125-6.609375 8.957031-11.992188 12.078125-18.226563 15.695312-4.691406 2.71875-10.003906 5.800782-15.625 11.421876-9.09375 9.09375-12.882812 16.695312-15.921875 22.804687-2.386718 4.789063-4.273437 8.574219-8.242187 12.542969-8.617188 8.617187-16.375 11.714844-24.59375 14.992187-6.6875 2.667969-13.601563 5.425781-20.121094 11.128907-.25.21875-.484375.453124-.703125.707031-5.707031 6.519531-8.464844 13.433593-11.132812 20.121093-3.277344 8.214844-6.375 15.976563-14.992188 24.589844-3.96875 3.972656-7.75 5.855469-12.542969 8.242188-6.105469 3.042968-13.707031 6.828125-22.804687 15.921875-5.621094 5.621093-8.703125 10.9375-11.421875 15.625-3.613281 6.234375-6.738281 11.617187-15.691407 18.226562-3.765624 2.777344-7.847656 3.230469-12.578124 3.757813-5.535157.617187-11.808594 1.316406-16.84375 6.351562-1.914063 1.917969-3.78125 3.929688-5.585938 5.875-6.417969 6.917969-12.480469 13.449219-18.441406 13.535156-2.492188.0625-5.261719-1.039062-8.332032-3.210937l280.105469-280.105469c2.171875 3.066406 3.25 5.855469 3.214844 8.332032-.085937 5.957031-6.617187 12.019531-13.535156 18.4375zm40.046875-77.710938-360.765625 360.769531c-20 19.996094-52.539063 19.996094-72.539063 0-9.6875-9.6875-15.023437-22.566406-15.023437-36.269531 0-13.699219 5.335937-26.578125 15.023437-36.265625l360.765625-360.769531c10-9.996094 23.136719-14.996094 36.269531-14.996094 13.136719 0 26.269532 5 36.269532 14.996094 9.6875 9.691406 15.023437 22.570312 15.023437 36.269531s-5.335937 26.578125-15.023437 36.265625zm0 0"/></svg>