<svg viewBox="0 0 512.00111 512" xmlns="http://www.w3.org/2000/svg"><path d="m506.445312 208.679688c0-.003907-.003906-.007813-.003906-.011719-.308594-.835938-.625-1.683594-.957031-2.539063-.03125-.074218-.058594-.152344-.089844-.226562-.308593-.789063-.628906-1.589844-.957031-2.394532-.058594-.140624-.117188-.285156-.179688-.425781-.308593-.746093-.625-1.5-.953124-2.257812-.089844-.207031-.183594-.414063-.273438-.625-.308594-.707031-.625-1.417969-.949219-2.132813-.121093-.261718-.242187-.523437-.359375-.785156-.3125-.679688-.628906-1.363281-.957031-2.050781-.140625-.296875-.285156-.597657-.429687-.898438-.316407-.664062-.640626-1.332031-.976563-2.003906-.160156-.328125-.324219-.65625-.488281-.984375-.332032-.660156-.664063-1.324219-1.007813-1.992188-.171875-.335937-.351562-.675781-.523437-1.011718-.234375-.445313-.457032-.890625-.695313-1.339844-.132812-.25-.269531-.5-.402343-.75-.046876-.085938-.089844-.171875-.136719-.257812-.089844-.167969-.183594-.335938-.273438-.5-.367187-.683594-.738281-1.371094-1.113281-2.058594-.136719-.242188-.273438-.492188-.410156-.738282-.390625-.707031-.789063-1.414062-1.191406-2.125-.125-.222656-.253907-.445312-.382813-.671874-.417969-.734376-.84375-1.472657-1.277344-2.214844-.113281-.195313-.230469-.394532-.347656-.59375-.453125-.769532-.910156-1.546875-1.375-2.320313-.097656-.164062-.199219-.332031-.296875-.496093-.488281-.8125-.984375-1.628907-1.488281-2.445313-.074219-.121094-.152344-.246094-.226563-.367187-.53125-.859376-1.070312-1.722657-1.613281-2.585938-.054687-.085938-.105469-.167969-.160156-.25-.570313-.90625-1.152344-1.816406-1.742188-2.726562-.023437-.035157-.046875-.074219-.070312-.109376-12.03125-18.605468-27.34375-38.1875-44.957031-57.472656-.011719-.011718-.027344-.027344-.035157-.039062-.914062-1-1.832031-1.996094-2.757812-2.996094-.09375-.101562-.191407-.203125-.285157-.308594-.84375-.90625-1.6875-1.8125-2.542968-2.714844-.222656-.242187-.453125-.476562-.675782-.71875-.730468-.769531-1.457031-1.539062-2.195312-2.308593-.375-.394531-.757812-.789063-1.136719-1.183594-.589843-.613281-1.175781-1.226563-1.773437-1.839844-.644532-.667969-1.296875-1.332031-1.953125-2-.332031-.339843-.660157-.679687-.996094-1.019531-.996094-1.007812-1.996094-2.015625-3-3.023438-1.003906-1.003906-2.011719-2.003906-3.019531-2.996093-.636719-.625-1.273438-1.246094-1.914063-1.867188-.371093-.363281-.742187-.730469-1.113281-1.089843-.761719-.742188-1.527344-1.476563-2.292969-2.207032-.246093-.238281-.496093-.480468-.742187-.71875-.996094-.949218-1.992188-1.894531-2.988282-2.832031-.015624-.015625-.027343-.027344-.042968-.039063-21.328125-20.078124-43.1875-37.449218-63.832032-50.765624-.007812-.007813-.015624-.011719-.023437-.015626-.949219-.609374-1.890625-1.210937-2.832031-1.804687-.046875-.027344-.089844-.054687-.132813-.082031-.898437-.566406-1.792969-1.125-2.683593-1.671875-.089844-.054688-.179688-.109375-.269532-.164063-.851562-.523437-1.695312-1.035156-2.542968-1.542968-.128907-.078126-.261719-.160157-.390626-.234376-.804687-.484374-1.609374-.957031-2.414062-1.425781-.164062-.097656-.332031-.199219-.496094-.292969-.769531-.449218-1.539062-.886718-2.304687-1.324218-.195313-.109375-.390625-.222656-.582031-.332032-.746094-.421874-1.484376-.832031-2.226563-1.238281-.210937-.117187-.421875-.238281-.632813-.351562-.71875-.398438-1.4375-.785157-2.15625-1.167969-.167968-.089844-.34375-.1875-.511718-.277344-.054688-.027344-.105469-.054687-.15625-.082031-.175782-.09375-.355469-.191406-.535156-.285156-.550782-.292969-1.09375-.570313-1.640626-.851563-.300781-.15625-.601562-.3125-.898437-.46875-.714844-.363281-1.421875-.71875-2.128906-1.070312-.28125-.140625-.566407-.285156-.847657-.421875-.722656-.359375-1.441406-.703125-2.15625-1.042969-.253906-.121094-.503906-.242188-.753906-.363281-.746094-.351563-1.484375-.691407-2.222656-1.027344-.207031-.09375-.417969-.191406-.625-.285156-.773438-.351563-1.542969-.6875-2.304688-1.019531-.160156-.070313-.320312-.140626-.480468-.210938-.808594-.347656-1.613282-.6875-2.414063-1.015625-.097656-.039063-.199219-.082031-.300781-.125-.851562-.347656-1.691406-.679687-2.527344-1.003906-.042968-.015625-.089844-.035157-.132812-.050781-22.4375-8.660157-39.285156-8.550782-49.371094.464843-7.808594 5.683594-15.179688 12.03125-21.917969 18.863281-24.777343 25.132813-41.394531 56.667969-48.050781 91.203126-8.8125 45.707031-23.910156 89.433593-44.871094 129.964843-11.269531 21.792969-8.28125 47.816407 7.132813 66.578125l-81.429688 81.429688c-15.433593-13.605469-38.523437-13.441406-53.773437.402344-8.285156 7.515624-12.996094 17.800781-13.2656252 28.953124-.2695308 11.160157 3.9296872 21.648438 11.8203122 29.539063 10.085938 10.085937 22.566407 13.691406 36.167969 10.46875-3.132812 13.691406.378906 26.078125 10.199219 35.898437 7.652343 7.652344 17.75 11.832032 28.527343 11.832032.335938 0 .667969-.003906 1.003907-.011719 11.152343-.265625 21.429687-4.972656 28.953125-13.25 13.851562-15.25 14.019531-38.34375.410156-53.789063l17.742188-17.738281c2.964843-2.972656 2.964843-7.78125 0-10.75-2.972657-2.96875-7.78125-2.96875-10.75 0l-18.179688 18.175781c-5.488281 5.496094-5.691406 14.316407-.453125 20.097657l.175781.195312c8.402344 9.464844 8.3125 24.21875-.199218 33.585938-4.695313 5.171875-11.109376 8.113281-18.0625 8.277343-6.929688.179688-13.5-2.449218-18.421876-7.371093-6.3125-6.308594-8.238281-13.753907-5.886718-22.757813 1.308594-5.003906-.097656-10.15625-3.753906-13.785156-3.664063-3.632812-8.839844-4.992188-13.839844-3.644531-8.851563 2.390625-16.335938.367187-22.886719-6.179688-4.921875-4.921875-7.539063-11.464843-7.371094-18.425781.167969-6.953125 3.109375-13.371094 8.285157-18.066406 9.371093-8.503906 24.121093-8.589844 33.585937-.183594l.195313.175781c5.773437 5.230469 14.59375 5.027344 20.09375-.464843l81.640624-81.644532 28.546876 28.546875-38.21875 38.21875c-2.96875 2.96875-2.96875 7.78125 0 10.75 1.484374 1.480469 3.429687 2.222657 5.375 2.222657 1.945312 0 3.890624-.742188 5.375-2.222657l38.429687-38.429687c11.152344 9.175781 24.875 13.953125 38.75 13.953125 9.46875 0 19.007813-2.222657 27.847656-6.789063 40.542969-20.953125 84.3125-36.074218 130.101563-44.941406 34.917968-6.761719 66.71875-23.679688 91.964844-48.925781 6.570312-6.570313 12.675781-13.710938 18.152343-21.226563 8.527344-9.769531 8.855469-25.757812 1.113281-46.917968zm-12.648437 36.996093c-.117187.132813-.234375.269531-.359375.394531-13.109375 13.113282-74.675781-11.878906-145.152344-82.359374-25.6875-25.683594-47.53125-52.539063-63.171875-77.664063-2.21875-3.566406-6.90625-4.65625-10.46875-2.4375s-4.652343 6.90625-2.433593 10.46875c16.242187 26.097656 38.832031 53.890625 65.324218 80.382813 32.34375 32.34375 66.734375 58.914062 96.835938 74.8125 17.050781 9.007812 31.71875 14.066406 43.652344 15.140624-.53125.550782-1.050782 1.117188-1.589844 1.65625-23.09375 23.09375-52.175782 38.570313-84.105469 44.753907-47.214844 9.144531-92.363281 24.738281-134.191406 46.359375-17.703125 9.148437-39.148438 5.734375-53.375-8.492188l-41.425781-41.425781c-14.234376-14.230469-17.640626-35.6875-8.484376-53.394531 21.632813-41.824219 37.207032-86.929688 46.292969-134.066406 6.089844-31.578126 21.285157-60.421876 43.953125-83.410157.832032-.84375 1.675782-1.679687 2.527344-2.503906.648438 7.453125 2.886719 16.585937 7.539062 27.789063 1.605469 3.875 6.050782 5.71875 9.933594 4.105468 3.875-1.605468 5.714844-6.054687 4.105469-9.933594-7.453125-17.953124-8.675781-31.898437-3.277344-37.296874.070313-.070313.152344-.136719.226563-.207032.015625-.011718.03125-.019531.042968-.03125 2.046876-1.890625 5.542969-3.082031 10.585938-3.082031 1.003906 0 2.082031.054687 3.210938.152344 14.4375 1.382812 37.320312 11.082031 64.851562 29.8125 18.699219 12.757812 38.300781 28.8125 57.4375 47.109375.039062.039062.078125.074218.117188.113281.894531.855469 1.789062 1.71875 2.679687 2.582031.375.367188.753906.734375 1.128906 1.101563.605469.589843 1.207031 1.179687 1.8125 1.773437 1.015625 1 2.039063 2.011719 3.0625 3.035156 1.019531 1.019532 2.027344 2.039063 3.027344 3.054688.605469.609375 1.203125 1.222656 1.800781 1.839844.351563.359375.707032.722656 1.054688 1.082031.890625.914063 1.773437 1.835937 2.652344 2.753906.003906.003907.011718.007813.015624.011719 18.390626 19.230469 34.53125 38.949219 47.332032 57.742188.289062.425781.582031.851562.867187 1.273437.09375.140625.1875.28125.28125.417969 17.835938 26.617187 27.109375 48.730468 28.488281 62.832031.601563 6.734375-.605468 11.269531-2.804687 13.753906zm0 0"/><path d="m459.507812 189.878906c-14.738281-24.023437-36.578124-50.976562-61.496093-75.894531-24.917969-24.921875-51.875-46.761719-75.894531-61.496094-2.355469-1.441406-4.710938-2.839843-7.011719-4.148437-5.636719-3.203125-12.5-2.273438-17.082031 2.3125-4.585938 4.585937-5.515626 11.453125-2.3125 17.085937 1.308593 2.296875 2.703124 4.65625 4.148437 7.007813 14.734375 24.023437 36.574219 50.976562 61.492187 75.894531 24.921876 24.921875 51.875 46.761719 75.894532 61.496094 2.355468 1.441406 4.714844 2.839843 7.011718 4.148437 2.234376 1.269532 4.664063 1.890625 7.066407 1.890625 3.652343 0 7.25-1.4375 10.019531-4.203125 4.585938-4.585937 5.515625-11.453125 2.308594-17.085937-1.308594-2.296875-2.703125-4.652344-4.144532-7.007813zm-14.3125 9.300782c-23.035156-14.128907-48.992187-35.183594-73.09375-59.285157-24.101562-24.101562-45.15625-50.058593-59.285156-73.09375-.699218-1.136719-1.382812-2.273437-2.046875-3.402343 1.125.667968 2.261719 1.351562 3.398438 2.050781 23.035156 14.128906 48.996093 35.183593 73.09375 59.285156 24.101562 24.097656 45.15625 50.054687 59.285156 73.09375.699219 1.136719 1.382813 2.269531 2.050781 3.398437-1.128906-.664062-2.265625-1.347656-3.402344-2.046874zm0 0"/></svg>