<svg viewBox="0 -118 512.00085 512" xmlns="http://www.w3.org/2000/svg"><path d="m494.144531 166.597656c-7.71875-15.277344-17.523437-30.101562-28.429687-43.113281.890625-14.769531-4.285156-28.183594-15.414063-39.171875-22-21.730469-51.601562-34.59375-73.6875-41.753906-5.265625-10.429688-13.433593-18.769532-24.382812-24.742188-29.558594-16.117187-59.183594-17.578125-94.820313-17.816406h-.738281c-35.058594.222656-66.542969 1.714844-96.828125 17.777344-10.929688 5.792968-19.148438 14.175781-24.460938 24.6875-28.886718 8.578125-54.957031 23.347656-73.6875 41.84375-11.128906 10.992187-16.300781 24.40625-15.40625 39.175781-10.910156 13.007813-20.714843 27.835937-28.433593 43.113281-4.382813 8.667969-25.679688 53.464844-14.792969 84.214844 3.671875 10.378906 10.539062 17.886719 20.40625 22.324219 4.695312 2.109375 9.453125 3.039062 14.222656 3.039062 22.164063 0 44.570313-20.097656 61.75-35.507812 4.265625-3.824219 8.292969-7.4375 11.589844-10.046875 7.519531-5.953125 13.820312-10.816406 19.550781-15.09375 8.089844 2.652344 15.847657 4.042968 22.929688 4.042968 2.863281 0 5.621093-.226562 8.242187-.683593 15.148438-2.636719 30.46875-6.09375 45.28125-9.433594l3.804688-.859375c13.019531 4.410156 24.933594 4.625 37.519531 4.839844 2.734375.046875 5.535156.097656 8.433594.1875.078125.003906.160156.003906.238281.003906s.160156 0 .238281-.003906c3.042969-.097656 5.941407-.132813 8.746094-.167969 11.980469-.152344 22.394531-.296875 35.167969-4.84375 15.828125 3.90625 32.332031 7.363281 49.0625 10.277344 2.625.457031 5.378906.683593 8.246094.683593 7.082031 0 14.839843-1.390624 22.929687-4.039062 5.738281 4.285156 12.039063 9.148438 19.542969 15.085938.847656.671874 1.730468 1.394531 2.640625 2.167968 1.417969 1.195313 3.148437 1.777344 4.867187 1.777344 2.152344 0 4.285156-.910156 5.777344-2.679688 2.691406-3.1875 2.289062-7.957031-.902344-10.644531-1.039062-.875-2.039062-1.699219-3.003906-2.464843-4.679688-3.703126-8.894531-6.992188-12.816406-9.996094 4.066406-2.070313 8.160156-4.410156 12.238281-7.039063 20.722656-13.351562 38.101563-31.667969 47.679687-50.253906 1.5625-3.035156 2.898438-6.042969 4.023438-9.019531 7.230469 9.71875 13.765625 20.210937 19.191406 30.949218 8.660156 17.136719 21.363282 51.664063 14.035156 72.359376-2.273437 6.425781-6.316406 10.867187-12.359374 13.582031-10.21875 4.597656-23.753907-.238281-42.59375-15.210938-3.265626-2.597656-8.015626-2.054687-10.613282 1.210938-2.59375 3.265625-2.050781 8.019531 1.214844 10.613281 11.613281 9.230469 27.664062 20.167969 44.070312 20.167969 4.710938 0 9.449219-.902344 14.117188-3 9.867188-4.4375 16.734375-11.945313 20.40625-22.324219 10.886719-30.746094-10.410156-75.546875-14.792969-84.214844zm-392.488281 52.179688c-3.664062 2.898437-7.859375 6.660156-12.300781 10.644531-16.789063 15.058594-42.15625 37.820313-59.691407 29.933594-6.042968-2.714844-10.085937-7.15625-12.359374-13.582031-7.328126-20.695313 5.375-55.222657 14.035156-72.359376 5.425781-10.738281 11.960937-21.234374 19.195312-30.949218 1.121094 2.972656 2.457032 5.976562 4.019532 9.007812 9.578124 18.589844 26.957031 36.90625 47.683593 50.261719 4.082031 2.628906 8.171875 4.96875 12.238281 7.039063-3.917968 3.003906-8.136718 6.292968-12.820312 10.003906zm196.515625-25.167969c-.117187.042969-.234375.089844-.351563.140625-.191406.074219-.382812.15625-.570312.226562-10.941406 4.113282-19.980469 4.226563-31.425781 4.375-2.800781.035157-5.695313.070313-8.792969.164063-2.886719-.089844-5.683594-.136719-8.414062-.183594-12.230469-.207031-22.792969-.386719-33.976563-4.394531-.140625-.050781-.285156-.117188-.429687-.167969-.027344-.015625-.058594-.023437-.089844-.035156-21.828125-8.191406-48.429688-41.15625-62.089844-77.058594-1.480469-3.902343-5.847656-5.859375-9.746094-4.375-3.898437 1.484375-5.855468 5.847657-4.375 9.746094 11.847656 31.136719 32.359375 59.703125 53.054688 75.527344-10.578125 2.339843-21.277344 4.601562-31.804688 6.433593-1.859375.324219-3.8125.480469-5.84375.480469-27.46875-.003906-69.214844-28.652343-85.335937-59.933593-7.042969-13.671876-12.011719-33.355469 4.328125-49.492188 14.800781-14.613281 34.792968-26.703125 57.238281-34.789062-1.40625 7.816406-1.660156 16.363281-.683594 25.539062.441407 4.148438 4.160157 7.15625 8.308594 6.714844s7.15625-4.164063 6.714844-8.3125c-1.316407-12.386719-.1875-22.953125 3.351562-31.648438.300781-.515625.535157-1.066406.707031-1.640625 3.878907-8.527343 10.207032-15.152343 18.972657-19.800781 27.308593-14.480469 55.644531-15.796875 89.933593-16.015625h.4375c33.507813.222656 61.242188 1.542969 87.710938 15.976563 8.746094 4.765624 15.0625 11.488281 18.945312 20.078124.117188.351563.257813.691407.425782 1.015626 3.410156 8.066406 4.761718 17.710937 3.976562 28.929687-2.695312 38.636719-36.136718 98.84375-70.175781 112.5zm145.84375-49.046875c-17.308594 33.59375-64.171875 64.148438-91.175781 59.445312-10.832032-1.890624-21.5625-4.011718-32.070313-6.335937 11.945313-9.082031 23.925781-22.441406 34.519531-38.75 16.214844-24.972656 26.46875-52.949219 28.132813-76.761719.539063-7.703125.210937-14.894531-.945313-21.542968 18.691407 7.03125 40.539063 17.980468 57.210938 34.445312 16.34375 16.136719 11.375 35.828125 4.328125 49.5zm0 0"/></svg>