<svg viewBox="0 -5 511.99935 511" xmlns="http://www.w3.org/2000/svg"><path d="m177.382812 120.605469c-1.980468 7.339843-6.234374 12.121093-6.242187 12.132812-2.816406 3.039063-2.632813 7.78125.40625 10.597657 1.441406 1.335937 3.269531 1.996093 5.09375 1.996093 2.015625 0 4.023437-.808593 5.503906-2.402343 8.675781-9.371094 19.9375-33.820313.449219-59.265626-6-7.832031-8.644531-14.957031-7.652344-20.601562.402344-2.285156 1.355469-4.121094 2.363282-5.503906 1.753906-2.40625 1.792968-5.65625.25-8.199219-2.757813-4.546875-9.289063-4.882813-12.417969-.578125-2.074219 2.859375-3.992188 6.59375-4.890625 11.265625-1.941406 10.140625 1.570312 21.15625 10.441406 32.738281 6.964844 9.09375 9.21875 18.453125 6.695312 27.820313zm0 0"/><path d="m336.261719 120.605469c-1.976563 7.339843-6.234375 12.121093-6.242188 12.132812-2.816406 3.039063-2.632812 7.78125.40625 10.597657 1.441407 1.335937 3.269531 1.996093 5.09375 1.996093 2.015625 0 4.027344-.808593 5.503907-2.402343 8.675781-9.371094 19.9375-33.820313.449218-59.265626-6-7.832031-8.644531-14.957031-7.652344-20.601562.4375-2.464844 1.507813-4.40625 2.605469-5.824219 1.691407-2.1875 2.003907-5.140625.851563-7.652343-2.308594-5.035157-9.167969-5.964844-12.601563-1.617188-2.390625 3.023438-4.574219 6.992188-5.546875 12.078125-1.945312 10.140625 1.566406 21.15625 10.4375 32.738281 6.964844 9.09375 9.21875 18.453125 6.695313 27.820313zm0 0"/><path d="m256.820312 75.664062c-1.976562 7.339844-6.230468 12.121094-6.242187 12.132813-2.8125 3.039063-2.632813 7.78125.40625 10.597656 1.445313 1.335938 3.273437 1.996094 5.09375 1.996094 2.019531 0 4.027344-.808594 5.503906-2.402344 8.679688-9.371093 19.941407-33.820312.453125-59.265625-6.003906-7.832031-8.648437-14.957031-7.652344-20.601562.410157-2.339844 1.398438-4.207032 2.433594-5.601563 1.722656-2.324219 2.027344-5.398437.699219-7.96875-2.53125-4.90625-9.296875-5.46875-12.636719-1.074219-2.226562 2.933594-4.261718 6.773438-5.191406 11.628907-1.945312 10.140625 1.566406 21.15625 10.4375 32.738281 6.96875 9.09375 9.21875 18.453125 6.695312 27.820312zm0 0"/><path d="m502.722656 197.753906c-3.265625-3.726562-5.089844-8.558594-5.132812-13.597656-.132813-15.296875-10.46875-30.390625-22.113282-32.296875-10.613281-1.730469-22.121093 6.800781-35.890624 26.757813-11.890626-8.007813-26.703126-11.453126-41.699219-8.871094-1.117188-.027344-2.226563.203125-3.242188.65625-.464843.105468-.929687.203125-1.394531.320312-14.191406 3.632813-28.417969 6.699219-42.664062 9.203125-.574219.03125-1.140626.121094-1.691407.28125-14.796875 2.550781-29.617187 4.488281-44.445312 5.820313-.574219-.015625-1.144531.03125-1.703125.148437-14.707032 1.273438-29.425782 1.949219-44.140625 2.023438-.65625-.082031-1.320313-.074219-1.972657.015625-14.371093.019531-28.742187-.53125-43.105468-1.652344-.699219-.164062-1.421875-.222656-2.136719-.183594-14.183594-1.164062-28.359375-2.886718-42.515625-5.167968-.601562-.179688-1.21875-.28125-1.839844-.308594-14.183594-2.332032-28.34375-5.226563-42.472656-8.679688-.097656-.027344-.191406-.050781-.285156-.070312-1.699219-.417969-3.398438-.824219-5.097656-1.257813-16.65625-4.238281-33.4375-.96875-46.679688 7.84375-13.804688-20.046875-25.332031-28.617187-35.976562-26.878906-11.644532 1.90625-21.980469 16.996094-22.113282 32.296875-.042968 5.039062-1.867187 9.867188-5.128906 13.597656-10.097656 11.539063-12.347656 29.734375-4.808594 38.941406 3.992188 4.878907 10.535156 7.308594 20.003906 7.308594 6.511719 0 14.414063-1.15625 23.8125-3.457031 1.136719 4.78125 2.878907 9.4375 5.226563 13.84375 7.621094 14.296875 20.972656 24.789063 36.632813 28.785156 3.167968.804688 6.359374 1.597657 9.484374 2.347657 4.027344.96875 8.074219-1.515626 9.042969-5.542969.964844-4.027344-1.515625-8.074219-5.542969-9.042969-3.058593-.734375-6.175781-1.503906-9.277343-2.296875-11.753907-3-21.378907-10.566406-27.105469-21.308594-5.683594-10.664062-6.625-23.308593-2.578125-34.695312 2.371094-6.667969 6.207031-12.398438 11.03125-16.9375.417969-.308594.792969-.652344 1.128906-1.027344 8.617188-7.546875 20.097657-11.457031 31.984375-10.441406-4.105468 6.3125-7.007812 13.925781-8.222656 22.007812-.613281 4.097657 2.207031 7.914063 6.300781 8.53125.378907.054688.753907.082031 1.125.082031 3.648438 0 6.847657-2.667968 7.40625-6.386718 1.238281-8.230469 4.863281-15.875 9.714844-20.785156 9.441406 2.246093 18.902344 4.238281 28.367187 5.996093-3.800781 6.667969-6.265624 14.625-6.949218 22.949219-.335938 4.128906 2.734375 7.746094 6.863281 8.085938.207031.019531.414063.023437.621094.023437 3.863281 0 7.144531-2.964844 7.464843-6.886719.679688-8.289062 3.769532-16.15625 8.261719-21.386718 9.710938 1.519531 19.425781 2.769531 29.152344 3.773437-3.285156 6.871094-5.179687 14.90625-5.300781 23.183594-.0625 4.140625 3.25 7.550781 7.390625 7.609375h.109375c4.089844 0 7.4375-3.285156 7.496094-7.390625.121093-8.339844 2.683593-16.414063 6.824218-21.9375 9.894532.730469 19.792969 1.191406 29.695313 1.394531-2.765625 7.027344-4.085938 15.097656-3.652344 23.292969.210937 4.003906 3.519531 7.105469 7.480469 7.105469.132812 0 .265625-.003907.402344-.011719 4.132812-.21875 7.3125-3.746094 7.09375-7.882813-.441407-8.363281 1.589843-16.628906 5.375-22.421875 10.121093-.097656 20.234374-.457031 30.347656-1.109375-2.226563 7.140625-2.976563 15.191406-2.003906 23.25.460937 3.808594 3.695312 6.601563 7.4375 6.601563.296874 0 .601562-.019531.90625-.054688 4.109374-.496093 7.042968-4.230469 6.546874-8.34375-1.007812-8.339843.476563-16.753906 3.890626-22.789062 10.179687-.964844 20.347656-2.21875 30.507812-3.742188-1.699219 7.222657-1.886719 15.226563-.390625 23.128907.683594 3.597656 3.828125 6.101562 7.359375 6.101562.464844 0 .933594-.042969 1.40625-.132812 4.070312-.769532 6.742188-4.695313 5.972656-8.765626-1.574218-8.292968-.644531-16.832031 2.402344-23.09375 10.199219-1.835937 20.390625-3.957031 30.566406-6.359374-1.167968 7.25-.800781 15.164062 1.203125 22.859374.878907 3.371094 3.921875 5.609376 7.253907 5.609376.625 0 1.261718-.082032 1.894531-.246094 4.007812-1.042969 6.410156-5.140625 5.363281-9.148438-2.078125-7.980468-1.777344-16.351562.6875-22.75 12.261719-1.441406 24.1875 2.511719 32.996094 10.367188.335937.382812.714844.730468 1.136718 1.042968 4.597657 4.417969 8.261719 9.953126 10.542969 16.375l.507813 1.425782c3.96875 11.171875 3.050781 23.582031-2.519532 34.046875-5.621093 10.566406-15.089843 18.019531-26.652343 20.984375-92.960938 23.839844-187.714844 27.109375-281.621094 9.714844-4.070313-.757813-7.984375 1.933593-8.738281 6.007812-.757813 4.070312 1.933594 7.984375 6.003906 8.738281 21.28125 3.941407 42.597656 6.835938 63.929688 8.703125v2.8125c0 15.867188 5.503906 31.394532 15.5 43.722656.199218.246094.410156.476563.640624.695313 7.042969 6.742187 13.007813 11.253906 17.84375 13.523437l-4.46875 122.734376c-.15625 4.292968 1.398438 8.355468 4.378907 11.445312 2.980469 3.09375 6.984375 4.796875 11.277343 4.796875h25.101563c4.296875 0 8.300781-1.703125 11.28125-4.796875 2.980469-3.089844 4.535156-7.152344 4.378906-11.445312l-.636719-17.523438c-.152343-4.140625-3.65625-7.371094-7.769531-7.222656-4.140625.152344-7.371093 3.628906-7.21875 7.769531l.636719 17.523437c.003906.070313.011719.285157-.1875.492188-.199219.203125-.414062.203125-.484375.203125h-25.097656c-.070313 0-.285157 0-.484375-.203125-.195313-.207031-.1875-.421875-.1875-.492188l4.429687-121.5625h17.585938l2.515625 68.992188c.148437 4.140625 3.632812 7.351562 7.765625 7.222656 4.140625-.148437 7.371093-3.628906 7.222656-7.769531l-2.558594-70.164063c4.835938-2.269531 10.800781-6.78125 17.847657-13.523437.226562-.21875.441406-.449219.640624-.695313 9.992188-12.328124 15.496094-27.855468 15.496094-43.722656v-2.820312c36.402344-3.195313 72.6875-9.390625 108.703125-18.628906 15.46875-3.96875 28.652344-14.339844 36.167969-28.464844 2.355469-4.425782 4.101562-9.113282 5.21875-13.925782 9.351562 2.28125 17.222656 3.433594 23.710938 3.433594 9.464843 0 16.011718-2.433594 20.003906-7.3125 7.535156-9.203125 5.289062-27.398437-4.804688-38.9375zm-452.683594 9.859375c-2.058593 5.792969-3.15625 11.828125-3.316406 17.867188-26.160156 6.714843-30.601562 1.769531-30.644531 1.714843-1.761719-2.152343-1.882813-12.28125 4.488281-19.5625 5.625-6.429687 8.765625-14.71875 8.839844-23.34375.085938-9.679687 6.832031-17.183593 9.542969-17.628906.074219-.011718 6.765625-.800781 22.175781 22.023438-4.730469 5.394531-8.535156 11.757812-11.085938 18.929687zm248.6875 96.800781c0 12.285157-4.210937 24.308594-11.859374 33.910157-5.238282 4.953125-11.6875 9.894531-14.023438 10.753906h-33.691406c-2.332032-.859375-8.785156-5.800781-14.019532-10.753906-7.652343-9.601563-11.855468-21.628907-11.855468-33.910157v-1.667968c14.25.921875 28.503906 1.394531 42.753906 1.394531 14.238281 0 28.472656-.46875 42.695312-1.390625zm197.195313-77.21875c-.042969.054688-4.488281 5.003907-30.667969-1.71875-.207031-5.78125-1.28125-11.546874-3.25-17.089843l-.507812-1.425781c-2.457032-6.914063-6.09375-13.0625-10.605469-18.304688 15.394531-22.785156 22.09375-22.003906 22.160156-21.996094 2.710938.445313 9.457031 7.953125 9.542969 17.628906.074219 8.625 3.214844 16.914063 8.839844 23.34375 6.371094 7.28125 6.25 17.410157 4.488281 19.5625zm0 0"/></svg>