<svg viewBox="0 0 511.998 511" xmlns="http://www.w3.org/2000/svg"><path d="m260.542969 212.925781c-17.480469 13.328125-27.507813 33.566407-27.507813 55.527344 0 4.148437 3.363282 7.507813 7.511719 7.507813s7.507813-3.359376 7.507813-7.507813c0-17.234375 7.871093-33.117187 21.597656-43.582031 3.296875-2.515625 3.933594-7.226563 1.417968-10.527344-2.515624-3.300781-7.226562-3.933594-10.527343-1.417969zm0 0"/><path d="m450.886719 134.4375c-5.195313-4.054688-10.566407-8.246094-15.679688-12.695312-3.128906-2.722657-7.871093-2.394532-10.597656.734374-2.722656 3.128907-2.394531 7.875.734375 10.597657 5.417969 4.710937 10.949219 9.03125 16.296875 13.203125 29.691406 23.175781 55.335937 43.1875 55.335937 121.097656 0 33.8125-10.296874 69.5625-28.25 98.085938-13.71875 21.796874-38.253906 49.71875-77.25 58.953124-26.808593 6.347657-44.953124 21.910157-62.503906 36.960938-20.695312 17.746094-40.242187 34.511719-72.972656 34.511719-52.273438 0-85.316406-27.066407-121.6875-70.734375-2.65625-3.1875-7.390625-3.617188-10.578125-.960938-3.1875 2.652344-3.621094 7.390625-.964844 10.578125 30.679688 36.835938 68.8125 76.140625 133.230469 76.140625 38.289062 0 60.894531-19.386718 82.753906-38.132812 16.933594-14.523438 32.925782-28.238282 56.183594-33.746094 76.035156-18.003906 117.058594-101.878906 117.058594-171.65625.003906-85.242188-31.066406-109.488281-61.109375-132.9375zm0 0"/><path d="m100.429688 383.464844c-11.578126-13.871094-24.957032-21.746094-37.898438-29.359375-25.492188-15.003907-47.507812-27.960938-47.507812-86.730469 0-29.878906 8.265624-54.007812 25.277343-73.773438 15.148438-17.601562 34.855469-29.492187 53.917969-40.988281 13.484375-8.136719 26.222656-15.820312 36.308594-25 15.679687-14.273437 23.089844-32.199219 30.261718-49.539062 13.875-33.5625 25.863282-62.550781 95.210938-62.550781 74.6875 0 98.796875 31.613281 129.324219 71.636718 4.726562 6.195313 9.609375 12.601563 14.804687 19.019532 2.609375 3.226562 7.339844 3.722656 10.5625 1.113281 3.226563-2.609375 3.722656-7.339844 1.113282-10.5625-5.054688-6.25-9.875-12.570313-14.535157-18.679688-30.417969-39.882812-59.148437-77.550781-141.269531-77.550781-35.277344 0-60.996094 7.429688-78.628906 22.714844-15.832032 13.722656-23.269532 31.714844-30.464844 49.121094-6.839844 16.539062-13.296875 32.15625-26.492188 44.167968-8.992187 8.1875-21.121093 15.5-33.957031 23.246094-38.519531 23.234375-86.457031 52.148438-86.457031 127.625 0 67.363281 27.914062 83.789062 54.910156 99.675781 12.382813 7.285157 24.078125 14.171875 33.984375 26.039063 3.410157 4.085937 7.023438 8.503906 11.714844 14.328125 1.484375 1.84375 3.660156 2.796875 5.855469 2.796875 1.652344 0 3.320312-.542969 4.707031-1.660156 3.230469-2.605469 3.738281-7.332032 1.136719-10.5625-4.75-5.894532-8.414063-10.375-11.878906-14.527344zm0 0"/><path d="m302.816406 164.800781c-57.152344 0-103.652344 46.5-103.652344 103.652344s46.5 103.652344 103.652344 103.652344 103.652344-46.5 103.652344-103.652344-46.5-103.652344-103.652344-103.652344zm0 192.28125c-48.871094 0-88.628906-39.757812-88.628906-88.628906s39.757812-88.628906 88.628906-88.628906 88.628906 39.757812 88.628906 88.628906-39.757812 88.628906-88.628906 88.628906zm0 0"/></svg>