<svg viewBox="-32 0 512 512.00036" xmlns="http://www.w3.org/2000/svg"><path d="m443.285156 162.96875c-4.082031-6.023438-9.828125-9.707031-16.546875-10.71875 1.546875-6.625.300781-13.261719-3.6875-19.144531-3.9375-5.8125-10.167969-9.8125-17.09375-10.972657-7.027343-1.175781-14.042969.535157-19.75 4.816407-9.597656 7.195312-12.851562 19.855469-8.261719 30.671875l-7.148437 4.839844c-.480469-19.449219-8.253906-38.699219-23.144531-53.183594-8.886719-8.640625-19.875-15.050782-31.773438-18.527344-4.117187-1.203125-8.417968 1.15625-9.621094 5.265625-1.203124 4.113281 1.15625 8.417969 5.269532 9.621094 9.476562 2.773437 18.230468 7.875 25.308594 14.761719 17.921874 17.425781 22.964843 43.503906 14.535156 65.742187-.019532.054687-.042969.109375-.0625.164063-.253906.65625-.519532 1.3125-.796875 1.964843-.074219.175781-.148438.351563-.226563.527344-.257812.601563-.53125 1.199219-.8125 1.796875-.058594.121094-.113281.25-.175781.371094-.328125.6875-.675781 1.363281-1.03125 2.039062-.101563.195313-.210937.390625-.316406.582032-.277344.515624-.566407 1.023437-.859375 1.53125-.0625.105468-.125.210937-.1875.320312-1.960938-3.152344-4.148438-6.144531-6.527344-8.980469-.015625-.015625-.03125-.035156-.046875-.054687-1.613281-1.917969-3.3125-3.765625-5.089844-5.546875-.058593-.054688-.113281-.113281-.167969-.167969-25.988281-25.894531-68.449218-37.371094-96.445312-42.324219 2.945312-6.285156 6.964844-12.070312 11.859375-17.039062 7.902344-8.015625 17.875-13.675781 28.828125-16.371094 4.160156-1.023437 6.703125-5.222656 5.679688-9.382813-1.023438-4.15625-5.222657-6.695312-9.382813-5.679687-3.453125.851563-6.828125 1.9375-10.101563 3.242187 15.492188-24.757812 19.558594-60.988281 17.984376-77.152343-.695313-7.144531-2.429688-11.421875-5.628907-13.863281-2.351562-1.792969-5.234375-2.476563-8.125-1.9375-7.144531 1.351562-12.023437 9.402343-21.75 25.4375-6.347656 10.472656-14.25 23.5-24.238281 36.75-4.792969 6.363281-11.855469 11.523437-20.878906 16.816406-.648438-2.683594-1.84375-4.816406-3.597656-6.445313-2.398438-2.230469-5.597657-3.214843-9.015626-2.765625-3.414062.449219-9.128906 1.203125-30.238281 31.855469-2.804687 4.070313-6.101562 8.042969-9.800781 11.804687-7.671875 7.800782-11.855469 16.480469-12.894531 27.484376-9.335938-4.488282-20.042969-4.066407-28.878907.796874l-40.027343-40.753906c5.949219-9.066406 5.222656-21.164062-2.207031-29.496094-4.484376-5.03125-10.660157-7.925781-17.382813-8.148437-6.621094-.226563-13.136719 2.320313-17.867187 6.964844-4.734376 4.648437-7.179688 10.375-7.15625 16.546875-6.191407-.164063-11.886719 2.160156-16.519532 6.707031-4.726562 4.644531-7.3828122 11.109375-7.28124975 17.738281.09765575 6.722656 2.87890575 12.945313 7.82812475 17.523438 8.203125 7.585937 20.296875 8.53125 29.460938 2.742187l40.019531 40.746094c-5.003906 8.714844-5.640625 19.367187-1.371094 28.761719h-14.179687c-14.21875 0-25.78125 11.566406-25.78125 25.78125 0 14.21875 11.5625 25.785156 25.78125 25.785156h.96875l36.691406 239.492188c1.75 11.414062 11.398437 19.695312 22.941406 19.695312h217.484375c11.546875 0 21.195313-8.28125 22.945313-19.695312l36.691406-239.492188h.96875c14.214844 0 25.78125-11.566406 25.78125-25.785156 0-14.214844-11.566406-25.78125-25.78125-25.78125h-4.742187l8.074218-5.46875c8.300782 8.253906 21.289063 9.949218 31.542969 3.703125 6.101563-3.71875 10.292969-9.597657 11.804687-16.558594 1.496094-6.867187.089844-14.136719-3.847656-19.953125zm-282.007812-38.464844c4.332031-4.398437 8.203125-9.070312 11.515625-13.878906 7.074219-10.273438 12.207031-16.816406 15.660156-20.742188.796875 2.421876 2.414063 4.539063 4.632813 5.941407 3.410156 2.152343 7.722656 2.28125 11.257812.339843 13.679688-7.511718 24.320312-14.550781 31.792969-24.464843 10.460937-13.871094 18.585937-27.273438 25.117187-38.042969 2.351563-3.878906 4.855469-8.007812 7.070313-11.417969.078125 17.097657-5.332031 51.875-21.320313 69.925781-22.890625 25.847657-42.019531 44.640626-42.207031 44.828126-2.1875 2.144531-2.90625 5.375-1.835937 8.246093 1.066406 2.871094 3.726562 4.839844 6.78125 5.03125.179687.011719 11.824218.773438 28.125 3.78125.109374.023438.21875.042969.328124.0625.390626.074219.789063.148438 1.183594.226563 19.03125 3.640625 45.582032 10.65625 66.9375 23.648437.136719.085938.273438.167969.410156.253907.414063.253906.828126.511718 1.238282.773437 11.542968 7.328125 19.15625 15.046875 24.160156 22.226563h-158.855469c-1.796875-1.847657-3.476562-3.792969-5.035156-5.84375-.035156-.046876-.066406-.089844-.101563-.136719-.488281-.644531-.964843-1.300781-1.429687-1.96875-.109375-.152344-.210937-.3125-.316406-.46875-.386719-.5625-.765625-1.132813-1.136719-1.707031-.136719-.214844-.265625-.429688-.402344-.644532-.328125-.53125-.65625-1.066406-.972656-1.609375-.148438-.25-.289062-.503906-.433594-.757812-.296875-.515625-.585937-1.035157-.867187-1.566407-.148438-.277343-.296875-.5625-.441407-.84375-.265624-.511718-.527343-1.03125-.78125-1.558593-.148437-.300781-.292968-.605469-.4375-.910157-.242187-.519531-.480468-1.039062-.710937-1.566406-.140625-.320312-.28125-.644531-.421875-.96875-.222656-.527344-.4375-1.058594-.652344-1.589844-.132812-.339843-.269531-.675781-.398437-1.019531-.207031-.539062-.402344-1.082031-.601563-1.628906-.125-.347656-.25-.695313-.371094-1.046875-.191406-.558594-.375-1.125-.558593-1.695312-.113281-.351563-.230469-.703126-.339844-1.054688-.179687-.59375-.351563-1.195312-.523437-1.800781-.101563-.34375-.203126-.683594-.296876-1.03125-.179687-.664063-.351562-1.339844-.519531-2.015625-.074219-.300782-.15625-.589844-.226562-.890625-.234375-.980469-.460938-1.976563-.671875-2.988281-.1875-.90625-.363282-1.789063-.527344-2.664063-.039062-.210937-.074219-.417969-.113281-.625-.140625-.761719-.269531-1.511719-.386719-2.246094-.019531-.113281-.039062-.230469-.058594-.34375-.121094-.769531-.226562-1.519531-.328125-2.257812-.039062-.316407-.078125-.625-.117187-.933594-.050782-.40625-.09375-.800781-.136719-1.195313-1.640625-15.234374 2.015625-22.742187 8.324219-29.160156zm-49.277344 33.957032.25-.242188.484375-.4375c.03125-.027344.058594-.058594.085937-.085938 5.070313-4.554687 12.34375-5.515624 18.347657-2.34375 2.226562 1.175782 4.5 2.328126 6.792969 3.441407.175781 1.21875.378906 2.46875.601562 3.75 0 .003906 0 .007812.003906.011719.257813 1.472656.546875 2.984374.875 4.554687.308594 1.46875.648438 2.914063 1.007813 4.339844.101562.417969.214843.828125.320312 1.242187.277344 1.054688.566407 2.097656.871094 3.128906.121094.402344.238281.808594.359375 1.207032.414062 1.347656.84375 2.675781 1.304688 3.980468.007812.027344.015624.054688.027343.078126.472657 1.347656.984375 2.667968 1.507813 3.972656.136718.339844.28125.671875.421875 1.007812.414062.996094.84375 1.972656 1.285156 2.941406.15625.332032.304687.667969.460937 1 .582032 1.230469 1.179688 2.441407 1.808594 3.628907.003906.007812.007813.015625.011719.019531.652344 1.226562 1.335937 2.429688 2.039063 3.609375.152343.253906.308593.503906.460937.753906.566406.933594 1.152344 1.851563 1.753906 2.757813.101563.152344.195313.316406.300781.46875h-60.230468c-.921875-1.96875-1.867188-3.90625-2.820313-5.792969-3.0625-6.058594-1.964843-13.3125 2.675781-18.296875.03125-.035156.066407-.0625.101563-.097656zm-66.238281-40.234376c-2.203125-2.242187-5.117188-3.375-8.039063-3.375-2.675781 0-5.355468.945313-7.5 2.855469-.007812.007813-.078125.070313-.085937.074219-3.34375 2.914062-8.515625 2.839844-11.773438-.175781-1.800781-1.664063-2.816406-3.929688-2.851562-6.367188-.035157-2.441406.902343-4.730469 2.644531-6.441406 2.234375-2.195313 4.566406-2.761719 7.785156-1.890625 3.832032 1.035156 7.953125-.050781 10.765625-2.835938 2.8125-2.785156 3.9375-6.90625 2.933594-10.746093-.816406-3.144531-.164063-5.46875 2.191406-7.78125 1.742188-1.710938 4.050781-2.609375 6.484375-2.527344 2.441406.082031 4.6875 1.136719 6.320313 2.96875 2.953125 3.3125 2.933593 8.484375-.03125 11.765625l-.074219.082031c-4.085938 4.429688-3.988281 11.261719.230469 15.554688l41.769531 42.527343-9 8.839844zm32.660156 134.582032h29.484375l8.171875 76.980468h-25.863281zm19.175781 125.179687-5.007812-32.6875h66.460937c-1.40625 5.699219-2.167969 11.648438-2.167969 17.777344 0 5.105469.519532 10.089844 1.503907 14.910156h-28.582031c-.007813 0-.019532 0-.027344 0zm25.90625-125.179687h30.589844l4.902344 76.980468h-27.324219zm25.859375 243.683594-3.242187-30.550782c-.449219-4.253906-4.25-7.34375-8.53125-6.890625-4.257813.453125-7.34375 4.269531-6.890625 8.53125l3.066406 28.910157h-11.398437c-3.832032 0-7.035157-2.75-7.613282-6.539063l-14.777344-96.457031h22.863282l4.039062 38.074218c.421875 3.980469 3.785156 6.9375 7.703125 6.9375.273438 0 .546875-.011718.824219-.042968 4.261719-.453125 7.347656-4.269532 6.894531-8.53125l-3.867187-36.4375h24.621094l6.558593 102.996094zm35.789063 0-5.066406-79.582032c6.882812 6.527344 15.011718 11.75 23.992187 15.273438l1.363281 64.308594zm56.109375 0h-20.304688l-1.277343-60.070313c3.726562.578125 7.542968.882813 11.425781.882813 3.886719 0 7.703125-.304688 11.429687-.882813zm35.800781 0h-20.289062l1.363281-64.308594c8.980469-3.523438 17.109375-8.746094 23.992187-15.277344zm-45.957031-74.699219c-32.375 0-58.714844-26.339844-58.714844-58.714844 0-32.378906 26.339844-58.71875 58.714844-58.71875 32.378906 0 58.71875 26.339844 58.71875 58.71875 0 32.375-26.339844 58.714844-58.71875 58.714844zm-61.46875-168.984375h30.632812l.902344 42.371094c-10.742187 4.753906-20.152344 11.972656-27.503906 20.945312zm46.148437 0h30.648438l-.796875 37.480468c-4.699219-.9375-9.554688-1.4375-14.527344-1.4375s-9.828125.5-14.527344 1.4375zm72.761719 63.316406c-7.351563-8.972656-16.761719-16.191406-27.5-20.945312l.898437-42.371094h30.632813zm24.304687 180.367188h-20.246093l6.558593-102.996094h24.617188zm34.613282-6.539063c-.582032 3.789063-3.785156 6.539063-7.617188 6.539063h-11.398437l10.929687-102.996094h22.863282zm17.152344-111.964844h-60.789063c.984375-4.820312 1.503906-9.804687 1.503906-14.910156 0-6.128906-.761719-12.078125-2.167969-17.777344h66.460938zm-61.398438-48.199219 4.902344-76.980468h30.589844l-8.167969 76.980468zm68.78125 0h-25.863281l8.171875-76.980468h29.488281zm28.453125-113.035156c5.664063 0 10.273437 4.609375 10.273437 10.273438 0 5.664062-4.609374 10.273437-10.273437 10.273437h-338.691406c-5.664063 0-10.273438-4.609375-10.273438-10.273437 0-5.664063 4.609375-10.273438 10.273438-10.273438zm31.527344-37.128906c-.605469 2.773438-2.28125 5.121094-4.71875 6.609375-4.410157 2.683594-10.324219 1.582031-13.46875-2.511719-.011719-.015625-.058594-.074218-.070313-.089844-3.722656-4.949218-10.644531-6.109374-15.761718-2.644531l-29.898438 20.257813h-6.617188c.441407-.804688.867188-1.621094 1.277344-2.4375.089844-.183594.175782-.363282.261719-.542969.410156-.835937.808594-1.679687 1.1875-2.53125.089844-.199219.179687-.398437.265625-.597656 1.765625-4.03125 3.195312-8.21875 4.246094-12.507813l20.828125-14.113281c5.117187-3.464844 6.605469-10.328125 3.410156-15.578125l-.082031-.140625c-2.636719-4.4375-1.464844-10.339844 2.667968-13.4375 2.285157-1.714844 5.085938-2.398437 7.886719-1.933594 2.800781.472657 5.222657 2.023438 6.816407 4.375 2.035156 3.007813 2.207031 5.894531.550781 9.363281-1.753907 3.671876-1.421875 8.039063.867187 11.394532 2.296875 3.355468 6.261719 5.261718 10.316406 4.953125 3.75-.273438 6.363282 1.007812 8.5 4.15625 1.59375 2.351562 2.136719 5.179687 1.535157 7.957031zm0 0"/></svg>