<svg viewBox="0 0 512 512.001" xmlns="http://www.w3.org/2000/svg"><path d="m477.332031 51.683594-17.011719-17.011719c-46.230468-46.230469-121.445312-46.230469-167.675781 0l-167.199219 167.199219c-14.285156 14.285156-22.152343 33.277344-22.152343 53.480468 0 20.203126 7.867187 39.195313 22.152343 53.480469l14.667969 14.667969-21.097656 21.101562c-17.097656 17.097657-42.664063 36.554688-65.214844 53.722657-16.785156 12.773437-31.277343 23.804687-38.71875 31.246093-9.910156 9.910157-15.265625 22.652344-15.07812475 35.878907.17578175 12.125 5.01562475 23.820312 13.28124975 32.085937l1.183594 1.183594c8.265625 8.265625 19.957031 13.105469 32.082031 13.277344.226563.003906.449219.003906.675781.003906 12.984376 0 25.460938-5.339844 35.207032-15.082031 7.441406-7.441407 18.476562-21.9375 31.253906-38.726563 3.800781-4.992187 7.75-10.183594 11.792969-15.429687 2.558593-3.324219 1.941406-8.097657-1.386719-10.65625-3.324219-2.566407-8.097656-1.941407-10.65625 1.382812-4.058594 5.269531-8.027344 10.484375-11.84375 15.5-12.445312 16.347657-23.191406 30.464844-29.910156 37.183594-8.945313 8.949219-18.457032 10.734375-24.914063 10.625-8.203125-.117187-16.058593-3.332031-21.566406-8.839844l-1.167969-1.171875c-5.492187-5.492187-8.710937-13.347656-8.828125-21.550781-.09375-6.425781 1.675781-15.964844 10.625-24.914063 6.714844-6.71875 20.832031-17.460937 37.175781-29.902343 22.9375-17.457031 48.933594-37.246094 66.757813-55.070313l21.101563-21.097656 26.886718 26.890625-21.097656 21.097656c-6.261719 6.261719-13.128906 13.894531-20.996094 23.328125-2.6875 3.222656-2.253906 8.015625.96875 10.703125 1.421875 1.183594 3.148438 1.761719 4.863282 1.761719 2.179687 0 4.339843-.929688 5.84375-2.730469 7.570312-9.082031 14.132812-16.378906 20.070312-22.3125l21.097656-21.101562 14.667969 14.667969c14.285156 14.285156 33.277344 22.152343 53.480469 22.152343s39.195312-7.867187 53.480468-22.152343l167.199219-167.199219c46.226563-46.226563 46.226563-121.445313 0-167.671875zm-10.75 156.921875-167.199219 167.199219c-11.414062 11.414062-26.589843 17.699218-42.734374 17.699218-16.140626 0-31.316407-6.285156-42.730469-17.699218l-77.722657-77.722657c-23.5625-23.5625-23.5625-61.902343 0-85.464843l167.199219-167.199219c19.523438-19.519531 45.480469-30.273438 73.085938-30.273438 27.609375 0 53.566406 10.753907 73.085937 30.273438l17.011719 17.011719c40.304687 40.300781 40.304687 105.875.003906 146.175781zm0 0"/><path d="m385.960938 94.296875c0-8.421875-3.277344-16.339844-9.234376-22.292969-12.289062-12.292968-32.292968-12.292968-44.585937 0l-11.917969 11.914063c-2.96875 2.96875-2.96875 7.78125 0 10.75 2.96875 2.964843 7.78125 2.96875 10.75 0l11.917969-11.917969c6.367187-6.363281 16.726563-6.363281 23.089844 0 3.082031 3.085938 4.78125 7.183594 4.78125 11.546875s-1.699219 8.460937-4.78125 11.546875l-149.917969 149.917969c-6.367188 6.367187-16.726562 6.367187-23.089844 0-3.085937-3.085938-4.785156-7.183594-4.785156-11.546875 0-4.359375 1.699219-8.460938 4.785156-11.546875l112.996094-112.996094c2.96875-2.96875 2.96875-7.78125 0-10.75s-7.78125-2.96875-10.75 0l-112.996094 113c-5.957031 5.953125-9.234375 13.871094-9.234375 22.292969s3.277344 16.339844 9.234375 22.296875c6.144532 6.144531 14.21875 9.21875 22.292969 9.21875s16.148437-3.074219 22.292969-9.21875l149.917968-149.917969c5.957032-5.957031 9.234376-13.875 9.234376-22.296875zm0 0"/><path d="m417.703125 126.039062c-8.421875 0-16.339844 3.277344-22.292969 9.234376l-149.917968 149.917968c-12.292969 12.292969-12.292969 32.292969 0 44.585938 5.953124 5.957031 13.871093 9.234375 22.292968 9.234375s16.339844-3.277344 22.296875-9.234375l149.917969-149.917969c12.292969-12.292969 12.292969-32.292969-.003906-44.585937-5.953125-5.957032-13.871094-9.234376-22.292969-9.234376zm11.546875 43.074219-149.917969 149.917969c-3.085937 3.082031-7.1875 4.78125-11.546875 4.78125-4.363281 0-8.460937-1.699219-11.546875-4.78125l-5.375 5.375 5.375-5.375c-6.367187-6.367188-6.367187-16.726562 0-23.09375l149.921875-149.917969c3.082032-3.082031 7.179688-4.78125 11.542969-4.78125 4.359375 0 8.460937 1.699219 11.546875 4.78125 6.367188 6.367188 6.367188 16.726563 0 23.09375zm0 0"/></svg>