<svg viewBox="-27 0 511 511.99976" xmlns="http://www.w3.org/2000/svg"><path d="m454.367188 171.148438-29.507813-29.65625c-4.207031-4.226563-10.679687-5.402344-16.101563-2.917969l-53.472656 24.492187h-5.097656l77.941406-107.804687c2.253906-3.117188 3.140625-6.921875 2.507813-10.714844-.640625-3.789063-2.722657-7.097656-5.867188-9.304687l-11.390625-8.003907c-3.148437-2.210937-6.96875-3.050781-10.742187-2.359375-3.785157.6875-7.0625 2.8125-9.230469 5.992188l-72.347656 106.027344c-4.613282-2.324219-9.605469-3.742188-14.808594-4.183594l37.8125-109.425782c1.257812-3.636718 1.007812-7.535156-.695312-10.980468-1.707032-3.445313-4.65625-6.007813-8.308594-7.214844l-13.214844-4.367188c-3.652344-1.203124-7.550781-.90625-10.972656.847657-3.421875 1.753906-5.941406 4.738281-7.097656 8.402343l-36.222657 114.855469c-7.375-11.386719-20.226562-18.851562-34.453125-18.851562-7.769531 0-15.144531 2.21875-21.445312 6.097656 1.917968-10.667969 2.339844-20.40625 1.742187-26.542969-.59375-6.082031-2.136719-9.773437-5.011719-11.96875-2.183593-1.667968-4.871093-2.308594-7.554687-1.796875-6.28125 1.183594-10.257813 7.742188-18.179687 20.808594-5.011719 8.265625-11.25 18.554687-19.121094 28.992187-3.394532 4.507813-8.328125 8.253907-14.597656 12.046876-.625-1.585938-1.523438-2.917969-2.703126-4.011719-2.214843-2.0625-5.160156-2.964844-8.289062-2.558594-3.128906.414063-7.859375 1.035156-24.9375 25.839844-2.175781 3.15625-4.734375 6.238281-7.605469 9.160156-.332031.335937-.628906.679687-.945312 1.019531h-.703125l-53.472656-24.492187c-5.421876-2.484375-11.890626-1.3125-16.097657 2.917969l-29.511719 29.65625c-3.199218 3.214843-4.6914058 7.808593-3.996093 12.289062.695312 4.480469 3.515625 8.40625 7.539062 10.496094l45.367188 23.589844 47.644531 276.382812c1.808594 10.484375 10.84375 18.09375 21.480469 18.09375h213.632812c10.640625 0 19.671875-7.609375 21.476563-18.09375l47.648437-276.382812 45.367188-23.589844c4.023437-2.09375 6.839843-6.015625 7.539062-10.496094s-.796875-9.074219-3.996093-12.289062zm-93.042969 33.839843h-41.445313l14.546875-20.117187c.484375.097656.980469.152344 1.480469.152344.105469 0 .210938 0 .324219-.003907 12.195312.039063 22.421875 8.566407 25.09375 19.96875zm44.078125-164.878906 9.96875 7-102.535156 141.820313c-.078126-.25-.171876-.492188-.253907-.742188-.046875-.132812-.09375-.265625-.140625-.398438-.84375-2.429687-1.882812-4.722656-3.140625-6.839843zm-92.996094 109.46875-13.792969 20.210937c-1.371093-.898437-2.8125-1.714843-4.328125-2.429687l6.777344-19.617187c.550781-.035157 1.101562-.058594 1.652344-.058594 3.378906-.003906 6.644531.65625 9.691406 1.894531zm5.523438-134.222656 11.566406 3.820312-49.917969 144.453125c-2.675781-.191406-5.4375-.160156-8.253906.097656-.0625.003907-.128907.007813-.195313.011719zm-55.464844 165.601562c7.140625-2.425781 14.429687-2.988281 20.519531-1.585937.070313.015625.132813.023437.203125.035156 3.960938.933594 8.015625 2.84375 11.140625 6.492188.007813.011718.015625.023437.023437.035156 1.21875 1.425781 2.238282 3.058594 3.058594 4.886718.015625.03125.027344.058594.042969.089844.390625.882813.730469 1.808594 1.03125 2.777344.027344.09375.054687.191406.085937.289062.109376.378907.214844.765626.308594 1.152344.03125.125.066406.25.09375.378906.117188.484376.222656.980469.316406 1.484376v.015624c.003907.007813.003907.011719.003907.019532.222656 1.210937.472656 2.414062.730469 3.605468.082031.367188.164062.730469.25 1.097657.195312.863281.402343 1.71875.617187 2.566406.058594.230469.109375.464844.167969.691406h-59.65625c-.015625-.007812-.03125-.019531-.046875-.03125-.542969-.367187-1.097657-.726562-1.652344-1.085937-.132813-.085938-.257813-.171875-.390625-.257813-.695312-.445312-1.398438-.882812-2.105469-1.3125 4.855469-10.464843 14.703125-17.761719 25.019531-21.285156.082032-.023437.160157-.03125.238282-.058594zm-62.53125-35.070312c.039062-.0625.078125-.121094.113281-.183594 1.460937.15625 2.957031-.117187 4.285156-.808594 1.875-.976562 3.253907-2.6875 3.808594-4.726562 3.046875-11.230469 13.3125-19.070313 24.960937-19.070313 12.761719 0 23.765626 9.503906 25.59375 22.113282.214844 1.472656.863282 2.824218 1.828126 3.917968l-6.59375 20.898438c-12.445313 5.070312-23.867188 14.304687-30.105469 27.242187-19.152344-8.691406-39.859375-13.003906-53.640625-15.078125.042968-.042968.089844-.09375.128906-.136718.664062-.6875 1.347656-1.40625 2.058594-2.148438.121094-.128906.242187-.253906.367187-.382812.714844-.753907 1.453125-1.53125 2.210938-2.332032.121093-.128906.242187-.257812.367187-.386718.777344-.820313 1.570313-1.667969 2.386719-2.535157.113281-.121093.226563-.246093.34375-.367187.832031-.890625 1.683594-1.800782 2.550781-2.738282.105469-.113281.210938-.230468.316406-.34375.890626-.957031 1.792969-1.9375 2.714844-2.941406.089844-.09375.175782-.191406.261719-.285156.953125-1.035156 1.917969-2.09375 2.898437-3.175781.050782-.054688.105469-.113281.15625-.171875 1.019532-1.125 2.050782-2.265625 3.097657-3.433594.003906-.003906.011719-.011719.015625-.015625 1.078125-1.207031 2.171875-2.429687 3.277344-3.675781.019531-.023438.035156-.046875.054687-.066406.558594-.632813 1.101563-1.285157 1.632813-1.949219.140624-.175781.277343-.363281.414062-.542969.421875-.539062.835938-1.085938 1.238281-1.644531.136719-.191407.269531-.390625.40625-.585938.414063-.585937.820313-1.183593 1.214844-1.792969.109375-.171874.222656-.339843.328125-.511718.449219-.703125.886719-1.417969 1.308594-2.140625zm-86.1875 29.554687c.027344-.035156.054687-.070312.082031-.105468.707031-.933594 1.492187-1.820313 2.34375-2.691407 3.488281-3.542969 6.609375-7.308593 9.277344-11.183593 4.875-7.082032 8.410156-11.679688 10.894531-14.648438.804688 1.320312 1.914062 2.460938 3.265625 3.316406 3.136719 1.980469 7.105469 2.101563 10.355469.3125 10.996094-6.039062 19.5625-11.714844 25.636718-19.769531 8.328126-11.050781 14.789063-21.699219 19.976563-30.257813.921875-1.523437 1.878906-3.097656 2.816406-4.625-.652343 10.527344-3.328125 25.730469-9.105469 37.921876-2.179687 4.566406-4.621093 8.398437-7.265624 11.386718-18.101563 20.433594-33.222657 35.292969-33.375 35.441406-.242188.238282-.457032.488282-.660157.746094-.046875.0625-.09375.125-.140625.191406-.179687.246094-.347656.5-.496094.761719-.007812.019531-.023437.039063-.035156.058594-.160156.292969-.296875.59375-.417968.902344-.019532.054687-.039063.109375-.058594.164062-.101563.277344-.183594.558594-.253906.847657-.007813.039062-.019532.074218-.027344.113281-.070313.320312-.117188.636719-.144532.960937-.003906.0625-.003906.125-.007812.1875-.019531.28125-.019531.570313-.007812.855469.003906.046875.003906.097656.007812.148437.023438.328126.070312.65625.136719.980469.007812.046875.019531.09375.03125.140625.070312.3125.160156.621094.269531.925782.007812.015624.007812.03125.015625.050781.003906.003906.007813.011719.007813.019531.121093.320312.265624.632812.433593.9375.019531.042969.046875.082031.070313.125.144531.253906.304687.503906.480468.746094.035157.042968.0625.089844.097657.132812.183593.238282.378906.46875.59375.691406.019531.019532.039062.03125.058593.050782.03125.035156.066407.0625.101563.09375.207031.203125.425781.386718.652344.5625.054687.042968.109375.082031.164062.125.546875.390625 1.128907.707031 1.742188.9375.054687.019531.109375.039062.164062.058594.285157.101562.574219.183593.867188.25.039062.007812.074219.019531.109375.027343.324218.066407.648437.109375.976562.132813.03125 0 .058594.011718.089844.011718.371094.023438 27.613281 1.855469 54.144531 11.511719h-95.796875c-.191406-.792969-.371094-1.589843-.539062-2.390625-3.058594-14.605468-1.601563-21.714844 2.46875-27.15625zm-17.398438 29.546875h-17.78125l15.976563-16.058593c-.023438 4.78125.589843 10.09375 1.804687 16.058593zm-51.457031-52.835937c0 .003906-.003906.003906-.003906.003906zm-28.734375 28.878906 28.335938-28.476562 44.601562 20.425781-30.152344 30.300781zm355.917969 141.179688h-46.296875c-4.175782 0-7.558594 3.382812-7.558594 7.558593 0 4.171875 3.382812 7.554688 7.558594 7.554688h43.691406l-7.121094 41.3125h-35.625c-4.171875 0-7.558594 3.382812-7.558594 7.558593 0 4.171876 3.386719 7.554688 7.558594 7.554688h33.015625l-16.820312 97.589844c-.554688 3.214844-3.324219 5.546875-6.585938 5.546875h-213.628906c-3.261719 0-6.03125-2.332031-6.585937-5.546875l-16.824219-97.589844h32.316406c4.175781 0 7.558594-3.382812 7.558594-7.554688 0-4.175781-3.382813-7.558593-7.558594-7.558593h-34.921875l-7.121094-41.3125h43.6875c4.175782 0 7.558594-3.382813 7.558594-7.554688 0-4.175781-3.382812-7.558593-7.558594-7.558593h-46.292968l-17.601563-102.105469h320.316406zm3.636719-122 4.753906 4.777343h-3.769532c-.234374-1.625-.5625-3.21875-.984374-4.777343zm24.382812 3.066406-30.152344-30.296875 44.597656-20.425781 28.339844 28.476562zm0 0"/><path d="m229.515625 288.097656c-39.457031 0-71.558594 32.101563-71.558594 71.5625 0 39.457032 32.101563 71.5625 71.558594 71.5625 39.460937 0 71.5625-32.105468 71.5625-71.5625 0-39.457031-32.101563-71.5625-71.5625-71.5625zm0 128.007813c-31.121094 0-56.445313-25.320313-56.445313-56.445313s25.324219-56.445312 56.445313-56.445312c31.125 0 56.445313 25.320312 56.445313 56.445312s-25.320313 56.445313-56.445313 56.445313zm0 0"/></svg>