<svg viewBox="-34 1 511 511.999" xmlns="http://www.w3.org/2000/svg"><path d="m425.441406 468.78125h-54.359375c-.050781-.542969-.128906-1.082031-.226562-1.625-4.472657-24.707031-12.644531-89.222656 8.046875-154.59375 9.886718-31.226562 15.191406-58.359375 15.777344-80.648438.082031-3.175781.058593-6.121093-.035157-8.875 0-.015624 0-.03125 0-.050781 0-.042969-.003906-.082031-.007812-.125-.019531-.632812-.050781-1.25-.082031-1.863281-.011719-.230469-.023438-.464844-.039063-.691406-.035156-.644532-.074219-1.277344-.121094-1.898438-.011719-.148437-.023437-.300781-.035156-.445312-.570313-7.390625-1.730469-13.035156-2.992187-17.226563-.007813-.019531-.015626-.039062-.019532-.058593-.089844-.300782-.183594-.59375-.273437-.878907-.058594-.175781-.113281-.347656-.167969-.515625-.074219-.21875-.144531-.433594-.21875-.648437-.082031-.238281-.164062-.464844-.246094-.691407-.054687-.144531-.109375-.292968-.160156-.4375-.140625-.371093-.28125-.730468-.417969-1.066406-.089843-.222656-.191406-.441406-.292969-.65625-.039062-.078125-.070312-.160156-.109374-.238281-.039063-.082031-.085938-.15625-.128907-.238281-2.0625-3.941406-5.988281-6.535156-10.449219-6.867188-.105468-.007812-.214843-.007812-.324218-.011718-.21875-.011719-.4375-.027344-.65625-.027344h-140.722656c-1.976563 0-3.875.445312-5.582032 1.257812-2.839844 1.351563-5.136718 3.730469-6.382812 6.78125-.015625.039063-.03125.085938-.046875.125-.117188.289063-.234375.59375-.355469.910156-.066406.179688-.136719.371094-.203125.5625-.066406.175782-.132813.355469-.195313.542969-.089843.25-.175781.511719-.265624.777344-.035157.109375-.070313.21875-.105469.332031-1.394531 4.300782-2.714844 10.285156-3.328125 18.347656-.007813.101563-.015625.203126-.023438.304688-.050781.65625-.09375 1.328125-.132812 2.011719-.007813.183593-.019532.371093-.027344.558593-.035156.652344-.066406 1.304688-.089844 1.980469 0 .03125-.003906.0625-.003906.097657v.039062c-.097656 2.753906-.117188 5.703125-.035156 8.886719.582031 22.285156 5.890625 49.417969 15.773437 80.644531 20.695313 65.371094 12.523438 129.890625 8.050781 154.59375-.097656.542969-.175781 1.085938-.230468 1.625h-53.738282c1.308594-4.582031 1.566407-9.464844.640626-14.261719-.03125-.15625-.0625-.3125-.105469-.46875l-10.246094-39.621093c-.785156-3.042969-1.035156-6.171876-.738281-9.296876l9.476562-99.84375c0-.011718 0-.023437.003906-.035156l.835938-8.847656c.128906-1.335938.195312-2.695312.195312-4.039062v-86.691407c0-4.292969-.648437-8.550781-1.921874-12.65625l-27.273438-87.882812c-.347656-1.121094-.675781-2.25-.988281-3.382813-.261719-.953125-.503907-1.914062-.742188-2.882812-.039062-.148438-.078125-.296875-.117187-.445313-.542969-2.253906-1.023438-4.535156-1.433594-6.839843 0-.003907 0-.011719 0-.015626-.945312-5.308593-1.515625-10.683593-1.683594-16.085937l-.667968-21.398437c6.105468-2.972657 10.332031-9.21875 10.332031-16.449219v-19.332031c-.003907-10.09375-8.214844-18.304688-18.308594-18.304688h-54.179687c-10.09375 0-18.300782 8.210938-18.300782 18.304688v19.332031c0 7.230469 4.222656 13.476562 10.328125 16.449219l-.664062 21.394531c-.167969 5.410156-.742188 10.792969-1.691407 16.113281-.410156 2.300781-.886718 4.582031-1.429687 6.828125-.039063.152344-.078125.300781-.117187.453125-.238282.964844-.484376 1.929688-.746094 2.882812-.296875 1.070313-.605469 2.136719-.933594 3.199219-.019531.058594-.035156.121094-.050781.179688 0 0 0 0-.003907.003906l-7.015624 22.613281c-1.246094 4.011719 1 8.273438 5.011718 9.519532 4.015625 1.242187 8.273438-1 9.519532-5.011719l7.019531-22.617188c.453125-1.46875.878906-2.949219 1.28125-4.433593.042969-.15625.082031-.316407.121093-.476563.367188-1.371094.710938-2.746094 1.03125-4.128906.003907-.027344.011719-.054688.019532-.082031h47.429687c.003907.015624.007813.03125.011719.050781.324219 1.410156.675781 2.816406 1.046875 4.214843.039063.136719.070313.273438.105469.410157.402344 1.488281.828125 2.972656 1.285156 4.445312l25.6875 82.765625h-103.707031l8.171875-26.339844c1.246094-4.011718-.996094-8.273437-5.007813-9.519531-4.015625-1.246093-8.277343 1-9.523437 5.011719l-9.761719 31.457031c-1.273437 4.101563-1.917969 8.359375-1.917969 12.65625v86.691407c0 1.34375.0625 2.699218.191406 4.035156l.839844 8.863281c0 .003906.003906.007813.003906.011719l9.476563 99.851562c.296875 3.125.046875 6.253906-.738281 9.296875l-10.25 39.625c-.039063.152344-.074219.308594-.105469.464844-.921875 4.796875-.664063 9.679687.644531 14.265625h-31.914062c-10.027344 0-18.183594 8.15625-18.183594 18.183594v6.851562c0 10.023438 8.15625 18.183594 18.183594 18.183594h406.757812c10.027344 0 18.183594-8.15625 18.183594-18.183594v-6.851562c0-10.027344-8.15625-18.183594-18.183594-18.183594zm-326.1875-383.472656c.328125-3.109375.550782-6.226563.648438-9.355469l.625-20.015625h39.800781l.621094 20.015625c.097656 3.128906.320312 6.246094.648437 9.355469zm51.351563-47.671875c0 1.671875-1.339844 3.035156-3.003907 3.078125-.007812 0-.015624 0-.023437 0-.085937.003906-.175781.003906-.261719.007812h-53.792968c-.097657-.003906-.171876-.003906-.25-.003906-1.671876-.035156-3.027344-1.402344-3.027344-3.082031v-19.332031c0-1.703126 1.386718-3.089844 3.089844-3.089844h54.179687c1.703125 0 3.089844 1.382812 3.089844 3.089844zm84.996093 193.234375h18.722657c4.203125 0 7.605469-3.40625 7.605469-7.609375 0-4.199219-3.40625-7.605469-7.605469-7.605469h-18.09375c.023437-.207031.046875-.417969.074219-.621094.039062-.316406.078124-.632812.121093-.941406.042969-.328125.089844-.652344.136719-.96875.046875-.3125.09375-.617188.144531-.917969.046875-.289062.09375-.578125.140625-.855469.054688-.300781.109375-.59375.164063-.878906.046875-.253906.09375-.507812.144531-.75.058594-.292968.117188-.570312.175781-.84375.046875-.21875.09375-.441406.140625-.652344.066406-.277343.128906-.539062.195313-.800781.042969-.183593.089843-.375.132812-.550781.070313-.269531.136719-.515625.207031-.765625.039063-.152344.082032-.308594.125-.453125.074219-.265625.148438-.511719.222657-.753906.035156-.109375.066406-.226563.101562-.332032.105469-.339843.210938-.65625.3125-.953124h137.542969c.101562.292968.207031.609374.3125.945312.046875.148438.09375.320312.144531.476562.058594.195313.117188.386719.175781.59375.054688.191407.109376.40625.167969.609376.050781.199218.105469.390624.160157.601562.058593.222656.117187.464844.175781.707031.050781.207031.101562.414063.148437.632813.0625.257812.121094.535156.179688.804687.046875.222657.09375.445313.140625.675781.058593.292969.117187.597657.171875.90625.046875.234376.089844.472657.132812.714844.058594.328125.113282.667969.167969 1.011719.039063.246094.078125.496094.117187.753906.054688.363281.109376.738281.160157 1.121094.035156.253906.066406.511719.097656.773437.03125.230469.058594.472657.085937.710938h-89.128906c-4.203125 0-7.609375 3.40625-7.609375 7.605469 0 4.203125 3.40625 7.609375 7.609375 7.609375h89.753906c-.359374 16.839844-3.867187 41.691406-15.078124 77.101562-15.722657 49.667969-15.90625 97.949219-12.5625 132.496094-.324219.066406-.667969.113281-1.042969.113281h-86.503907c-.375 0-.71875-.046875-1.039062-.113281 3.339844-34.546875 3.15625-82.828125-12.566406-132.496094-11.210938-35.410156-14.71875-60.261718-15.082032-77.101562zm120.089844 237.910156h-96.304687c.703125-3.960938 1.414062-8.375 2.082031-13.199219.929688.128907 1.863281.214844 2.820312.214844h86.5c.957032 0 1.894532-.085937 2.820313-.214844.671875 4.824219 1.378906 9.238281 2.082031 13.199219zm-289.941406-261.152344h109.351562v84.738282c0 .863281-.042968 1.738281-.125 2.597656l-.179687 1.921875h-108.742187l-.179688-1.921875c-.082031-.859375-.125-1.734375-.125-2.597656zm100.066406 210.605469 4.46875 17.289063c-2.726562 2.15625-6.101562 3.351562-9.65625 3.351562h-80.40625c-3.320312 0-6.726562-1.300781-9.59375-3.578125l4.410156-17.0625c1.230469-4.761719 1.621094-9.652344 1.15625-14.542969l-8.695312-91.589844h105.851562l-8.691406 91.589844c-.464844 4.890625-.078125 9.785156 1.15625 14.542969zm-100.957031 39.371094 1.78125-6.898438c4.269531 2.183594 8.933594 3.382813 13.582031 3.382813h80.40625c4.8125 0 9.457032-1.109375 13.636719-3.175782l1.730469 6.691407c.707031 3.957031-.128906 7.886719-2.269532 11.175781h-106.601562c-2.140625-3.289062-2.972656-7.214844-2.265625-11.175781zm363.550781 36.210937c0 1.636719-1.332031 2.96875-2.96875 2.96875h-406.757812c-1.636719 0-2.96875-1.332031-2.96875-2.96875v-6.851562c0-1.636719 1.332031-2.96875 2.96875-2.96875h406.757812c1.636719 0 2.96875 1.332031 2.96875 2.96875zm0 0"/></svg>