<svg viewBox="-22 0 512 512.0005" xmlns="http://www.w3.org/2000/svg"><path d="m455.910156 236.539062-125.539062-30.039062 6.089844-6.09375c4.1875-4.1875 4.1875-11 0-15.1875l-26.652344-26.652344c-4.1875-4.1875-10.996094-4.1875-15.1875 0l-26.652344 26.652344c-1.59375 1.59375-2.578125 3.570312-2.957031 5.640625l-42.46875-10.164063-22.128907-22.128906c-4.1875-4.1875-10.996093-4.1875-15.1875 0l-26.652343 26.652344c-4.1875 4.1875-4.1875 11 0 15.1875l26.554687 26.550781-12.933594 54.03125-13.621093 13.625c-2.027344 2.027344-3.144531 4.722657-3.144531 7.59375 0 2.867188 1.117187 5.566407 3.144531 7.59375l5.429687 5.429688-28.1875 117.785156c-1.066406 4.460937-.332031 9.070313 2.066406 12.980469 2.398438 3.90625 6.175782 6.648437 10.636719 7.714844l241.585938 57.8125c1.335937.320312 2.6875.476562 4.027343.476562 3.132813 0 6.214844-.863281 8.949219-2.542969 3.910157-2.398437 6.648438-6.175781 7.714844-10.636719l57.8125-241.585937c2.207031-9.207031-3.492187-18.488281-12.699219-20.695313zm-153.695312-64.152343 20.425781 20.425781-9.550781 9.550781-32.207032-7.707031c-.015624-.285156-.042968-.566406-.089843-.847656zm-129.820313 20.425781 20.425781-20.425781 8.460938 8.460937c-3.710938 2.304688-6.554688 6.011719-7.652344 10.582032l-4.367187 18.25zm281.492188 60.898438-57.8125 241.585937c-.164063.675781-.585938 1.054687-.910157 1.253906-.328124.203125-.859374.40625-1.53125.246094h-.003906l-241.585937-57.8125c-.671875-.160156-1.054688-.585937-1.253907-.910156-.199218-.328125-.40625-.859375-.242187-1.53125l57.808594-241.585938c.226562-.929687 1.058593-1.554687 1.972656-1.554687.15625 0 .3125.015625.472656.054687l241.585938 57.8125c1.085937.257813 1.757812 1.355469 1.5 2.441407zm0 0"/><path d="m219.773438 276.28125 36.660156 8.769531c.835937.203125 1.671875.296875 2.496094.296875 4.855468 0 9.265624-3.320312 10.445312-8.242187l8.773438-36.65625c1.375-5.757813-2.1875-11.566407-7.945313-12.941407l-36.660156-8.773437c-5.753907-1.378906-11.5625 2.1875-12.941407 7.945313l-8.773437 36.65625c-.664063 2.789062-.207031 5.671874 1.292969 8.117187s3.863281 4.160156 6.652344 4.828125zm14.53125-41.792969 28.089843 6.71875-6.722656 28.09375-28.089844-6.722656zm0 0"/><path d="m295.003906 294.28125 36.660156 8.773438c.835938.199218 1.671876.296874 2.496094.296874 4.851563 0 9.265625-3.320312 10.445313-8.242187l8.773437-36.65625c1.375-5.761719-2.1875-11.566406-7.945312-12.945313l-36.660156-8.769531c-5.753907-1.378906-11.5625 2.183594-12.941407 7.941407l-8.773437 36.660156c-1.378906 5.757812 2.1875 11.5625 7.945312 12.941406zm14.53125-41.792969 28.089844 6.722657-6.722656 28.089843-28.089844-6.71875zm0 0"/><path d="m420.660156 263.511719-36.65625-8.769531c-2.789062-.667969-5.671875-.210938-8.117187 1.289062-2.445313 1.5-4.15625 3.863281-4.824219 6.652344l-8.773438 36.664062c-1.375 5.753906 2.1875 11.558594 7.941407 12.9375h.003906l36.65625 8.769532c.835937.203124 1.679687.300781 2.519531.300781 1.960938 0 3.886719-.539063 5.597656-1.589844 2.445313-1.503906 4.160157-3.867187 4.824219-6.652344l8.773438-36.660156c1.378906-5.757813-2.183594-11.5625-7.945313-12.941406zm-14.527344 41.792969-28.09375-6.722657 6.722657-28.089843 28.09375 6.722656zm0 0"/><path d="m260.144531 315.679688c.667969-2.789063.207031-5.671876-1.292969-8.117188s-3.859374-4.160156-6.652343-4.824219l-36.65625-8.773437c-5.757813-1.382813-11.566407 2.1875-12.941407 7.945312l-8.773437 36.65625c-.667969 2.789063-.207031 5.671875 1.292969 8.117188 1.5 2.445312 3.859375 4.15625 6.652344 4.824218l36.65625 8.773438c.835937.199219 1.671874.296875 2.5.296875 4.851562 0 9.265624-3.320313 10.441406-8.242187zm-22.472656 28.851562-28.09375-6.722656 6.722656-28.09375 28.089844 6.722656zm0 0"/><path d="m335.375 333.683594c.664062-2.789063.207031-5.671875-1.292969-8.117188-1.5-2.445312-3.863281-4.160156-6.652343-4.828125l-36.65625-8.769531c-5.757813-1.378906-11.566407 2.183594-12.945313 7.941406l-8.769531 36.660156c-.667969 2.789063-.210938 5.671876 1.289062 8.117188s3.863282 4.15625 6.652344 4.824219l36.660156 8.773437c.835938.199219 1.679688.296875 2.519532.296875 1.957031 0 3.882812-.539062 5.597656-1.589843 2.441406-1.5 4.15625-3.863282 4.824218-6.652344zm-22.476562 28.847656-28.089844-6.722656 6.71875-28.089844 28.09375 6.722656zm0 0"/><path d="m402.660156 338.742188-36.660156-8.773438c-5.753906-1.378906-11.5625 2.1875-12.941406 7.945312l-8.773438 36.65625c-.664062 2.789063-.207031 5.671876 1.292969 8.117188s3.863281 4.160156 6.652344 4.828125l36.65625 8.769531c.835937.203125 1.679687.300782 2.519531.300782 1.960938 0 3.886719-.539063 5.597656-1.589844 2.445313-1.5 4.160156-3.863282 4.828125-6.65625l8.769531-36.65625c1.378907-5.757813-2.183593-11.5625-7.941406-12.941406zm-14.53125 41.792968-28.089844-6.722656 6.722657-28.09375 28.089843 6.726562zm0 0"/><path d="m234.195312 377.964844-36.65625-8.769532c-5.753906-1.378906-11.5625 2.183594-12.941406 7.941407l-8.773437 36.660156c-1.378907 5.757813 2.1875 11.5625 7.945312 12.941406l36.65625 8.773438c.839844.199219 1.675781.292969 2.5.292969 4.851563 0 9.265625-3.316407 10.445313-8.238282l8.769531-36.660156c1.378906-5.757812-2.183594-11.5625-7.945313-12.941406zm-14.527343 41.792968-28.089844-6.71875 6.71875-28.09375 28.09375 6.722657zm0 0"/><path d="m309.425781 395.96875-36.65625-8.773438c-2.789062-.664062-5.671875-.207031-8.117187 1.292969-2.445313 1.5-4.15625 3.863281-4.824219 6.652344l-8.777344 36.660156c-1.371093 5.757813 2.191407 11.5625 7.945313 12.941407h.003906l36.65625 8.769531c.835938.203125 1.675781.296875 2.5.296875 4.851562 0 9.265625-3.320313 10.441406-8.242188l8.773438-36.65625c.667968-2.789062.210937-5.671875-1.289063-8.117187-1.503906-2.441407-3.867187-4.15625-6.65625-4.824219zm-14.527343 41.792969-28.09375-6.722657 6.722656-28.089843 28.09375 6.71875zm0 0"/><path d="m384.65625 413.972656-36.65625-8.773437c-2.789062-.667969-5.671875-.207031-8.117188 1.292969-2.445312 1.5-4.160156 3.859374-4.828124 6.652343l-8.769532 36.65625c-.667968 2.789063-.210937 5.671875 1.289063 8.117188 1.5 2.445312 3.863281 4.160156 6.652343 4.824219l36.660157 8.773437c.835937.199219 1.671875.296875 2.496093.296875 4.851563 0 9.265626-3.320312 10.445313-8.242188l8.773437-36.65625c.664063-2.789062.207032-5.671874-1.292968-8.117187s-3.863282-4.160156-6.652344-4.824219zm-14.527344 41.792969-28.09375-6.722656 6.722656-28.09375 28.089844 6.722656zm0 0"/><path d="m192.820312 120.800781c2.75 0 5.5-1.042969 7.59375-3.136719l26.65625-26.65625c4.183594-4.183593 4.183594-10.996093-.003906-15.183593l-26.652344-26.652344c-4.1875-4.1875-11-4.1875-15.1875 0l-26.652343 26.652344c-2.027344 2.027343-3.144531 4.722656-3.144531 7.59375 0 2.867187 1.117187 5.566406 3.144531 7.59375l26.652343 26.652343c2.09375 2.09375 4.84375 3.140626 7.59375 3.136719zm0-57.808593 20.425782 20.425781-20.425782 20.425781-20.425781-20.425781zm0 0"/><path d="m239.921875 172.359375c2.03125 2.027344 4.726563 3.144531 7.597656 3.144531 2.867188 0 5.566407-1.117187 7.59375-3.144531l26.652344-26.652344c2.027344-2.027343 3.144531-4.722656 3.144531-7.59375 0-2.867187-1.117187-5.566406-3.144531-7.589843l-26.652344-26.652344c-2.027343-2.03125-4.726562-3.148438-7.59375-3.148438-2.871093 0-5.566406 1.117188-7.59375 3.144532l-26.652343 26.652343c-2.027344 2.027344-3.144532 4.726563-3.144532 7.59375 0 2.871094 1.117188 5.566407 3.144532 7.59375zm7.597656-54.667969 20.421875 20.425782-20.421875 20.421874-20.425781-20.421874zm0 0"/><path d="m175.515625 138.117188c0-2.871094-1.117187-5.566407-3.144531-7.59375l-26.65625-26.65625c-4.183594-4.183594-10.996094-4.183594-15.1875.003906l-26.652344 26.652344c-4.183594 4.1875-4.183594 11 0 15.183593l26.652344 26.652344c2.097656 2.09375 4.847656 3.140625 7.597656 3.140625s5.5-1.046875 7.59375-3.140625l26.652344-26.652344c2.027344-2.027343 3.144531-4.722656 3.144531-7.589843zm-37.390625 20.421874-20.425781-20.425781 20.425781-20.421875 20.421875 20.421875zm0 0"/><path d="m120.816406 192.8125c0-2.867188-1.117187-5.566406-3.144531-7.59375l-26.652344-26.652344c-2.027343-2.027344-4.722656-3.144531-7.59375-3.144531-2.871093 0-5.566406 1.117187-7.59375 3.144531l-26.652343 26.652344c-2.027344 2.027344-3.144532 4.726562-3.144532 7.59375s1.117188 5.566406 3.144532 7.59375l26.652343 26.652344c2.027344 2.027344 4.722657 3.144531 7.59375 3.144531 2.871094 0 5.566407-1.117187 7.59375-3.144531l26.652344-26.652344c2.027344-2.027344 3.144531-4.726562 3.144531-7.59375zm-37.390625 20.425781-20.421875-20.425781 20.421875-20.425781 20.425781 20.425781zm0 0"/><path d="m103.878906 255.101562 26.652344 26.65625c2.09375 2.089844 4.84375 3.136719 7.59375 3.136719s5.5-1.046875 7.59375-3.140625l26.652344-26.652344c2.027344-2.027343 3.144531-4.722656 3.144531-7.59375 0-2.867187-1.117187-5.5625-3.144531-7.589843l-26.652344-26.65625c-4.1875-4.183594-11-4.183594-15.1875 0l-26.65625 26.65625c-4.183594 4.183593-4.183594 10.996093.003906 15.183593zm34.246094-28.015624 20.421875 20.421874-20.421875 20.425782-20.425781-20.425782zm0 0"/><path d="m143.25 332.613281c2.957031-2.953125 2.960938-7.75.003906-10.707031l-127.515625-127.660156c-.792969-.792969-.792969-2.078125 0-2.867188l175.652344-175.652344c.789063-.789062 2.074219-.789062 2.863281 0l175.652344 175.652344c.488281.492188.59375 1.050782.59375 1.433594-.003906 4.179688 3.382812 7.574219 7.566406 7.574219h.003906c4.179688 0 7.566407-3.386719 7.570313-7.566407 0-4.589843-1.785156-8.902343-5.03125-12.148437l-175.648437-175.652344c-6.695313-6.691406-17.585938-6.691406-24.28125 0l-175.652344 175.652344c-3.238282 3.242187-5.027344 7.554687-5.027344 12.140625s1.785156 8.898438 5.027344 12.136719l127.511718 127.660156c1.480469 1.480469 3.417969 2.21875 5.359376 2.21875 1.9375 0 3.871093-.738281 5.351562-2.214844zm0 0"/></svg>