<svg viewBox="-97 1 511 511.999" xmlns="http://www.w3.org/2000/svg"><path d="m29.105469 341.863281c0 26.507813 21.570312 48.078125 48.078125 48.078125 26.511718 0 48.078125-21.570312 48.078125-48.078125 0-26.511719-21.566407-48.078125-48.078125-48.078125-26.507813 0-48.078125 21.566406-48.078125 48.078125zm48.078125-33.078125c18.242187 0 33.078125 14.835938 33.078125 33.078125 0 18.238281-14.839844 33.078125-33.078125 33.078125-18.238282 0-33.078125-14.839844-33.078125-33.078125 0-18.242187 14.839843-33.078125 33.078125-33.078125zm0 0"/><path d="m113.195312 133.660156-1.710937-79.289062c5.394531-1.820313 9.296875-6.917969 9.296875-12.917969v-27.8125c0-7.523437-6.121094-13.640625-13.640625-13.640625h-59.914063c-7.519531 0-13.640624 6.117188-13.640624 13.640625v27.808594c0 6.003906 3.902343 11.101562 9.296874 12.917969l-1.710937 79.292968c-.40625 18.851563-7.050781 37.390625-18.71875 52.199219-14.15625 17.980469-21.953125 40.484375-21.953125 63.367187v236.71875c0 14.367188 11.6875 26.054688 26.054688 26.054688h101.257812c14.367188 0 26.054688-11.6875 26.054688-26.054688v-236.71875c0-22.882812-7.796876-45.386718-21.953126-63.367187-11.667968-14.808594-18.3125-33.347656-18.71875-52.199219zm-64.609374-118.660156h57.195312v25.09375h-57.195312zm48.59375 71.664062h-39.992188l.683594-31.574218h38.628906zm41.691406 399.28125c0 6.09375-4.960938 11.054688-11.058594 11.054688h-101.257812c-6.097657 0-11.054688-4.960938-11.054688-11.054688v-68.082031h123.371094zm0-219.335937h-72.957032c-4.144531 0-7.5 3.355469-7.5 7.496094s3.355469 7.5 7.5 7.5h72.957032v121.261719h-123.371094v-121.261719h15.519531c4.140625 0 7.496094-3.359375 7.496094-7.5s-3.355469-7.496094-7.496094-7.496094h-15.519531v-17.382813c0-19.53125 6.652344-38.742187 18.738281-54.085937 13.667969-17.355469 21.453125-39.074219 21.929688-61.15625l.699219-32.320313h40.636718l.695313 32.320313c.476562 22.082031 8.265625 43.800781 21.929687 61.15625 12.085938 15.347656 18.742188 34.554687 18.742188 54.085937zm0 0"/><path d="m317.011719 158.773438c0-9.125-4.835938-17.289063-12.269531-21.492188-1.585938-11.894531-11.414063-21.082031-23.269532-21.082031-3.867187 0-7.640625.992187-11 2.851562-.765625-.296875-1.546875-.546875-2.339844-.757812-1.644531-11.820313-11.441406-20.933594-23.246093-20.933594-7.648438 0-14.683594 3.890625-19.03125 10.136719-.640625-.054688-1.28125-.082032-1.929688-.082032-10.769531 0-19.972656 7.628907-22.683593 18.082032-3.996094 2.195312-7.289063 5.542968-9.5 9.652344-10.058594 2.808593-17.378907 12.371093-17.378907 23.722656.007813 1.855468.402344 3.683594 1.128907 5.382812-.003907.148438-.023438.292969-.023438.445313v14.988281c0 41.261719 4.6875 82.574219 13.929688 122.78125l1.199218 5.234375c11.042969 48.042969 15.964844 84.871094 15.964844 119.421875v39.128906c0 .597656-.113281 1.175782-.328125 1.714844-.035156.070312-.082031.132812-.113281.207031-.378906.820313-.957032 1.5-1.671875 1.964844l-12.726563 8.246094c-4.390625 2.847656-7.011718 7.671875-7.011718 12.902343v5.332032c0 .414062.023437.84375.0625 1.277344.019531.222656.042968.4375.070312.65625.007812.0625.011719.121093.019531.183593.019531.125.046875.242188.066407.367188.042968.261719.082031.527343.136718.785156.082032.386719.179688.765625.289063 1.132813.003906.015624.011719.027343.015625.042968.101562.339844.226562.667969.351562 1 .054688.132813.097656.273438.152344.40625.140625.347656.304688.683594.472656 1.015625.054688.105469.101563.214844.15625.320313.183594.347656.386719.683594.597656 1.011718.054688.085938.101563.175782.15625.257813.210938.320313.441407.621094.671876.925781.074218.089844.136718.1875.210937.277344.210937.261719.4375.507812.667969.753906.113281.125.21875.25.332031.367188.191406.191406.394531.371094.59375.550781.171875.160156.339844.324219.515625.472656.152344.128907.316406.242188.472656.363281.242188.1875.480469.375.730469.546876.128906.085937.261719.160156.390625.242187.257812.164063.507812.335937.773438.480469.011718.007812.023437.015625.035156.023437.03125.015625.0625.035157.09375.050781.230468.125.46875.238282.769531.382813.191406.09375.386719.183594.566406.261719.21875.089844.441407.175781.679688.261718.25.09375.5.183594.753906.265626.25.074218.507813.140624.734375.195312.25.070312.5.132812.726562.179688.011719 0 .023438.003906.039063.003906.257813.054687.523437.097656.84375.140625.214844.035156.425781.066406.644531.089843.019532 0 .042969 0 .0625.003907.253906.023437.515625.039062.800782.050781.226562.015625.453124.023438.683593.023438.011719 0 .023438.003906.035157.003906h91.203124c.011719 0 .023438-.003906.035157-.003906.230469 0 .457031-.007813.710937-.023438.25-.011719.5-.027344.753906-.050781.03125-.003907.0625-.003907.097657-.007813.222656-.023437.445312-.054687.640625-.089844.292968-.039062.582031-.082031.835937-.136718h.003907c.035156-.007813.070312-.019532.105468-.027344.195313-.039062.386719-.085938.5625-.132812.277344-.066407.550782-.136719.835938-.226563.167968-.050781.335937-.109375.507812-.175781.304688-.105469.609375-.214844.875-.332032.132813-.054687.261719-.109374.386719-.171874.117187-.054688.226563-.121094.34375-.179688.304687-.148438.605469-.300781.898437-.464844.199219-.113281.390626-.234375.585938-.355468.234375-.148438.464844-.300782.691406-.460938.21875-.15625.433594-.316406.640625-.480469.1875-.144531.367188-.296875.542969-.449219.222656-.191406.4375-.386718.648438-.589843.152343-.148438.296874-.304688.445312-.457031.207031-.21875.414062-.441407.609375-.671876.140625-.164062.265625-.335937.398437-.507812.179688-.234375.363282-.464844.53125-.710938.148438-.21875.28125-.445312.417969-.671874.128907-.207032.265625-.414063.382813-.628907.507812-.921875.917968-1.898437 1.226562-2.917969.003906-.015624.011719-.03125.015625-.046874.109375-.367188.207031-.75.289063-1.144532.054687-.25.09375-.503906.136718-.757812.019532-.132813.050782-.261719.066407-.398438.011719-.066406.015625-.125.023437-.191406.023438-.210938.050782-.421875.066406-.636719.039063-.4375.066407-.863281.066407-1.277343v-5.328126c0-5.230468-2.621094-10.050781-7.003907-12.894531-.003906-.003906-.007812-.007812-.011718-.007812l-4.703125-3.050781-8.019531-5.199219c-.019532-.011719-.039063-.035157-.058594-.046875-.242188-.179688-.652344-.601563-1.066406-1.246094-.011719-.023438-.023438-.042969-.039063-.066406-.121094-.199219-.242187-.417969-.359375-.652344-.347656-.6875-.589844-1.394531-.589844-1.875v-39.128906c0-34.546875 4.921875-71.375 15.964844-119.421875l1.203125-5.234375c9.238281-40.210938 13.925781-81.523438 13.925781-122.78125v-14.988282c0-.152343-.019531-.296874-.023437-.445312.714843-1.683594 1.113281-3.496094 1.125-5.339844 0-.046875 0-.097656 0-.136718zm-119.570313-9.453126c3.136719-.167968 5.832032-2.269531 6.761719-5.269531.925781-3 3.125-5.273437 5.875-6.078125 3.03125-.890625 5.179687-3.585937 5.371094-6.742187.300781-4.945313 4.023437-8.816407 8.476562-8.816407 1.023438 0 2.027344.207032 2.988281.609376 1.917969.8125 4.089844.785156 5.988282-.066407 1.898437-.855469 3.359375-2.460937 4.027344-4.433593 1.234374-3.628907 4.503906-6.164063 7.957031-6.164063 4.683593 0 8.492187 4.246094 8.492187 9.464844 0 .65625-.0625 1.304687-.179687 1.929687-.445313 2.351563.253906 4.769532 1.886719 6.515625 1.632812 1.75 4 2.613281 6.371093 2.328125 1.890625-.222656 3.738281.246094 5.332031 1.355469 2.878907 2 6.753907 1.738281 9.339844-.625 1.523438-1.394531 3.371094-2.128906 5.34375-2.128906 4.683594 0 8.496094 4.246093 8.496094 9.460937 0 .324219-.015625.648438-.046875.96875-.335937 3.644532 2.007813 7 5.546875 7.9375 1.867188.496094 3.480469 1.691406 4.640625 3.289063h-108.882813c1.472657-2.042969 3.6875-3.398438 6.214844-3.535157zm90.742188 339.511719 3.3125 2.144531c.054687.035157.09375.082032.125.136719 0 0 .046875.179688.046875.179688v5.28125l-.011719.109375c-.003906.019531-.007812.042968-.011719.0625-.015625.035156-.035156.074218-.0625.109375-.003906 0-.003906.003906-.003906.007812-.035156.039063-.078125.070313-.128906.097657l-.308594.039062h-90.898437l-.171876-.011719-.183593-.054687c-.011719-.003906-.019531-.011719-.03125-.019532-.058594-.050781-.109375-.125-.132813-.242187l-.011718-5.378906c0-.128907.0625-.246094.171874-.316407l12.726563-8.25c.394531-.257812.777344-.53125 1.152344-.8125.066406-.050781.128906-.101562.195312-.152343.324219-.25.640625-.511719.949219-.785157.035156-.03125.070312-.0625.105469-.09375.726562-.644531 1.398437-1.335937 2.011719-2.070312h57.492187c.035156.042969.074219.082031.109375.125.246094.300781.5.597656.761719.882812.097656.105469.195312.207032.292969.3125.21875.226563.4375.445313.664062.660157.113281.109375.230469.214843.347656.320312.226563.207031.460938.402344.695313.59375.109375.089844.21875.183594.332031.269531.316406.246094.640625.472657.96875.691407.027344.019531.054688.042969.085938.058593zm12.722656-309.140625c0 4.160156-.058594 8.320313-.15625 12.480469h-65.445312c-4.144532 0-7.5 3.359375-7.5 7.5s3.355468 7.5 7.5 7.5h64.878906c-1.601563 30.9375-5.886719 61.757813-12.820313 91.941406l-1.203125 5.234375c-11.304687 49.191406-16.34375 87.058594-16.34375 122.78125v36.6875h-48.253906v-36.6875c0-35.726562-5.042969-73.59375-16.34375-122.78125l-1.203125-5.234375c-6.9375-30.179687-11.222656-61-12.824219-91.941406h9.21875c4.140625 0 7.5-3.359375 7.5-7.5s-3.359375-7.5-7.5-7.5h-9.78125c-.097656-4.160156-.160156-8.320313-.160156-12.480469v-11.832031h110.4375zm0 0"/></svg>