<svg viewBox="0 -31 511.99978 511" xmlns="http://www.w3.org/2000/svg"><path d="m507.882812 254.828125-45.230468-112.34375c-5.402344-13.425781-15.730469-23.953125-29.082032-29.640625-13.347656-5.6875-28.09375-5.839844-41.519531-.433594l-34.191406 13.765625-7-22.703125 16.519531-42.238281c1.269532-3.253906.855469-6.921875-1.117187-9.804687-1.96875-2.886719-5.230469-4.609376-8.722657-4.609376h-67.652343v-15.046874c0-17.242188-14.03125-31.273438-31.273438-31.273438h-97.925781c-17.246094 0-31.277344 14.03125-31.277344 31.273438v15.046874h-65.386718c-6.964844 0-12.917969 4.507813-14.8125 11.210938-1.894532 6.707031.824218 13.660156 6.761718 17.300781l2.625 1.613281c.109375.066407.21875.128907.332032.191407 16.882812 9.207031 22.273437 21.582031 23.707031 25.921875l-79.546875 257.980468c-2.015625 6.539063-3.0351565 13.195313-3.08593775 19.789063-.11718725 14.511719 4.45312475 28.746094 13.39453175 40.855469 13 17.617187 33.015624 27.71875 54.910156 27.71875h296.75c21.894531 0 41.90625-10.101563 54.910156-27.71875 8.9375-12.109375 13.507812-26.34375 13.394531-40.855469-.050781-6.59375-1.070312-13.25-3.085937-19.785156l-4.273438-13.867188 52.109375-20.976562c13.480469-5.429688 24.027344-15.789063 29.699219-29.171875 5.558594-13.117188 5.582031-28.496094.070312-42.199219zm-363.460937-223.054687c0-8.964844 7.296875-16.261719 16.261719-16.261719h97.925781c8.96875 0 16.265625 7.296875 16.265625 16.261719v15.046874h-130.453125zm-78.128906 32.277343-2.46875-1.511719c-.136719-.085937-.179688-.140624-.183594-.140624-.046875-.125.046875-.457032.148437-.535157 0 0 .0625-.027343.234376-.027343h287l-13.234376 33.839843h-167.488281c-4.148437 0-7.507812 3.359375-7.507812 7.503907 0 4.148437 3.359375 7.507812 7.507812 7.507812h136.042969c-.335938 6.828125-5.980469 12.285156-12.886719 12.285156h-158.441406c-6.910156 0-12.550781-5.457031-12.886719-12.285156h12.621094c4.144531 0 7.503906-3.359375 7.503906-7.507812 0-4.144532-3.359375-7.503907-7.503906-7.503907h-38.882812c-3.179688-7.792969-11.085938-21.484375-29.574219-31.625zm341.597656 348.714844c-10.140625 13.742187-25.753906 21.625-42.832031 21.625h-296.75c-1.066406 0-2.128906-.03125-3.183594-.09375-15.824219-.914063-30.140625-8.648437-39.648438-21.527344-6.972656-9.449219-10.539062-20.550781-10.449218-31.867187.011718-1.46875.109375-2.9375.242187-4.40625.074219-.824219.164063-1.648438.277344-2.472656.398437-2.867188 1.015625-5.726563 1.886719-8.558594l40.867187-132.535156h227.09375c4.144531 0 7.503907-3.359376 7.503907-7.507813 0-4.144531-3.359376-7.507813-7.503907-7.507813h-222.464843l33.0625-107.226562h11.109374c.335938 15.109375 12.726563 27.300781 27.914063 27.300781h158.4375c15.191406 0 27.578125-12.191406 27.917969-27.300781h16.003906l33.0625 107.226562h-50.117188c-4.144531 0-7.507812 3.363282-7.507812 7.507813 0 4.148437 3.363281 7.507813 7.507812 7.507813h54.746094l40.867188 132.535156c1.570312 5.101562 2.367187 10.292968 2.40625 15.4375.089844 11.316406-3.476563 22.417968-10.449219 31.863281zm-35.0625-238.050781 1.050781-.839844c9.960938-7.933594 21-14.367188 32.8125-19.121094l2.070313-.832031c2.347656-.949219 4.933593-.917969 7.28125.078125 2.34375 1 4.15625 2.84375 5.101562 5.195312l45.53125 113.109376c.984375 2.445312.921875 5.117187-.175781 7.523437-1 2.1875-3.03125 4.027344-5.574219 5.050781l-2.796875 1.128906c-14.917968 6.003907-30.433594 10.867188-46.113281 14.453126l-.386719.089843zm121.160156 116.453125c-4.101562 9.683593-11.730469 17.175781-21.480469 21.101562l-50.945312 20.507813-5.5-17.839844c16.210938-3.746094 32.246094-8.792969 47.671875-15.003906l2.796875-1.125c6.164062-2.480469 11.003906-7.007813 13.625-12.738282 2.828125-6.191406 2.988281-13.070312.449219-19.371093l-45.535157-113.109375c-2.441406-6.070313-7.113281-10.832032-13.144531-13.402344-6.035156-2.570312-12.699219-2.636719-18.773437-.195312l-2.066406.832031c-11.765626 4.738281-22.84375 10.96875-32.988282 18.550781l-5.796875-18.804688 35.355469-14.234374c9.707031-3.90625 20.375-3.792969 30.03125.320312 9.660156 4.117188 17.132812 11.730469 21.039062 21.4375l45.230469 112.34375c4.039063 10.042969 4.054688 21.246094.03125 30.730469zm0 0"/></svg>