<svg viewBox="0 0 512 512" xmlns="http://www.w3.org/2000/svg"><path d="m259.855469 99.359375 19.78125-11.851563c3.554687-2.128906 4.710937-6.734374 2.582031-10.289062-2.128906-3.550781-6.734375-4.707031-10.289062-2.578125l-19.785157 11.851563c-3.550781 2.128906-4.707031 6.738281-2.578125 10.289062 1.40625 2.347656 3.890625 3.648438 6.441406 3.648438 1.3125 0 2.640626-.34375 3.847657-1.070313zm0 0"/><path d="m470.472656 185.855469c22.898438 0 41.527344-18.628907 41.527344-41.527344v-102.800781c0-22.898438-18.628906-41.527344-41.527344-41.527344h-428.945312c-22.898438 0-41.527344 18.628906-41.527344 41.527344v102.796875c0 22.898437 18.628906 41.53125 41.527344 41.53125h18.683594l30.066406 258.386719h-66.390625c-13.171875 0-23.886719 10.714843-23.886719 23.886718 0 24.007813 19.53125 43.539063 43.539062 43.539063h424.921876c24.007812 0 43.539062-19.53125 43.539062-43.539063 0-13.171875-10.714844-23.886718-23.886719-23.886718h-66.386719l2.625-22.570313c.480469-4.117187-2.46875-7.839844-6.582031-8.316406-4.113281-.480469-7.835937 2.46875-8.316406 6.582031l-2.828125 24.304688h-92.0625c35.765625-32.375 37.042969-93.324219 36.367188-113.804688-.1875-5.550781-4.679688-9.898438-10.234376-9.898438h-169.390624c-5.550782 0-10.046876 4.347657-10.230469 9.898438-.675781 20.480469.601562 81.425781 36.363281 113.804688h-92.058594l-30.066406-258.386719h18.417969c4.140625 0 7.5-3.359375 7.5-7.5s-3.359375-7.5-7.5-7.5h-52.203125c-14.628906 0-26.527344-11.902344-26.527344-26.527344v-102.800781c0-14.625 11.898438-26.527344 26.527344-26.527344h428.945312c14.625 0 26.527344 11.898438 26.527344 26.527344v102.796875c0 14.628906-11.898438 26.53125-26.527344 26.53125h-341.84375c-4.144531 0-7.5 3.355469-7.5 7.5 0 4.140625 3.355469 7.5 7.5 7.5h50.207032v30.613281c0 19.246094 12.421874 35.636719 29.664062 41.605469v13.652343c0 10.453126 8.507812 18.960938 18.960938 18.960938h5.421874c10.453126 0 18.960938-8.507812 18.960938-18.960938v-11.238281h8.316406v11.238281c0 10.453126 8.503906 18.960938 18.960938 18.960938h5.417968c10.457032 0 18.960938-8.507812 18.960938-18.960938v-13.652343c8.382812-2.902344 15.632812-8.257813 20.859375-15.21875h34.597656c2.730469 4.507812 7.667969 7.539062 13.3125 7.539062h56.910157l-15.664063 134.625c-.480469 4.113281 2.46875 7.835938 6.582031 8.316407.292969.03125.585938.050781.875.050781 3.753906 0 6.996094-2.816407 7.441406-6.632813l15.863282-136.359375h52.15625c8.582031 0 15.566406-6.984375 15.566406-15.570312v-26.441407c0-8.585937-6.984375-15.570312-15.566406-15.570312h-45.453125l.808593-6.957031zm-294.503906 149.683593h160.0625c.25 25.6875-3.855469 89.636719-48.972656 108.703126h-62.117188c-45.121094-19.070313-49.222656-83.015626-48.972656-108.703126zm312.144531 123.703126c4.902344 0 8.886719 3.984374 8.886719 8.886718 0 15.734375-12.804688 28.539063-28.539062 28.539063h-424.921876c-15.734374 0-28.539062-12.804688-28.539062-28.539063 0-4.902344 3.984375-8.886718 8.886719-8.886718zm-251.273437-187.515626c0 2.183594-1.777344 3.960938-3.960938 3.960938h-5.417968c-2.183594 0-3.960938-1.777344-3.960938-3.960938v-11.234374h13.339844zm51.660156 0c0 2.183594-1.777344 3.960938-3.960938 3.960938h-5.417968c-2.183594 0-3.960938-1.777344-3.960938-3.960938v-11.234374h13.339844zm29.667969-55.257812c0 16.003906-13.019531 29.023438-29.023438 29.023438h-66.289062c-16 0-29.019531-13.019532-29.019531-29.023438v-30.613281h124.332031zm38.53125 11.386719h-25.035157c.976563-3.632813 1.503907-7.449219 1.503907-11.386719v-1.113281h23.53125zm2.253906-27.5h-25.789063v-14.5h103.523438l-.808594 6.960937h-63.613281c-5.644531-.003906-10.582031 3.027344-13.3125 7.539063zm137.480469 7.457031c.3125 0 .566406.257812.566406.570312v26.441407c0 .316406-.253906.570312-.566406.570312h-124.164063c-.292969 0-.527343-.226562-.558593-.511719 0 0 0-.003906 0-.007812l-.011719-.171875v-26.316406c0-.003907 0-.003907 0-.007813 0-.3125.253906-.566406.570312-.566406zm0 0"/><path d="m310.574219 92.925781c0-30.089843-24.480469-54.570312-54.574219-54.570312s-54.574219 24.480469-54.574219 54.570312c0 30.09375 24.480469 54.574219 54.574219 54.574219s54.574219-24.480469 54.574219-54.574219zm-94.148438 0c0-21.820312 17.753907-39.570312 39.574219-39.570312s39.574219 17.75 39.574219 39.570312c0 21.820313-17.753907 39.574219-39.574219 39.574219s-39.574219-17.753906-39.574219-39.574219zm0 0"/><path d="m176.34375 110.769531v-35.683593c0-9.371094-7.621094-16.992188-16.988281-16.992188h-106.441407c-9.367187 0-16.988281 7.621094-16.988281 16.992188v35.683593c0 9.371094 7.621094 16.992188 16.988281 16.992188h106.441407c9.367187 0 16.988281-7.621094 16.988281-16.992188zm-125.421875 0v-35.683593c0-1.097657.894531-1.992188 1.992187-1.992188h106.441407c1.097656 0 1.988281.894531 1.988281 1.992188v35.683593c0 1.097657-.890625 1.992188-1.988281 1.992188h-106.441407c-1.097656 0-1.992187-.894531-1.992187-1.992188zm0 0"/><path d="m397.648438 92.925781c0-19.207031-15.625-34.832031-34.832032-34.832031-19.207031 0-34.832031 15.625-34.832031 34.832031s15.625 34.835938 34.832031 34.835938c19.207032 0 34.832032-15.628907 34.832032-34.835938zm-54.667969 0c0-10.933593 8.898437-19.832031 19.835937-19.832031 10.933594 0 19.832032 8.898438 19.832032 19.832031 0 10.9375-8.898438 19.835938-19.832032 19.835938-10.9375 0-19.835937-8.898438-19.835937-19.835938zm0 0"/><path d="m476.078125 92.925781c0-19.207031-15.628906-34.832031-34.835937-34.832031-19.207032 0-34.832032 15.625-34.832032 34.832031s15.625 34.835938 34.832032 34.835938c19.207031 0 34.835937-15.628907 34.835937-34.835938zm-54.667969 0c0-10.933593 8.898438-19.832031 19.832032-19.832031 10.9375 0 19.832031 8.898438 19.832031 19.832031 0 10.9375-8.894531 19.835938-19.832031 19.835938-10.933594 0-19.832032-8.898438-19.832032-19.835938zm0 0"/></svg>