<svg viewBox="-3 0 511 512" xmlns="http://www.w3.org/2000/svg"><path d="m494.089844 267.722656h-4.96875v-54.386718c4.332031-1.71875 7.40625-5.941407 7.40625-10.875v-16.496094c0-6.457032-5.25-11.707032-11.703125-11.707032h-149.433594c-6.457031 0-11.707031 5.25-11.707031 11.707032v16.496094c0 4.933593 3.074218 9.15625 7.40625 10.875v54.382812h-23.347656v-144.875c7.183593-1.664062 13.472656-5.691406 17.992187-11.21875 6.011719 7.359375 15.15625 12.066406 25.382813 12.066406 10.222656 0 19.367187-4.707031 25.378906-12.066406 6.015625 7.359375 15.160156 12.066406 25.382812 12.066406 10.226563 0 19.367188-4.707031 25.382813-12.066406 6.015625 7.359375 15.160156 12.066406 25.382812 12.066406 18.070313 0 32.773438-14.703125 32.773438-32.773437v-13.046875c.003906-.269532-.011719-.539063-.035157-.8125-.007812-.070313-.023437-.140625-.03125-.214844-.023437-.164062-.042968-.332031-.078124-.496094-.03125-.160156-.074219-.3125-.117188-.46875-.019531-.078125-.035156-.15625-.058594-.230468-.085937-.28125-.1875-.554688-.304687-.820313-10.828125-25.777344-45.332031-46.207031-102.5625-60.714844-41.503907-10.519531-79.421875-13.945312-81.015625-14.0859372-.21875-.015625-.433594-.0273438-.652344-.0273438h-.425781c-.214844 0-.433594.0117188-.648438.0273438-1.59375.1406252-39.511719 3.5664062-81.015625 14.0859372-57.234375 14.511719-91.742187 34.9375-102.566406 60.71875-.117188.265625-.21875.535157-.304688.816407-.023437.074218-.039062.152343-.058593.226562-.042969.15625-.085938.3125-.117188.472656-.03125.15625-.050781.316406-.074219.472656-.011718.082032-.027343.160157-.035156.242188-.027344.265625-.039062.535156-.035156.800781v13.054688c0 18.070312 14.703125 32.773437 32.773438 32.773437 10.222656 0 19.367187-4.707031 25.382812-12.066406 6.015625 7.359375 15.160156 12.066406 25.382812 12.066406 10.226563 0 19.367188-4.707031 25.382813-12.066406 6.015625 7.359375 15.15625 12.066406 25.382813 12.066406 10.222656 0 19.367187-4.707031 25.382812-12.066406 4.515625 5.53125 10.804688 9.554688 17.988281 11.21875v144.878906h-186.34375c-6.066406 0-11 4.933594-11 11v16.8125h-13.808593c-.019532-7.542968-6.164063-13.675781-13.710938-13.675781h-53.878906c-7.5625 0-13.714844 6.152344-13.714844 13.714844v14.707031c0 7.5625 6.152344 13.714844 13.714844 13.714844h53.878906c7.546875 0 13.691406-6.132813 13.710938-13.675782h13.808593v126.933594c0 6.066406 4.933594 11.003906 11 11.003906h11.382813c-.738282 3.511719-1.132813 7.152344-1.132813 10.882813 0 29.148437 23.710938 52.859375 52.855469 52.859375 29.148438 0 52.859375-23.710938 52.859375-52.859375 0-3.730469-.394531-7.371094-1.132813-10.882813h151.199219c-.742187 3.511719-1.132812 7.152344-1.132812 10.882813 0 29.148437 23.710937 52.859375 52.855469 52.859375 29.144531 0 52.859374-23.710938 52.859374-52.859375 0-3.730469-.394531-7.371094-1.132812-10.882813h17.996094c6.0625 0 11-4.9375 11-11.003906v-158.53125c0-6.066406-4.9375-11-11-11zm-427.066406 41.492188h-51.738282v-12.570313h51.738282zm271.445312-120.171875h143.273438v10.339843h-.003907c-.003906 0-.003906 0-.007812 0-.003907 0-.007813 0-.011719 0h-85.625c-4.082031 0-7.390625 3.308594-7.390625 7.390626 0 4.082031 3.308594 7.390624 7.390625 7.390624h78.242188v53.554688h-128.464844v-53.554688h15.832031c4.085937 0 7.394531-3.308593 7.394531-7.390624 0-4.082032-3.3125-7.390626-7.394531-7.390626h-23.210937c-.003907 0-.007813 0-.011719 0-.003907 0-.003907 0-.007813 0h-.003906zm30.636719-98.125c0 9.921875-8.070313 17.992187-17.988281 17.992187-9.921876 0-17.992188-8.070312-17.992188-17.992187v-5.730469h35.980469zm50.765625 0c0 9.921875-8.070313 17.992187-17.992188 17.992187-9.917968 0-17.988281-8.070312-17.988281-17.992187v-5.730469h35.980469zm50.765625 0c0 9.921875-8.070313 17.992187-17.992188 17.992187-9.917969 0-17.992187-8.070312-17.992187-17.992187v-5.730469h35.984375zm-304.589844 0c0 9.921875-8.070313 17.992187-17.988281 17.992187-9.921875 0-17.992188-8.070312-17.992188-17.992187v-5.730469h35.980469zm50.765625 0c0 9.921875-8.070312 17.992187-17.992188 17.992187-9.917968 0-17.992187-8.070312-17.992187-17.992187v-5.730469h35.984375zm50.765625 0c0 9.921875-8.070313 17.992187-17.992187 17.992187-9.921876 0-17.992188-8.070312-17.992188-17.992187v-5.730469h35.984375zm-131.773437-20.511719c13.65625-16.621094 43.023437-30.972656 86.128906-41.917969 38.035156-9.660156 74.058594-13.277343 78.417968-13.691406 4.359376.414063 40.382813 4.03125 78.417969 13.691406 43.105469 10.945313 72.472657 25.296875 86.128907 41.917969zm146.554687 20.511719v-5.730469h35.984375v5.730469c0 9.921875-8.074219 17.992187-17.992188 17.992187-9.921874 0-17.992187-8.070312-17.992187-17.992187zm-112.640625 406.300781c-20.992188 0-38.074219-17.082031-38.074219-38.078125 0-20.992187 17.082031-38.074219 38.074219-38.074219 20.996094 0 38.078125 17.082032 38.078125 38.074219 0 20.996094-17.082031 38.078125-38.078125 38.078125zm254.648438 0c-20.996094 0-38.074219-17.082031-38.074219-38.078125 0-20.992187 17.078125-38.074219 38.074219-38.074219 20.996093 0 38.074218 17.082032 38.074218 38.074219 0 20.996094-17.078125 38.078125-38.074218 38.078125zm65.9375-201.683594h-317.238282c-4.082031 0-7.390625 3.3125-7.390625 7.394532 0 4.082031 3.308594 7.390624 7.390625 7.390624h317.242188v123.152344h-19.757813c-9.039062-16.203125-26.347656-27.191406-46.183593-27.191406-19.832032 0-37.140626 10.988281-46.183594 27.191406h-162.277344c-9.042969-16.203125-26.351562-27.191406-46.183594-27.191406-19.835937 0-37.144531 10.988281-46.1875 27.191406h-13.136718v-123.152344h28.277343c4.082031 0 7.390625-3.308593 7.390625-7.390624 0-4.082032-3.308594-7.390626-7.390625-7.390626h-28.277343v-13.035156h379.910156v13.03125zm0 0"/><path d="m424.367188 433.984375c-13.871094 0-25.15625 11.285156-25.15625 25.15625 0 13.875 11.28125 25.160156 25.15625 25.160156 13.871093 0 25.160156-11.285156 25.160156-25.160156 0-13.871094-11.289063-25.15625-25.160156-25.15625zm0 35.535156c-5.722657 0-10.375-4.65625-10.375-10.378906 0-5.71875 4.652343-10.375 10.375-10.375 5.722656 0 10.375 4.65625 10.375 10.375 0 5.722656-4.652344 10.378906-10.375 10.378906zm0 0"/><path d="m169.71875 433.984375c-13.871094 0-25.15625 11.285156-25.15625 25.15625 0 13.875 11.285156 25.160156 25.15625 25.160156 13.875 0 25.160156-11.285156 25.160156-25.160156 0-13.871094-11.285156-25.15625-25.160156-25.15625zm0 35.535156c-5.71875 0-10.375-4.65625-10.375-10.378906 0-5.71875 4.65625-10.375 10.375-10.375 5.722656 0 10.378906 4.65625 10.378906 10.375 0 5.722656-4.65625 10.378906-10.378906 10.378906zm0 0"/></svg>