<svg viewBox="-33 0 512 512.00165" xmlns="http://www.w3.org/2000/svg"><path d="m427.253906 468.699219h-27.625l8.824219-51.179688c0-.003906 0-.003906 0-.007812l5.914063-34.304688 4.175781-24.238281c.710937-4.117188-2.050781-8.035156-6.171875-8.742188-4.117188-.707031-8.035156 2.050782-8.746094 6.171876l-3.09375 17.953124h-41.816406c-8.976563-15.714843-25.890625-26.339843-45.25-26.339843s-36.273438 10.625-45.25 26.339843h-41.816406l-12.582032-72.992187h45.699219c.285156.691406.582031 1.375.894531 2.054687.035156.078126.078125.15625.113282.234376.277343.597656.5625 1.191406.859374 1.777343.058594.109375.117188.21875.175782.332031.28125.542969.566406 1.085938.867187 1.621094.101563.183594.210938.363282.3125.542969.257813.453125.515625.902344.785157 1.347656.175781.289063.359374.570313.539062.855469.203125.320312.402344.640625.609375.953125.277344.425781.566406.84375.859375 1.257813.109375.15625.214844.316406.324219.472656 4.421875 6.222656 10.042969 11.597656 16.535156 15.6875.320313.207031.65625.378906 1 .53125 8.046875 4.855468 17.261719 7.804687 26.90625 8.339844.03125 0 .066406.007812.101563.007812.136718.007812.265624.011719.398437.019531.273437.011719.550781.023438.824219.03125.652344.023438 1.261718.035157 1.84375.035157 8.976562 0 17.65625-2.109376 25.460937-5.921876.332031-.113281.65625-.242187.976563-.40625 10.464844-5.328124 18.984375-13.609374 24.597656-23.746093.0625-.105469.121094-.214844.179688-.324219.273437-.503906.546874-1.015625.808593-1.53125.140625-.277344.277344-.558594.414063-.835938.195312-.398437.390625-.792968.574218-1.195312.300782-.652344.589844-1.3125.871094-1.976562.019532-.054688.046875-.109376.070313-.164063h45.695312l-3.503906 20.328125c-.710937 4.121094 2.050781 8.039062 6.171875 8.746094 4.125.714844 8.035156-2.054688 8.746094-6.171875l3.9375-22.847657c.652344-3.78125-.390625-7.636718-2.863282-10.574218-1.769531-2.09375-4.125-3.539063-6.722656-4.199219l12.226563-40.875c1.371093-4.578125.824219-9.472656-1.5-13.429687-2.207031-3.757813-5.753907-6.347657-9.984375-7.285157l-18.355469-4.078125c-1.226563-.273437-2.453125-.378906-3.667969-.355468.378906-4.074219-.648437-8.148438-2.9375-11.414063-2.527344-3.601563-6.292968-5.933594-10.609375-6.558594l-18.9375-2.742187c-4.515625-.65625-8.914062.679687-12.367187 3.359375-.230469-.285157-.453125-.578125-.703125-.847657-2.984375-3.246093-7.015625-5.09375-11.339844-5.203124l-19.347656-.488282c-4.308594-.109375-8.4375 1.519532-11.617188 4.589844-3.375 3.257812-5.339843 7.894531-5.386719 12.714844l-.046874 4.726562c-1.496094-.378906-3.050782-.546875-4.625-.476562l-5.425782.253906 4.480469-38.648438h3.144531c8.902344 0 16.144532-7.242187 16.144532-16.144531v-23.449219c0-8.90625-7.242188-16.148437-16.144532-16.148437h-15.273437l-3.699219-18.582031c-1.25-6.273438-6.726562-10.824219-13.03125-10.824219h-87.339844v-62.210937c0-.769532.425782-1.464844 1.023438-1.691407l43.550781-16.164062c3.921875-1.453125 5.917969-5.808594 4.464844-9.730469-1.453125-3.917969-5.8125-5.917969-9.730469-4.460938l-43.5625 16.167969c-6.511719 2.425781-10.882812 8.808594-10.882812 15.878907v62.207031h-88.277344c-6.300782 0-11.78125 4.550781-13.03125 10.824219l-3.699219 18.582031h-15.269531c-8.902344 0-16.144532 7.242187-16.144532 16.144531v23.453125c0 8.902344 7.242188 16.144531 16.144532 16.144531h3.144531l33.457031 288.820313h-65.515625c-10.039062 0-18.207031 8.167969-18.207031 18.207031v6.890625c0 10.039063 8.167969 18.203125 18.207031 18.203125h409.046875c10.039063 0 18.207032-8.164062 18.207032-18.203125v-6.890625c0-10.039062-8.167969-18.207031-18.207032-18.207031zm-41.921875-188.214844 10.636719-42.863281c.316406-1.273438 1.421875-2.003906 2.015625-1.871094l18.351563 4.078125c.070312.011719.128906.027344.210937.171875.074219.125.300781.605469.054687 1.421875l-13.398437 44.796875h-19.054687zm-31.480469-17.855469c0-.003906 0-.011718.003907-.019531l7.183593-45.636719c.207032-1.320312 1.183594-2.097656 1.808594-2.097656.03125 0 .066406 0 .097656.007812l18.933594 2.742188c.082032.011719.222656.03125.382813.265625.101562.144531.417969.6875.226562 1.625l-11.917969 57.609375-2.257812 9.09375h-2.355469c-1.667969 0-3.292969.328125-4.792969.933594-3.304687 1.328125-6.023437 3.992187-7.34375 7.433594-.199218.527343-.414062 1.046874-.632812 1.5625-.183594.421874-.375.839843-.570312 1.253906-.035157.078125-.070313.160156-.105469.234375-1.5 3.148437-3.371094 6.0625-5.539063 8.710937zm-34.359374-48.457031c.007812-.78125.292968-1.519531.761718-1.972656.246094-.238281.46875-.351563.71875-.347657l19.347656.488282c.074219.003906.296876.007812.585938.324218.40625.441407.625 1.15625.582031 1.910157l-2.644531 46.039062-9.214844 58.523438c-3.554687 1.445312-7.316406 2.433593-11.195312 2.890625zm78.425781 175.320313-3.300781 19.164062h-29.769532c.015625-.109375.027344-.21875.046875-.328125.046875-.300781.089844-.605469.132813-.90625.070312-.511719.136718-1.019531.195312-1.53125.03125-.304687.0625-.605469.09375-.910156.050782-.546875.089844-1.097657.125-1.648438.015625-.261719.035156-.523437.050782-.789062.035156-.8125.0625-1.628907.0625-2.449219 0-3.386719-.335938-6.722656-.972657-9.992188-.035156-.167968-.058593-.34375-.09375-.511718-.007812-.03125-.011719-.066406-.015625-.097656zm-121.347657 8.683593c.015626-.316406.046876-.628906.070313-.941406.023437-.316406.042969-.636719.074219-.949219.035156-.363281.089844-.71875.136718-1.074218.035157-.265626.0625-.535157.105469-.800782.054688-.347656.121094-.695312.1875-1.039062.050781-.273438.09375-.546875.152344-.820313.066406-.316406.144531-.632812.21875-.945312.070313-.300781.136719-.605469.21875-.90625.070313-.277344.15625-.550781.234375-.828125.097656-.335938.191406-.671875.300781-1.003906.078125-.246094.160157-.484376.242188-.722657.125-.363281.25-.726562.386719-1.085937.085937-.222656.171874-.441406.261718-.660156.144532-.367188.296875-.730469.453125-1.089844 5.714844-13.03125 18.734375-22.160156 33.847657-22.160156 15.121093 0 28.140624 9.132812 33.855468 22.167968.15625.355469.304688.714844.449219 1.078125.085937.21875.175781.441407.261719.667969.136718.355469.261718.71875.386718 1.082031.082032.238281.167969.476563.242188.71875.109375.339844.207031.675781.304688 1.015625.078124.273438.160156.542969.234374.820313.078126.304687.148438.613281.21875.917969.074219.308593.152344.617187.214844.929687.058594.28125.105469.5625.15625.839844.066406.339843.132813.679687.183594 1.023437.042969.269532.074219.546875.109375.820313.046875.347656.097656.699219.132813 1.050781.035156.324219.050781.644531.078124.96875.023438.308594.054688.613281.070313.925781.03125.636719.050781 1.277344.050781 1.917969 0 .609375-.019531 1.214844-.046875 1.816406-.011719.207032-.03125.410156-.042969.617188-.027343.390625-.050781.785156-.089843 1.171875-.023438.253906-.058594.507812-.085938.761719-.042969.335937-.082031.667968-.128906 1-.042969.285156-.089844.566406-.140625.847656-.046875.292968-.097656.589844-.15625.882812-.058594.304688-.125.609375-.195312.914063-.054688.261719-.117188.523437-.179688.78125-.078125.324219-.164062.648437-.253906.972656-.0625.230469-.128906.464844-.199219.699219-.101563.335937-.203125.671875-.3125 1.003906-.074219.21875-.144531.4375-.222656.65625-.113281.328125-.234375.65625-.359375.984375-5.300782 13.917969-18.777344 23.835937-34.535156 23.835937-15.753907 0-29.230469-9.917968-34.53125-23.832031-.125-.332031-.246094-.660156-.359376-.992187-.074218-.214844-.148437-.429688-.21875-.648438-.113281-.335937-.214843-.671875-.316406-1.011718-.066406-.230469-.132812-.460938-.199218-.691407-.085938-.324219-.171876-.652343-.253907-.976562-.0625-.261719-.121093-.519531-.179687-.78125-.066406-.304688-.132813-.609375-.195313-.914063-.054687-.292968-.105469-.589844-.15625-.882812-.046875-.28125-.097656-.566406-.136719-.847656-.050781-.332032-.089843-.664063-.128906-1-.03125-.253907-.0625-.507813-.089844-.761719-.035156-.386719-.0625-.78125-.085937-1.171875-.015625-.207032-.035156-.410156-.042969-.617188-.03125-.601562-.046875-1.207031-.046875-1.816406 0-.640625.015625-1.28125.050781-1.917969zm36.894532 54.003907c20.1875 0 37.714844-11.550782 46.355468-28.382813h32.183594l-7.738281 44.902344h-141.601563l-7.742187-44.902344h32.1875c8.640625 16.832031 26.167969 28.382813 46.355469 28.382813zm-51.003906-62.6875c-.007813.03125-.011719.066406-.015626.097656-.035156.167968-.058593.339844-.09375.507812-.640624 3.273438-.972656 6.609375-.972656 9.996094 0 .820312.023438 1.636719.0625 2.449219.011719.265625.03125.527343.046875.789062.035157.550781.074219 1.101563.128907 1.648438.027343.304687.058593.605469.09375.910156.054687.511719.121093 1.019531.195312 1.53125.042969.300781.082031.605469.128906.90625.019532.109375.03125.21875.050782.328125h-29.769532l-3.304687-19.164062zm-42.03125 39.351562-2.6875 39.855469h-18.726563l3.265625-145.140625zm-17.375-139.683594.089843-3.960937 1.015625 3.152343c-.382812.25-.75.519532-1.105468.808594zm16.324218-2.941406-15.058594-46.738281c-.261718-.816407-.046874-1.296875.023438-1.425781.082031-.148438.136719-.160157.207031-.179688l18.265625-4.460938c.589844-.140624 1.710938.5625 2.054688 1.828126l11.554687 42.71875 1.890625 8.257812zm3.515625-67.945312c-1.21875.007812-2.445312.136718-3.667969.433593l-14.667968 3.582031.953125-42.410156h31.722656l-1.363281 20.230469c-4.21875.757813-7.863282 3.136719-10.273438 6.738281-2.214844 3.304688-3.15625 7.375-2.703125 11.425782zm51.371094 79.019531c-.414063-.890625-.804687-1.792969-1.15625-2.710938-1.921875-5-6.796875-8.363281-12.132813-8.363281h-6.632812l-3.222656-11.917969-13.136719-57.394531c-.214844-.929688.089844-1.484375.1875-1.628906.160156-.238282.296875-.257813.378906-.273438l18.875-3.140625c.617188-.101562 1.699219.664063 1.949219 2.050781l6.460938 36.113282c.003906.007812.003906.011718.003906.019531l8.480468 47.367187c-.019531-.039062-.035156-.082031-.054687-.121093zm1.589844-77.246094-1.578125-8.800781c-1.679688-9.390625-10.359375-15.808594-19.335938-14.316406l-3.722656.617187 1.191406-17.667969h31.082032l-4.566407 39.429688c-1.054687.144531-2.082031.390625-3.070312.738281zm24.523437 13.351563c.226563 0 .476563.101562.726563.332031.480469.445312.78125 1.175781.804687 1.957031l1.691406 54.898438-.296874 30.496093c-3.515626-.859375-6.890626-2.15625-10.054688-3.839843l-12.445312-69.53125-.875-11.160157c-.0625-.75.140624-1.472656.542968-1.921875.28125-.320312.503906-.332031.574219-.335937l5.015625-.230469h.003906zm-253.257812-68.660157c-.554688 0-1.007813-.449219-1.007813-1.003906v-23.449219c0-.554687.453125-1.007812 1.007813-1.007812h40.925781c4.183594 0 7.570313-3.390625 7.570313-7.570313 0-4.179687-3.386719-7.570312-7.570313-7.570312h-10.21875l2.839844-14.265625h187.660156l2.839844 14.265625h-147.898438c-4.179687 0-7.570312 3.390625-7.570312 7.570312 0 4.179688 3.390625 7.570313 7.570312 7.570313h178.609375c.554688 0 1.003906.453125 1.003906 1.007812v23.449219c0 .554687-.449218 1.003906-1.003906 1.003906zm143.246094 15.140625-6.496094 288.820313h-18.742188l-6.5-288.820313zm-40.382813 288.820313h-18.726563l-19.496093-288.820313h31.722656zm-84.480469-288.820313h31.082032l19.496093 288.820313h-17.117187zm364.816406 313.914063c0 1.691406-1.375 3.066406-3.066406 3.066406h-409.046875c-1.691406 0-3.066406-1.375-3.066406-3.066406v-6.886719c0-1.691406 1.375-3.066406 3.066406-3.066406h409.046875c1.691406 0 3.066406 1.375 3.066406 3.066406zm0 0"/></svg>